<svg xmlns="http://www.w3.org/2000/svg" width="202.25" height="202.25" viewBox="0 0 202.25 202.25">
  <g id="vuesax_bold_message-notif" data-name="vuesax/bold/message-notif" transform="translate(-108 -252)" opacity="0.047">
    <g id="message-notif" transform="translate(108 252)">
      <path id="Vector" d="M46.349,23.174A23.174,23.174,0,1,1,23.174,0,23.174,23.174,0,0,1,46.349,23.174Z" transform="translate(145.367 10.534)" fill="#242424"/>
      <path id="Vector-2" data-name="Vector" d="M143.6,51.827a35.615,35.615,0,0,1-26.882-26.882,36.759,36.759,0,0,1-.253-14.832A8.327,8.327,0,0,0,108.288,0H42.135A42.151,42.151,0,0,0,0,42.135V100.7a42.151,42.151,0,0,0,42.135,42.135H54.776a9.368,9.368,0,0,1,6.742,3.371l12.641,16.77c5.562,7.416,14.663,7.416,20.225,0l12.641-16.77a8.421,8.421,0,0,1,6.742-3.371h12.725a42.007,42.007,0,0,0,42.051-42.051V60.254a8.411,8.411,0,0,0-10.113-8.174A38.331,38.331,0,0,1,143.6,51.827ZM50.563,84.271a8.427,8.427,0,1,1,8.427-8.427A8.4,8.4,0,0,1,50.563,84.271Zm33.708,0A8.427,8.427,0,1,1,92.7,75.844,8.4,8.4,0,0,1,84.271,84.271Zm33.708,0a8.427,8.427,0,1,1,8.427-8.427A8.4,8.4,0,0,1,117.979,84.271Z" transform="translate(16.854 16.854)" fill="#242424"/>
      <path id="Vector-3" data-name="Vector" d="M0,0H202.25V202.25H0Z" fill="none" opacity="0"/>
      <path id="Vector-4" data-name="Vector" d="M0,0H202.25V202.25H0Z" transform="translate(202.25 202.25) rotate(180)" fill="none" opacity="0"/>
    </g>
  </g>
</svg>
