<svg xmlns="http://www.w3.org/2000/svg" width="138" height="138" viewBox="0 0 138 138">
  <g id="vuesax_linear_shield-tick" data-name="vuesax/linear/shield-tick" transform="translate(-300 -188)" opacity="0.03">
    <g id="shield-tick" transform="translate(300 188)">
      <path id="Vector" d="M54.157-1A32.384,32.384,0,0,1,64.91.685L64.958.7,93.65,11.455c8.83,3.3,15.75,13.295,15.75,22.749V76.927c0,8.538-5.383,19.25-12.255,24.386L72.417,119.772A30.41,30.41,0,0,1,54.2,125.486a30.421,30.421,0,0,1-18.233-5.725L11.258,101.315C4.383,96.177-1,85.465-1,76.927V34.2c0-9.422,6.92-19.39,15.754-22.693L43.433.706A31.611,31.611,0,0,1,54.157-1Zm6.79,12.48a21.145,21.145,0,0,0-6.79-.98,20.33,20.33,0,0,0-6.685.973l-28.677,10.8C14.447,23.9,10.5,29.586,10.5,34.2V76.927c0,4.953,3.641,12.186,7.64,15.174l24.722,18.456A19.17,19.17,0,0,0,54.2,113.986a19.162,19.162,0,0,0,11.322-3.417L90.263,92.1c4-2.986,7.637-10.219,7.637-15.172V34.2c0-4.649-3.947-10.359-8.281-11.979Z" transform="translate(14.858 6.736)" fill="#242424"/>
      <path id="Vector-2" data-name="Vector" d="M14.007,35.225a5.732,5.732,0,0,1-4.066-1.684L.684,24.283a5.75,5.75,0,0,1,8.132-8.132l5.192,5.192L34.667.684A5.75,5.75,0,1,1,42.8,8.816L18.073,33.541A5.732,5.732,0,0,1,14.007,35.225Z" transform="translate(47.287 48.035)" fill="#242424"/>
      <path id="Vector-3" data-name="Vector" d="M0,0H138V138H0Z" transform="translate(138 138) rotate(180)" fill="none" opacity="0"/>
    </g>
  </g>
</svg>
