<svg xmlns="http://www.w3.org/2000/svg" width="138" height="138" viewBox="0 0 138 138">
  <g id="receipt-item" transform="translate(-300 -188)" opacity="0.028">
    <path id="Vector" d="M16.365-1h.053A28.711,28.711,0,0,1,36.588,7.412l.028.028A28.78,28.78,0,0,1,45,27.75V41.665C45,53.978,36.728,62.25,24.415,62.25H4.75A5.75,5.75,0,0,1-1,56.5V16.308A17.356,17.356,0,0,1,16.365-1Zm12.08,16.532a17.274,17.274,0,0,0-12.1-5.031A5.843,5.843,0,0,0,10.5,16.308V50.75H24.415c5.943,0,9.085-3.142,9.085-9.085V27.75A17.347,17.347,0,0,0,28.445,15.532Z" transform="translate(387.25 194.75)" fill="#242424"/>
    <path id="Vector-2" data-name="Vector" d="M27.75-1h69a5.75,5.75,0,0,1,0,11.5A5.757,5.757,0,0,0,91,16.25V114a11.529,11.529,0,0,1-11.536,11.5,11.406,11.406,0,0,1-6.842-2.279l-9.843-7.368-9.631,9.635a11.546,11.546,0,0,1-16.3,0l-9.557-9.615a.1.1,0,0,0-.06-.03l-9.826,7.356A11.382,11.382,0,0,1,10.5,125.53,11.529,11.529,0,0,1-1,114V27.75C-1,9.479,9.479-1,27.75-1ZM80.485,10.5H27.75c-6.318,0-10.9,1.6-13.617,4.743-2.411,2.792-3.633,7-3.633,12.507V114s0,0,0,0l9.833-7.36a11.414,11.414,0,0,1,6.9-2.3,11.533,11.533,0,0,1,8.2,3.411L45,117.364l.031-.018,9.65-9.654a11.447,11.447,0,0,1,15.01-1.037l9.8,7.335.014-.006V16.25A17.176,17.176,0,0,1,80.485,10.5Z" transform="translate(306.75 194.75)" fill="#242424"/>
    <path id="Vector-3" data-name="Vector" d="M22,10.5H4.75A5.75,5.75,0,0,1,4.75-1H22a5.75,5.75,0,0,1,0,11.5Z" transform="translate(347 258.057)" fill="#242424"/>
    <path id="Vector-4" data-name="Vector" d="M22,10.5H4.75A5.75,5.75,0,0,1,4.75-1H22a5.75,5.75,0,0,1,0,11.5Z" transform="translate(347 235.057)" fill="#242424"/>
    <path id="Vector-5" data-name="Vector" d="M0,0H138V138H0Z" transform="translate(300 188)" fill="none" opacity="0"/>
    <path id="Vector-6" data-name="Vector" d="M4.8,10.5H4.75A5.75,5.75,0,0,1,4.75-1H4.8a5.75,5.75,0,0,1,0,11.5Z" transform="translate(329.725 258)" fill="#242424"/>
    <path id="Vector-7" data-name="Vector" d="M4.8,10.5H4.75A5.75,5.75,0,0,1,4.75-1H4.8a5.75,5.75,0,0,1,0,11.5Z" transform="translate(329.725 235)" fill="#242424"/>
  </g>
</svg>
