<svg id="arrow-down" xmlns="http://www.w3.org/2000/svg" width="24" height="24" viewBox="0 0 24 24">
  <path id="Vector" d="M7.92-.75a2.721,2.721,0,0,0-1.93.8L-.53,6.568a.75.75,0,0,0,0,1.061.75.75,0,0,0,1.061,0l6.52-6.52a1.231,1.231,0,0,1,1.739,0l6.52,6.52A.75.75,0,0,0,16.37,6.568L9.85.048A2.721,2.721,0,0,0,7.92-.75Z" transform="translate(4.08 7.951)" fill="#51459e"/>
  <path id="Vector-2" data-name="Vector" d="M0,24H24V0H0Z" transform="translate(24 24) rotate(180)" fill="none" opacity="0"/>
</svg>
