<svg xmlns="http://www.w3.org/2000/svg" width="48" height="48" viewBox="0 0 48 48">
  <g id="Group_11121" data-name="Group 11121" transform="translate(-1017 -318)">
    <circle id="Ellipse_1417" data-name="Ellipse 1417" cx="24" cy="24" r="24" transform="translate(1017 318)" fill="#51459e"/>
    <g id="vuesax_bold_message-notif" data-name="vuesax/bold/message-notif" transform="translate(917 74)">
      <g id="message-notif" transform="translate(108 252)">
        <path id="Vector" d="M7.333,3.667A3.667,3.667,0,1,1,3.667,0,3.667,3.667,0,0,1,7.333,3.667Z" transform="translate(23 1.667)" fill="#fff"/>
        <path id="Vector-2" data-name="Vector" d="M22.72,8.2a5.635,5.635,0,0,1-4.253-4.253,5.816,5.816,0,0,1-.04-2.347A1.318,1.318,0,0,0,17.133,0H6.667A6.669,6.669,0,0,0,0,6.667v9.267A6.669,6.669,0,0,0,6.667,22.6h2a1.482,1.482,0,0,1,1.067.533l2,2.653a1.9,1.9,0,0,0,3.2,0l2-2.653A1.332,1.332,0,0,1,18,22.6h2.013a6.646,6.646,0,0,0,6.653-6.653V9.533a1.331,1.331,0,0,0-1.6-1.293A6.065,6.065,0,0,1,22.72,8.2ZM8,13.333A1.333,1.333,0,1,1,9.333,12,1.329,1.329,0,0,1,8,13.333Zm5.333,0A1.333,1.333,0,1,1,14.667,12,1.329,1.329,0,0,1,13.333,13.333Zm5.333,0A1.333,1.333,0,1,1,20,12,1.329,1.329,0,0,1,18.667,13.333Z" transform="translate(2.667 2.667)" fill="#fff"/>
        <path id="Vector-3" data-name="Vector" d="M0,0H32V32H0Z" fill="none" opacity="0"/>
        <path id="Vector-4" data-name="Vector" d="M0,0H32V32H0Z" transform="translate(32 32) rotate(180)" fill="none" opacity="0"/>
      </g>
    </g>
  </g>
</svg>
