<svg xmlns="http://www.w3.org/2000/svg" width="32" height="32" viewBox="0 0 32 32">
  <g id="vuesax_linear_filter-search" data-name="vuesax/linear/filter-search" transform="translate(-492 -700)">
    <g id="filter-search" transform="translate(492 700)">
      <g id="Group" transform="translate(3.413 1.68)">
        <path id="Vector" d="M10.417,27.9a3.819,3.819,0,0,1-1.859-.485A3.633,3.633,0,0,1,6.663,24.21V17.077a4.174,4.174,0,0,0-.832-2.167L.747,9.561A5.432,5.432,0,0,1-.75,6.17V3.077A3.722,3.722,0,0,1,2.943-.75H20.73a3.7,3.7,0,0,1,3.693,3.693V5.9a6.053,6.053,0,0,1-1.64,3.8A1,1,0,0,1,21.37,8.29,4.073,4.073,0,0,0,22.423,5.9V2.943A1.7,1.7,0,0,0,20.73,1.25H2.943A1.745,1.745,0,0,0,1.25,3.077V6.17a3.478,3.478,0,0,0,.92,1.986l.018.018,5.12,5.387q.025.027.048.055a6.131,6.131,0,0,1,1.307,3.461V24.21a1.648,1.648,0,0,0,.868,1.461,1.759,1.759,0,0,0,1.772-.014l1.871-1.207.023-.014A2.027,2.027,0,0,0,13.93,23a1,1,0,0,1,2,0,4,4,0,0,1-1.681,3.14l-1.87,1.207-.016.01A3.7,3.7,0,0,1,10.417,27.9Z" transform="translate(0.75 0.75)" fill="#51459e"/>
      </g>
      <g id="Group-2" data-name="Group" transform="translate(16.16 12.493)">
        <path id="Vector-2" data-name="Vector" d="M4.517,9.783A5.267,5.267,0,1,1,9.783,4.517,5.273,5.273,0,0,1,4.517,9.783Zm0-8.533A3.267,3.267,0,1,0,7.783,4.517,3.27,3.27,0,0,0,4.517,1.25Z" transform="translate(0.75 0.75)" fill="#51459e"/>
        <path id="Vector-3" data-name="Vector" d="M1.583,2.583A1,1,0,0,1,.876,2.29L-.457.957A1,1,0,0,1,.957-.457L2.29.876a1,1,0,0,1-.707,1.707Z" transform="translate(8.75 8.75)" fill="#51459e"/>
      </g>
      <path id="Vector-4" data-name="Vector" d="M0,0H32V32H0Z" transform="translate(32 32) rotate(180)" fill="none" opacity="0"/>
    </g>
  </g>
</svg>
