<svg xmlns="http://www.w3.org/2000/svg" width="706" height="641.774" viewBox="0 0 706 641.774">
  <g id="pixeltrue-payment" transform="translate(-313.214 -50.837)">
    <g id="coins_ground" transform="translate(442.554 590.774)">
      <g id="Group_1084" data-name="Group 1084" transform="translate(24.207 94.943)">
        <g id="Group_1083" data-name="Group 1083">
          <path id="Path_602" data-name="Path 602" d="M570.229,1111.8h32.009a.9.9,0,0,0,0-1.8H570.229a.9.9,0,0,0,0,1.8Z" transform="translate(-569.375 -1110)" fill="#161616"/>
        </g>
      </g>
      <g id="Group_1086" data-name="Group 1086" transform="translate(164.845 93.864)">
        <g id="Group_1085" data-name="Group 1085">
          <path id="Path_603" data-name="Path 603" d="M804.9,1110h23.737a.9.9,0,0,0,0-1.8H804.9a.9.9,0,1,0,0,1.8Z" transform="translate(-804 -1108.2)" fill="#161616"/>
        </g>
      </g>
      <g id="Group_1088" data-name="Group 1088" transform="translate(200.136 92.785)">
        <g id="Group_1087" data-name="Group 1087">
          <path id="Path_604" data-name="Path 604" d="M863.729,1108.2h13.787a.9.9,0,0,0,0-1.8H863.729a.9.9,0,0,0,0,1.8Z" transform="translate(-862.875 -1106.4)" fill="#161616"/>
        </g>
      </g>
      <path id="Path_605" data-name="Path 605" d="M689.222,977.4H575.393a7.214,7.214,0,0,1-7.193-7.193v-3.716a7.214,7.214,0,0,1,7.193-7.193H689.222a7.214,7.214,0,0,1,7.193,7.193v3.716A7.214,7.214,0,0,1,689.222,977.4Z" transform="translate(-544.697 -954.689)" fill="none" stroke="#161616" stroke-width="2"/>
      <path id="Path_606" data-name="Path 606" d="M707.822,1009.2H593.993a7.214,7.214,0,0,1-7.193-7.193v-3.716a7.214,7.214,0,0,1,7.193-7.193H707.822a7.214,7.214,0,0,1,7.193,7.193v3.716A7.214,7.214,0,0,1,707.822,1009.2Z" transform="translate(-552.148 -967.427)" fill="none" stroke="#161616" stroke-width="2"/>
      <path id="Path_607" data-name="Path 607" d="M664.022,1040.2H550.193A7.214,7.214,0,0,1,543,1033.01v-3.717a7.214,7.214,0,0,1,7.193-7.193H664.022a7.214,7.214,0,0,1,7.193,7.193v3.717A7.214,7.214,0,0,1,664.022,1040.2Z" transform="translate(-534.602 -979.846)" fill="none" stroke="#161616" stroke-width="2"/>
      <path id="Path_608" data-name="Path 608" d="M687.262,1069.4H573.493a7.214,7.214,0,0,1-7.193-7.193v-3.716a7.214,7.214,0,0,1,7.193-7.193H687.322a7.214,7.214,0,0,1,7.193,7.193v3.716A7.305,7.305,0,0,1,687.262,1069.4Z" transform="translate(-543.936 -991.543)" fill="none" stroke="#161616" stroke-width="2"/>
      <path id="Path_609" data-name="Path 609" d="M707.822,1099.6H593.993a7.214,7.214,0,0,1-7.193-7.193v-3.716a7.214,7.214,0,0,1,7.193-7.193H707.822a7.214,7.214,0,0,1,7.193,7.193v3.716A7.214,7.214,0,0,1,707.822,1099.6Z" transform="translate(-552.148 -1003.64)" fill="none" stroke="#161616" stroke-width="2"/>
      <g id="Group_1090" data-name="Group 1090" transform="translate(111.258 11.729)">
        <g id="Group_1089" data-name="Group 1089">
          <path id="Path_610" data-name="Path 610" d="M714.6,971.849v7.433a.69.69,0,0,0,1.379,0v-7.433a.689.689,0,0,0-1.379,0Z" transform="translate(-714.6 -971.175)" fill="#161616"/>
        </g>
      </g>
      <g id="Group_1092" data-name="Group 1092" transform="translate(115.274 13.093)">
        <g id="Group_1091" data-name="Group 1091">
          <path id="Path_611" data-name="Path 611" d="M721.3,974.079v6.773a.69.69,0,0,0,1.379,0v-6.773a.692.692,0,0,0-1.379,0Z" transform="translate(-721.3 -973.45)" fill="#161616"/>
        </g>
      </g>
      <g id="Group_1094" data-name="Group 1094" transform="translate(128.82 9.376)">
        <g id="Group_1093" data-name="Group 1093">
          <path id="Path_612" data-name="Path 612" d="M743.9,967.879v9.471a.69.69,0,0,0,1.379,0v-9.471a.692.692,0,0,0-1.379,0Z" transform="translate(-743.9 -967.25)" fill="#161616"/>
        </g>
      </g>
      <g id="Group_1096" data-name="Group 1096" transform="translate(131.518 14.771)">
        <g id="Group_1095" data-name="Group 1095">
          <path id="Path_613" data-name="Path 613" d="M748.4,976.879V980.6a.69.69,0,0,0,1.379,0v-3.716a.692.692,0,0,0-1.379,0Z" transform="translate(-748.4 -976.25)" fill="#161616"/>
        </g>
      </g>
      <g id="Group_1098" data-name="Group 1098" transform="translate(38.488 9.092)">
        <g id="Group_1097" data-name="Group 1097">
          <path id="Path_614" data-name="Path 614" d="M593.2,967.449v10.49a.69.69,0,0,0,1.379,0v-10.49a.689.689,0,0,0-1.379,0Z" transform="translate(-593.2 -966.775)" fill="#161616"/>
        </g>
      </g>
      <g id="Group_1100" data-name="Group 1100" transform="translate(32.914 11.774)">
        <g id="Group_1099" data-name="Group 1099">
          <path id="Path_615" data-name="Path 615" d="M583.9,971.879v6.174a.69.69,0,0,0,1.379,0v-6.174a.692.692,0,0,0-1.379,0Z" transform="translate(-583.9 -971.25)" fill="#161616"/>
        </g>
      </g>
      <g id="Group_1102" data-name="Group 1102" transform="translate(55.332 9.511)">
        <g id="Group_1101" data-name="Group 1101">
          <path id="Path_616" data-name="Path 616" d="M621.3,968.149v8.392a.69.69,0,0,0,1.379,0v-8.392a.689.689,0,0,0-1.379,0Z" transform="translate(-621.3 -967.475)" fill="#161616"/>
        </g>
      </g>
      <g id="Group_1104" data-name="Group 1104" transform="translate(49.158 14.427)">
        <g id="Group_1103" data-name="Group 1103">
          <path id="Path_617" data-name="Path 617" d="M611,976.349v5.575a.69.69,0,0,0,1.379,0v-5.575a.689.689,0,0,0-1.379,0Z" transform="translate(-611 -975.675)" fill="#161616"/>
        </g>
      </g>
      <g id="Group_1106" data-name="Group 1106" transform="translate(80.567 9.736)">
        <g id="Group_1105" data-name="Group 1105">
          <path id="Path_618" data-name="Path 618" d="M663.4,968.479v10.909a.69.69,0,0,0,1.379,0V968.479a.692.692,0,0,0-1.379,0Z" transform="translate(-663.4 -967.85)" fill="#161616"/>
        </g>
      </g>
      <g id="Group_1108" data-name="Group 1108" transform="translate(84.703 13.827)">
        <g id="Group_1107" data-name="Group 1107">
          <path id="Path_619" data-name="Path 619" d="M670.3,975.349v5.574a.69.69,0,0,0,1.379,0v-5.574a.69.69,0,0,0-1.379,0Z" transform="translate(-670.3 -974.675)" fill="#161616"/>
        </g>
      </g>
      <g id="Group_1110" data-name="Group 1110" transform="translate(90.817 8.897)">
        <g id="Group_1109" data-name="Group 1109">
          <path id="Path_620" data-name="Path 620" d="M680.5,967.079v10.909a.69.69,0,0,0,1.379,0V967.079a.692.692,0,0,0-1.379,0Z" transform="translate(-680.5 -966.45)" fill="#161616"/>
        </g>
      </g>
      <g id="Group_1112" data-name="Group 1112" transform="translate(50.776 27.179)">
        <g id="Group_1111" data-name="Group 1111">
          <path id="Path_621" data-name="Path 621" d="M613.7,997.579v12.947a.69.69,0,0,0,1.379,0V997.579a.692.692,0,0,0-1.379,0Z" transform="translate(-613.7 -996.95)" fill="#161616"/>
        </g>
      </g>
      <g id="Group_1114" data-name="Group 1114" transform="translate(58.209 31.495)">
        <g id="Group_1113" data-name="Group 1113">
          <path id="Path_622" data-name="Path 622" d="M626.1,1004.779v9.231a.69.69,0,0,0,1.379,0v-9.231c-.06-.839-1.379-.839-1.379,0Z" transform="translate(-626.1 -1004.15)" fill="#161616"/>
        </g>
      </g>
      <g id="Group_1116" data-name="Group 1116" transform="translate(82.246 29.037)">
        <g id="Group_1115" data-name="Group 1115">
          <path id="Path_623" data-name="Path 623" d="M666.2,1000.679v9.231a.69.69,0,0,0,1.379,0v-9.231c-.06-.839-1.379-.839-1.379,0Z" transform="translate(-666.2 -1000.05)" fill="#161616"/>
        </g>
      </g>
      <g id="Group_1118" data-name="Group 1118" transform="translate(97.831 25.741)">
        <g id="Group_1117" data-name="Group 1117">
          <path id="Path_624" data-name="Path 624" d="M692.2,995.179v14.985a.69.69,0,0,0,1.379,0V995.179c-.06-.839-1.379-.839-1.379,0Z" transform="translate(-692.2 -994.55)" fill="#161616"/>
        </g>
      </g>
      <g id="Group_1120" data-name="Group 1120" transform="translate(111.977 31.69)">
        <g id="Group_1119" data-name="Group 1119">
          <path id="Path_625" data-name="Path 625" d="M715.8,1005.149v4.915a.69.69,0,0,0,1.379,0v-4.915a.69.69,0,0,0-1.379,0Z" transform="translate(-715.8 -1004.475)" fill="#161616"/>
        </g>
      </g>
      <g id="Group_1122" data-name="Group 1122" transform="translate(22.424 46.675)">
        <g id="Group_1121" data-name="Group 1121">
          <path id="Path_626" data-name="Path 626" d="M566.4,1030.149v11.928a.69.69,0,0,0,1.379,0v-11.928a.689.689,0,0,0-1.379,0Z" transform="translate(-566.4 -1029.475)" fill="#161616"/>
        </g>
      </g>
      <g id="Group_1124" data-name="Group 1124" transform="translate(54.073 47.095)">
        <g id="Group_1123" data-name="Group 1123">
          <path id="Path_627" data-name="Path 627" d="M619.2,1030.849V1043.2a.69.69,0,0,0,1.379,0v-12.348a.689.689,0,0,0-1.379,0Z" transform="translate(-619.2 -1030.175)" fill="#161616"/>
        </g>
      </g>
      <g id="Group_1126" data-name="Group 1126" transform="translate(40.946 48.114)">
        <g id="Group_1125" data-name="Group 1125">
          <path id="Path_628" data-name="Path 628" d="M597.3,1032.549v8.212a.69.69,0,0,0,1.379,0v-8.212a.689.689,0,0,0-1.379,0Z" transform="translate(-597.3 -1031.875)" fill="#161616"/>
        </g>
      </g>
      <g id="Group_1128" data-name="Group 1128" transform="translate(45.442 45.461)">
        <g id="Group_1127" data-name="Group 1127">
          <path id="Path_629" data-name="Path 629" d="M604.8,1028.079v6.774a.69.69,0,0,0,1.379,0v-6.774a.692.692,0,0,0-1.379,0Z" transform="translate(-604.8 -1027.45)" fill="#161616"/>
        </g>
      </g>
      <g id="Group_1130" data-name="Group 1130" transform="translate(89.019 45.656)">
        <g id="Group_1129" data-name="Group 1129">
          <path id="Path_630" data-name="Path 630" d="M677.5,1028.449v12.528a.69.69,0,0,0,1.379,0v-12.528a.689.689,0,0,0-1.379,0Z" transform="translate(-677.5 -1027.775)" fill="#161616"/>
        </g>
      </g>
      <g id="Group_1132" data-name="Group 1132" transform="translate(77.69 45.461)">
        <g id="Group_1131" data-name="Group 1131">
          <path id="Path_631" data-name="Path 631" d="M658.6,1028.079v3.057a.69.69,0,0,0,1.379,0v-3.057a.692.692,0,0,0-1.379,0Z" transform="translate(-658.6 -1027.45)" fill="#161616"/>
        </g>
      </g>
      <g id="Group_1134" data-name="Group 1134" transform="translate(115.873 41.76)">
        <g id="Group_1133" data-name="Group 1133">
          <path id="Path_632" data-name="Path 632" d="M722.3,1021.949v11.929a.69.69,0,0,0,1.379,0v-11.929a.689.689,0,0,0-1.379,0Z" transform="translate(-722.3 -1021.275)" fill="#161616"/>
        </g>
      </g>
      <g id="Group_1136" data-name="Group 1136" transform="translate(121.867 50.377)">
        <g id="Group_1135" data-name="Group 1135">
          <path id="Path_633" data-name="Path 633" d="M732.3,1036.279v7.193a.69.69,0,0,0,1.379,0v-7.193c-.06-.839-1.379-.839-1.379,0Z" transform="translate(-732.3 -1035.65)" fill="#161616"/>
        </g>
      </g>
      <g id="Group_1138" data-name="Group 1138" transform="translate(100.288 45.461)">
        <g id="Group_1137" data-name="Group 1137">
          <path id="Path_634" data-name="Path 634" d="M696.3,1028.079v10.49a.69.69,0,0,0,1.379,0v-10.49a.692.692,0,0,0-1.379,0Z" transform="translate(-696.3 -1027.45)" fill="#161616"/>
        </g>
      </g>
      <g id="Group_1140" data-name="Group 1140" transform="translate(33.933 61.061)">
        <g id="Group_1139" data-name="Group 1139">
          <path id="Path_635" data-name="Path 635" d="M585.6,1054.149v13.367a.69.69,0,0,0,1.379,0v-13.367a.689.689,0,0,0-1.379,0Z" transform="translate(-585.6 -1053.475)" fill="#161616"/>
        </g>
      </g>
      <g id="Group_1142" data-name="Group 1142" transform="translate(42.984 63.481)">
        <g id="Group_1141" data-name="Group 1141">
          <path id="Path_636" data-name="Path 636" d="M602.079,1071.531v-13.367a.69.69,0,0,0-1.379,0v13.367a.689.689,0,0,0,1.379,0Z" transform="translate(-600.7 -1057.512)" fill="#161616"/>
        </g>
      </g>
      <g id="Group_1144" data-name="Group 1144" transform="translate(47.3 71.333)">
        <g id="Group_1143" data-name="Group 1143">
          <path id="Path_637" data-name="Path 637" d="M609.279,1076.419v-5.155a.69.69,0,0,0-1.379,0v5.155a.692.692,0,0,0,1.379,0Z" transform="translate(-607.9 -1070.612)" fill="#161616"/>
        </g>
      </g>
      <g id="Group_1146" data-name="Group 1146" transform="translate(58.209 60.042)">
        <g id="Group_1145" data-name="Group 1145">
          <path id="Path_638" data-name="Path 638" d="M626.1,1052.449v13.966a.69.69,0,0,0,1.379,0v-13.966a.689.689,0,0,0-1.379,0Z" transform="translate(-626.1 -1051.775)" fill="#161616"/>
        </g>
      </g>
      <g id="Group_1148" data-name="Group 1148" transform="translate(61.686 66.621)">
        <g id="Group_1147" data-name="Group 1147">
          <path id="Path_639" data-name="Path 639" d="M631.9,1063.379v6.594a.69.69,0,0,0,1.379,0v-6.594c-.06-.839-1.379-.839-1.379,0Z" transform="translate(-631.9 -1062.75)" fill="#161616"/>
        </g>
      </g>
      <g id="Group_1150" data-name="Group 1150" transform="translate(66.421 64.163)">
        <g id="Group_1149" data-name="Group 1149">
          <path id="Path_640" data-name="Path 640" d="M639.8,1059.279v7.193a.69.69,0,0,0,1.379,0v-7.193c-.06-.839-1.379-.839-1.379,0Z" transform="translate(-639.8 -1058.65)" fill="#161616"/>
        </g>
      </g>
      <g id="Group_1152" data-name="Group 1152" transform="translate(81.826 60.042)">
        <g id="Group_1151" data-name="Group 1151">
          <path id="Path_641" data-name="Path 641" d="M665.5,1052.449v14.566a.69.69,0,0,0,1.379,0v-14.566a.689.689,0,0,0-1.379,0Z" transform="translate(-665.5 -1051.775)" fill="#161616"/>
        </g>
      </g>
      <g id="Group_1154" data-name="Group 1154" transform="translate(97.411 65.377)">
        <g id="Group_1153" data-name="Group 1153">
          <path id="Path_642" data-name="Path 642" d="M691.5,1061.349v8.032a.69.69,0,0,0,1.379,0v-8.032a.689.689,0,0,0-1.379,0Z" transform="translate(-691.5 -1060.675)" fill="#161616"/>
        </g>
      </g>
      <g id="Group_1156" data-name="Group 1156" transform="translate(118.75 59.623)">
        <g id="Group_1155" data-name="Group 1155">
          <path id="Path_643" data-name="Path 643" d="M727.1,1051.749v15.405a.69.69,0,0,0,1.379,0v-15.405a.689.689,0,0,0-1.379,0Z" transform="translate(-727.1 -1051.075)" fill="#161616"/>
        </g>
      </g>
      <g id="Group_1158" data-name="Group 1158" transform="translate(125.344 67.22)">
        <g id="Group_1157" data-name="Group 1157">
          <path id="Path_644" data-name="Path 644" d="M738.1,1064.379v7.373a.69.69,0,0,0,1.379,0v-7.373a.692.692,0,0,0-1.379,0Z" transform="translate(-738.1 -1063.75)" fill="#161616"/>
        </g>
      </g>
      <g id="Group_1160" data-name="Group 1160" transform="translate(136.673 60.447)">
        <g id="Group_1159" data-name="Group 1159">
          <path id="Path_645" data-name="Path 645" d="M757,1053.079v11.509a.69.69,0,0,0,1.379,0v-11.509c-.06-.839-1.379-.839-1.379,0Z" transform="translate(-757 -1052.45)" fill="#161616"/>
        </g>
      </g>
      <g id="Group_1162" data-name="Group 1162" transform="translate(49.338 81.404)">
        <g id="Group_1161" data-name="Group 1161">
          <path id="Path_646" data-name="Path 646" d="M612.679,1101.431v-13.367a.69.69,0,0,0-1.379,0v13.367a.692.692,0,0,0,1.379,0Z" transform="translate(-611.3 -1087.412)" fill="#161616"/>
        </g>
      </g>
      <g id="Group_1164" data-name="Group 1164" transform="translate(54.253 87.757)">
        <g id="Group_1163" data-name="Group 1163">
          <path id="Path_647" data-name="Path 647" d="M620.879,1105.438v-6.774a.69.69,0,0,0-1.379,0v6.774a.689.689,0,0,0,1.379,0Z" transform="translate(-619.5 -1098.012)" fill="#161616"/>
        </g>
      </g>
      <g id="Group_1166" data-name="Group 1166" transform="translate(69.478 78.924)">
        <g id="Group_1165" data-name="Group 1165">
          <path id="Path_648" data-name="Path 648" d="M644.9,1083.949v15.405a.69.69,0,0,0,1.379,0v-15.405a.689.689,0,0,0-1.379,0Z" transform="translate(-644.9 -1083.275)" fill="#161616"/>
        </g>
      </g>
      <g id="Group_1168" data-name="Group 1168" transform="translate(81.826 81.381)">
        <g id="Group_1167" data-name="Group 1167">
          <path id="Path_649" data-name="Path 649" d="M665.5,1088.049v9.471a.69.69,0,0,0,1.379,0v-9.471a.689.689,0,0,0-1.379,0Z" transform="translate(-665.5 -1087.375)" fill="#161616"/>
        </g>
      </g>
      <g id="Group_1170" data-name="Group 1170" transform="translate(77.51 83.24)">
        <g id="Group_1169" data-name="Group 1169">
          <path id="Path_650" data-name="Path 650" d="M658.3,1091.149v3.716a.69.69,0,0,0,1.379,0v-3.716a.689.689,0,0,0-1.379,0Z" transform="translate(-658.3 -1090.475)" fill="#161616"/>
        </g>
      </g>
      <g id="Group_1172" data-name="Group 1172" transform="translate(104.184 77.485)">
        <g id="Group_1171" data-name="Group 1171">
          <path id="Path_651" data-name="Path 651" d="M702.8,1081.549v16a.69.69,0,0,0,1.379,0v-16a.69.69,0,0,0-1.379,0Z" transform="translate(-702.8 -1080.875)" fill="#161616"/>
        </g>
      </g>
      <g id="Group_1174" data-name="Group 1174" transform="translate(109.339 84.483)">
        <g id="Group_1173" data-name="Group 1173">
          <path id="Path_652" data-name="Path 652" d="M711.4,1093.179v7.193a.69.69,0,0,0,1.379,0v-7.193c-.06-.839-1.379-.839-1.379,0Z" transform="translate(-711.4 -1092.55)" fill="#161616"/>
        </g>
      </g>
      <g id="Group_1176" data-name="Group 1176" transform="translate(122.467 78.309)">
        <g id="Group_1175" data-name="Group 1175">
          <path id="Path_653" data-name="Path 653" d="M733.3,1082.879v14.985a.69.69,0,0,0,1.379,0v-14.985a.692.692,0,0,0-1.379,0Z" transform="translate(-733.3 -1082.25)" fill="#161616"/>
        </g>
      </g>
      <g id="Group_1178" data-name="Group 1178" transform="translate(146.323 79.568)">
        <g id="Group_1177" data-name="Group 1177">
          <path id="Path_654" data-name="Path 654" d="M773.1,1084.979v12.947a.69.69,0,0,0,1.379,0v-12.947c-.06-.839-1.379-.839-1.379,0Z" transform="translate(-773.1 -1084.35)" fill="#161616"/>
        </g>
      </g>
      <g id="Group_1180" data-name="Group 1180" transform="translate(149.98 85.098)">
        <g id="Group_1179" data-name="Group 1179">
          <path id="Path_655" data-name="Path 655" d="M779.2,1094.249v6.174a.69.69,0,0,0,1.379,0v-6.174a.689.689,0,0,0-1.379,0Z" transform="translate(-779.2 -1093.575)" fill="#161616"/>
        </g>
      </g>
      <g id="Group_1182" data-name="Group 1182" transform="translate(133.256 30.154)">
        <g id="Group_1181" data-name="Group 1181">
          <path id="Path_656" data-name="Path 656" d="M752.679,1012.155v-9.591a.69.69,0,0,0-1.379,0v9.591c.06.839,1.379.9,1.379,0Z" transform="translate(-751.3 -1001.912)" fill="#161616"/>
        </g>
      </g>
      <g id="Group_1184" data-name="Group 1184" transform="translate(142.907 26.257)">
        <g id="Group_1183" data-name="Group 1183">
          <path id="Path_657" data-name="Path 657" d="M767.4,996.064v12.888a.69.69,0,0,0,1.379,0V996.064c-.06-.839-1.379-.9-1.379,0Z" transform="translate(-767.4 -995.412)" fill="#161616"/>
        </g>
      </g>
      <g id="Group_1186" data-name="Group 1186" transform="translate(148.805 0)">
        <g id="Group_1185" data-name="Group 1185">
          <path id="Path_658" data-name="Path 658" d="M777.576,952.862a9.76,9.76,0,0,1,4.8,9.291c-.06.839,1.259.839,1.379,0a10.933,10.933,0,0,0-5.455-10.43.674.674,0,1,0-.719,1.139Z" transform="translate(-777.24 -951.607)" fill="#161616"/>
        </g>
      </g>
      <g id="Group_1188" data-name="Group 1188" transform="translate(10.398 45.454)">
        <g id="Group_1187" data-name="Group 1187">
          <path id="Path_659" data-name="Path 659" d="M547.813,1027.775a9.766,9.766,0,0,0-.839,8.632c.3.779,1.618.48,1.319-.359a8.558,8.558,0,0,1,.719-7.613.685.685,0,0,0-1.2-.66Z" transform="translate(-546.337 -1027.437)" fill="#161616"/>
        </g>
      </g>
      <g id="Group_1190" data-name="Group 1190" transform="translate(0 38.795)">
        <g id="Group_1189" data-name="Group 1189">
          <path id="Path_660" data-name="Path 660" d="M534.091,1016.551a23.215,23.215,0,0,0-5.1,15.165.69.69,0,0,0,1.379,0,22.023,22.023,0,0,1,4.735-14.266c.48-.6-.479-1.559-1.019-.9Z" transform="translate(-528.99 -1016.329)" fill="#161616"/>
        </g>
      </g>
      <g id="Group_1192" data-name="Group 1192" transform="translate(148.206 56.909)">
        <g id="Group_1191" data-name="Group 1191">
          <path id="Path_661" data-name="Path 661" d="M776.576,1047.778a7.17,7.17,0,0,1,3.9,6.414.69.69,0,0,0,1.379,0,8.455,8.455,0,0,0-4.556-7.553c-.779-.419-1.5.719-.719,1.139Z" transform="translate(-776.24 -1046.547)" fill="#161616"/>
        </g>
      </g>
      <path id="Path_662" data-name="Path 662" d="M667.332,960.489c3.656-.479,12.228-1.079,20.38,3.836a27.961,27.961,0,0,1,5.634,4.436c-.18,2.757-.42,5.515-.6,8.272-8.811.36-17.563.719-26.374,1.019,1.2.06,10.79.6,16,8.392a17.881,17.881,0,0,1,2.937,8.871,23.586,23.586,0,0,1-4.735,11.209,24.125,24.125,0,0,1-11.509,7.972,14.372,14.372,0,0,1,7.073,8.572,14.1,14.1,0,0,1,0,7.373q-8.721,9.441-17.443,18.942l80.082.9a9.875,9.875,0,0,0,4.136-4.136,10.671,10.671,0,0,0-1.2-11.209c-4.2-5.335-13.727-3.477-14.806-3.237.3-.18,5.155-3.836,4.735-9.77a11.112,11.112,0,0,0-3.836-7.373c-4.256-.3-8.452-.6-12.708-.9a11.2,11.2,0,0,0,2.937-8.871,10.944,10.944,0,0,0-6.773-8.572c5.694-.06,10.61-.18,14.506-.3,11.329-.3,13.907-.479,15.945-2.637,2.757-3,3.656-8.811.9-12.408a8.552,8.552,0,0,0-4.735-2.937c-4.436-.18-8.871-.42-13.307-.6A8.7,8.7,0,0,0,730.81,975c2.338-2.4,2.158-5.575,2.1-7.073-.06-.959-.42-4.915-3.237-7.373-2.937-2.578-6.714-1.858-13.607-1.5-5.395.3-10.849-.24-16.244,0C688.551,959.53,677.162,960.07,667.332,960.489Z" transform="translate(-580.95 -954.44)" fill="#3d3d3d" opacity="0.15"/>
    </g>
    <g id="ground" transform="translate(313.214 569.25)">
      <g id="Group_1194" data-name="Group 1194" transform="translate(298.007 99.743)">
        <g id="Group_1193" data-name="Group 1193">
          <path id="Path_663" data-name="Path 663" d="M811.229,1083.9H970.494a.9.9,0,0,0,0-1.8H811.229a.9.9,0,0,0,0,1.8Z" transform="translate(-810.375 -1082.1)" fill="#e8e8e8"/>
        </g>
      </g>
      <g id="Group_1196" data-name="Group 1196" transform="translate(473.996 99.325)">
        <g id="Group_1195" data-name="Group 1195">
          <path id="Path_664" data-name="Path 664" d="M1104.829,1085.117c27.693-2.158,55.326-2.757,83.079-.42,1.139.12,1.139-1.678,0-1.8-27.753-2.338-55.326-1.738-83.079.42-1.139.06-1.139,1.858,0,1.8Z" transform="translate(-1103.975 -1081.402)" fill="#e8e8e8"/>
        </g>
      </g>
      <g id="Group_1198" data-name="Group 1198" transform="translate(549.043 107.009)">
        <g id="Group_1197" data-name="Group 1197">
          <path id="Path_665" data-name="Path 665" d="M1230.029,1099.723c14.926,1.319,29.731-2.4,44.6-3.357a191.822,191.822,0,0,1,45.736,2.7c1.139.18,1.618-1.558.479-1.738a195.763,195.763,0,0,0-45.076-2.817c-15.225.839-30.45,4.8-45.735,3.417-1.139-.12-1.139,1.678,0,1.8Z" transform="translate(-1229.175 -1094.221)" fill="#e8e8e8"/>
        </g>
      </g>
      <g id="Group_1200" data-name="Group 1200" transform="translate(515.16 22.491)">
        <g id="Group_1199" data-name="Group 1199">
          <path id="Path_666" data-name="Path 666" d="M1216.737,1031.133a118.417,118.417,0,0,1-17.2-16.124c-1.139-1.318-2.218-2.637-3.3-3.956a17.65,17.65,0,0,1-2.158-3.057c-.719-1.439-.42-2.458-.42-4.076,0-2.817-1.618-2.7-3.477-4.615-2.817-2.937-3.237-7.193-4.076-10.969a40.84,40.84,0,0,0-3.836-9.83c-3.776-7.613-5.515-16.3-7.792-24.456-.18.36-.42.719-.6,1.079,7.912-1.079,16.484,4.855,22.778,9.171a97.653,97.653,0,0,1,9.231,7.193c2.937,2.637,7.433,6.354,5.814,10.789a.889.889,0,0,0,.839,1.139c4.915.18,8.632,5.1,11.269,8.751a48.563,48.563,0,0,1,6.234,11.329,49.23,49.23,0,0,1,2.7,25.475c-.18,1.139,1.558,1.618,1.738.48a50.829,50.829,0,0,0-3.536-28.412,52.361,52.361,0,0,0-7.493-12.228c-2.817-3.417-6.234-7.073-10.969-7.253a13.8,13.8,0,0,1,.839,1.139c1.379-3.717-.779-7.133-3.3-9.771a71.239,71.239,0,0,0-10.849-9.051c-7.073-5.035-16.724-11.809-25.895-10.49a.858.858,0,0,0-.6,1.079c2.338,8.332,4.076,17.083,7.972,24.876a51.473,51.473,0,0,1,4.256,12.168c.659,3.237,1.618,6.594,4.016,9.051,1.019,1.079,2.817,1.678,3,3.237.12,1.439-.36,2.458.18,4.016,1.139,3.177,4.076,6.054,6.234,8.512a123.161,123.161,0,0,0,17.563,16.424c.839.6,1.738-.959.839-1.619Z" transform="translate(-1172.649 -953.222)" fill="#e8e8e8"/>
        </g>
      </g>
      <g id="Group_1202" data-name="Group 1202" transform="translate(567.677)">
        <g id="Group_1201" data-name="Group 1201">
          <path id="Path_667" data-name="Path 667" d="M1262.083,976.6c2.1-7.732,8.332-14.446,13.247-20.56,1.319-1.619,2.578-3.177,3.9-4.735,1.079-1.319,2.457-3.776,4.316-4.076.779-.12,1.139.36,1.978-.18a5.956,5.956,0,0,0,1.738-2.458c3.6-6.534,9.351-11.269,15.4-15.525,4.735-3.357,9.411-6.714,11.749-12.228-.6-.18-1.139-.3-1.738-.48a63.32,63.32,0,0,0-.9,27.453c1.618,9.651,1.978,19-.66,28.592-5.035,18.282-18.881,30.57-32.968,42.2-.9.719.36,1.978,1.259,1.259,13.787-11.389,27.393-23.437,32.848-41.06a60.375,60.375,0,0,0,2.1-25.955c-.719-5.155-1.858-10.19-2.038-15.465a55.342,55.342,0,0,1,2.038-16.6c.3-1.139-1.319-1.5-1.738-.479-2.757,6.594-9.531,9.95-14.925,14.086a56.657,56.657,0,0,0-7.673,7.013,32.967,32.967,0,0,0-2.817,3.656c-.659,1.019-1.678,3.776-2.757,4.136-.719.24-1.5-.18-2.338.18-1.2.479-1.978,1.918-2.757,2.817-2.637,3.177-5.275,6.294-7.792,9.531-4.376,5.515-9.351,11.389-11.269,18.282-.24,1.259,1.5,1.738,1.8.6Z" transform="translate(-1260.262 -915.7)" fill="#e8e8e8"/>
        </g>
      </g>
      <g id="Group_1204" data-name="Group 1204" transform="translate(523.411 31.943)">
        <g id="Group_1203" data-name="Group 1203">
          <path id="Path_668" data-name="Path 668" d="M1186.825,970.674c5.395,3.836,9.471,8.991,13.487,14.206,4.256,5.395,8.452,10.849,12.408,16.484,7.612,10.789,14.266,22.358,17.8,35.186a.9.9,0,0,0,1.738-.48c-3.656-13.307-10.609-25.3-18.582-36.445-3.9-5.455-7.972-10.73-12.108-16-4.136-5.335-8.332-10.55-13.906-14.446-.9-.719-1.8.839-.839,1.5Z" transform="translate(-1186.413 -968.99)" fill="#e8e8e8"/>
        </g>
      </g>
      <g id="Group_1206" data-name="Group 1206" transform="translate(575.888 15.576)">
        <g id="Group_1205" data-name="Group 1205">
          <path id="Path_669" data-name="Path 669" d="M1311.807,942.294c-9.531,25.056-31.529,43.757-37.823,70.252a.9.9,0,0,0,1.738.479c6.234-26.494,28.292-45.2,37.823-70.252.42-1.079-1.319-1.558-1.738-.48Z" transform="translate(-1273.961 -941.685)" fill="#e8e8e8"/>
        </g>
      </g>
      <g id="Group_1208" data-name="Group 1208" transform="translate(597.336 19.586)">
        <g id="Group_1207" data-name="Group 1207">
          <path id="Path_670" data-name="Path 670" d="M1311.4,949.229a71.269,71.269,0,0,1-1.618,24.7.9.9,0,0,0,1.738.48,74.157,74.157,0,0,0,1.679-25.176c-.12-1.139-1.918-1.139-1.8,0Z" transform="translate(-1309.742 -948.375)" fill="#e8e8e8"/>
        </g>
      </g>
      <g id="Group_1210" data-name="Group 1210" transform="translate(603.096 24.031)">
        <g id="Group_1209" data-name="Group 1209">
          <path id="Path_671" data-name="Path 671" d="M1320.7,969.163a128.541,128.541,0,0,0,16-11.869c.9-.779-.42-2.038-1.259-1.259A122.591,122.591,0,0,1,1319.8,967.6c-1.019.659-.12,2.218.9,1.558Z" transform="translate(-1319.352 -955.791)" fill="#e8e8e8"/>
        </g>
      </g>
      <g id="Group_1212" data-name="Group 1212" transform="translate(523.582 47.118)">
        <g id="Group_1211" data-name="Group 1211">
          <path id="Path_672" data-name="Path 672" d="M1187.6,996.581c4.136-.12,9.95-1.319,13.727.659,1.019.539,1.918-1.019.9-1.559-4.256-2.278-10.01-1.079-14.626-.9-1.2.06-1.2,1.858,0,1.8Z" transform="translate(-1186.7 -994.307)" fill="#e8e8e8"/>
        </g>
      </g>
      <g id="Group_1214" data-name="Group 1214" transform="translate(546.667 39.427)">
        <g id="Group_1213" data-name="Group 1213">
          <path id="Path_673" data-name="Path 673" d="M1225.684,982.329a64.486,64.486,0,0,0,.24,17.323c.18,1.139,1.918.659,1.738-.48a63.384,63.384,0,0,1-.18-16.844c.18-1.139-1.618-1.139-1.8,0Z" transform="translate(-1225.212 -981.475)" fill="#e8e8e8"/>
        </g>
      </g>
      <g id="Group_1216" data-name="Group 1216" transform="translate(509.421 118.685)">
        <g id="Group_1215" data-name="Group 1215">
          <path id="Path_674" data-name="Path 674" d="M1163.929,1116.937c9.71.54,19.3-1.618,29.012-1.438,9.291.18,18.342,2.637,27.633,1.139,1.139-.18.659-1.918-.48-1.738-9.471,1.558-18.822-1.2-28.292-1.2-9.291,0-18.522,1.978-27.873,1.439-1.139-.12-1.139,1.678,0,1.8Z" transform="translate(-1163.075 -1113.7)" fill="#e8e8e8"/>
        </g>
      </g>
      <g id="Group_1218" data-name="Group 1218" transform="translate(621.488 95.605)">
        <g id="Group_1217" data-name="Group 1217">
          <path id="Path_675" data-name="Path 675" d="M1351.153,1078.975a116.889,116.889,0,0,1,20.98-.959c6.893.3,13.727,1.139,20.68.54,6.773-.54,13.487-1.618,20.32-1.559a168.891,168.891,0,0,1,20.56,1.738c1.139.12,1.139-1.678,0-1.8a181.778,181.778,0,0,0-20.56-1.738c-7.193-.06-14.266,1.139-21.459,1.619-6.893.479-13.727-.42-20.62-.659a120.913,120.913,0,0,0-20.32,1.079c-1.2.18-.719,1.918.42,1.738Z" transform="translate(-1350.035 -1075.196)" fill="#e8e8e8"/>
        </g>
      </g>
      <g id="Group_1220" data-name="Group 1220" transform="translate(0 105.996)">
        <g id="Group_1219" data-name="Group 1219">
          <path id="Path_676" data-name="Path 676" d="M313.865,1097.428c18.582,2.578,36.984-1.558,55.506-2.817,9.83-.659,19.481.06,29.311.959s19.661,1.318,29.551,1.379c11.269.06,22.6-.24,33.867-.6,1.139-.06,1.139-1.858,0-1.8-12.648.36-25.355.719-38,.54-12.408-.18-24.636-1.558-36.984-2.338-24.336-1.618-48.493,6.294-72.769,2.937-1.139-.12-1.618,1.558-.479,1.738Z" transform="translate(-313.214 -1092.531)" fill="#e8e8e8"/>
        </g>
      </g>
      <g id="Group_1222" data-name="Group 1222" transform="translate(104.755 116.471)">
        <g id="Group_1221" data-name="Group 1221">
          <path id="Path_677" data-name="Path 677" d="M488.829,1114.558c7.013,0,13.966-1.679,20.92-2.218a179.1,179.1,0,0,1,21.219-.359c1.139.06,1.139-1.738,0-1.8a167.2,167.2,0,0,0-21.219.359c-6.953.54-13.966,2.218-20.92,2.218a.9.9,0,0,0,0,1.8Z" transform="translate(-487.975 -1110.006)" fill="#e8e8e8"/>
        </g>
      </g>
    </g>
    <g id="buildings" transform="translate(366.305 96.071)">
      <g id="Group_1224" data-name="Group 1224" transform="translate(14.455 205.165)">
        <g id="Group_1223" data-name="Group 1223">
          <path id="Path_678" data-name="Path 678" d="M425.9,469.429v359.53a.9.9,0,0,0,1.8,0V469.429a.9.9,0,0,0-1.8,0Z" transform="translate(-425.9 -468.575)" fill="#e8e8e8"/>
        </g>
      </g>
      <g id="Group_1226" data-name="Group 1226" transform="translate(165.388 183.227)">
        <g id="Group_1225" data-name="Group 1225">
          <path id="Path_679" data-name="Path 679" d="M677.7,432.829v308.82a.9.9,0,0,0,1.8,0V432.829a.9.9,0,0,0-1.8,0Z" transform="translate(-677.7 -431.975)" fill="#e8e8e8"/>
        </g>
      </g>
      <g id="Group_1228" data-name="Group 1228" transform="translate(168.402 353.531)">
        <g id="Group_1227" data-name="Group 1227">
          <path id="Path_680" data-name="Path 680" d="M683.311,717.895q50.98,21.219,102.2,41.959c1.079.42,1.559-1.319.48-1.738q-51.25-20.68-102.2-41.959c-1.079-.42-1.5,1.319-.48,1.738Z" transform="translate(-682.729 -716.092)" fill="#e8e8e8"/>
        </g>
      </g>
      <g id="Group_1230" data-name="Group 1230" transform="translate(264.172 395.24)">
        <g id="Group_1229" data-name="Group 1229" transform="translate(0 0)">
          <path id="Path_681" data-name="Path 681" d="M842.5,786.529V960.12a.9.9,0,0,0,1.8,0V786.529a.9.9,0,0,0-1.8,0Z" transform="translate(-842.5 -785.675)" fill="#e8e8e8"/>
        </g>
      </g>
      <g id="Group_1232" data-name="Group 1232" transform="translate(426.134 454.942)">
        <g id="Group_1231" data-name="Group 1231">
          <path id="Path_682" data-name="Path 682" d="M1114.5,999.359V886.129a.9.9,0,0,0-1.8,0v113.23a.9.9,0,0,0,1.8,0Z" transform="translate(-1112.7 -885.275)" fill="#e8e8e8"/>
        </g>
      </g>
      <g id="Group_1234" data-name="Group 1234" transform="translate(409.854 389.222)">
        <g id="Group_1233" data-name="Group 1233">
          <path id="Path_683" data-name="Path 683" d="M1086.895,846.285c36.624-15.765,73.369-31.589,108.195-51.13,9.95-5.575,19.781-11.509,29.371-17.8.959-.659.06-2.218-.9-1.558-33.448,21.879-69.532,39.142-105.977,55.206-10.49,4.616-21.039,9.171-31.529,13.667-1.139.539-.18,2.038.839,1.618Z" transform="translate(-1085.54 -775.634)" fill="#e8e8e8"/>
        </g>
      </g>
      <g id="Group_1236" data-name="Group 1236" transform="translate(455.625 249.103)">
        <g id="Group_1235" data-name="Group 1235">
          <path id="Path_684" data-name="Path 684" d="M1163.7,729.388V542.729a.9.9,0,0,0-1.8,0V729.388a.9.9,0,0,0,1.8,0Z" transform="translate(-1161.9 -541.875)" fill="#e8e8e8"/>
        </g>
      </g>
      <g id="Group_1238" data-name="Group 1238" transform="translate(446.035 251.815)">
        <g id="Group_1237" data-name="Group 1237">
          <path id="Path_685" data-name="Path 685" d="M1146.8,548.2h172.213a.9.9,0,0,0,0-1.8H1146.8a.9.9,0,0,0,0,1.8Z" transform="translate(-1145.9 -546.4)" fill="#e8e8e8"/>
        </g>
      </g>
      <g id="Group_1240" data-name="Group 1240" transform="translate(602.483 258.693)">
        <g id="Group_1239" data-name="Group 1239">
          <path id="Path_686" data-name="Path 686" d="M1406.9,558.729V859.277a.9.9,0,0,0,1.8,0V558.729a.9.9,0,0,0-1.8,0Z" transform="translate(-1406.9 -557.875)" fill="#e8e8e8"/>
        </g>
      </g>
      <g id="Group_1242" data-name="Group 1242" transform="translate(5.694 180.419)">
        <g id="Group_1241" data-name="Group 1241">
          <path id="Path_687" data-name="Path 687" d="M412.373,454.869c41.9-13.487,86.616-16.424,130.073-21.4q19.061-2.158,38.123-4.376c1.139-.12,1.139-1.918,0-1.8q-33.987,3.866-68.034,7.792c-21.519,2.458-43.158,4.8-64.437,8.931a313.587,313.587,0,0,0-36.2,9.111c-1.079.36-.6,2.1.48,1.738Z" transform="translate(-411.285 -427.29)" fill="#e8e8e8"/>
        </g>
      </g>
      <g id="Group_1244" data-name="Group 1244" transform="translate(25.544 220.81)">
        <g id="Group_1243" data-name="Group 1243">
          <path id="Path_688" data-name="Path 688" d="M446.2,525.5V495.529a.9.9,0,0,0-1.8,0V525.5a.9.9,0,0,0,1.8,0Z" transform="translate(-444.4 -494.675)" fill="#e8e8e8"/>
        </g>
      </g>
      <g id="Group_1246" data-name="Group 1246" transform="translate(25.049 219.746)">
        <g id="Group_1245" data-name="Group 1245">
          <path id="Path_689" data-name="Path 689" d="M444.429,494.7h17.623a.9.9,0,0,0,0-1.8H444.429a.9.9,0,0,0,0,1.8Z" transform="translate(-443.575 -492.9)" fill="#e8e8e8"/>
        </g>
      </g>
      <g id="Group_1248" data-name="Group 1248" transform="translate(42.687 220.271)">
        <g id="Group_1247" data-name="Group 1247">
          <path id="Path_690" data-name="Path 690" d="M473,494.629v31.23a.9.9,0,0,0,1.8,0v-31.23a.9.9,0,0,0-1.8,0Z" transform="translate(-473 -493.775)" fill="#e8e8e8"/>
        </g>
      </g>
      <g id="Group_1250" data-name="Group 1250" transform="translate(25.806 251.755)">
        <g id="Group_1249" data-name="Group 1249">
          <path id="Path_691" data-name="Path 691" d="M445.714,548.1h15.645a.9.9,0,0,0,0-1.8H445.714a.9.9,0,0,0,0,1.8Z" transform="translate(-444.837 -546.3)" fill="#e8e8e8"/>
        </g>
      </g>
      <g id="Group_1252" data-name="Group 1252" transform="translate(76.135 220.57)">
        <g id="Group_1251" data-name="Group 1251">
          <path id="Path_692" data-name="Path 692" d="M530.6,525.1V495.129a.9.9,0,0,0-1.8,0V525.1a.9.9,0,0,0,1.8,0Z" transform="translate(-528.8 -494.275)" fill="#e8e8e8"/>
        </g>
      </g>
      <g id="Group_1254" data-name="Group 1254" transform="translate(75.655 219.446)">
        <g id="Group_1253" data-name="Group 1253">
          <path id="Path_693" data-name="Path 693" d="M528.9,494.2h17.623a.9.9,0,0,0,0-1.8H528.9a.9.9,0,0,0,0,1.8Z" transform="translate(-528 -492.4)" fill="#e8e8e8"/>
        </g>
      </g>
      <g id="Group_1256" data-name="Group 1256" transform="translate(93.278 220.031)">
        <g id="Group_1255" data-name="Group 1255">
          <path id="Path_694" data-name="Path 694" d="M557.4,494.229v31.23a.9.9,0,0,0,1.8,0v-31.23a.9.9,0,0,0-1.8,0Z" transform="translate(-557.4 -493.375)" fill="#e8e8e8"/>
        </g>
      </g>
      <g id="Group_1258" data-name="Group 1258" transform="translate(76.419 251.455)">
        <g id="Group_1257" data-name="Group 1257">
          <path id="Path_695" data-name="Path 695" d="M530.129,547.6h15.645a.9.9,0,0,0,0-1.8H530.129a.9.9,0,0,0,0,1.8Z" transform="translate(-529.275 -545.8)" fill="#e8e8e8"/>
        </g>
      </g>
      <g id="Group_1260" data-name="Group 1260" transform="translate(128.104 219.432)">
        <g id="Group_1259" data-name="Group 1259">
          <path id="Path_696" data-name="Path 696" d="M617.3,523.2V493.229a.9.9,0,0,0-1.8,0V523.2a.9.9,0,0,0,1.8,0Z" transform="translate(-615.5 -492.375)" fill="#e8e8e8"/>
        </g>
      </g>
      <g id="Group_1262" data-name="Group 1262" transform="translate(127.61 218.308)">
        <g id="Group_1261" data-name="Group 1261">
          <path id="Path_697" data-name="Path 697" d="M615.529,492.3h17.623a.9.9,0,0,0,0-1.8H615.529a.9.9,0,0,0,0,1.8Z" transform="translate(-614.675 -490.5)" fill="#e8e8e8"/>
        </g>
      </g>
      <g id="Group_1264" data-name="Group 1264" transform="translate(145.247 218.847)">
        <g id="Group_1263" data-name="Group 1263">
          <path id="Path_698" data-name="Path 698" d="M644.1,492.3v31.23a.9.9,0,0,0,1.8,0V492.3a.9.9,0,0,0-1.8,0Z" transform="translate(-644.1 -491.4)" fill="#e8e8e8"/>
        </g>
      </g>
      <g id="Group_1266" data-name="Group 1266" transform="translate(128.389 250.316)">
        <g id="Group_1265" data-name="Group 1265">
          <path id="Path_699" data-name="Path 699" d="M616.829,545.7h15.645a.9.9,0,0,0,0-1.8H616.829a.9.9,0,0,0,0,1.8Z" transform="translate(-615.975 -543.9)" fill="#e8e8e8"/>
        </g>
      </g>
      <g id="Group_1268" data-name="Group 1268" transform="translate(9 335.014)">
        <g id="Group_1267" data-name="Group 1267">
          <path id="Path_700" data-name="Path 700" d="M416.8,686.1V804.544a.9.9,0,0,0,1.8,0V686.1a.9.9,0,1,0-1.8,0Z" transform="translate(-416.8 -685.2)" fill="#e8e8e8"/>
        </g>
      </g>
      <g id="Group_1270" data-name="Group 1270" transform="translate(21.588 461.056)">
        <g id="Group_1269" data-name="Group 1269">
          <path id="Path_701" data-name="Path 701" d="M437.8,896.329V951.3a.9.9,0,0,0,1.8,0V896.329a.9.9,0,0,0-1.8,0Z" transform="translate(-437.8 -895.475)" fill="#e8e8e8"/>
        </g>
      </g>
      <g id="Group_1272" data-name="Group 1272" transform="translate(0 184.598)">
        <g id="Group_1271" data-name="Group 1271">
          <path id="Path_702" data-name="Path 702" d="M402.873,452.507a489.987,489.987,0,0,1,58.863-16.484c1.139-.24.659-1.978-.479-1.738a486.913,486.913,0,0,0-58.863,16.484c-1.079.36-.6,2.1.48,1.738Z" transform="translate(-401.785 -434.262)" fill="#e8e8e8"/>
        </g>
      </g>
      <g id="Group_1274" data-name="Group 1274" transform="translate(169.815 362.103)">
        <g id="Group_1273" data-name="Group 1273">
          <path id="Path_703" data-name="Path 703" d="M685.694,732.2c20.26,7.613,39.981,16.664,59.642,25.715,1.019.48,1.978-1.079.9-1.558-19.841-9.111-39.681-18.222-60.062-25.895-1.079-.42-1.558,1.319-.479,1.738Z" transform="translate(-685.085 -730.392)" fill="#e8e8e8"/>
        </g>
      </g>
      <g id="Group_1276" data-name="Group 1276" transform="translate(180.373 396.439)">
        <g id="Group_1275" data-name="Group 1275">
          <path id="Path_704" data-name="Path 704" d="M704.5,818.5V788.529a.9.9,0,0,0-1.8,0V818.5a.9.9,0,1,0,1.8,0Z" transform="translate(-702.7 -787.675)" fill="#e8e8e8"/>
        </g>
      </g>
      <g id="Group_1278" data-name="Group 1278" transform="translate(179.894 395.375)">
        <g id="Group_1277" data-name="Group 1277">
          <path id="Path_705" data-name="Path 705" d="M702.8,787.7h17.623a.9.9,0,0,0,0-1.8H702.8a.9.9,0,1,0,0,1.8Z" transform="translate(-701.9 -785.9)" fill="#e8e8e8"/>
        </g>
      </g>
      <g id="Group_1280" data-name="Group 1280" transform="translate(197.517 395.915)">
        <g id="Group_1279" data-name="Group 1279">
          <path id="Path_706" data-name="Path 706" d="M731.3,787.7v31.23a.9.9,0,0,0,1.8,0V787.7a.9.9,0,0,0-1.8,0Z" transform="translate(-731.3 -786.8)" fill="#e8e8e8"/>
        </g>
      </g>
      <g id="Group_1282" data-name="Group 1282" transform="translate(180.658 427.384)">
        <g id="Group_1281" data-name="Group 1281" transform="translate(0 0)">
          <path id="Path_707" data-name="Path 707" d="M704.029,841.1h15.645a.9.9,0,0,0,0-1.8H704.029a.9.9,0,0,0,0,1.8Z" transform="translate(-703.175 -839.3)" fill="#e8e8e8"/>
        </g>
      </g>
      <g id="Group_1284" data-name="Group 1284" transform="translate(434.817 400.336)">
        <g id="Group_1283" data-name="Group 1283">
          <path id="Path_708" data-name="Path 708" d="M1128.273,851.614a609.555,609.555,0,0,0,111.971-55.746c.959-.6.06-2.158-.9-1.558a607.013,607.013,0,0,1-111.551,55.566c-1.079.42-.6,2.158.479,1.738Z" transform="translate(-1127.185 -794.175)" fill="#e8e8e8"/>
        </g>
      </g>
      <g id="Group_1286" data-name="Group 1286" transform="translate(607.997 262.949)">
        <g id="Group_1285" data-name="Group 1285">
          <path id="Path_709" data-name="Path 709" d="M1416.1,565.829q.09,69.592.12,139.125a.9.9,0,0,0,1.8,0q-.09-69.592-.12-139.125a.9.9,0,0,0-1.8,0Z" transform="translate(-1416.1 -564.975)" fill="#e8e8e8"/>
        </g>
      </g>
      <g id="Group_1288" data-name="Group 1288" transform="translate(477.309 245.761)">
        <g id="Group_1287" data-name="Group 1287">
          <path id="Path_710" data-name="Path 710" d="M1198.929,538.1h141.642a.9.9,0,0,0,0-1.8H1198.929a.9.9,0,0,0,0,1.8Z" transform="translate(-1198.075 -536.3)" fill="#e8e8e8"/>
        </g>
      </g>
      <g id="Group_1290" data-name="Group 1290" transform="translate(473.009 276.316)">
        <g id="Group_1289" data-name="Group 1289">
          <path id="Path_711" data-name="Path 711" d="M1192.7,618.1V588.129a.9.9,0,0,0-1.8,0V618.1a.9.9,0,0,0,1.8,0Z" transform="translate(-1190.9 -587.275)" fill="#e8e8e8"/>
        </g>
      </g>
      <g id="Group_1292" data-name="Group 1292" transform="translate(472.574 275.252)">
        <g id="Group_1291" data-name="Group 1291">
          <path id="Path_712" data-name="Path 712" d="M1191.029,587.3h17.623a.9.9,0,0,0,0-1.8h-17.623a.9.9,0,0,0,0,1.8Z" transform="translate(-1190.175 -585.5)" fill="#e8e8e8"/>
        </g>
      </g>
      <g id="Group_1294" data-name="Group 1294" transform="translate(490.152 275.792)">
        <g id="Group_1293" data-name="Group 1293">
          <path id="Path_713" data-name="Path 713" d="M1219.5,587.3v31.23a.9.9,0,0,0,1.8,0V587.3a.9.9,0,0,0-1.8,0Z" transform="translate(-1219.5 -586.4)" fill="#e8e8e8"/>
        </g>
      </g>
      <g id="Group_1296" data-name="Group 1296" transform="translate(473.308 307.261)">
        <g id="Group_1295" data-name="Group 1295">
          <path id="Path_714" data-name="Path 714" d="M1192.3,640.7h15.645a.9.9,0,0,0,0-1.8H1192.3a.9.9,0,1,0,0,1.8Z" transform="translate(-1191.4 -638.9)" fill="#e8e8e8"/>
        </g>
      </g>
      <g id="Group_1298" data-name="Group 1298" transform="translate(556.268 276.316)">
        <g id="Group_1297" data-name="Group 1297">
          <path id="Path_715" data-name="Path 715" d="M1331.6,618.1V588.129a.9.9,0,0,0-1.8,0V618.1a.9.9,0,0,0,1.8,0Z" transform="translate(-1329.8 -587.275)" fill="#e8e8e8"/>
        </g>
      </g>
      <g id="Group_1300" data-name="Group 1300" transform="translate(555.773 275.252)">
        <g id="Group_1299" data-name="Group 1299">
          <path id="Path_716" data-name="Path 716" d="M1329.829,587.3h17.623a.9.9,0,0,0,0-1.8h-17.623a.9.9,0,0,0,0,1.8Z" transform="translate(-1328.975 -585.5)" fill="#e8e8e8"/>
        </g>
      </g>
      <g id="Group_1302" data-name="Group 1302" transform="translate(573.411 275.792)">
        <g id="Group_1301" data-name="Group 1301">
          <path id="Path_717" data-name="Path 717" d="M1358.4,587.3v31.23a.9.9,0,0,0,1.8,0V587.3a.9.9,0,0,0-1.8,0Z" transform="translate(-1358.4 -586.4)" fill="#e8e8e8"/>
        </g>
      </g>
      <g id="Group_1304" data-name="Group 1304" transform="translate(556.552 307.261)">
        <g id="Group_1303" data-name="Group 1303">
          <path id="Path_718" data-name="Path 718" d="M1331.129,640.7h15.645a.9.9,0,0,0,0-1.8h-15.645a.9.9,0,0,0,0,1.8Z" transform="translate(-1330.275 -638.9)" fill="#e8e8e8"/>
        </g>
      </g>
      <ellipse id="Ellipse_1339" data-name="Ellipse 1339" cx="35.905" cy="36.504" rx="35.905" ry="36.504" transform="translate(485.596)" fill="none" stroke="#e8e8e8" stroke-width="3"/>
      <g id="Group_1306" data-name="Group 1306" transform="translate(478.752 166.537)">
        <g id="Group_1305" data-name="Group 1305">
          <path id="Path_719" data-name="Path 719" d="M1201.811,415.142c9.95-6.773,22.059-2.518,32.369.959a67.24,67.24,0,0,0,14.865,3.6,55.979,55.979,0,0,0,16.424-1.139c21.4-4.436,44.537-19.541,66.535-9.291,1.019.48,1.978-1.079.9-1.559-16.184-7.553-33.987-1.618-49.812,3.776-9.231,3.177-18.762,6.354-28.652,6.594-10.13.24-19-3.9-28.532-6.534-8.272-2.338-17.623-3-25.056,2.038-.9.659,0,2.218.959,1.558Z" transform="translate(-1200.481 -404.131)" fill="#e8e8e8"/>
        </g>
      </g>
      <g id="Group_1308" data-name="Group 1308" transform="translate(31.306 130.671)">
        <g id="Group_1307" data-name="Group 1307">
          <path id="Path_720" data-name="Path 720" d="M454.665,358.505c17.323,4.975,34.347-3.177,50.591-8.272,8.871-2.757,18.222-4.975,27.573-3.776,9.531,1.259,18.222,5.814,26.974,9.591,8.871,3.836,18.1,7.013,27.933,5.455,1.139-.18.659-1.918-.479-1.738-18.762,3-34.466-11.689-52.209-14.806-17.323-3.057-33.807,5.215-49.991,10.01-9.77,2.877-19.9,4.616-29.911,1.738a.931.931,0,0,0-.48,1.8Z" transform="translate(-454.014 -344.297)" fill="#e8e8e8"/>
        </g>
      </g>
      <g id="Group_1310" data-name="Group 1310" transform="translate(186.233 160.107)">
        <g id="Group_1309" data-name="Group 1309">
          <path id="Path_721" data-name="Path 721" d="M713.329,404.191c6.414-.18,12.048-3.057,17.743-5.635,3.477-1.558,7.073-3.057,10.909-3.357,4.256-.36,7.972,1.139,11.629,3.177,6.713,3.716,12.947,7.133,20.68,8.332a48.323,48.323,0,0,0,21.879-1.5c1.079-.36.659-2.1-.48-1.738a46.788,46.788,0,0,1-24.4.779,45.506,45.506,0,0,1-11.029-4.2c-3.3-1.8-6.414-3.956-9.89-5.335-13.367-5.335-24.1,7.253-37.044,7.613-1.139.12-1.139,1.918,0,1.858Z" transform="translate(-712.475 -393.405)" fill="#e8e8e8"/>
        </g>
      </g>
      <g id="Group_1312" data-name="Group 1312" transform="translate(370.601 104.583)">
        <g id="Group_1311" data-name="Group 1311">
          <path id="Path_722" data-name="Path 722" d="M1020.5,311.219c17.263,8.032,36.624,7.673,54.966,4.136,20.74-4.016,40.281-13.187,61.74-12.828a94.039,94.039,0,0,1,35.246,7.673c1.079.479,1.978-1.079.9-1.559a95.029,95.029,0,0,0-57.184-5.874c-10.49,2.218-20.62,5.874-30.99,8.572a141.757,141.757,0,0,1-30.031,4.675c-11.569.36-23.137-1.379-33.687-6.294-1.079-.539-1.978,1.019-.959,1.5Z" transform="translate(-1020.055 -300.774)" fill="#e8e8e8"/>
        </g>
      </g>
    </g>
    <g id="leg_r" transform="translate(491.009 335.634)">
      <path id="Path_723" data-name="Path 723" d="M649.373,862.572c1.858,9.771,3.656,19.6,5.515,29.372-30.93,11.209-45.975,18.942-45.016,23.257q1.708,7.822,72.889.6-3.057-30.57-6.114-61.2C667.535,857.3,658.424,859.935,649.373,862.572Z" transform="translate(-609.828 -657.608)" fill="#161616" stroke="#161616" stroke-width="3"/>
      <path id="Path_724" data-name="Path 724" d="M806.268,608.464c-12.947,5.335-18.4,4.016-34.766,8.512-30.151,8.272-51.969,23.737-65.576,35.426q.989,33.447,1.978,66.895c-1.379,1.618-16.484,18.762-39.382,16.424-15.765-1.618-25.6-11.569-28.232-14.446-.42-20.56-.06-42.5,1.319-65.576.839-13.367,1.918-26.314,3.3-38.722,2.038-2.877,5.155-7.013,9.171-11.809,31.529-37.523,69.293-54.187,89.853-62.939,20.5-8.752,33.328-14.206,52.449-15.765,5.1-.42,56.045-4.016,64.257,16.424C868.248,561.53,838.217,595.337,806.268,608.464Z" transform="translate(-621.964 -525.961)" fill="#fff" stroke="#161616" stroke-width="3"/>
      <path id="Path_725" data-name="Path 725" d="M876.035,542.925c-11.389-7.852-36.5,25.6-86.5,57.124-48.073,30.271-73.249,29.791-87.755,59.222-4.436,8.931-9.051,23.078-11.868,37.464a171.924,171.924,0,0,0-2.7,44.537,64.156,64.156,0,0,0,13.487-2.038,65.761,65.761,0,0,0,25.655-13.487c-.659-22.718-1.379-45.436-2.038-68.094a187.637,187.637,0,0,1,39.8-24.936c33.747-15.645,46.395-8.931,74.208-24.936,6.414-3.656,42.678-24.576,41.839-51.909C879.932,551.5,879.872,545.562,876.035,542.925Z" transform="translate(-640.661 -532.292)" fill="#3d3d3d" opacity="0.16"/>
      <path id="Path_726" data-name="Path 726" d="M904.867,561.565c-2.518-2.038-12.288,11.629-35.725,28.352-29.132,20.74-43.158,20.5-75.227,39.8A290.939,290.939,0,0,0,747.1,664.785a158.74,158.74,0,0,0,16.184-8.092c13.787-8.032,17.143-12.947,27.633-18.222,3.776-1.858,10.849-3.776,24.936-7.433,24.636-6.414,28.173-6.114,37.1-10.13a90.576,90.576,0,0,0,23.617-15.525C896.115,588.239,908.043,564.083,904.867,561.565Z" transform="translate(-664.817 -540.142)" fill="#3d3d3d" opacity="0.25"/>
      <path id="Path_727" data-name="Path 727" d="M732.858,735q-11.509,41.45-22.958,82.959a57.489,57.489,0,0,0,12.168-4.735,54.832,54.832,0,0,0,14.146-10.79C735.076,779.956,734,757.478,732.858,735Z" transform="translate(-649.915 -609.698)" fill="#3d3d3d" opacity="0.2"/>
    </g>
    <g id="leg_l" transform="translate(641.996 324.089)">
      <path id="Path_728" data-name="Path 728" d="M977.937,1018.772c1.858,9.771,3.656,19.6,5.515,29.371-27.993,14.086-41.3,22.838-40.1,26.255q2.248,6.2,67.734-10.73c-1.978-17.623-3.9-35.246-5.874-52.869C996.1,1013.5,987.048,1016.135,977.937,1018.772Z" transform="translate(-894.389 -708.634)" fill="#161616" stroke="#161616" stroke-width="3"/>
      <path id="Path_729" data-name="Path 729" d="M971.919,514.538c2.1,16.184,4.8,40.581,6.114,70.372,1.978,45.975-.9,71.57-1.379,105.557a719.163,719.163,0,0,0,9.471,125.218,61.557,61.557,0,0,1-59.582,4.735c-1.319-25.535-3.656-52.689-7.433-81.221a1018.209,1018.209,0,0,0-29.072-141.4c-7.193-9.95-14.446-19.841-21.639-29.791q39.292-27.783,78.524-55.506C955.2,513.219,963.527,513.879,971.919,514.538Z" transform="translate(-864.395 -509.023)" fill="#fff" stroke="#161616" stroke-width="3"/>
      <g id="Group_1314" data-name="Group 1314">
        <g id="Group_1313" data-name="Group 1313">
          <path id="Path_730" data-name="Path 730" d="M875.614,570.838c-1.858-2.577-3.656-5.215-5.515-7.792-.539,2.038-1.079,4.076-1.618,6.174,8.871-5.515,17.563-11.329,25.895-17.683,6.953-5.275,13.427-11.089,20.44-16.244,4.436-3.3,8.991-6.414,13.547-9.531,4.376-2.937,8.811-6.653,13.607-8.991,2.578-1.259,5.635-1.079,8.392-1.079,5.275,0,10.49.18,15.7.48,5.754.3,5.754-8.692,0-8.991-5.215-.24-10.49-.479-15.7-.479-3.357,0-6.833,0-10.01,1.019-4.975,1.618-9.471,5.515-13.727,8.452-4.915,3.3-9.771,6.594-14.566,10.07-7.433,5.395-14.266,11.449-21.519,17.023a319.473,319.473,0,0,1-26.554,18.162c-1.918,1.2-3.057,4.136-1.618,6.174,1.858,2.577,3.656,5.215,5.515,7.792,3.3,4.675,11.089.18,7.733-4.555Z" transform="translate(-861.718 -506.7)" fill="#fff"/>
        </g>
      </g>
      <path id="Path_731" data-name="Path 731" d="M941.7,526.1A739.7,739.7,0,0,1,978.145,828.2a35.258,35.258,0,0,0,10.79,2.038c13.487.36,23.2-7.433,26.314-10.13a514.93,514.93,0,0,1-8.092-57.3c-4.436-52.449,1.139-82.18,2.038-126.777A623.866,623.866,0,0,0,1001.1,523.4Q971.341,524.749,941.7,526.1Z" transform="translate(-893.758 -513.39)" fill="#3d3d3d" opacity="0.14"/>
      <path id="Path_732" data-name="Path 732" d="M1033.284,569.6q-2.518,88.564-8.751,182.1-3.237,48.283-7.433,95.068a30.16,30.16,0,0,0,27.633-9.411,597.82,597.82,0,0,1-8.751-91.711c-.66-40.041,3.117-60.481,2.038-107.236C1037.3,608.682,1035.022,584.585,1033.284,569.6Z" transform="translate(-923.961 -531.897)" fill="#3d3d3d" opacity="0.2"/>
    </g>
    <g id="hand_r" transform="translate(466.664 109.039)">
      <path id="Path_733" data-name="Path 733" d="M609.059,157.145c.779-1.8-6.893-5.515-6.114-7.613.779-2.158,10.31-2.7,16.724,2.038,6.714,4.915,6.294,12.108,10.13,21.339,4.376,10.37,11.269,16,21.759,24.636,6.294,5.215,30.87,24.756,66.3,23.677a96.438,96.438,0,0,0,39.442-9.95c-1.379,17.2-2.817,34.466-4.2,51.67a105.06,105.06,0,0,1-32.488,2.338c-47.714-4.136-78.344-40.94-87.814-52.269A163.5,163.5,0,0,1,612,181.062a63.9,63.9,0,0,1-24.876,2.518c-7.433-.719-16.3-3-16.244-5.1.06-2.757,15.345-4.616,15.225-5.575-.12-.839-12.168,2.458-15.225-2.038-2.4-3.537.959-11.509,6.594-14.746,1.738-.959,3.716-1.559,8.632-1.5C599.408,154.628,608.339,158.764,609.059,157.145Z" transform="translate(-569.565 -147.936)" fill="#fff" stroke="#161616" stroke-width="3"/>
      <g id="Group_1316" data-name="Group 1316" transform="translate(0 17.572)">
        <g id="Group_1315" data-name="Group 1315">
          <path id="Path_734" data-name="Path 734" d="M570.344,179.2c3.057-.719,6.594.779,9.711.9a34.3,34.3,0,0,0,8.212-.659c1.139-.24.659-1.978-.48-1.738a31.325,31.325,0,0,1-10.31.36c-2.637-.36-4.975-1.2-7.613-.6-1.139.24-.659,1.978.479,1.738Z" transform="translate(-569.214 -177.25)" fill="#161616"/>
        </g>
      </g>
      <g id="Group_1318" data-name="Group 1318" transform="translate(2.504 11.551)">
        <g id="Group_1317" data-name="Group 1317">
          <path id="Path_735" data-name="Path 735" d="M574.535,169.24c3.6-.719,6.773.779,10.25.959A29.543,29.543,0,0,0,593.9,169a.9.9,0,0,0-.48-1.738,24.885,24.885,0,0,1-11.689.659c-2.7-.539-4.975-1.019-7.733-.48-1.079.3-.6,2.038.54,1.8Z" transform="translate(-573.391 -167.205)" fill="#161616"/>
        </g>
      </g>
      <g id="Group_1320" data-name="Group 1320" transform="translate(36.551 13.848)">
        <g id="Group_1319" data-name="Group 1319">
          <path id="Path_736" data-name="Path 736" d="M630.437,172.574a15.214,15.214,0,0,0,11.629,4.8c1.139-.06,1.139-1.858,0-1.8a12.888,12.888,0,0,1-10.31-4.256.912.912,0,0,0-1.319,1.259Z" transform="translate(-630.192 -171.038)" fill="#161616"/>
        </g>
      </g>
      <path id="Path_737" data-name="Path 737" d="M571.4,184.449c.18-1.618,13.247-2.038,25.235-.3,6.474.9,12.768,1.8,18.7,4.616,12.947,6.054,17.2,17.623,23.917,28.233,0,0,15.045,23.557,41.959,36.744,26.734,13.067,57.244,4.316,74.448-2.637L753.682,277a107.992,107.992,0,0,1-36.744,1.319c-45.376-6.414-73.848-41.3-85.177-55.146a173.75,173.75,0,0,1-19-28.532,56.724,56.724,0,0,1-25.235,3.3c-7.253-.779-15.825-3.177-15.765-5.275.12-2.7,14.566-4.316,14.446-4.915-.06-.3-4.136.6-9.171-.659C575.056,186.607,571.34,185.348,571.4,184.449Z" transform="translate(-570.089 -161.992)" fill="#3d3d3d" opacity="0.18"/>
      <path id="Path_738" data-name="Path 738" d="M744.822,290.25c21.4.3,37.943-8.092,46.575-13.427-.3,7.673-.659,15.285-.959,22.958a120.353,120.353,0,0,1-56.405-3.956C691.054,282.1,669.955,247.931,664.5,238.4,666.238,241.517,694.471,289.59,744.822,290.25Z" transform="translate(-607.384 -184.174)" fill="#3d3d3d" opacity="0.24"/>
      <path id="Path_739" data-name="Path 739" d="M591.779,200.637c12.827.06,21.459-1.858,21.639-.959.12.719-5.215,2.877-10.849,3.956-16.364,3.117-31.349-3.656-31.17-4.616C571.579,198.359,578.292,200.577,591.779,200.637Z" transform="translate(-570.088 -168.349)" fill="#3d3d3d" opacity="0.19"/>
    </g>
    <g id="coin" transform="translate(479.783 54.771)">
      <circle id="Ellipse_1340" data-name="Ellipse 1340" cx="16.904" cy="16.904" r="16.904" transform="translate(5.694 3.596)" fill="#999"/>
      <ellipse id="Ellipse_1341" data-name="Ellipse 1341" cx="19.181" cy="19.241" rx="19.181" ry="19.241" fill="none" stroke="#161616" stroke-width="2"/>
      <g id="Group_1322" data-name="Group 1322" transform="translate(11.143 8.68)">
        <g id="Group_1321" data-name="Group 1321">
          <path id="Path_740" data-name="Path 740" d="M620.366,71.893c-3.776-.24-13.487,3.417-9.89,8.871,2.1,3.177,6.174,1.079,9.111,1.858,3.776,1.019,3.357,5.575,1.019,7.792a6.034,6.034,0,0,1-8.272-.18c-.839-.779-2.158.48-1.259,1.259,4.735,4.316,13.187,1.858,13.187-5.155a5.443,5.443,0,0,0-5.155-5.575c-2.218-.3-8.452,1.379-7.013-3.177.959-3.117,5.574-4.076,8.332-3.9,1.139.06,1.139-1.738-.06-1.8Z" transform="translate(-609.69 -71.881)" fill="#161616"/>
        </g>
      </g>
      <g id="Group_1324" data-name="Group 1324" transform="translate(17.977 2.802)">
        <g id="Group_1323" data-name="Group 1323">
          <path id="Path_741" data-name="Path 741" d="M622.894,68.8c.18-1.978.36-3.9.539-5.874.12-1.139-1.678-1.139-1.8,0-.18,1.978-.36,3.9-.539,5.874-.12,1.139,1.678,1.139,1.8,0Z" transform="translate(-621.09 -62.075)" fill="#161616"/>
        </g>
      </g>
      <g id="Group_1326" data-name="Group 1326" transform="translate(18.576 30.136)">
        <g id="Group_1325" data-name="Group 1325">
          <path id="Path_742" data-name="Path 742" d="M622.1,108.529c.18,1.379.36,2.817.48,4.2.12,1.139,1.918,1.139,1.8,0-.18-1.379-.36-2.817-.48-4.2-.12-1.139-1.918-1.139-1.8,0Z" transform="translate(-622.09 -107.675)" fill="#161616"/>
        </g>
      </g>
    </g>
    <g id="torso" transform="translate(632.609 159.048)">
      <path id="Path_743" data-name="Path 743" d="M885.944,240.437a91.051,91.051,0,0,0-17.143,2.518,82.451,82.451,0,0,0-10.909,3.477A113.606,113.606,0,0,0,846.8,283.116c-2.757,22.718,2.757,37.344,6.534,59.942a249.52,249.52,0,0,1,1.8,66.415,87.043,87.043,0,0,0,46.275,21.939c34.287,4.8,59.462-13.307,64.677-17.2,3.177-19.661,6.174-39.861,8.871-60.541,4.615-35.006,8.092-68.873,10.67-101.421-16.6-15.645-30.99-19.841-41.12-20.68C925.026,229.887,907.4,239.238,885.944,240.437Z" transform="translate(-846.058 -231.365)" fill="#999"/>
      <path id="Path_744" data-name="Path 744" d="M949.328,256.1A89.049,89.049,0,0,1,962.7,273.66c21.879,38,8.332,82.36,2.278,102.021A190.453,190.453,0,0,1,937.1,431.486a83.935,83.935,0,0,0,22.178.779,86.747,86.747,0,0,0,42.8-16.844c5.634-32.009,10.43-66.056,14.146-102.021,2.158-21.1,3.776-41.659,4.975-61.5a67.659,67.659,0,0,0-10.73-8.392c-7.732-4.975-19.9-12.708-33.627-10.31C959.338,236.2,950.467,253.7,949.328,256.1Z" transform="translate(-882.528 -231.919)" fill="#3d3d3d" opacity="0.17"/>
      <path id="Path_745" data-name="Path 745" d="M1024.63,287.6c-3.057,8.572-7.792,22.238-12.588,39.382-14.266,50.291-13.247,71.87-30.57,97.825A121.086,121.086,0,0,1,952.4,455.017a98.57,98.57,0,0,0,55.446-17.563c4.676-25.056,8.811-52.089,11.869-81.041C1022.172,332.316,1023.791,309.3,1024.63,287.6Z" transform="translate(-888.657 -253.892)" fill="#3d3d3d" opacity="0.11"/>
    </g>
    <g id="hand_l" transform="translate(730.968 169.02)">
      <path id="Path_746" data-name="Path 746" d="M1026.17,473.623c-1.259-2.338.06-5.814,2.038-7.673,3.656-3.477,10.31-2.158,13.307,1.618.42.539,2.458,3.057,1.619,5.215C1041.335,477.159,1028.748,478.3,1026.17,473.623Z" transform="translate(-1016.369 -334.498)" fill="#fff" stroke="#161616" stroke-width="3"/>
      <path id="Path_747" data-name="Path 747" d="M1036.9,249.2a156.554,156.554,0,0,1,54.727,66.775,159.37,159.37,0,0,1,8.452,25.355,128.271,128.271,0,0,1-33.807,46.275,123.142,123.142,0,0,1-19.3,13.667,106.584,106.584,0,0,1-13.487,12.648c-3.836,3.057-9.051,7.133-10.25,6.114-.959-.839.719-4.975,3.3-7.852,3.057-3.357,6.833-4.376,6.774-4.556s-3.417.42-6.534,2.817c-3.6,2.817-3.417,5.455-5.215,5.874-3.776.9-12.468-8.212-11.149-17.443,1.079-7.732,8.692-11.868,11.269-13.307a26.429,26.429,0,0,1,16.484-2.817c8.991-13.966,17.983-27.873,26.974-41.839a101.253,101.253,0,0,1-9.231-8.452c-4.136-4.256-15.765-16.364-21.339-32.968C1027.074,277.193,1033.967,256.633,1036.9,249.2Z" transform="translate(-1010.199 -248.481)" fill="#fff" stroke="#161616" stroke-width="3"/>
      <g id="Group_1328" data-name="Group 1328" transform="translate(0 145.448)">
        <g id="Group_1327" data-name="Group 1327">
          <path id="Path_748" data-name="Path 748" d="M1011.8,503.207a21.294,21.294,0,0,1,10.909-10.909c1.079-.48.12-2.038-.9-1.558a22.691,22.691,0,0,0-11.569,11.569c-.479,1.019,1.079,1.918,1.559.9Z" transform="translate(-1010.149 -490.649)" fill="#161616"/>
        </g>
      </g>
      <g id="Group_1330" data-name="Group 1330" transform="translate(6.046 150.618)">
        <g id="Group_1329" data-name="Group 1329">
          <path id="Path_749" data-name="Path 749" d="M1022.432,514.995c-1.858-5.635,3.6-11.449,8.092-14.026a.9.9,0,0,0-.9-1.558c-5.215,3-11.089,9.591-8.931,16.064.36,1.079,2.1.6,1.738-.479Z" transform="translate(-1020.235 -499.275)" fill="#161616"/>
        </g>
      </g>
      <path id="Path_750" data-name="Path 750" d="M1039.8,258.61a336.193,336.193,0,0,1,28.173,33.088c15.225,20.32,22.778,30.51,23.317,41.24.959,19.9-13.967,44.776-33.627,54.247-5.695,2.757-20.5,8.332-29.012,19.241-2.458,3.117-4.975,7.433-4.076,8.392.779.779,3.656-1.259,4.615-.3,1.139,1.139-1.618,4.615-.839,5.395.959.959,6.294-2.458,11.689-6.773a105.187,105.187,0,0,0,12.228-11.689,122.075,122.075,0,0,0,17.923-12.468,129.967,129.967,0,0,0,35.785-48.553,171.153,171.153,0,0,0-6.773-20.62,163.743,163.743,0,0,0-27.633-45.8A153.585,153.585,0,0,0,1042.558,248C1041.6,251.537,1040.7,255.073,1039.8,258.61Z" transform="translate(-1015.853 -248)" fill="#3d3d3d" opacity="0.18"/>
      <path id="Path_751" data-name="Path 751" d="M1100.53,410.262c-5.754,7.433-8.692,12.168-11.089,15.7-4.556,6.594-11.329,12.887-24.936,25.475-4.855,4.5-11.449,10.49-19.541,17.383-8.512,7.373-12.648,11.149-12.468,11.389q.36.45,24.7-18.7a118.353,118.353,0,0,0,12.228-8.152c27.933-21.4,40.461-52.149,39.322-52.869C1108.263,400.252,1105.685,403.549,1100.53,410.262Z" transform="translate(-1019.099 -309.081)" fill="#3d3d3d" opacity="0.21"/>
    </g>
    <g id="head" transform="translate(628.948 50.837)">
      <path id="Path_752" data-name="Path 752" d="M881.983,77.034c-17.623,14.446-16.9,43.757-10.01,62.7a67.549,67.549,0,0,0,16,24.756l-2.877,20.86a57.8,57.8,0,0,0,21.339,5.215c23.377,1.139,40.1-12.528,44.657-16.484q-6.2-20.77-12.408-41.6c-.539-3.9-1.439-9.89-2.4-17.2-2.577-19.061-2.458-20.08-3.6-23.2-.479-1.259-7.672-19.541-24.4-22.778C894.811,66.784,883.661,75.655,881.983,77.034Z" transform="translate(-850.963 -58.054)" fill="#fff" stroke="#161616" stroke-width="3"/>
      <path id="Path_753" data-name="Path 753" d="M866.423,142.589a52.669,52.669,0,0,0-1.379,17.863c.479,5.035,1.319,13.787,7.613,22.238a39.766,39.766,0,0,0,19.781,13.847,22.443,22.443,0,0,1-.839-3.776,18.389,18.389,0,0,1,0-4.076c4.136,2.278,8.332,4.5,12.468,6.773,10.49-9.651,13.966-18.522,15.165-24.936.959-5.035,1.559-14.266,3.776-31.17.42-3,1.2-8.392,4.616-9.771a5.206,5.206,0,0,1,5.155.839c4.136,3.477-.06,13.547.839,13.847s8.152-9.83,5.695-21.4a24.65,24.65,0,0,0-6.773-12.168q-6.833,10.79-15.165,22.238c-3.536,4.855-7.073,9.411-10.55,13.847a10.1,10.1,0,0,1-5.575,1.319c-1.8-.18-2.4-.779-3.716-1.139-4.915-1.379-7.553,4.436-12.408,3.656-3.956-.659-4.316-4.915-8.692-5.035-2.1-.06-2.937.9-5.1.48A10.094,10.094,0,0,1,866.423,142.589Z" transform="translate(-849.909 -74.817)" fill="#161616" stroke="#161616" stroke-width="3"/>
      <g id="Group_1332" data-name="Group 1332" transform="translate(34.014 50.098)">
        <g id="Group_1331" data-name="Group 1331">
          <path id="Path_754" data-name="Path 754" d="M899.575,135.065A138.7,138.7,0,0,0,896.7,156.1a.917.917,0,0,0,1.379.779c2.458-1.259,4.975-2.577,7.433-3.836,1.019-.539.12-2.1-.9-1.558-2.458,1.259-4.975,2.577-7.433,3.836.479.24.9.539,1.379.779a131.485,131.485,0,0,1,2.817-20.56c.18-1.139-1.559-1.618-1.8-.48Z" transform="translate(-896.695 -134.414)" fill="#161616"/>
        </g>
      </g>
      <ellipse id="Ellipse_1342" data-name="Ellipse 1342" cx="1.379" cy="3.477" rx="1.379" ry="3.477" transform="translate(25.925 50.988)" fill="#161616" stroke="#161616" stroke-width="3"/>
      <ellipse id="Ellipse_1343" data-name="Ellipse 1343" cx="1.858" cy="3.477" rx="1.858" ry="3.477" transform="translate(48.703 50.988)" fill="#161616" stroke="#161616" stroke-width="3"/>
      <g id="Group_1334" data-name="Group 1334" transform="translate(22.276 44.399)">
        <g id="Group_1333" data-name="Group 1333">
          <path id="Path_755" data-name="Path 755" d="M878.784,128.2c1.139-2.1,3.656-1.618,5.515-.959,1.079.36,1.558-1.379.479-1.738-2.637-.959-5.994-1.019-7.553,1.8-.54.959,1.019,1.918,1.558.9Z" transform="translate(-877.113 -124.907)" fill="#161616"/>
        </g>
      </g>
      <g id="Group_1336" data-name="Group 1336" transform="translate(45.069 41.633)">
        <g id="Group_1335" data-name="Group 1335">
          <path id="Path_756" data-name="Path 756" d="M916.674,123.894a6.239,6.239,0,0,1,9.531.779c.659.9,2.218,0,1.558-.9a8.1,8.1,0,0,0-12.348-1.139c-.839.779.42,2.038,1.259,1.259Z" transform="translate(-915.138 -120.293)" fill="#161616"/>
        </g>
      </g>
      <g id="Group_1338" data-name="Group 1338" transform="translate(0 31.263)">
        <g id="Group_1337" data-name="Group 1337">
          <path id="Path_757" data-name="Path 757" d="M842.557,108.392q37.853,2.248,75.467,6.354c3.417.36,3.417-5.035,0-5.395q-37.673-4.136-75.467-6.354c-3.477-.18-3.477,5.215,0,5.395Z" transform="translate(-839.95 -102.993)" fill="#161616"/>
        </g>
      </g>
      <path id="Path_758" data-name="Path 758" d="M871.5,83.783c.42-3.9,1.978-13.906,9.651-22.059,10.01-10.61,28.532-15.045,42.918-6.054,11.269,7.073,17.323,20.74,15.285,34.646Q905.457,87.079,871.5,83.783Z" transform="translate(-852.588 -50.837)" fill="#4c4c4c"/>
      <path id="Path_759" data-name="Path 759" d="M923.007,53.245c-2.937,2.458-2.937,7.673-1.918,13.187,1.139,6.054,4.076,13.427,8.452,21.04,9.83,1.139,19.661,2.338,29.491,3.477a31.047,31.047,0,0,0,.48-8.991,35.938,35.938,0,0,0-4.256-13.007C948.063,56.6,929.241,47.97,923.007,53.245Z" transform="translate(-872.206 -51.169)" fill="#3a3a3a" opacity="0.69"/>
      <path id="Path_760" data-name="Path 760" d="M966.005,166.893a7.727,7.727,0,0,1-5.215.719,49.378,49.378,0,0,1-9.89,59.222,75.238,75.238,0,0,0,13.127-3.956,73.928,73.928,0,0,0,20.56-12.648L970.2,159.7C970.2,160,969.961,164.8,966.005,166.893Z" transform="translate(-884.395 -94.445)" fill="#3d3d3d" opacity="0.24"/>
      <path id="Path_761" data-name="Path 761" d="M934.213,119.3a36.611,36.611,0,0,1,.6,13.067,38.487,38.487,0,0,1-7.912,18.342c1.379-.42,2.757-.9,4.136-1.319,2.757-3.357,5.575-6.953,8.332-10.61,4.556-6.054,8.751-12.048,12.588-17.8C946.021,120.439,940.147,119.839,934.213,119.3Z" transform="translate(-874.781 -78.262)" fill="#3d3d3d" opacity="0.19"/>
    </g>
  </g>
</svg>
