<svg xmlns="http://www.w3.org/2000/svg" width="812" height="647.864" viewBox="0 0 812 647.864">
  <g id="pixeltrue-support" transform="translate(-243.975 -116.979)">
    <g id="background" transform="translate(243.975 178.716)">
      <g id="Group_1340" data-name="Group 1340" transform="translate(157.308 474.674)">
        <g id="Group_1339" data-name="Group 1339">
          <path id="Path_762" data-name="Path 762" d="M496.665,977.474h439.5a.938.938,0,0,0,0-1.874h-439.5a.938.938,0,0,0,0,1.874Z" transform="translate(-495.775 -975.6)" fill="#e8e8e8"/>
        </g>
      </g>
      <g id="Group_1342" data-name="Group 1342" transform="translate(609.177 436.799)">
        <g id="Group_1341" data-name="Group 1341" transform="translate(0)">
          <path id="Path_763" data-name="Path 763" d="M1219.151,915.865a208.766,208.766,0,0,0,5.435,53.54c.25,1.187,2.062.687,1.812-.5a204.577,204.577,0,0,1-5.31-53.04c-.062-1.187-1.937-1.187-1.937,0Z" transform="translate(-1219.07 -914.975)" fill="#e8e8e8"/>
        </g>
      </g>
      <g id="Group_1344" data-name="Group 1344" transform="translate(680.516 438.236)">
        <g id="Group_1343" data-name="Group 1343" transform="translate(0)">
          <path id="Path_764" data-name="Path 764" d="M1336.409,918.165a149.181,149.181,0,0,1-3.124,49.666.94.94,0,0,0,1.812.5,148.9,148.9,0,0,0,3.186-50.166c-.125-1.187-2-1.187-1.874,0Z" transform="translate(-1333.261 -917.275)" fill="#e8e8e8"/>
        </g>
      </g>
      <g id="Group_1346" data-name="Group 1346" transform="translate(614.764 488.867)">
        <g id="Group_1345" data-name="Group 1345" transform="translate(0)">
          <path id="Path_765" data-name="Path 765" d="M1228.692,1002.43a117.422,117.422,0,0,0,65.66-2.249c1.125-.375.625-2.186-.5-1.812a115.632,115.632,0,0,1-64.66,2.249c-1.187-.25-1.687,1.562-.5,1.812Z" transform="translate(-1228.014 -998.319)" fill="#e8e8e8"/>
        </g>
      </g>
      <g id="Group_1348" data-name="Group 1348" transform="translate(609.454 436.417)">
        <g id="Group_1347" data-name="Group 1347" transform="translate(0)">
          <path id="Path_766" data-name="Path 766" d="M1220.192,916.51a173.554,173.554,0,0,0,73.719-.312c1.187-.25.687-2.062-.5-1.812a171.918,171.918,0,0,1-72.719.312c-1.187-.25-1.687,1.562-.5,1.812Z" transform="translate(-1219.514 -914.362)" fill="#e8e8e8"/>
        </g>
      </g>
      <g id="Group_1350" data-name="Group 1350" transform="translate(621.589 337.206)">
        <g id="Group_1349" data-name="Group 1349">
          <path id="Path_767" data-name="Path 767" d="M1242.288,857.6c-3.249-7.309-.312-16.243,2.124-23.428a87.8,87.8,0,0,1,10.433-20.991l-1.5.187a15.048,15.048,0,0,0,4.936,3.686.948.948,0,0,0,1.374-1.062c-.75-3.374-2.062-6.685-.562-10.058,1.062-2.374,2.562-4.748,3.811-7a9.983,9.983,0,0,1-1.312.312c1.312.812,2.624,1.562,3.936,2.374.875.562,1.624-.5,1.312-1.312-1.312-2.874-2.187-5.748-.375-8.621,1.062-1.749,2.436-3.311,3.624-4.935,2.624-3.5,5.373-7,8.121-10.433,5.248-6.56,10.683-12.932,16.306-19.179l-1.5-.187a72.311,72.311,0,0,1,14.432,36.172,67.174,67.174,0,0,1-.625,19.054,68.615,68.615,0,0,1-2.374,9.371c-.188.625-.437,1.249-.625,1.812a4.348,4.348,0,0,1-3.624,2.874c-1.25.25-1.937.062-3,.875a.982.982,0,0,0-.187,1.5c1.375,1.437,1.937,1.687,1.437,3.624a24.9,24.9,0,0,1-1.624,3.811c-1.124,2.5-2.374,4.935-3.686,7.31a102.54,102.54,0,0,1-9.184,13.869c-.75.937.562,2.249,1.312,1.312a111.391,111.391,0,0,0,15.806-27.8.9.9,0,0,0-.25-.937c-.812-.812-1.624-1.687-2.5-2.5l-.187,1.5c1.437-1,3.061-.312,4.561-.937a4.051,4.051,0,0,0,2.312-2.436,50.2,50.2,0,0,0,3-9.434,71.476,71.476,0,0,0,1.562-20.929,73.467,73.467,0,0,0-14.869-39.046.977.977,0,0,0-1.5-.187q-10.4,11.526-19.992,23.74a134.262,134.262,0,0,0-8.434,11.183c-2.249,3.561-1.187,6.935.375,10.558l1.312-1.312c-1.312-.812-2.624-1.562-3.936-2.374a.985.985,0,0,0-1.312.312c-1.562,2.874-4,6.06-4.873,9.246-.75,2.811.812,6.5,1.437,9.246.437-.375.937-.687,1.374-1.062A12.783,12.783,0,0,1,1254.6,812a.944.944,0,0,0-1.5.188,90.96,90.96,0,0,0-11.308,23.553c-2.249,7.247-4.436,15.493-1.249,22.74a.98.98,0,0,0,1.749-.875Z" transform="translate(-1238.939 -755.558)" fill="#e8e8e8"/>
        </g>
      </g>
      <g id="Group_1352" data-name="Group 1352" transform="translate(645.816 352.062)">
        <g id="Group_1351" data-name="Group 1351">
          <path id="Path_768" data-name="Path 768" d="M1307.694,780.251c-2.5,28.3-21.866,50.979-29.925,77.592-.375,1.187,1.437,1.624,1.812.5,8.059-26.8,27.488-49.542,29.987-78.092.125-1.249-1.812-1.187-1.874,0Z" transform="translate(-1277.719 -779.337)" fill="#e8e8e8"/>
        </g>
      </g>
      <g id="Group_1354" data-name="Group 1354" transform="translate(652.164 366.853)">
        <g id="Group_1353" data-name="Group 1353" transform="translate(0)">
          <path id="Path_769" data-name="Path 769" d="M1287.892,804.192q3,15.462,6.935,30.612a.94.94,0,0,0,1.812-.5c-2.624-10.121-4.935-20.367-6.934-30.612-.187-1.187-2-.687-1.812.5Z" transform="translate(-1287.878 -803.014)" fill="#e8e8e8"/>
        </g>
      </g>
      <g id="Group_1356" data-name="Group 1356" transform="translate(671.968 359.272)">
        <g id="Group_1355" data-name="Group 1355" transform="translate(0)">
          <path id="Path_770" data-name="Path 770" d="M1320.9,806.261a65.774,65.774,0,0,0,14.181-14.057c.75-.937-.875-1.874-1.624-.937a62.24,62.24,0,0,1-13.494,13.369c-.937.75,0,2.374.937,1.624Z" transform="translate(-1319.579 -790.879)" fill="#e8e8e8"/>
        </g>
      </g>
      <g id="Group_1358" data-name="Group 1358" transform="translate(667.432 346.782)">
        <g id="Group_1357" data-name="Group 1357" transform="translate(0)">
          <path id="Path_771" data-name="Path 771" d="M1312.37,772.019c1.687,5.373,2.687,11.932,6.81,15.993.875.875,2.187-.5,1.312-1.312-3.811-3.811-4.81-10.246-6.372-15.181-.312-1.125-2.124-.625-1.749.5Z" transform="translate(-1312.319 -770.885)" fill="#e8e8e8"/>
        </g>
      </g>
      <g id="Group_1360" data-name="Group 1360" transform="translate(595.381 312.734)">
        <g id="Group_1359" data-name="Group 1359">
          <path id="Path_772" data-name="Path 772" d="M1222.8,842.4c-3.811-3-6.122-7.184-8.059-11.558-2.187-5.123-4.061-10.371-5.748-15.681a184.664,184.664,0,0,1-6.872-31.237c-2.811-22.116-.562-44.481-3.248-66.659-.562.187-1.187.312-1.75.5,7,15.743,23.365,25.177,36.984,34.548a9.984,9.984,0,0,1-.312-1.312l-5.623,8.059a.947.947,0,0,0,.812,1.437,19.824,19.824,0,0,0,6.872-1.125c-.375-.125-.687-.312-1.062-.437l6.935,10.683a6.91,6.91,0,0,0,.125-1.125,23.775,23.775,0,0,0-3,3.561.951.951,0,0,0,.562,1.374c5.123.75,6.935,5.623,8.247,10,.375,1.125,2.187.687,1.812-.5-1.562-4.935-3.811-10.5-9.559-11.308.188.437.375.937.562,1.374a16.121,16.121,0,0,1,2.687-3.124.86.86,0,0,0,.125-1.125l-6.934-10.683a.973.973,0,0,0-1.062-.437,18.622,18.622,0,0,1-6.372,1c.25.5.562.937.812,1.437l5.623-8.059a1,1,0,0,0-.312-1.312c-13.369-9.184-29.425-18.367-36.3-33.861-.375-.812-1.874-.437-1.749.5,2.749,22.99.312,46.23,3.561,69.158a180.676,180.676,0,0,0,7.684,32.486c2.874,8.559,5.873,18.992,13.182,24.8,1,.687,2.312-.625,1.374-1.375Z" transform="translate(-1196.988 -716.386)" fill="#e8e8e8"/>
        </g>
      </g>
      <g id="Group_1362" data-name="Group 1362" transform="translate(595.821 314.371)">
        <g id="Group_1361" data-name="Group 1361">
          <path id="Path_773" data-name="Path 773" d="M1197.759,720.127c5.06,13.994,9.309,28.738,16.118,42.045,3.374,6.56,7.06,12.994,10.246,19.679,3.436,7.247,6.5,14.619,9.621,21.928.437,1.124,2.062.125,1.624-.937-2.936-7-5.935-13.994-9.121-20.866-3.124-6.747-6.747-13.182-10.246-19.742-7-13.369-11.308-28.363-16.493-42.545-.375-1.187-2.187-.687-1.749.437Z" transform="translate(-1197.692 -719.007)" fill="#e8e8e8"/>
        </g>
      </g>
      <g id="Group_1364" data-name="Group 1364" transform="translate(597.372 361.147)">
        <g id="Group_1363" data-name="Group 1363">
          <path id="Path_774" data-name="Path 774" d="M1201.065,795.7c6.747.812,14.119,1.187,19.242,6.247.875.875,2.187-.5,1.312-1.312-5.5-5.373-13.307-5.872-20.554-6.747-1.187-.187-1.187,1.687,0,1.812Z" transform="translate(-1200.175 -793.879)" fill="#e8e8e8"/>
        </g>
      </g>
      <g id="Group_1366" data-name="Group 1366" transform="translate(613.849 336.987)">
        <g id="Group_1365" data-name="Group 1365">
          <path id="Path_775" data-name="Path 775" d="M1229.017,755.89a64.586,64.586,0,0,0-2.187,12.495c-.25,3.624-.687,7.872.562,11.37.375,1.125,2.187.625,1.812-.5-1.187-3.311-.75-7.434-.5-10.933a65.209,65.209,0,0,1,2.124-11.995.933.933,0,0,0-1.812-.437Z" transform="translate(-1226.548 -755.207)" fill="#e8e8e8"/>
        </g>
      </g>
      <g id="Group_1368" data-name="Group 1368" transform="translate(601.62 395.202)">
        <g id="Group_1367" data-name="Group 1367">
          <path id="Path_776" data-name="Path 776" d="M1207.865,850.208c4.873.125,9.559.187,14.307,1.5,4.685,1.312,9.308,2.686,13.994,4.061a.94.94,0,0,0,.5-1.812c-5-1.437-9.933-3-14.994-4.311-4.561-1.187-9.121-1.124-13.807-1.249-1.187-.125-1.187,1.749,0,1.812Z" transform="translate(-1206.975 -848.39)" fill="#e8e8e8"/>
        </g>
      </g>
      <g id="Group_1370" data-name="Group 1370" transform="translate(668.332 434.714)">
        <g id="Group_1369" data-name="Group 1369" transform="translate(0)">
          <path id="Path_777" data-name="Path 777" d="M1316.283,913.925a46.488,46.488,0,0,1,12.495,0c-.187-.437-.375-.937-.562-1.374-.375.562-4.123.625-4.873.687-1.687.25-3.436.5-5.123.875-.25.062-1.937.25-2,.437.125-.312,2.624-.25,3-.25,1.812,0,3.624.187,5.435.312v-1.874a13.9,13.9,0,0,0-4.5.562.926.926,0,0,0,.25,1.812,26.826,26.826,0,0,0,7-1.125.94.94,0,0,0-.5-1.812,25.23,25.23,0,0,1-6.5,1.062c.062.625.187,1.25.25,1.812a14.323,14.323,0,0,1,4-.5.938.938,0,0,0,0-1.874c-2.749-.125-6.747-1.125-9.246.437-1,.625-2.437,2.249-1.125,3.249.562.437,1.187.187,1.874.125,1.874-.375,3.686-.812,5.56-1.125,2.187-.375,6.56.187,8.059-1.874a.951.951,0,0,0-.562-1.374,47.637,47.637,0,0,0-12.995-.062c-1.124.125-1.124,2,.063,1.874Z" transform="translate(-1313.759 -911.637)" fill="#e8e8e8"/>
        </g>
      </g>
      <g id="Group_1372" data-name="Group 1372" transform="translate(609.782 435.744)">
        <g id="Group_1371" data-name="Group 1371" transform="translate(0)">
          <path id="Path_778" data-name="Path 778" d="M1221.2,915.731a12.944,12.944,0,0,1,2.624-.5,8.347,8.347,0,0,1,1.25,0,6.716,6.716,0,0,1,1.125,0c-.062-.312-.187-.625-.25-.937a.219.219,0,0,1-.062.125c.375-.187.75-.437,1.125-.625h-.125l.625.625c0-.062,0-.125-.062-.125a.94.94,0,0,0-1.812.5c0,.063,0,.125.063.125a.9.9,0,0,0,.625.625h.125a.921.921,0,0,0,1.125-.625.218.218,0,0,1,.063-.125.9.9,0,0,0-.25-.937c-.687-.687-2.187-.562-3.061-.562a15.111,15.111,0,0,0-3.748.562c-1,.375-.5,2.187.625,1.874Z" transform="translate(-1220.039 -913.286)" fill="#e8e8e8"/>
        </g>
      </g>
      <g id="Group_1374" data-name="Group 1374" transform="translate(611.703 447.961)">
        <g id="Group_1373" data-name="Group 1373">
          <path id="Path_779" data-name="Path 779" d="M1223.792,935.627c22.8,3.936,46.48,5.81,68.971-.937a.94.94,0,0,0-.5-1.812c-22.116,6.622-45.481,4.81-67.971.937-1.187-.187-1.687,1.624-.5,1.812Z" transform="translate(-1223.114 -932.841)" fill="#e8e8e8"/>
        </g>
      </g>
      <g id="Group_1376" data-name="Group 1376" transform="translate(689.974 474.549)">
        <g id="Group_1375" data-name="Group 1375" transform="translate(0)">
          <path id="Path_780" data-name="Path 780" d="M1349.337,977.274h120.2a.938.938,0,0,0,0-1.874h-120.2a.937.937,0,1,0,0,1.874Z" transform="translate(-1348.4 -975.4)" fill="#e8e8e8"/>
        </g>
      </g>
      <g id="Group_1378" data-name="Group 1378" transform="translate(659.721 514.72)">
        <g id="Group_1377" data-name="Group 1377">
          <path id="Path_781" data-name="Path 781" d="M1300.865,1041.574H1414.13a.938.938,0,0,0,0-1.874H1300.865a.938.938,0,0,0,0,1.874Z" transform="translate(-1299.975 -1039.7)" fill="#e8e8e8"/>
        </g>
      </g>
      <g id="Group_1380" data-name="Group 1380" transform="translate(664.037 516.158)">
        <g id="Group_1379" data-name="Group 1379" transform="translate(0)">
          <path id="Path_782" data-name="Path 782" d="M1320.638,1042.251c-4.5,3.749-9,7.434-13.432,11.183-.937.75.375,2.062,1.312,1.312,4.5-3.748,9-7.434,13.432-11.183.937-.75-.437-2.124-1.312-1.312Z" transform="translate(-1306.884 -1042.002)" fill="#e8e8e8"/>
        </g>
      </g>
      <g id="Group_1382" data-name="Group 1382" transform="translate(664.031 527.714)">
        <g id="Group_1381" data-name="Group 1381">
          <path id="Path_783" data-name="Path 783" d="M1307.766,1062.374a.938.938,0,0,0,0-1.874.938.938,0,0,0,0,1.874Z" transform="translate(-1306.875 -1060.5)" fill="#e8e8e8"/>
        </g>
      </g>
      <g id="Group_1384" data-name="Group 1384" transform="translate(568.947 527.714)">
        <g id="Group_1383" data-name="Group 1383" transform="translate(0)">
          <path id="Path_784" data-name="Path 784" d="M1269.7,1060.5H1155.565a.938.938,0,0,0,0,1.874H1269.7a.938.938,0,0,0,0-1.874Z" transform="translate(-1154.675 -1060.5)" fill="#e8e8e8"/>
        </g>
      </g>
      <g id="Group_1386" data-name="Group 1386" transform="translate(568.015 529.11)">
        <g id="Group_1385" data-name="Group 1385">
          <path id="Path_785" data-name="Path 785" d="M1154.818,1080.705c6.747-5.623,13.682-11,20.8-16.181.937-.687.063-2.311-.937-1.624q-10.87,7.872-21.179,16.431c-.937.812.375,2.124,1.312,1.374Z" transform="translate(-1153.184 -1062.734)" fill="#e8e8e8"/>
        </g>
      </g>
      <g id="Group_1388" data-name="Group 1388" transform="translate(0 511.096)">
        <g id="Group_1387" data-name="Group 1387">
          <path id="Path_786" data-name="Path 786" d="M244.865,1035.774h169.8a.938.938,0,0,0,0-1.874h-169.8a.938.938,0,0,0,0,1.874Z" transform="translate(-243.975 -1033.9)" fill="#e8e8e8"/>
        </g>
      </g>
      <g id="Group_1390" data-name="Group 1390" transform="translate(22.317 512.527)">
        <g id="Group_1389" data-name="Group 1389">
          <path id="Path_787" data-name="Path 787" d="M281.323,1052.94c5.935-5.06,11.932-10.121,17.867-15.181.937-.812-.437-2.124-1.312-1.312-5.935,5.06-11.932,10.121-17.867,15.181-.937.75.437,2.124,1.312,1.312Z" transform="translate(-279.697 -1036.191)" fill="#e8e8e8"/>
        </g>
      </g>
      <g id="Group_1392" data-name="Group 1392" transform="translate(1.562 529.214)">
        <g id="Group_1391" data-name="Group 1391">
          <path id="Path_788" data-name="Path 788" d="M247.365,1064.774H370.313a.938.938,0,0,0,0-1.874H247.365a.938.938,0,0,0,0,1.874Z" transform="translate(-246.475 -1062.9)" fill="#e8e8e8"/>
        </g>
      </g>
      <g id="Group_1394" data-name="Group 1394" transform="translate(96.469 530.424)">
        <g id="Group_1393" data-name="Group 1393">
          <path id="Path_789" data-name="Path 789" d="M413.015,1065.127c-4.686,5.248-9.5,10.371-14.369,15.494-.812.875.5,2.187,1.312,1.312,4.873-5.123,9.621-10.246,14.369-15.494.875-.875-.5-2.186-1.312-1.312Z" transform="translate(-398.391 -1064.839)" fill="#e8e8e8"/>
        </g>
      </g>
      <g id="Group_1396" data-name="Group 1396" transform="translate(78.217 547.331)">
        <g id="Group_1395" data-name="Group 1395">
          <path id="Path_790" data-name="Path 790" d="M370.065,1093.774H478.144a.938.938,0,0,0,0-1.874H370.065a.938.938,0,0,0,0,1.874Z" transform="translate(-369.175 -1091.9)" fill="#e8e8e8"/>
        </g>
      </g>
      <g id="Group_1398" data-name="Group 1398" transform="translate(52.665 479.672)">
        <g id="Group_1397" data-name="Group 1397">
          <path id="Path_791" data-name="Path 791" d="M329.165,985.474h45.793a.938.938,0,0,0,0-1.874H329.165a.938.938,0,0,0,0,1.874Z" transform="translate(-328.275 -983.6)" fill="#e8e8e8"/>
        </g>
      </g>
      <g id="Group_1400" data-name="Group 1400" transform="translate(109.969 485.794)">
        <g id="Group_1399" data-name="Group 1399">
          <path id="Path_792" data-name="Path 792" d="M420.937,995.274h14.119a.938.938,0,0,0,0-1.874H420.937a.937.937,0,0,0,0,1.874Z" transform="translate(-420 -993.4)" fill="#e8e8e8"/>
        </g>
      </g>
      <g id="Group_1402" data-name="Group 1402" transform="translate(76.983 152.732)">
        <g id="Group_1401" data-name="Group 1401">
          <path id="Path_793" data-name="Path 793" d="M367.2,461.165v30.612a.938.938,0,0,0,1.874,0V461.165a.938.938,0,0,0-1.874,0Z" transform="translate(-367.2 -460.275)" fill="#e8e8e8"/>
        </g>
      </g>
      <g id="Group_1404" data-name="Group 1404" transform="translate(44.669 183.86)">
        <g id="Group_1403" data-name="Group 1403">
          <path id="Path_794" data-name="Path 794" d="M316.365,511.974h75.343a.938.938,0,0,0,0-1.874H316.365a.938.938,0,0,0,0,1.874Z" transform="translate(-315.475 -510.1)" fill="#e8e8e8"/>
        </g>
      </g>
      <g id="Group_1406" data-name="Group 1406" transform="translate(98.162 185.671)">
        <g id="Group_1405" data-name="Group 1405">
          <path id="Path_795" data-name="Path 795" d="M401.1,513.937V537.49a.938.938,0,0,0,1.874,0V513.937a.937.937,0,0,0-1.874,0Z" transform="translate(-401.1 -513)" fill="#e8e8e8"/>
        </g>
      </g>
      <g id="Group_1408" data-name="Group 1408" transform="translate(76.421 211.535)">
        <g id="Group_1407" data-name="Group 1407">
          <path id="Path_796" data-name="Path 796" d="M367.237,556.274h60.037a.938.938,0,0,0,0-1.874H367.237a.937.937,0,1,0,0,1.874Z" transform="translate(-366.3 -554.4)" fill="#e8e8e8"/>
        </g>
      </g>
      <g id="Group_1410" data-name="Group 1410" transform="translate(581.52 130.804)">
        <g id="Group_1409" data-name="Group 1409" transform="translate(0)">
          <path id="Path_797" data-name="Path 797" d="M1174.8,426.065V433.5a.938.938,0,0,0,1.874,0v-7.434a.938.938,0,0,0-1.874,0Z" transform="translate(-1174.8 -425.175)" fill="#e8e8e8"/>
        </g>
      </g>
      <g id="Group_1412" data-name="Group 1412" transform="translate(582.129 131.319)">
        <g id="Group_1411" data-name="Group 1411" transform="translate(0)">
          <path id="Path_798" data-name="Path 798" d="M1176.665,427.874h128.946a.938.938,0,0,0,0-1.874H1176.665a.938.938,0,0,0,0,1.874Z" transform="translate(-1175.775 -426)" fill="#e8e8e8"/>
        </g>
      </g>
      <g id="Group_1414" data-name="Group 1414" transform="translate(583.253 138.192)">
        <g id="Group_1413" data-name="Group 1413">
          <path id="Path_799" data-name="Path 799" d="M1178.465,438.874h127.759a.938.938,0,0,0,0-1.874H1178.465a.938.938,0,0,0,0,1.874Z" transform="translate(-1177.575 -437)" fill="#e8e8e8"/>
        </g>
      </g>
      <g id="Group_1416" data-name="Group 1416" transform="translate(711.525 130.804)">
        <g id="Group_1415" data-name="Group 1415">
          <path id="Path_800" data-name="Path 800" d="M1383.024,426.065a28.839,28.839,0,0,0,.312,7.684c.188,1.187,2,.687,1.812-.5a25.209,25.209,0,0,1-.25-7.184c.125-1.187-1.749-1.187-1.874,0Z" transform="translate(-1382.896 -425.175)" fill="#e8e8e8"/>
        </g>
      </g>
      <g id="Group_1418" data-name="Group 1418" transform="translate(589.953 78.576)">
        <g id="Group_1417" data-name="Group 1417">
          <path id="Path_801" data-name="Path 801" d="M1190.174,394.756v-52.29a.938.938,0,0,0-1.874,0v52.29a.937.937,0,0,0,1.874,0Z" transform="translate(-1188.3 -341.575)" fill="#e8e8e8"/>
        </g>
      </g>
      <g id="Group_1420" data-name="Group 1420" transform="translate(590.694 76.528)">
        <g id="Group_1419" data-name="Group 1419" transform="translate(0)">
          <path id="Path_802" data-name="Path 802" d="M1190.619,341.548a17.576,17.576,0,0,1,15.868,1.125.938.938,0,0,0,.937-1.624,19.45,19.45,0,0,0-17.305-1.312c-1.125.437-.625,2.249.5,1.812Z" transform="translate(-1189.485 -338.297)" fill="#e8e8e8"/>
        </g>
      </g>
      <g id="Group_1422" data-name="Group 1422" transform="translate(607.384 79.576)">
        <g id="Group_1421" data-name="Group 1421" transform="translate(0)">
          <path id="Path_803" data-name="Path 803" d="M1216.2,344.065v50.291a.938.938,0,0,0,1.874,0V344.065a.938.938,0,0,0-1.874,0Z" transform="translate(-1216.2 -343.175)" fill="#e8e8e8"/>
        </g>
      </g>
      <g id="Group_1424" data-name="Group 1424" transform="translate(608.374 91.582)">
        <g id="Group_1423" data-name="Group 1423">
          <path id="Path_804" data-name="Path 804" d="M1218.919,365.271a12.244,12.244,0,0,1,11.37.875.938.938,0,0,0,.937-1.624,14.089,14.089,0,0,0-12.807-1.062c-1.124.437-.625,2.249.5,1.812Z" transform="translate(-1217.785 -362.393)" fill="#e8e8e8"/>
        </g>
      </g>
      <g id="Group_1426" data-name="Group 1426" transform="translate(620.503 94.382)">
        <g id="Group_1425" data-name="Group 1425" transform="translate(0)">
          <path id="Path_805" data-name="Path 805" d="M1237.2,367.765v35.173a.938.938,0,0,0,1.874,0V367.765a.938.938,0,0,0-1.874,0Z" transform="translate(-1237.2 -366.875)" fill="#e8e8e8"/>
        </g>
      </g>
      <g id="Group_1428" data-name="Group 1428" transform="translate(590.944 91.617)">
        <g id="Group_1427" data-name="Group 1427">
          <path id="Path_806" data-name="Path 806" d="M1191.019,364.98a27.953,27.953,0,0,1,15.681,1c1.125.375,1.624-1.437.5-1.812a30.331,30.331,0,0,0-16.68-1c-1.124.25-.625,2.062.5,1.812Z" transform="translate(-1189.885 -362.45)" fill="#e8e8e8"/>
        </g>
      </g>
      <g id="Group_1430" data-name="Group 1430" transform="translate(607.044 113.055)">
        <g id="Group_1429" data-name="Group 1429">
          <path id="Path_807" data-name="Path 807" d="M1216.808,399.536a25.389,25.389,0,0,1,12.057-.312c1.187.25,1.687-1.562.5-1.812a27.174,27.174,0,0,0-13.057.312.941.941,0,0,0,.5,1.812Z" transform="translate(-1215.657 -396.765)" fill="#e8e8e8"/>
        </g>
      </g>
      <g id="Group_1432" data-name="Group 1432" transform="translate(642.244 119.746)">
        <g id="Group_1431" data-name="Group 1431">
          <path id="Path_808" data-name="Path 808" d="M1273.874,418.861v-10.5a.938.938,0,0,0-1.874,0v10.5a.938.938,0,0,0,1.874,0Z" transform="translate(-1272 -407.475)" fill="#e8e8e8"/>
        </g>
      </g>
      <g id="Group_1434" data-name="Group 1434" transform="translate(642.244 119.324)">
        <g id="Group_1433" data-name="Group 1433">
          <path id="Path_809" data-name="Path 809" d="M1272.937,408.674h60.849a.938.938,0,0,0,0-1.874h-60.849a.937.937,0,1,0,0,1.874Z" transform="translate(-1272 -406.8)" fill="#e8e8e8"/>
        </g>
      </g>
      <g id="Group_1436" data-name="Group 1436" transform="translate(703.718 120.324)">
        <g id="Group_1435" data-name="Group 1435" transform="translate(0)">
          <path id="Path_810" data-name="Path 810" d="M1371.337,410.274a.938.938,0,0,0,0-1.874.938.938,0,0,0,0,1.874Z" transform="translate(-1370.4 -408.4)" fill="#e8e8e8"/>
        </g>
      </g>
      <g id="Group_1438" data-name="Group 1438" transform="translate(703.718 120.371)">
        <g id="Group_1437" data-name="Group 1437" transform="translate(0)">
          <path id="Path_811" data-name="Path 811" d="M1370.4,409.365v9.558a.938.938,0,0,0,1.874,0v-9.558a.938.938,0,0,0-1.874,0Z" transform="translate(-1370.4 -408.475)" fill="#e8e8e8"/>
        </g>
      </g>
      <g id="Group_1440" data-name="Group 1440" transform="translate(654.051 109.188)">
        <g id="Group_1439" data-name="Group 1439" transform="translate(0)">
          <path id="Path_812" data-name="Path 812" d="M1292.774,401.336v-9.871a.938.938,0,0,0-1.874,0v9.871a.938.938,0,0,0,1.874,0Z" transform="translate(-1290.9 -390.575)" fill="#e8e8e8"/>
        </g>
      </g>
      <g id="Group_1442" data-name="Group 1442" transform="translate(654.098 108.829)">
        <g id="Group_1441" data-name="Group 1441">
          <path id="Path_813" data-name="Path 813" d="M1291.865,391.874h59.85a.938.938,0,0,0,0-1.874h-59.85a.938.938,0,0,0,0,1.874Z" transform="translate(-1290.975 -390)" fill="#e8e8e8"/>
        </g>
      </g>
      <g id="Group_1444" data-name="Group 1444" transform="translate(714.213 108.829)">
        <g id="Group_1443" data-name="Group 1443" transform="translate(0)">
          <path id="Path_814" data-name="Path 814" d="M1387.2,390.937v8.247a.938.938,0,0,0,1.874,0v-8.247a.937.937,0,1,0-1.874,0Z" transform="translate(-1387.2 -390)" fill="#e8e8e8"/>
        </g>
      </g>
      <g id="Group_1446" data-name="Group 1446" transform="translate(702.406 119.637)">
        <g id="Group_1445" data-name="Group 1445">
          <path id="Path_815" data-name="Path 815" d="M1369.237,409.174h10.87a.938.938,0,0,0,0-1.874h-10.87a.937.937,0,1,0,0,1.874Z" transform="translate(-1368.3 -407.3)" fill="#e8e8e8"/>
        </g>
      </g>
      <g id="Group_1448" data-name="Group 1448" transform="translate(714.001 117.418)">
        <g id="Group_1447" data-name="Group 1447">
          <path id="Path_816" data-name="Path 816" d="M1386.948,404.406a4.042,4.042,0,0,0,.063,1.937.91.91,0,1,0,1.749-.5,2.458,2.458,0,0,1-.062-.937c.062-.5-.125-1.062-.625-1.125a.894.894,0,0,0-1.125.625Z" transform="translate(-1386.861 -403.749)" fill="#e8e8e8"/>
        </g>
      </g>
      <g id="Group_1450" data-name="Group 1450" transform="translate(669.196 109.07)">
        <g id="Group_1449" data-name="Group 1449" transform="translate(0)">
          <path id="Path_817" data-name="Path 817" d="M1315.178,391.519a25.554,25.554,0,0,1,.562,9.746c-.125,1.187,1.749,1.187,1.874,0a28.306,28.306,0,0,0-.625-10.246.942.942,0,0,0-1.812.5Z" transform="translate(-1315.142 -390.385)" fill="#e8e8e8"/>
        </g>
      </g>
      <g id="Group_1452" data-name="Group 1452" transform="translate(682.753 119.895)">
        <g id="Group_1451" data-name="Group 1451" transform="translate(0)">
          <path id="Path_818" data-name="Path 818" d="M1337.441,408.892a23.888,23.888,0,0,1-.562,9.184.94.94,0,0,0,1.812.5,25.457,25.457,0,0,0,.562-10.183c-.125-1.187-1.937-.687-1.812.5Z" transform="translate(-1336.842 -407.714)" fill="#e8e8e8"/>
        </g>
      </g>
      <g id="Group_1454" data-name="Group 1454" transform="translate(671.107 196.167)">
        <g id="Group_1453" data-name="Group 1453">
          <path id="Path_819" data-name="Path 819" d="M1318.2,530.737v14.744a.938.938,0,0,0,1.874,0V530.737a.937.937,0,0,0-1.874,0Z" transform="translate(-1318.2 -529.8)" fill="#e8e8e8"/>
        </g>
      </g>
      <g id="Group_1456" data-name="Group 1456" transform="translate(655.722 210.224)">
        <g id="Group_1455" data-name="Group 1455">
          <path id="Path_820" data-name="Path 820" d="M1294.465,554.174h37.484a.938.938,0,0,0,0-1.874h-37.484a.938.938,0,0,0,0,1.874Z" transform="translate(-1293.575 -552.3)" fill="#e8e8e8"/>
        </g>
      </g>
      <g id="Group_1458" data-name="Group 1458" transform="translate(635.309 1.046)">
        <g id="Group_1457" data-name="Group 1457" transform="translate(0)">
          <path id="Path_821" data-name="Path 821" d="M1260.9,218.365v33.8a.938.938,0,0,0,1.874,0v-33.8a.938.938,0,0,0-1.874,0Z" transform="translate(-1260.9 -217.475)" fill="#e8e8e8"/>
        </g>
      </g>
      <g id="Group_1460" data-name="Group 1460" transform="translate(636.793 0)">
        <g id="Group_1459" data-name="Group 1459" transform="translate(0)">
          <path id="Path_822" data-name="Path 822" d="M1264.165,217.674h42.669a.938.938,0,0,0,0-1.874h-42.669a.938.938,0,0,0,0,1.874Z" transform="translate(-1263.275 -215.8)" fill="#e8e8e8"/>
        </g>
      </g>
      <g id="Group_1462" data-name="Group 1462" transform="translate(680.415 0.734)">
        <g id="Group_1461" data-name="Group 1461" transform="translate(0)">
          <path id="Path_823" data-name="Path 823" d="M1333.1,217.865v32.549a.938.938,0,0,0,1.874,0V217.865a.938.938,0,0,0-1.874,0Z" transform="translate(-1333.1 -216.975)" fill="#e8e8e8"/>
        </g>
      </g>
      <g id="Group_1464" data-name="Group 1464" transform="translate(635.106 34.923)">
        <g id="Group_1463" data-name="Group 1463">
          <path id="Path_824" data-name="Path 824" d="M1261.465,273.574h45.356a.938.938,0,0,0,0-1.874h-45.356a.938.938,0,0,0,0,1.874Z" transform="translate(-1260.575 -271.7)" fill="#e8e8e8"/>
        </g>
      </g>
      <g id="Group_1466" data-name="Group 1466" transform="translate(639.495 4.92)">
        <g id="Group_1465" data-name="Group 1465" transform="translate(0)">
          <path id="Path_825" data-name="Path 825" d="M1267.6,224.565v25.614a.938.938,0,0,0,1.874,0V224.565a.938.938,0,0,0-1.874,0Z" transform="translate(-1267.6 -223.675)" fill="#e8e8e8"/>
        </g>
      </g>
      <g id="Group_1468" data-name="Group 1468" transform="translate(639.979 4.686)">
        <g id="Group_1467" data-name="Group 1467">
          <path id="Path_826" data-name="Path 826" d="M1269.265,225.174h35.11a.938.938,0,0,0,0-1.874h-35.11a.938.938,0,0,0,0,1.874Z" transform="translate(-1268.375 -223.3)" fill="#e8e8e8"/>
        </g>
      </g>
      <g id="Group_1470" data-name="Group 1470" transform="translate(675.292 4.92)">
        <g id="Group_1469" data-name="Group 1469">
          <path id="Path_827" data-name="Path 827" d="M1324.9,224.565v23.74a.938.938,0,0,0,1.874,0v-23.74a.938.938,0,0,0-1.874,0Z" transform="translate(-1324.9 -223.675)" fill="#e8e8e8"/>
        </g>
      </g>
      <g id="Group_1472" data-name="Group 1472" transform="translate(639.979 30.487)">
        <g id="Group_1471" data-name="Group 1471">
          <path id="Path_828" data-name="Path 828" d="M1269.265,266.474h34.923a.938.938,0,0,0,0-1.874h-34.923a.938.938,0,0,0,0,1.874Z" transform="translate(-1268.375 -264.6)" fill="#e8e8e8"/>
        </g>
      </g>
      <g id="Group_1474" data-name="Group 1474" transform="translate(659.457 10.995)">
        <g id="Group_1473" data-name="Group 1473" transform="translate(0)">
          <path id="Path_829" data-name="Path 829" d="M1303.081,243.52c-4.935-3.748,2.437-11.558,5.872-6.872,3.186,4.248-2,9.371-6.435,7-1.062-.562-2,1.062-.937,1.624a6.9,6.9,0,0,0,8.746-1.562,6.771,6.771,0,0,0-.812-9.184c-2.811-2.312-6.81-.75-8.746,1.874a6.224,6.224,0,0,0,1.374,8.746c1,.687,1.874-.937.937-1.624Z" transform="translate(-1299.553 -233.399)" fill="#e8e8e8"/>
        </g>
      </g>
      <g id="Group_1476" data-name="Group 1476" transform="translate(655.163 21.73)">
        <g id="Group_1475" data-name="Group 1475">
          <path id="Path_830" data-name="Path 830" d="M1294.567,259.215c-.25-4.935,5.81-6.81,9.621-6.81,4.686,0,6.185,4.186,8.122,7.747.562,1.062,2.187.125,1.624-.937-1.312-2.374-2.561-5.5-4.748-7.247-2-1.562-4.5-1.5-6.872-1.249-4.373.5-9.933,3.186-9.621,8.5.063,1.187,1.937,1.187,1.874,0Z" transform="translate(-1292.68 -250.583)" fill="#e8e8e8"/>
        </g>
      </g>
      <g id="Group_1478" data-name="Group 1478" transform="translate(639.979 22.339)">
        <g id="Group_1477" data-name="Group 1477" transform="translate(0)">
          <path id="Path_831" data-name="Path 831" d="M1270.077,255.082c1.374-2.561,6.435-1.562,8.309-.562a7.245,7.245,0,0,1,3.561,4.935c.25,1.187,2.062.687,1.812-.5a9.283,9.283,0,0,0-6.247-6.872c-2.749-.875-7.434-.937-9,2-.625,1.124,1,2.062,1.562,1Z" transform="translate(-1268.375 -251.557)" fill="#e8e8e8"/>
        </g>
      </g>
      <g id="Group_1480" data-name="Group 1480" transform="translate(642.013 14.026)">
        <g id="Group_1479" data-name="Group 1479">
          <path id="Path_832" data-name="Path 832" d="M1274.922,245.466c-2.062-.062-1.562-3.124-.687-4.186a3.225,3.225,0,0,1,5.185,3.811,2.872,2.872,0,0,1-2.562,1.062c-.375,0-1.937.063-2.186-.25-.687-1-2.312-.062-1.624.937.75,1.125,2.311,1.187,3.561,1.187a4.994,4.994,0,0,0,4-1.437,5.1,5.1,0,1,0-8.5-5.5c-1.124,2.436-.312,6.122,2.811,6.185,1.25.125,1.25-1.749,0-1.812Z" transform="translate(-1271.63 -238.251)" fill="#e8e8e8"/>
        </g>
      </g>
    </g>
    <g id="icons" transform="translate(345.649 116.979)">
      <g id="Group_1482" data-name="Group 1482" transform="translate(160.979 93.295)">
        <g id="Group_1481" data-name="Group 1481">
          <path id="Path_833" data-name="Path 833" d="M664.711,402.747c2.936,2.374,6.56,1.374,9.309-.937,3.873-3.186,5.81-8.621,6.56-13.432,1.937-12.245-3-23.865-4.935-35.735-3.5-22.053,6.122-45.668,23.99-58.913,8.684-6.5,22.99-13.432,19.617-26.739a.94.94,0,0,0-1.812.5c3.186,12.682-11.558,19.117-19.617,25.239a62.511,62.511,0,0,0-17.305,20.8,65.279,65.279,0,0,0-7.309,25.3c-.812,10.683,2,20.616,4.311,30.924,1.374,6.247,2.249,12.807,1.062,19.179a25.131,25.131,0,0,1-3.124,8.371c-1.749,2.749-5.935,7-9.434,4.186-.875-.812-2.249.5-1.312,1.249Z" transform="translate(-664.397 -266.314)" fill="#e8e8e8"/>
        </g>
      </g>
      <g id="Group_1484" data-name="Group 1484" transform="translate(200.387 66.095)">
        <g id="Group_1483" data-name="Group 1483">
          <path id="Path_834" data-name="Path 834" d="M742.235,249.9c-7.06.312-13.244-5.185-12.87-12.432.375-7.559,9.309-14.556,16.868-12.557,6.747,1.812,11.932,9.246,10.246,16.181s-9.5,8.434-15.493,9.434c-1.187.187-.687,2,.5,1.812,7.747-1.249,16.743-4,17.243-13.369.375-7.622-6.435-15.868-14.244-16.181-8.247-.375-16.555,6.372-16.993,14.744-.375,8.247,6.685,14.619,14.744,14.306,1.187-.125,1.187-2,0-1.937Z" transform="translate(-727.477 -222.776)" fill="#e8e8e8"/>
        </g>
      </g>
      <g id="Group_1486" data-name="Group 1486" transform="translate(204.02 80.368)">
        <g id="Group_1485" data-name="Group 1485">
          <path id="Path_835" data-name="Path 835" d="M735.171,253.6c3-7.559,18.992-8.809,20.866.187.25,1.187,2.062.687,1.812-.5-2.312-11-20.866-9.371-24.49-.187-.437,1.125,1.374,1.562,1.812.5Z" transform="translate(-733.292 -245.622)" fill="#e8e8e8"/>
        </g>
      </g>
      <g id="Group_1488" data-name="Group 1488" transform="translate(212.019 72.411)">
        <g id="Group_1487" data-name="Group 1487">
          <path id="Path_836" data-name="Path 836" d="M749.347,240.391a3.091,3.091,0,0,1-.937-4.123,3.472,3.472,0,0,1,4.748-1,2.387,2.387,0,0,1,.75,3.436c-.937,1.437-2.936,1.624-4.5,1.249-1.187-.25-1.687,1.562-.5,1.812,2.5.562,5.5,0,6.747-2.436a4.251,4.251,0,0,0-1.937-5.872c-2.5-1.125-5.5-.625-6.935,1.812a5,5,0,0,0,1.624,6.685c1,.812,1.937-.812.937-1.562Z" transform="translate(-746.096 -232.885)" fill="#e8e8e8"/>
        </g>
      </g>
      <g id="Group_1490" data-name="Group 1490" transform="translate(239.834 27.659)">
        <g id="Group_1489" data-name="Group 1489">
          <path id="Path_837" data-name="Path 837" d="M792.544,194.268c6.56-17.368,25.427-26.239,42.982-27.426,11.62-.812,23.24,1,34.61,3.186,10.745,2.124,21.928,5.5,32.924,5.123,9.059-.312,18.367-4.061,22.615-12.495.562-1.062-1.062-2-1.624-.937-4.935,9.746-16.306,12.245-26.364,11.433-11.745-.937-23.3-4.436-34.86-6.372-18.742-3.124-38.734-3.561-55.414,7a40.976,40.976,0,0,0-16.743,19.992c-.375,1.124,1.437,1.624,1.874.5Z" transform="translate(-790.619 -161.252)" fill="#e8e8e8"/>
        </g>
      </g>
      <g id="Group_1492" data-name="Group 1492" transform="translate(381.512 26.127)">
        <g id="Group_1491" data-name="Group 1491">
          <path id="Path_838" data-name="Path 838" d="M1018.337,160.674h49.542a.938.938,0,0,0,0-1.874h-49.542a.937.937,0,1,0,0,1.874Z" transform="translate(-1017.4 -158.8)" fill="#e8e8e8"/>
        </g>
      </g>
      <g id="Group_1494" data-name="Group 1494" transform="translate(378.872 2.626)">
        <g id="Group_1493" data-name="Group 1493">
          <path id="Path_839" data-name="Path 839" d="M1016.064,144.558c-2.936-2.874.25-7.747,2.561-9.933a9.565,9.565,0,0,1,10.433-2.312.924.924,0,0,0,1.062-.437,14.273,14.273,0,0,1,13.369-8.809,14.047,14.047,0,0,1,12.682,10.558.951.951,0,0,0,1.375.562c2.749-1.687,5.56.312,6.684,2.874,1,2.374.75,5.06.5,7.622-.125,1.187,1.749,1.187,1.874,0,.375-3.748.625-8.184-2.374-11.058a6.1,6.1,0,0,0-7.559-1.062c.437.187.937.375,1.374.562a15.5,15.5,0,0,0-29.488-2.187c.375-.125.687-.312,1.062-.437-5-2-10.246.125-13.494,4.248-2.437,3.061-4.561,8-1.25,11.183.75.812,2.062-.5,1.187-1.374Z" transform="translate(-1013.174 -121.182)" fill="#e8e8e8"/>
        </g>
      </g>
      <g id="Group_1496" data-name="Group 1496" transform="translate(416.419 33.229)">
        <g id="Group_1495" data-name="Group 1495">
          <path id="Path_840" data-name="Path 840" d="M1074.165,172.124c7.684-.875,12.182,7.184,13.369,13.682,1.25,6.685.063,13.369-.625,20.054-1.062,10.058-.375,22.178,9.184,28.051,1,.625,2-1,.937-1.624-13.057-8-7.622-25.8-7.122-38.046.375-9.309-3.311-25.364-15.743-23.99-1.187.125-1.187,2,0,1.874Z" transform="translate(-1073.275 -170.167)" fill="#e8e8e8"/>
        </g>
      </g>
      <g id="Group_1498" data-name="Group 1498" transform="translate(432.735 85.807)">
        <g id="Group_1497" data-name="Group 1497">
          <path id="Path_841" data-name="Path 841" d="M1116.265,254.936c-5.623,14.182-11.183,28.363-16.805,42.482-.437,1.125,1.374,1.624,1.812.5,5.623-14.182,11.183-28.363,16.805-42.482.437-1.125-1.374-1.562-1.812-.5Z" transform="translate(-1099.392 -254.329)" fill="#e8e8e8"/>
        </g>
      </g>
      <g id="Group_1500" data-name="Group 1500" transform="translate(449.6 85.482)">
        <g id="Group_1499" data-name="Group 1499">
          <path id="Path_842" data-name="Path 842" d="M1127.27,255.927a174.272,174.272,0,0,1,29.113.875,14.434,14.434,0,0,1-.875-1.187,430.813,430.813,0,0,0-11.37,44.981c-.25,1.187,1.562,1.687,1.812.5a447.107,447.107,0,0,1,11.37-44.981.949.949,0,0,0-.875-1.187,174.265,174.265,0,0,0-29.113-.875c-1.25.062-1.25,1.937-.062,1.874Z" transform="translate(-1126.387 -253.807)" fill="#e8e8e8"/>
        </g>
      </g>
      <g id="Group_1502" data-name="Group 1502" transform="translate(432.35 128.89)">
        <g id="Group_1501" data-name="Group 1501">
          <path id="Path_843" data-name="Path 843" d="M1099.665,325.108c5.748.25,11.433.562,17.18.937,5.56.312,11.495.187,16.743,2.311,1.125.437,1.624-1.374.5-1.812-5-2.062-10.683-1.937-15.993-2.249-6.122-.375-12.245-.687-18.43-1-1.187-.125-1.187,1.749,0,1.812Z" transform="translate(-1098.775 -323.29)" fill="#e8e8e8"/>
        </g>
      </g>
      <g id="Group_1504" data-name="Group 1504" transform="translate(450.42 91.912)">
        <g id="Group_1503" data-name="Group 1503">
          <path id="Path_844" data-name="Path 844" d="M1128.637,266.037a156.347,156.347,0,0,1,17.93,1.374c1.187.187,1.687-1.624.5-1.812a151.63,151.63,0,0,0-18.43-1.5.969.969,0,0,0,0,1.937Z" transform="translate(-1127.7 -264.1)" fill="#e8e8e8"/>
        </g>
      </g>
      <g id="Group_1506" data-name="Group 1506" transform="translate(448.655 96.135)">
        <g id="Group_1505" data-name="Group 1505">
          <path id="Path_845" data-name="Path 845" d="M1125.765,272.821a78.224,78.224,0,0,1,10.121.25c1.187.125,1.187-1.749,0-1.874a68.461,68.461,0,0,0-10.121-.25c-1.187.062-1.187,1.937,0,1.874Z" transform="translate(-1124.875 -270.859)" fill="#e8e8e8"/>
        </g>
      </g>
      <g id="Group_1508" data-name="Group 1508" transform="translate(444.485 104.21)">
        <g id="Group_1507" data-name="Group 1507">
          <path id="Path_846" data-name="Path 846" d="M1119.137,286.106c7.184-.437,13.994-1.062,21.054.687a.94.94,0,0,0,.5-1.812c-7.247-1.749-14.182-1.187-21.553-.75-1.249.063-1.249,1.937,0,1.874Z" transform="translate(-1118.2 -283.785)" fill="#e8e8e8"/>
        </g>
      </g>
      <g id="Group_1510" data-name="Group 1510" transform="translate(444.821 109.927)">
        <g id="Group_1509" data-name="Group 1509">
          <path id="Path_847" data-name="Path 847" d="M1119.651,295.038a74.348,74.348,0,0,1,12.37.062c1.187.125,1.187-1.749,0-1.874a74.352,74.352,0,0,0-12.37-.062c-1.187.125-1.249,2,0,1.874Z" transform="translate(-1118.738 -292.937)" fill="#e8e8e8"/>
        </g>
      </g>
      <g id="Group_1512" data-name="Group 1512" transform="translate(441.596 117.214)">
        <g id="Group_1511" data-name="Group 1511">
          <path id="Path_848" data-name="Path 848" d="M1114.465,306.662a82.671,82.671,0,0,1,16.68.562c1.187.187,1.187-1.687,0-1.874a82.823,82.823,0,0,0-16.68-.562c-1.187.062-1.187,1.937,0,1.874Z" transform="translate(-1113.575 -304.6)" fill="#e8e8e8"/>
        </g>
      </g>
      <g id="Group_1514" data-name="Group 1514" transform="translate(131.452 34.111)">
        <g id="Group_1513" data-name="Group 1513">
          <path id="Path_849" data-name="Path 849" d="M617.3,172.9c2.5,3.374,6.122,4.748,9.808,6.435a35.526,35.526,0,0,1,11.62,8.246c7.372,7.934,9.808,18.617,10,29.175.437,19.8-6.247,40.545,2.749,59.287.5,1.062,2.124.125,1.624-.937-9.434-19.742-1.062-41.857-2.686-62.6-.687-9-3.249-17.8-9.059-24.8a36.051,36.051,0,0,0-9.871-8.309c-4.186-2.374-9.621-3.436-12.557-7.434-.687-.937-2.312,0-1.624.937Z" transform="translate(-617.134 -171.579)" fill="#e8e8e8"/>
        </g>
      </g>
      <g id="Group_1516" data-name="Group 1516" transform="translate(99.4 1.726)">
        <g id="Group_1515" data-name="Group 1515">
          <path id="Path_850" data-name="Path 850" d="M576.682,127.025q-2.436-3.092.375-4.311a8.985,8.985,0,0,1,2.561-.937,14.953,14.953,0,0,1,3.748-.25c3.748.187,7.559,1.187,7.372,5.748a75.667,75.667,0,0,1-2.5,15.868c-1.374,5.31-3.061,10.5-4.873,15.681a23.32,23.32,0,0,1-1.249,3.5c-1.125,1.937-2.874,1.874-4.748,1.874-2.312,0-5.248.312-7.5-.312-2.5-.687-3.061-3.186-.625-4.81a7.374,7.374,0,0,1,4-.875c1.687,0,3.186.375,4.623-.75,2.749-2.124,3.186-7.872,3.811-10.933.937-4.436,2.5-9.871,2.187-14.369-.25-3.436-3.624-3.561-6.06-5a.938.938,0,0,0-.937,1.624c1.937,1.125,4.748,1.249,5.123,3.811.437,3-.812,7.059-1.374,10.058-.562,2.874-1.187,5.748-1.937,8.559-.562,2.124-.812,4.686-3.623,5.248-1.124.25-2.5-.125-3.686.062-3,.437-5.935,2.561-5.5,5.935.562,4.248,5.623,3.5,8.746,3.623,3.873.125,7.747.687,9.5-3.436a133.832,133.832,0,0,0,5.248-16.056,86.385,86.385,0,0,0,3.186-16.868c.375-4.436.562-8-4.373-9.184-4.311-1.062-10.246-1.562-13.619,1.937-2.249,2.312-1.687,6.872,2.187,6.56,1.124-.25,1.124-2.124-.063-2Z" transform="translate(-565.83 -119.742)" fill="#e8e8e8"/>
        </g>
      </g>
      <g id="Group_1518" data-name="Group 1518" transform="translate(97.718 15.234)">
        <g id="Group_1517" data-name="Group 1517">
          <path id="Path_851" data-name="Path 851" d="M568.112,141.824l-.187-.187a1.046,1.046,0,0,0-.937-.25c-1.812.625-2.5,3.561-3,5.185a21.687,21.687,0,0,0-.625,9.184c.125,1.187,2,1.187,1.874,0a22.65,22.65,0,0,1,.063-6.5c.187-1.125,2.124-5.5,1.437-6.122a.951.951,0,0,0,1.374-1.312Z" transform="translate(-563.137 -141.364)" fill="#e8e8e8"/>
        </g>
      </g>
      <g id="Group_1520" data-name="Group 1520" transform="translate(88.623 8.5)">
        <g id="Group_1519" data-name="Group 1519">
          <path id="Path_852" data-name="Path 852" d="M556.339,130.906c-5.748,7.309-9.434,16.118-7,25.489a.94.94,0,0,0,1.812-.5c-2.249-8.621,1.249-16.93,6.5-23.677.75-.937-.562-2.249-1.312-1.312Z" transform="translate(-548.579 -130.584)" fill="#e8e8e8"/>
        </g>
      </g>
      <g id="Group_1522" data-name="Group 1522" transform="translate(75.753)">
        <g id="Group_1521" data-name="Group 1521">
          <path id="Path_853" data-name="Path 853" d="M540.737,117.367A62.537,62.537,0,0,0,528.3,161.536c.125,1.187,2,1.187,1.874,0A61.058,61.058,0,0,1,542.361,118.3c.687-.937-.937-1.874-1.624-.937Z" transform="translate(-527.979 -116.979)" fill="#e8e8e8"/>
        </g>
      </g>
      <g id="Group_1524" data-name="Group 1524" transform="translate(38.211 64.142)">
        <g id="Group_1523" data-name="Group 1523">
          <path id="Path_854" data-name="Path 854" d="M504.879,219.743a41.012,41.012,0,0,0-12.87,9.5c-3.623,4.123-4.748,8.559-5.31,13.932-1.249,12.307-5.81,25.8-18.18,30.987-1.124.437-.625,2.249.5,1.812,9.871-4.123,15.618-13.494,18.055-23.615,1.437-6.06.75-13.244,3.936-18.68,3.249-5.56,9.121-9.621,14.806-12.37,1.125-.437.188-2.062-.937-1.562Z" transform="translate(-467.885 -219.649)" fill="#e8e8e8"/>
        </g>
      </g>
      <g id="Group_1526" data-name="Group 1526" transform="translate(0 124.187)">
        <g id="Group_1525" data-name="Group 1525">
          <path id="Path_855" data-name="Path 855" d="M419.141,343.4c-4.123.125-8.809-1.624-10.308-5.872-1.749-5,2-9.871,6-12.432,7.747-5,18.18-6.935,27.176-7.06,4.561-.062,9.746,0,13.744,2.436,5.123,3.124,6,9,2,13.432-6.06,6.747-16.493,7.434-24.865,8.059-1.187.062-1.187,1.937,0,1.874,8.371-.625,17.742-1.374,24.49-7,6.185-5.123,6.622-13.619-.625-18.055-7.5-4.561-18.929-3.061-27.051-1.312-7.809,1.687-18.492,4.748-21.991,12.807-3.623,8.247,3.311,15.119,11.558,14.869,1.125.063,1.125-1.812-.125-1.749Z" transform="translate(-406.722 -315.762)" fill="#e8e8e8"/>
        </g>
      </g>
      <g id="Group_1528" data-name="Group 1528" transform="translate(7.349 150.063)">
        <g id="Group_1527" data-name="Group 1527">
          <path id="Path_856" data-name="Path 856" d="M423.242,359.692c-1.562,2.5-3.061,5-4.623,7.434-.5.812.5,1.687,1.312,1.312,3.811-2.062,7.934-3.374,11.808-5.185a49.118,49.118,0,0,0,6.185-3.311c.687-.437,1.5-.687,1.687-1.562a.894.894,0,0,0-.625-1.125.23.23,0,0,1-.187-.062c-.437-.062-1.062.125-1.124.625v.125c-.25,1.187,1.562,1.687,1.812.5v-.125c-.375.187-.75.437-1.125.625a.229.229,0,0,1,.187.063c-.187-.375-.437-.75-.625-1.125-.187.625-3.686,2.062-4.436,2.5a60.994,60.994,0,0,1-5.81,2.624,80.983,80.983,0,0,0-8.559,3.811l1.312,1.312c1.562-2.5,3.061-5,4.623-7.434.437-1.062-1.187-2-1.812-1Z" transform="translate(-418.485 -357.182)" fill="#e8e8e8"/>
        </g>
      </g>
      <g id="Group_1530" data-name="Group 1530" transform="translate(11.054 139.017)">
        <g id="Group_1529" data-name="Group 1529">
          <path id="Path_857" data-name="Path 857" d="M427.53,342.249c-.063-.125-.063-.375.125-.375.5,0-.062.625-.125.687-.312.187-1.374.437-1.312-.187.063-.75,1.5-1.562,1.749-.437a.685.685,0,0,1-.5.75.37.37,0,0,1-.437-.062c-.062-.062-.187-.125-.062-.125,1.187.062,1.187-1.812,0-1.874A1.878,1.878,0,0,0,425.093,343a2.3,2.3,0,0,0,2.811,1.5,2.664,2.664,0,0,0,2-2.5,2.6,2.6,0,0,0-2-2.436c-2.312-.562-4.748,2.811-2.749,4.5,1.624,1.374,4.873.125,4.686-2.187a2.162,2.162,0,0,0-2.749-1.812,2.215,2.215,0,0,0-1.125,3.124c.5,1.062,2.124.125,1.562-.937Z" transform="translate(-424.416 -339.5)" fill="#e8e8e8"/>
        </g>
      </g>
      <g id="Group_1532" data-name="Group 1532" transform="translate(26.173 136.874)">
        <g id="Group_1531" data-name="Group 1531" transform="translate(0 0)">
          <path id="Path_858" data-name="Path 858" d="M450.418,339.275c-.062-.375-.25-.875.125-1.187a1.047,1.047,0,0,1,.75-.187c.625.125.5.812.062,1.124a.442.442,0,0,1-.687-.062c-.187-.25-.125-.312.062-.437.125-.062-.25,0,.063-.062.75-.125-.5.75-.312.125-.375,1.187,1.437,1.624,1.812.5a1.7,1.7,0,0,0-1.874-2.062,1.671,1.671,0,1,0,1.874,2.436,1.837,1.837,0,0,0-.937-2.686,2.044,2.044,0,0,0-2.624,1.437,2.389,2.389,0,0,0,1.812,2.811c2.249.5,4.123-2.561,2.5-4.248a2.862,2.862,0,0,0-3.124-.437c-1.374.687-1.437,2.124-1.187,3.436.062,1.187,1.874.687,1.687-.5Z" transform="translate(-448.617 -336.07)" fill="#e8e8e8"/>
        </g>
      </g>
      <g id="Group_1534" data-name="Group 1534" transform="translate(40.645 133.328)">
        <g id="Group_1533" data-name="Group 1533">
          <path id="Path_859" data-name="Path 859" d="M472.98,332.959c.25,0,.5.063.812.063v-.062c.063-.062.063-.187.125-.25a.919.919,0,0,1,.375-.312.6.6,0,0,1,.812.187c.25.5-.187,1.437-.812,1.062-.375-.25-.437-.875.125-.75a.324.324,0,0,1,.25.125h0c0-.125,0,.062-.062.062-.187.125-.25.25-.437.125a.985.985,0,0,0-1.312.312,1.053,1.053,0,0,0,.312,1.312c1.812,1.312,4.248-1.312,2.811-3.061a2.29,2.29,0,0,0-4,1.5,2.537,2.537,0,0,0,1.874,2.249,2.479,2.479,0,0,0,2.624-1.125,2.548,2.548,0,0,0-2.811-3.873,2.68,2.68,0,0,0-1.874,2.624c.125,1.312,2,2,2.686.687a.868.868,0,1,0-1.5-.875Z" transform="translate(-471.782 -330.394)" fill="#e8e8e8"/>
        </g>
      </g>
      <g id="Group_1536" data-name="Group 1536" transform="translate(78.173 63.102)">
        <g id="Group_1535" data-name="Group 1535">
          <path id="Path_860" data-name="Path 860" d="M533.256,236.3a68.284,68.284,0,0,0,19.929-16.68c.75-.937-.562-2.249-1.312-1.312a66.708,66.708,0,0,1-19.554,16.368c-1.062.562-.125,2.187.937,1.624Z" transform="translate(-531.852 -217.984)" fill="#e8e8e8"/>
        </g>
      </g>
      <g id="Group_1538" data-name="Group 1538" transform="translate(171.362 82.362)">
        <g id="Group_1537" data-name="Group 1537">
          <path id="Path_861" data-name="Path 861" d="M682.694,249.492a108.487,108.487,0,0,0-1.562,23.8c.063,1.187,1.937,1.187,1.874,0a103.967,103.967,0,0,1,1.5-23.3c.187-1.187-1.624-1.687-1.812-.5Z" transform="translate(-681.018 -248.814)" fill="#e8e8e8"/>
        </g>
      </g>
      <g id="Group_1540" data-name="Group 1540" transform="translate(161.666 239.496)">
        <g id="Group_1539" data-name="Group 1539">
          <path id="Path_862" data-name="Path 862" d="M667.311,526.489a30.446,30.446,0,0,1,12.182-24.365c.937-.687,0-2.312-.937-1.624A32.224,32.224,0,0,0,665.5,526.489c-.062,1.187,1.812,1.187,1.812,0Z" transform="translate(-665.498 -500.334)" fill="#e8e8e8"/>
        </g>
      </g>
    </g>
    <g id="chair" transform="translate(570.624 362.867)">
      <path id="Path_863" data-name="Path 863" d="M826.218,943.974a250.747,250.747,0,0,0,5.06,29.55,253.62,253.62,0,0,0,11.995,37.672,16.884,16.884,0,0,1-17.43,3.124c-2.249-7.809-4.436-15.931-6.435-24.365-4.123-17.368-7.122-33.923-9.309-49.354Q818.253,942.287,826.218,943.974Z" transform="translate(-783.071 -671.943)" fill="#191919"/>
      <path id="Path_864" data-name="Path 864" d="M1050.531,934.611a243.959,243.959,0,0,1-4.5,29.55,248.593,248.593,0,0,1-11.932,39.3,13.1,13.1,0,0,0,18.242,0c1.437-7.559,2.811-15.181,4.186-22.8,3-16.681,5.685-33.111,8.246-49.354C1060.027,932.362,1055.279,933.487,1050.531,934.611Z" transform="translate(-867.13 -668.453)" fill="#191919"/>
      <path id="Path_865" data-name="Path 865" d="M871.956,894.711c1.437,9.558,3.124,19.429,5.06,29.55,2.811,14.681,6,28.675,9.371,41.92a18.053,18.053,0,0,1-15.681,1.437c-1.874-8.871-3.686-17.867-5.5-26.864-3.311-16.68-6.372-33.111-9.309-49.354C861.273,892.462,866.583,893.587,871.956,894.711Z" transform="translate(-800.258 -653.48)" fill="#191919"/>
      <path id="Path_866" data-name="Path 866" d="M1017.709,891.711c-1.687,9.434-3.186,19.3-4.5,29.55q-2.718,21.179-3.811,40.483a14.5,14.5,0,0,0,7.122,2.312,14.313,14.313,0,0,0,7.684-2,191.491,191.491,0,0,1-.5-24.3,199.4,199.4,0,0,1,8.247-49.354C1027.205,889.462,1022.457,890.587,1017.709,891.711Z" transform="translate(-857.861 -652.354)" fill="#191919"/>
      <path id="Path_867" data-name="Path 867" d="M1037.7,540.887c10.933,19.492,2.5,41.045-17.992,94.585-9.871,25.739-27.926,73.032-53.415,140.44a286.834,286.834,0,0,1-117.825,16.805A282.4,282.4,0,0,1,774.747,777.6c-2.811-5.06-12.557-23.99-5.248-42.357,4.061-10.183,12.245-17.493,29.612-26.114,17.118-8.5,47.292-20.429,91.149-22.615-17.18-85.526,12.245-155.622,58.038-171.8C978.349,504.153,1022.642,514.086,1037.7,540.887Z" transform="translate(-766.835 -510.567)" fill="#fff" stroke="#191919" stroke-width="2"/>
      <g id="Group_1542" data-name="Group 1542" transform="translate(183.422 37.059)">
        <g id="Group_1541" data-name="Group 1541">
          <path id="Path_868" data-name="Path 868" d="M1143.878,570.207c-18.117,22.928-22.241,53.727-29.175,81.278-7.434,29.487-15.993,58.913-28.8,86.588a252.178,252.178,0,0,1-25.3,43.294c-.687,1,.937,1.937,1.624.937,17.43-23.74,29.737-50.666,39.233-78.4,9.621-28.238,15.993-57.351,23.49-86.151,4.248-16.368,9.683-32.736,20.3-46.168.687-1-.625-2.312-1.374-1.374Z" transform="translate(-1060.434 -569.885)" fill="#191919"/>
        </g>
      </g>
      <g id="Group_1544" data-name="Group 1544" transform="translate(7.653 251.597)">
        <g id="Group_1543" data-name="Group 1543">
          <path id="Path_869" data-name="Path 869" d="M779.719,915.171a263.168,263.168,0,0,0,168.116,4.436c1.125-.375.687-2.187-.5-1.812a260.351,260.351,0,0,1-167.117-4.436c-1.124-.437-1.624,1.374-.5,1.812Z" transform="translate(-779.085 -913.292)" fill="#191919"/>
        </g>
      </g>
      <g id="Group_1546" data-name="Group 1546" transform="translate(154.296 202.509)">
        <g id="Group_1545" data-name="Group 1545">
          <path id="Path_870" data-name="Path 870" d="M1014.492,836.581a47.782,47.782,0,0,1,25.427,19.742c.625,1,2.249.062,1.625-.937a50.068,50.068,0,0,0-26.551-20.616.94.94,0,0,0-.5,1.812Z" transform="translate(-1013.814 -834.719)" fill="#191919"/>
        </g>
      </g>
    </g>
    <g id="leg_r" transform="translate(485.014 500.892)">
      <path id="Path_871" data-name="Path 871" d="M702.469,957.818c5,7.5,10,15.056,14.931,22.553-31.987,28.738-36.11,36.922-33.736,38.921,4.748,3.936,38.8-13.557,42.295-15.368a235.023,235.023,0,0,0,28.613-17.305,134.739,134.739,0,0,0-9.371-20.241A150.9,150.9,0,0,0,728.084,942.2C719.525,947.323,710.966,952.571,702.469,957.818Z" transform="translate(-649.804 -810.568)" fill="#191919"/>
      <path id="Path_872" data-name="Path 872" d="M869.386,731.5a54.052,54.052,0,0,1,5,20.179,55.27,55.27,0,0,1-6.685,28.488,71.031,71.031,0,0,1-9.121,9.746,105.316,105.316,0,0,1-26.051,15.681c-16.305,7-63.723,15.431-128.133,17.055a106.974,106.974,0,0,0,11.245,28.363,117.616,117.616,0,0,0,10.5,15.368c-2.374,3.124-9.121,11.058-22.553,16.056a69.722,69.722,0,0,1-29.488,3.873,151.9,151.9,0,0,1-20.116-22.365c-18.93-26.052-23.365-51.228-24.177-67.409A198.2,198.2,0,0,1,650.354,783.6c18.742-10.308,35.922-15.931,50.041-20.117,24.3-7.122,47.542-12.057,101.02-21.116C818.158,739.559,841.336,735.686,869.386,731.5Z" transform="translate(-629.8 -731.5)" fill="#fff" stroke="#191919" stroke-width="2"/>
      <path id="Path_873" data-name="Path 873" d="M831.664,742.4c-1.812,11.932-6.935,27.426-22.8,37.047C793.43,788.813,780.5,785,749.574,792.5c-22.241,5.373-51.666,12.495-59.85,28.3-8.559,16.618,7.622,40.045,35.922,59.287a36.658,36.658,0,0,0,8.559-2.187,28.594,28.594,0,0,0,13.682-10.87,118.256,118.256,0,0,1-10.808-15.244,105.223,105.223,0,0,1-11.995-29.175c33.111-1.374,60.912-4.248,82.028-7,25.427-3.311,43.044-6.622,59.85-16.118,14.057-7.934,19.679-15.743,21.678-18.742a41.809,41.809,0,0,0,6.81-22.241A50.792,50.792,0,0,0,889.2,731.9Z" transform="translate(-651.428 -731.65)" fill="#6c6d6d" opacity="0.19"/>
      <path id="Path_874" data-name="Path 874" d="M912.668,734c-1.25,11.62-5.685,29.987-23.365,44.481-10.87,8.934-22.553,12.932-68.409,25.3-20.241,5.435-44.731,11.87-72.594,18.867a681.242,681.242,0,0,0,84.9-6.122c21.428-2.936,31.924-5.5,42.794-10.183,10.308-4.436,31.112-13.432,39.608-32.361C923.788,755.616,915.542,739.123,912.668,734Z" transform="translate(-674.269 -732.438)" fill="#6c6d6d" opacity="0.19"/>
      <path id="Path_875" data-name="Path 875" d="M748.557,877.4a156.36,156.36,0,0,0,1.687,28.051,163.824,163.824,0,0,0,6.56,27.426,47.426,47.426,0,0,0,6.935-5,46.244,46.244,0,0,0,6.56-6.935,136.127,136.127,0,0,1-10.745-16.43A119.217,119.217,0,0,1,748.557,877.4Z" transform="translate(-674.339 -786.251)" fill="#6c6d6d" opacity="0.22"/>
    </g>
    <g id="leg_l" transform="translate(505.88 498.955)">
      <path id="Path_876" data-name="Path 876" d="M732.827,1012.742c4.81,9.433,9.559,18.867,14.369,28.363-30.737,36.11-34.735,46.355-32.424,48.854,4.561,5,37.3-17.055,40.67-19.3a231.517,231.517,0,0,0,27.551-21.741A200.7,200.7,0,0,0,757.5,993Q745.135,1002.933,732.827,1012.742Z" transform="translate(-682.349 -827.695)" fill="#191919"/>
      <path id="Path_877" data-name="Path 877" d="M893.352,728.4a84.981,84.981,0,0,1,4.81,25.364,86.575,86.575,0,0,1-6.435,35.8,88.532,88.532,0,0,1-8.746,12.307,100.893,100.893,0,0,1-24.99,19.742c-15.681,8.746-61.286,19.429-123.135,21.428a158.552,158.552,0,0,0,10.808,35.61,153.039,153.039,0,0,0,10.121,19.3,50.909,50.909,0,0,1-50.041,24.99,177.44,177.44,0,0,1-19.3-28.113c-18.242-32.736-22.49-64.41-23.24-84.714a199.221,199.221,0,0,1,19.742-16.243c18.055-12.932,34.485-20.054,48.1-25.3,23.3-8.934,45.731-15.119,97.146-26.551C844.061,738.458,866.426,733.648,893.352,728.4Z" transform="translate(-663.2 -728.4)" fill="#fff" stroke="#191919" stroke-width="2"/>
      <path id="Path_878" data-name="Path 878" d="M857.014,742.119c-1.749,14.994-6.685,34.423-21.928,46.543-14.806,11.807-27.3,7-56.976,16.43-21.366,6.747-49.666,15.743-57.538,35.61-8.247,20.866,7.309,50.354,34.485,74.469a28.255,28.255,0,0,0,8.247-2.749,30.422,30.422,0,0,0,13.119-13.682A155.267,155.267,0,0,1,754.5,842.889a706.355,706.355,0,0,0,78.9-8.746c24.49-4.123,41.358-8.309,57.538-20.241,13.494-10,18.93-19.8,20.8-23.553,5.81-11.558,6.31-22.053,6.56-27.926a80.452,80.452,0,0,0-6-33.423Q884.659,735.466,857.014,742.119Z" transform="translate(-683.9 -728.625)" fill="#6c6d6d" opacity="0.19"/>
      <path id="Path_879" data-name="Path 879" d="M934.833,731.5c-1.187,14.556-5.435,37.672-22.428,55.914-10.5,11.245-21.678,16.243-65.722,31.8-19.492,6.872-42.982,14.931-69.783,23.74a504.96,504.96,0,0,0,81.653-7.684c20.616-3.686,30.737-6.872,41.107-12.745,9.933-5.623,29.862-16.868,38.109-40.733C945.579,758.676,937.644,738,934.833,731.5Z" transform="translate(-705.867 -729.563)" fill="#6c6d6d" opacity="0.19"/>
      <path id="Path_880" data-name="Path 880" d="M777.157,911.8a254.439,254.439,0,0,0,1.624,35.235,258.8,258.8,0,0,0,6.31,34.423,50.555,50.555,0,0,0,6.685-6.31,56.183,56.183,0,0,0,6.31-8.684,172.235,172.235,0,0,1-10.308-20.679A174.2,174.2,0,0,1,777.157,911.8Z" transform="translate(-705.937 -797.224)" fill="#6c6d6d" opacity="0.22"/>
    </g>
    <g id="hand_r" transform="translate(536.174 320.746)">
      <path id="Path_881" data-name="Path 881" d="M736.2,569.4c-1.187-.562-3.561-1.624-3.5-2.811.125-1.937,6.56-3.249,11.37-3.186,3.249,0,9.246.687,16.243,5.56C753.753,571.021,744.07,572.895,736.2,569.4Z" transform="translate(-719.575 -488.271)" fill="#fff" stroke="#191919" stroke-width="2"/>
      <path id="Path_882" data-name="Path 882" d="M878.564,443.242c-11.87-1.562-22.553,16.243-23.552,17.867-3.623,6.185-4.061,10.308-6.56,21.616-6.06,27.551-9.309,41.545-18.3,49.979a39.229,39.229,0,0,1-20.116,9.746c-10.683,1.687-20.366-2.312-39.233-10.371-15.931-6.81-17.867-9.309-26.551-10.308-4.436-.5-17.368-1.937-25.927,6.372-5.5,5.31-7.934,13.807-5.935,15.556,2.561,2.249,13.057-5.685,13.182-5.5a24.686,24.686,0,0,0-5.747,4.873c-1.312,1.562-3.561,4.935-2.749,5.81,1.437,1.749,10.246-8.871,19.929-7,6.622,1.25,7.872,7.247,15.556,8.371a18.955,18.955,0,0,0,10.933-1.874,82.3,82.3,0,0,0,21.8,16.993c6.122,3.249,27.738,14.431,54.165,7.934,28.051-6.872,42.17-28.8,46.605-35.672,2.5-3.936,20.866-33.3,11.995-66.222C896.494,466.107,890.809,444.866,878.564,443.242Z" transform="translate(-711.692 -443.145)" fill="#fff" stroke="#191919" stroke-width="2"/>
      <path id="Path_883" data-name="Path 883" d="M878.436,443.466c-4.061,2.124,3.811,16.868,2.811,37.984-.937,20.3-9.621,35.3-13.494,42.17C862.5,532.8,855.57,544.8,841.764,552.608c-18.555,10.5-41.545,8.934-57.913,1.812-4.873-2.124-9.808-9-20.554-13.182a71.429,71.429,0,0,0-12.682-3.436c-10.558-2.062-19.929-3.936-28.613.437-4.123,2.124-7.559,5.373-7.309,5.81s5.06-2,9.309-4.311c-5.123,6.81-5.935,8.746-5.56,9.121.437.375,2-1.062,6-3.311,4.311-2.374,7.434-4.061,11.245-3.748a14.11,14.11,0,0,1,4.311,1.187c3.436,1.5,4.248,3.249,7.684,5a19.251,19.251,0,0,0,4.81,1.687,20.721,20.721,0,0,0,11.558-.937c4.748,5,26.551,27.114,58.475,26.676a74.008,74.008,0,0,0,33.236-8.809c26.052-13.557,36.422-37.609,39.046-44.231,8.122-20.491,11-50.853-3.873-69.908C887.369,447.839,881.247,442.029,878.436,443.466Z" transform="translate(-712.813 -443.182)" fill="#6c6d6d" opacity="0.25"/>
      <g id="Group_1548" data-name="Group 1548" transform="translate(0.487 90.713)">
        <g id="Group_1547" data-name="Group 1547">
          <path id="Path_884" data-name="Path 884" d="M713.8,598.189a26.388,26.388,0,0,1,9.434-8.559c.812-.437.062-1.624-.687-1.187a28.189,28.189,0,0,0-9.933,9.059c-.562.75.687,1.437,1.187.687Z" transform="translate(-712.472 -588.348)" fill="#191919"/>
        </g>
      </g>
      <g id="Group_1550" data-name="Group 1550" transform="translate(1.222 83.47)">
        <g id="Group_1549" data-name="Group 1549">
          <path id="Path_885" data-name="Path 885" d="M714.992,585.779c2.437-3.811,6.372-5.81,10.308-7.747.812-.375.125-1.624-.687-1.187-4.186,2-8.309,4.186-10.87,8.247-.437.75.75,1.437,1.249.687Z" transform="translate(-713.648 -576.753)" fill="#191919"/>
        </g>
      </g>
      <path id="Path_886" data-name="Path 886" d="M954.727,479.6a216.7,216.7,0,0,1-5.623,26.176c-5.873,21.241-11.183,40.358-25.052,55.539-17.18,18.742-40.483,23.865-53.852,25.427a61.613,61.613,0,0,0,22.678,1.187c37.484-5.248,57.726-45.543,63.223-63.161a67.172,67.172,0,0,0,3.186-18.367A68.4,68.4,0,0,0,954.727,479.6Z" transform="translate(-771.174 -456.825)" fill="#6c6d6d" opacity="0.29"/>
      <path id="Path_887" data-name="Path 887" d="M754.2,600a56.236,56.236,0,0,0,14.431,4.81,57.176,57.176,0,0,0,12.37.937c-8.559,4.561-12.994,4-15.493,2.5-1.562-.937-3.311-2.811-8.122-6.122C756.074,601.187,754.95,600.437,754.2,600Z" transform="translate(-727.644 -502.007)" fill="#6c6d6d" opacity="0.26"/>
    </g>
    <g id="table" transform="translate(264.138 432.046)">
      <g id="Group_1552" data-name="Group 1552" transform="translate(172.271 86.705)">
        <g id="Group_1551" data-name="Group 1551">
          <path id="Path_888" data-name="Path 888" d="M552,762.782v90.024c0,3.623,5.623,3.623,5.623,0V762.782c0-3.561-5.623-3.623-5.623,0Z" transform="translate(-552 -760.087)" fill="#161616"/>
        </g>
      </g>
      <g id="Group_1554" data-name="Group 1554" transform="translate(274.478 85.495)">
        <g id="Group_1553" data-name="Group 1553">
          <path id="Path_889" data-name="Path 889" d="M715.6,760.868V775.3c0,3.623,5.623,3.623,5.623,0V760.868c0-3.623-5.623-3.623-5.623,0Z" transform="translate(-715.6 -758.15)" fill="#161616"/>
        </g>
      </g>
      <path id="Path_890" data-name="Path 890" d="M427.8,707.014q45.449-42.826,90.962-85.714l147.063,2.624q-11.995,41.607-23.99,83.152Q534.817,706.983,427.8,707.014Z" transform="translate(-333.121 -621.3)" fill="#fff" stroke="#191919" stroke-width="2"/>
      <g id="Group_1556" data-name="Group 1556" transform="translate(93.773 83.34)">
        <g id="Group_1555" data-name="Group 1555">
          <path id="Path_891" data-name="Path 891" d="M429.068,760.323H639.416c3.623,0,3.623-5.623,0-5.623H429.068c-3.623,0-3.623,5.623,0,5.623Z" transform="translate(-426.35 -754.7)" fill="#161616"/>
        </g>
      </g>
      <g id="Group_1558" data-name="Group 1558" transform="translate(112.546 85.308)">
        <g id="Group_1557" data-name="Group 1557">
          <path id="Path_892" data-name="Path 892" d="M456.4,760.568V999.217c0,3.623,5.623,3.623,5.623,0V760.568c0-3.623-5.623-3.623-5.623,0Z" transform="translate(-456.4 -757.85)" fill="#161616"/>
        </g>
      </g>
      <g id="Group_1560" data-name="Group 1560" transform="translate(283.911 85.308)">
        <g id="Group_1559" data-name="Group 1559">
          <path id="Path_893" data-name="Path 893" d="M730.7,760.568V999.217c0,3.623,5.623,3.623,5.623,0V760.568c0-3.623-5.623-3.623-5.623,0Z" transform="translate(-730.7 -757.85)" fill="#161616"/>
        </g>
      </g>
      <g id="Group_1562" data-name="Group 1562" transform="translate(112.64 198.416)">
        <g id="Group_1561" data-name="Group 1561">
          <path id="Path_894" data-name="Path 894" d="M459.268,944.523h169.8c3.623,0,3.623-5.623,0-5.623h-169.8c-3.623,0-3.623,5.623,0,5.623Z" transform="translate(-456.55 -938.9)" fill="#161616"/>
        </g>
      </g>
      <g id="Group_1564" data-name="Group 1564" transform="translate(307.158 1.311)">
        <g id="Group_1563" data-name="Group 1563">
          <path id="Path_895" data-name="Path 895" d="M792.706,624.712c-7.122,27.8-15.306,55.352-24.677,82.465-.812,2.311,2.811,3.249,3.623,1q14.057-40.764,24.677-82.465c.562-2.311-3-3.311-3.623-1Z" transform="translate(-767.911 -623.399)" fill="#161616"/>
        </g>
      </g>
      <g id="lines" transform="translate(0 307.37)">
        <g id="Group_1566" data-name="Group 1566" transform="translate(30.112 19.804)">
          <g id="Group_1565" data-name="Group 1565">
            <path id="Path_896" data-name="Path 896" d="M327.168,1150.623h99.458c3.623,0,3.623-5.623,0-5.623H327.168c-3.623,0-3.623,5.623,0,5.623Z" transform="translate(-324.45 -1145)" fill="#161616"/>
          </g>
        </g>
        <g id="Group_1568" data-name="Group 1568" transform="translate(143.502 18.555)">
          <g id="Group_1567" data-name="Group 1567">
            <path id="Path_897" data-name="Path 897" d="M508.668,1148.623H531.6c3.623,0,3.623-5.623,0-5.623H508.668c-3.623,0-3.623,5.623,0,5.623Z" transform="translate(-505.95 -1143)" fill="#161616"/>
          </g>
        </g>
        <g id="Group_1570" data-name="Group 1570" transform="translate(242.96 19.367)">
          <g id="Group_1569" data-name="Group 1569">
            <path id="Path_898" data-name="Path 898" d="M667.868,1149.923h89.65c3.623,0,3.623-5.623,0-5.623h-89.65c-3.623,0-3.623,5.623,0,5.623Z" transform="translate(-665.15 -1144.3)" fill="#161616"/>
          </g>
        </g>
        <g id="Group_1572" data-name="Group 1572" transform="translate(353.038 17.368)">
          <g id="Group_1571" data-name="Group 1571">
            <path id="Path_899" data-name="Path 899" d="M844.068,1146.723h15.993c3.623,0,3.623-5.623,0-5.623H844.068c-3.623,0-3.623,5.623,0,5.623Z" transform="translate(-841.35 -1141.1)" fill="#161616"/>
          </g>
        </g>
        <g id="Group_1574" data-name="Group 1574">
          <g id="Group_1573" data-name="Group 1573">
            <path id="Path_900" data-name="Path 900" d="M278.968,1118.923H317.7c3.623,0,3.623-5.623,0-5.623H278.968c-3.624,0-3.624,5.623,0,5.623Z" transform="translate(-276.25 -1113.3)" fill="#161616"/>
          </g>
        </g>
      </g>
    </g>
    <g id="laptop" transform="translate(421.291 354.641)">
      <path id="Path_901" data-name="Path 901" d="M648.5,698.4q-57.819-1.5-115.7-2.936,34.3-32.8,68.534-65.66,39.546,2.062,79.154,4.123C669.8,655.477,659.184,676.905,648.5,698.4Z" transform="translate(-529.676 -547.085)" fill="#fff" stroke="#191919" stroke-width="2"/>
      <path id="Path_902" data-name="Path 902" d="M598.145,579.678q-33.642,32.518-67.284,65.1-1.5-52.1-3.061-104.268L596.021,497.4Q596.958,538.539,598.145,579.678Z" transform="translate(-527.8 -497.4)" fill="#fff" stroke="#191919" stroke-width="2"/>
      <g id="Group_1576" data-name="Group 1576" transform="translate(2.059 45.996)">
        <g id="Group_1575" data-name="Group 1575">
          <path id="Path_903" data-name="Path 903" d="M531.1,571.447q2.718,46.387,3.623,92.9a.469.469,0,0,0,.937,0q-.937-46.48-3.623-92.9c-.062-.562-1-.562-.937,0Z" transform="translate(-531.095 -571.025)" fill="#191919"/>
        </g>
      </g>
      <g id="Group_1578" data-name="Group 1578" transform="translate(1.843 4.803)">
        <g id="Group_1577" data-name="Group 1577">
          <path id="Path_904" data-name="Path 904" d="M531.468,546.828l62.786-40.858a.477.477,0,0,0-.5-.812l-62.786,40.858c-.5.375-.062,1.187.5.812Z" transform="translate(-530.75 -505.088)" fill="#191919"/>
        </g>
      </g>
      <g id="Group_1580" data-name="Group 1580" transform="translate(65.094 5.201)">
        <g id="Group_1579" data-name="Group 1579">
          <path id="Path_905" data-name="Path 905" d="M632,506.147c-.062,24.927.687,49.916,2.312,74.781.063.625,1,.625.937,0q-2.343-37.39-2.312-74.781a.471.471,0,0,0-.937,0Z" transform="translate(-631.994 -505.725)" fill="#191919"/>
        </g>
      </g>
      <g id="Group_1582" data-name="Group 1582" transform="translate(5.508 80.476)">
        <g id="Group_1581" data-name="Group 1581">
          <path id="Path_906" data-name="Path 906" d="M537.418,686.368q30.737-29.706,61.536-59.35c.437-.437-.25-1.062-.687-.687q-30.737,29.706-61.536,59.35c-.375.437.25,1.125.687.687Z" transform="translate(-536.616 -626.216)" fill="#191919"/>
        </g>
      </g>
      <g id="Group_1584" data-name="Group 1584" transform="translate(100.299 110.933)">
        <g id="Group_1583" data-name="Group 1583">
          <path id="Path_907" data-name="Path 907" d="M689.254,694.043c3.811-6.06,7.622-12.182,11.308-18.367.312-.5-.5-1-.812-.5-3.686,6.185-7.5,12.307-11.308,18.367-.375.5.437,1,.812.5Z" transform="translate(-688.346 -674.969)" fill="#191919"/>
        </g>
      </g>
      <g id="Group_1586" data-name="Group 1586" transform="translate(111.796 110.453)">
        <g id="Group_1585" data-name="Group 1585">
          <path id="Path_908" data-name="Path 908" d="M707.219,675.2c4.935.187,9.871.187,14.806-.062a.469.469,0,0,0,0-.937c-4.935.187-9.871.187-14.806.063a.469.469,0,0,0,0,.937Z" transform="translate(-706.75 -674.2)" fill="#191919"/>
        </g>
      </g>
      <g id="Group_1588" data-name="Group 1588" transform="translate(117.84 110.881)">
        <g id="Group_1587" data-name="Group 1587">
          <path id="Path_909" data-name="Path 909" d="M725.031,675.144c-2.811,6.122-5.685,12.245-8.559,18.367-.25.562.562,1,.812.5,2.874-6.122,5.748-12.245,8.559-18.367.25-.625-.562-1.062-.812-.5Z" transform="translate(-716.424 -674.885)" fill="#191919"/>
        </g>
      </g>
      <g id="Group_1590" data-name="Group 1590" transform="translate(100.533 129.621)">
        <g id="Group_1589" data-name="Group 1589">
          <path id="Path_910" data-name="Path 910" d="M689.083,705.768c5.5.812,11.308.437,16.868.187a.469.469,0,0,0,0-.937c-5.435.25-11.183.625-16.618-.125-.625-.125-.875.812-.25.875Z" transform="translate(-688.721 -704.882)" fill="#191919"/>
        </g>
      </g>
      <g id="Group_1592" data-name="Group 1592" transform="translate(112.694 110.886)">
        <g id="Group_1591" data-name="Group 1591">
          <path id="Path_911" data-name="Path 911" d="M716.879,675.21a161.184,161.184,0,0,1-8.621,18.18c-.312.5.5,1,.812.5a183.917,183.917,0,0,0,8.746-18.43c.187-.562-.687-.812-.937-.25Z" transform="translate(-708.188 -674.893)" fill="#191919"/>
        </g>
      </g>
      <g id="Group_1594" data-name="Group 1594" transform="translate(30.066 88.822)">
        <g id="Group_1593" data-name="Group 1593">
          <path id="Path_912" data-name="Path 912" d="M576.722,690.257q20.616-25.489,42.669-49.854c.375-.437-.25-1.125-.687-.687q-22.022,24.271-42.669,49.854c-.375.5.312,1.125.687.687Z" transform="translate(-575.926 -639.576)" fill="#191919"/>
        </g>
      </g>
      <g id="Group_1596" data-name="Group 1596" transform="translate(46.571 89.822)">
        <g id="Group_1595" data-name="Group 1595">
          <path id="Path_913" data-name="Path 913" d="M603.254,691.919q18.461-25.77,38.921-49.916c.375-.437-.25-1.124-.687-.687q-20.523,24.271-39.046,50.1c-.375.5.437,1,.812.5Z" transform="translate(-602.346 -641.176)" fill="#191919"/>
        </g>
      </g>
      <g id="Group_1598" data-name="Group 1598" transform="translate(64.465 90.782)">
        <g id="Group_1597" data-name="Group 1597">
          <path id="Path_914" data-name="Path 914" d="M631.87,695.058a555.222,555.222,0,0,1,34.985-51.666c.375-.5-.437-.937-.812-.5a555.224,555.224,0,0,0-34.985,51.666c-.312.5.5,1,.812.5Z" transform="translate(-630.988 -642.713)" fill="#191919"/>
        </g>
      </g>
      <g id="Group_1600" data-name="Group 1600" transform="translate(79.419 88.885)">
        <g id="Group_1599" data-name="Group 1599">
          <path id="Path_915" data-name="Path 915" d="M655.846,695.48A324.222,324.222,0,0,1,693.018,640.5c.375-.437-.25-1.125-.687-.687a326.758,326.758,0,0,0-37.359,55.164c-.25.562.562,1.062.875.5Z" transform="translate(-654.925 -639.676)" fill="#191919"/>
        </g>
      </g>
      <g id="Group_1602" data-name="Group 1602" transform="translate(38.437 127.788)">
        <g id="Group_1601" data-name="Group 1601">
          <path id="Path_916" data-name="Path 916" d="M589.747,703.542c15.993-1.687,31.987.312,47.917,2.437.625.062.562-.875,0-.937-15.868-2.124-31.862-4.186-47.917-2.436-.562.062-.562,1,0,.937Z" transform="translate(-589.325 -701.947)" fill="#191919"/>
        </g>
      </g>
      <g id="Group_1604" data-name="Group 1604" transform="translate(46.496 119.247)">
        <g id="Group_1603" data-name="Group 1603">
          <path id="Path_917" data-name="Path 917" d="M602.647,689.29a198.643,198.643,0,0,1,45.106,3.436c.562.125.812-.812.25-.875a200.831,200.831,0,0,0-45.356-3.436c-.562-.062-.562.875,0,.875Z" transform="translate(-602.225 -688.276)" fill="#191919"/>
        </g>
      </g>
      <g id="Group_1606" data-name="Group 1606" transform="translate(53.696 110.223)">
        <g id="Group_1605" data-name="Group 1605">
          <path id="Path_918" data-name="Path 918" d="M614.219,675.061a142.318,142.318,0,0,1,43.294,3.873c.562.125.812-.75.25-.875a141.845,141.845,0,0,0-43.544-3.936c-.625.063-.625,1,0,.937Z" transform="translate(-613.75 -673.831)" fill="#191919"/>
        </g>
      </g>
      <g id="Group_1608" data-name="Group 1608" transform="translate(61.24 101.766)">
        <g id="Group_1607" data-name="Group 1607">
          <path id="Path_919" data-name="Path 919" d="M626.247,661.173a210.714,210.714,0,0,1,41.545,4.311c.562.125.812-.812.25-.875a213.245,213.245,0,0,0-41.795-4.311c-.562-.062-.562.875,0,.875Z" transform="translate(-625.825 -660.295)" fill="#191919"/>
        </g>
      </g>
      <g id="Group_1610" data-name="Group 1610" transform="translate(68.627 93.582)">
        <g id="Group_1609" data-name="Group 1609">
          <path id="Path_920" data-name="Path 920" d="M638.119,648.073a194.891,194.891,0,0,1,39.483,4.748c.562.125.812-.75.25-.875a193.452,193.452,0,0,0-39.733-4.748c-.625-.062-.625.875,0,.875Z" transform="translate(-637.65 -647.195)" fill="#191919"/>
        </g>
      </g>
      <g id="Group_1612" data-name="Group 1612" transform="translate(93.578 103.737)">
        <g id="Group_1611" data-name="Group 1611">
          <path id="Path_921" data-name="Path 921" d="M695.963,663.669c-6.122,9-12.182,17.992-18.3,26.989-.312.5.5,1,.812.5,6.122-9,12.182-17.992,18.3-26.989.375-.562-.437-1-.812-.5Z" transform="translate(-677.588 -663.45)" fill="#191919"/>
        </g>
      </g>
      <g id="Group_1614" data-name="Group 1614" transform="translate(7.778 82.395)">
        <g id="Group_1613" data-name="Group 1613">
          <path id="Path_922" data-name="Path 922" d="M540.968,637.229c7.809-3.311,16.243-1.437,24.49-1.562a38.876,38.876,0,0,0,19.492-5.5.477.477,0,0,0-.5-.812c-7.309,4.311-15.056,5.685-23.428,5.31-7-.312-13.932-1-20.554,1.812-.5.187-.062,1,.5.75Z" transform="translate(-540.25 -629.288)" fill="#191919"/>
        </g>
      </g>
      <g id="Group_1616" data-name="Group 1616" transform="translate(28.831 55.429)">
        <g id="Group_1615" data-name="Group 1615">
          <path id="Path_923" data-name="Path 923" d="M574.668,617.159c13.369-7.559,19.554-23.49,33.486-30.175.562-.25.062-1.062-.5-.812-13.994,6.747-20.116,22.615-33.486,30.175a.477.477,0,0,0,.5.812Z" transform="translate(-573.95 -586.125)" fill="#191919"/>
        </g>
      </g>
      <g id="Group_1618" data-name="Group 1618" transform="translate(43.891 30.463)">
        <g id="Group_1617" data-name="Group 1617">
          <path id="Path_924" data-name="Path 924" d="M600.707,557.618c-2.312-1.812-1.937-4.748-.625-7.059a8.691,8.691,0,0,1,2.624-3c1.937-1.249,3.748-.25,5.248,1.062.437.375,1.125-.25.687-.687-3.124-2.624-6.06-2.374-8.621,1-2.062,2.749-3.124,6.872,0,9.371.5.375,1.187-.312.687-.687Z" transform="translate(-598.056 -546.161)" fill="#191919"/>
        </g>
      </g>
    </g>
    <g id="torso" transform="translate(634.058 320.718)">
      <path id="Path_925" data-name="Path 925" d="M894.566,473.275c-17.118,18.992-21.741,39.858-24.24,51.666-4.561,21.866.25,30.612.562,72.157.125,17.68-.625,31.986-1.187,40.983,3.873,3,27.863,20.866,59.912,14.994,23.74-4.311,38.046-19.179,42.544-24.24,1.062-5.935,2.561-14.681,4.311-25.3,9.246-57.288,13.807-86.338,8.059-107.142-3.436-12.62-11.932-32.611-36.047-53.29C938.36,445.224,914.058,451.721,894.566,473.275Z" transform="translate(-868.372 -443.1)" fill="#9b9b9b"/>
      <path id="Path_926" data-name="Path 926" d="M927.655,462.455a290.123,290.123,0,0,1,11,44.044c4.935,29.425,12.37,73.531-8.559,116.263a133.845,133.845,0,0,1-19.992,29.8,81.343,81.343,0,0,0,38.734-.437A82.549,82.549,0,0,0,987.192,629.7c4.061-23.24,7.309-43.169,9.808-58.725,4.311-27.363,5.31-35.672,4.873-47.355-.5-14.994-1.187-30.737-10.183-47.73A86.428,86.428,0,0,0,963.515,444.9a71.842,71.842,0,0,0-23.677,8.559A79.087,79.087,0,0,0,927.655,462.455Z" transform="translate(-884.031 -443.775)" fill="#6c6d6d" opacity="0.19"/>
      <path id="Path_927" data-name="Path 927" d="M1007.444,520.7c-1.125.062,1.25,17.368-2.437,41.233-6.81,44.169-28.675,74.781-37.109,85.651a186.3,186.3,0,0,1-34.3,33.861,66.816,66.816,0,0,0,22.428-.437c21.054-3.936,34.423-16.868,39.546-22.428,1.312-7.622,3.436-19.554,6.122-34.3,6.31-34.485,7.559-38.609,8.559-49.354C1013,545.627,1008.756,520.7,1007.444,520.7Z" transform="translate(-892.85 -472.22)" fill="#6c6d6d" opacity="0.18"/>
    </g>
    <g id="hand_l" transform="translate(529.046 355.242)">
      <path id="Path_928" data-name="Path 928" d="M732.1,591.721c-1.187-.812-3.561-2.312-3.311-3.561.5-2,7.684-2.312,12.87-1.437,3.5.562,9.871,2.374,16.555,8.684C750.717,596.469,739.909,596.781,732.1,591.721Z" transform="translate(-710.973 -531.348)" fill="#fff" stroke="#191919" stroke-width="2"/>
      <path id="Path_929" data-name="Path 929" d="M897.772,498.886c-12.557-3.686-27.238,13.244-28.55,14.869-5,5.935-6.185,10.183-10.87,21.678-11.37,28.113-17.305,42.295-28.55,49.667a43.606,43.606,0,0,1-23.428,6.872c-11.807-.062-21.553-5.935-40.545-17.68-15.993-9.933-17.618-12.932-26.864-15.431-4.686-1.249-18.43-5-29.113,2.312-6.81,4.623-11,13.244-9.121,15.431,2.374,2.811,15.119-3.811,15.181-3.561a26.293,26.293,0,0,0-7.06,4.186c-1.687,1.437-4.686,4.561-4,5.685,1.249,2.124,12.62-7.622,22.74-4,6.872,2.436,7.247,9,15.306,11.558a21.183,21.183,0,0,0,12.12-.125,88.235,88.235,0,0,0,20.554,21.678c6.06,4.5,27.426,19.992,57.1,17.68,31.487-2.436,50.6-23.24,56.539-29.675,3.436-3.686,28.363-31.612,24.552-67.971C913.2,526.124,910.767,502.759,897.772,498.886Z" transform="translate(-700.282 -498.362)" fill="#fff" stroke="#191919" stroke-width="2"/>
      <path id="Path_930" data-name="Path 930" d="M897.374,499.137c-4.748,1.562,1.187,18.492-3.623,40.67-4.56,21.3-16.555,35.672-21.991,42.232-7.309,8.809-16.868,20.3-33.173,26.176-21.866,7.872-46.418,2.312-62.848-8-4.873-3.124-9-11.183-19.929-17.493a76.75,76.75,0,0,0-13.119-5.81c-11-4-20.866-7.622-30.924-4.436-4.81,1.5-9.121,4.373-8.871,4.873.25.562,5.81-1.25,10.808-2.936-6.685,6.31-7.934,8.247-7.622,8.746.375.5,2.374-.812,7.06-2.436,5.123-1.812,8.684-3,12.807-2a15.451,15.451,0,0,1,4.5,2c3.436,2.124,4,4.186,7.372,6.622a20.349,20.349,0,0,0,4.935,2.624,22.845,22.845,0,0,0,12.62,1c4.248,6.122,23.927,33.236,58.475,38.234a81.623,81.623,0,0,0,37.422-3.623c30.487-9.871,45.918-33.486,49.916-40.046,12.37-20.241,20.8-51.853,8.059-74.593C906.245,505.259,900.623,498.075,897.374,499.137Z" transform="translate(-701.258 -498.613)" fill="#6c6d6d" opacity="0.25"/>
      <g id="Group_1620" data-name="Group 1620" transform="translate(0.376 69.588)">
        <g id="Group_1619" data-name="Group 1619">
          <path id="Path_931" data-name="Path 931" d="M702.081,618.59a28.569,28.569,0,0,1,11.683-7.434.713.713,0,0,0-.375-1.374,31.159,31.159,0,0,0-12.307,7.809c-.625.687.375,1.687,1,1Z" transform="translate(-700.883 -609.75)" fill="#191919"/>
        </g>
      </g>
      <g id="Group_1622" data-name="Group 1622" transform="translate(2.653 62.217)">
        <g id="Group_1621" data-name="Group 1621">
          <path id="Path_932" data-name="Path 932" d="M705.7,605.791c3.311-3.686,7.934-5.123,12.557-6.435a.713.713,0,0,0-.375-1.374c-4.81,1.437-9.683,3-13.119,6.81a.685.685,0,1,0,.937,1Z" transform="translate(-704.529 -597.952)" fill="#191919"/>
        </g>
      </g>
      <path id="Path_933" data-name="Path 933" d="M972.816,542.2a243.324,243.324,0,0,1-10.62,26.739c-10.058,21.428-19.117,40.733-36.8,54.414-21.8,16.868-47.917,18.3-62.6,17.617a68.252,68.252,0,0,0,24.3,5.185c41.357.875,70.345-38.3,79.341-55.914a70.434,70.434,0,0,0,6.372-48.042Z" transform="translate(-761.269 -514.813)" fill="#6c6d6d" opacity="0.29"/>
      <path id="Path_934" data-name="Path 934" d="M746.4,626.3a61.442,61.442,0,0,0,27.926,10.621c-10.058,3.311-14.744,2-17.18,0-1.5-1.249-3.061-3.561-7.747-7.872C748.212,627.862,747.15,626.925,746.4,626.3Z" transform="translate(-717.589 -546.373)" fill="#6c6d6d" opacity="0.26"/>
    </g>
    <g id="head" transform="translate(584.55 200.419)">
      <path id="Path_935" data-name="Path 935" d="M858.135,285.088c-.687,4-1.374,8-1.937,12.182a347.841,347.841,0,0,0-3.5,47.98c3.436-.375,6.81-.75,10.246-1.062a42.209,42.209,0,0,0,6.31,27.426,41.629,41.629,0,0,0,21.054,16.556c-.375,6.122-.687,12.182-1.062,18.3a146.272,146.272,0,0,1,27.613-19.367,140.588,140.588,0,0,1,24.552-10.371,62.919,62.919,0,0,1-12.432-24.864c-2.249-9.371-1.812-17.43-1.375-24.552a113.675,113.675,0,0,1,2.437-17.618c2.936-13.369-4.748-34.548-20.054-42.17C894.87,259.974,872.317,266.346,858.135,285.088Z" transform="translate(-812.982 -255.75)" fill="#fff" stroke="#161616" stroke-width="2"/>
      <g id="Group_1624" data-name="Group 1624" transform="translate(47.96 87.31)">
        <g id="Group_1623" data-name="Group 1623">
          <path id="Path_936" data-name="Path 936" d="M866.46,391.86c1.749-.25,3.561-.437,5.31-.625.625-.062.625-1,0-.937-1.874.187-3.686.437-5.56.687-.562,0-.312.937.25.875Z" transform="translate(-865.893 -390.295)" fill="#161616"/>
        </g>
      </g>
      <path id="Path_937" data-name="Path 937" d="M919.963,312.719c-7.559,1.937-8.934,8.5-18.492,22.178-9.683,13.869-15.806,22.553-26.739,27.613-7.059,3.249-10.558,2.374-13.682,6.56-5.373,7.247-1.749,19.179,1.437,25.3,3.686,7.06,9.309,11.308,13.932,14.806a63.181,63.181,0,0,0,11.37,6.81c-3.061-4.685-3.249-6.122-2.874-6.56,1-1,5.248,4.373,10.246,3.686,1.437-.187,4-1,9.683-9.933,3.873-6.06,6.5-10.246,8.246-16.243,3.811-12.87-1.562-16.368,0-33.3.25-2.561,2-22.615,9.121-23.927,2.561-.5,5.185,1.624,6.435,3.249,2.624,3.436,2.312,8.934-.937,13.682,1.062-.75,11.245-7.622,11.12-18.8,0-1.749-.062-8.184-4.935-12.37C928.334,310.719,920.587,312.594,919.963,312.719Z" transform="translate(-815.085 -273.697)" fill="#161616" stroke="#161616" stroke-width="2"/>
      <ellipse id="Ellipse_1344" data-name="Ellipse 1344" cx="2.624" cy="4.686" rx="2.624" ry="4.686" transform="translate(51.9 58.076)" fill="#161616"/>
      <ellipse id="Ellipse_1345" data-name="Ellipse 1345" cx="2.624" cy="4.686" rx="2.624" ry="4.686" transform="translate(31.908 60.262)" fill="#161616"/>
      <g id="Group_1626" data-name="Group 1626" transform="translate(29.029 53.88)">
        <g id="Group_1625" data-name="Group 1625">
          <path id="Path_938" data-name="Path 938" d="M837.159,340.168a4.063,4.063,0,0,1,6.185-.25c.875.875,2.187-.5,1.312-1.312a6.033,6.033,0,0,0-8.871.25c-.687.937.625,2.249,1.374,1.312Z" transform="translate(-835.591 -336.785)" fill="#161616"/>
        </g>
      </g>
      <g id="Group_1628" data-name="Group 1628" transform="translate(49.426 50.978)">
        <g id="Group_1627" data-name="Group 1627">
          <path id="Path_939" data-name="Path 939" d="M869.9,335.176a4.875,4.875,0,0,1,6.935.5c.812.875,2.124-.437,1.312-1.312a6.871,6.871,0,0,0-9.621-.5c-.875.75.437,2.062,1.374,1.312Z" transform="translate(-868.24 -332.139)" fill="#161616"/>
        </g>
      </g>
      <path id="Path_940" data-name="Path 940" d="M858,287.312a51.183,51.183,0,0,1,7.247-19.492c1.687-2.686,5.31-8.371,11.058-12.245,11-7.309,27.926-6.747,40.233,2.249,12.057,8.809,18.055,24.552,15.431,40.171Q894.953,292.747,858,287.312Z" transform="translate(-814.971 -250.54)" fill="#494949"/>
      <g id="Group_1630" data-name="Group 1630" transform="translate(0 31.68)">
        <g id="Group_1629" data-name="Group 1629">
          <path id="Path_941" data-name="Path 941" d="M791.8,306.9q56.882,7.309,113.827,14.556c3.561.437,3.561-5.185,0-5.623Q848.74,308.528,791.8,301.281c-3.561-.5-3.561,5.123,0,5.623Z" transform="translate(-789.125 -301.25)" fill="#161616"/>
        </g>
      </g>
      <path id="Path_942" data-name="Path 942" d="M909.4,251.018a22.94,22.94,0,0,1,9,41.17c10.808,1.437,21.678,2.936,32.486,4.373a38.322,38.322,0,0,0,.375-12.37A39.7,39.7,0,0,0,940.449,262.2c-2.436-2.5-11.058-10.87-23.865-11.62A33.556,33.556,0,0,0,909.4,251.018Z" transform="translate(-834.26 -250.543)" fill="#333"/>
    </g>
  </g>
</svg>
