<svg xmlns="http://www.w3.org/2000/svg" width="813.698" height="482.86" viewBox="0 0 813.698 482.86">
  <g id="pixeltrue-web-design" transform="translate(-98.101 -228.697)">
    <g id="background" transform="translate(108.882 515.355)">
      <g id="Group_162" data-name="Group 162" transform="translate(705.164 47.248)">
        <g id="Group_161" data-name="Group 161">
          <path id="Path_77" data-name="Path 77" d="M1347.692,898.68a71.087,71.087,0,0,1-9.418-16.278c-1.221-2.849-2.384-5.814-3.488-8.72-.523-1.4-1.1-2.732-1.512-4.128-.465-1.453-.639-2.209.058-3.6,0-.988.407-1.4,1.163-1.279.64-.174,1.046.116,1.279.872.581-.058,1.163-.174,1.686-.233a143.922,143.922,0,0,1-6.744-32.382,149.674,149.674,0,0,1-.523-16.162c.058-2.5.175-5,.407-7.558.058-.988-.058-3.779.523-4.593.639-.174,1.221-.349,1.86-.465,1.047-.872,1.86-.872,2.384.058a7.79,7.79,0,0,1,1.453,2.151,169.253,169.253,0,0,1,23.371,93.25c-.058,1.1,1.686,1.1,1.744,0a172.492,172.492,0,0,0-11.511-69.182c-2.151-5.465-4.535-10.813-7.209-16.046-1.221-2.442-2.558-4.825-3.9-7.151-1.1-1.919-2.209-4.244-4.07-5.523-3.6-2.442-5.7,1.046-6.1,4.244a120.313,120.313,0,0,0-.7,18.313,145.4,145.4,0,0,0,7.267,41.451.857.857,0,0,0,1.686-.233c0-2.325-2.616-3.314-4.593-2.325-3.488,1.686-1.512,6.511-.581,9.069,3.6,9.767,7.5,19.417,14.069,27.615a.908.908,0,1,0,1.4-1.163Z" transform="translate(-1328.378 -800.89)" fill="#e8e8e8"/>
        </g>
      </g>
      <g id="Group_164" data-name="Group 164" transform="translate(733.018 30.522)">
        <g id="Group_163" data-name="Group 163">
          <path id="Path_78" data-name="Path 78" d="M1377.982,843.15a147.1,147.1,0,0,1,3.139-23.022c.814-3.546,1.686-7.093,2.791-10.581.523-1.744,1.1-3.488,1.686-5.174.291-.872.581-1.744.93-2.558a7.769,7.769,0,0,1,.407-1.046,2.606,2.606,0,0,1,2.384-2.151c-.116.988,1.453,1.163,1.686.233,1.163-3.837,10.581-28.545,16.336-24.3,1.686,1.221,2.151,4.069,2.442,5.988.465,2.674.872,5.407,1.163,8.081.523,4.593.872,9.185.988,13.836a159.164,159.164,0,0,1-21.859,85.344.873.873,0,0,0,1.512.872,162.386,162.386,0,0,0,21.743-93.6,153.9,153.9,0,0,0-1.918-15.464c-.523-2.79-1.8-6.918-5.116-7.441-4.36-.7-7.732,6.511-9.476,9.418a74.768,74.768,0,0,0-7.441,16.8c.581.058,1.163.174,1.686.233.349-2.791-3.139-2.965-4.535-1.163-1.046,1.337-1.511,3.314-2.035,4.883-.988,2.732-1.86,5.523-2.674,8.313a146.277,146.277,0,0,0-5.523,32.44c-.116,1.163,1.628,1.163,1.686.058Z" transform="translate(-1376.29 -772.119)" fill="#e8e8e8"/>
        </g>
      </g>
      <g id="Group_166" data-name="Group 166" transform="translate(707.298 48.984)">
        <g id="Group_165" data-name="Group 165">
          <path id="Path_79" data-name="Path 79" d="M1332.137,805.227a307.075,307.075,0,0,1,23.545,93.076c.116,1.1,1.86,1.1,1.744,0a311.48,311.48,0,0,0-23.778-94.006c-.465-.988-1.977-.058-1.511.93Z" transform="translate(-1332.049 -803.875)" fill="#e8e8e8"/>
        </g>
      </g>
      <g id="Group_168" data-name="Group 168" transform="translate(706.575 87.048)">
        <g id="Group_167" data-name="Group 167">
          <path id="Path_80" data-name="Path 80" d="M1331.267,870.948a79.154,79.154,0,0,1,16.685,11.22c.814.756,2.093-.465,1.221-1.221a83.128,83.128,0,0,0-17.092-11.511c-.93-.465-1.86,1.046-.814,1.512Z" transform="translate(-1330.805 -869.349)" fill="#e8e8e8"/>
        </g>
      </g>
      <g id="Group_170" data-name="Group 170" transform="translate(719.573 71.178)">
        <g id="Group_169" data-name="Group 169">
          <path id="Path_81" data-name="Path 81" d="M1356.789,842.487a41.13,41.13,0,0,0-3.6,10.116c-.233,1.1,1.453,1.57,1.686.465a41.056,41.056,0,0,1,3.43-9.709c.523-.988-.988-1.86-1.512-.872Z" transform="translate(-1353.162 -842.052)" fill="#e8e8e8"/>
        </g>
      </g>
      <g id="Group_172" data-name="Group 172" transform="translate(736.753 33.462)">
        <g id="Group_171" data-name="Group 171">
          <path id="Path_82" data-name="Path 82" d="M1407.181,778c-3.779,33.777-7.906,68.659-24.359,99.006-.523.988.988,1.86,1.511.872,16.627-30.638,20.755-65.752,24.592-99.878.116-1.1-1.628-1.1-1.744,0Z" transform="translate(-1382.713 -777.175)" fill="#e8e8e8"/>
        </g>
      </g>
      <g id="Group_174" data-name="Group 174" transform="translate(739.406 66.025)">
        <g id="Group_173" data-name="Group 173">
          <path id="Path_83" data-name="Path 83" d="M1387.349,834.532a169.032,169.032,0,0,1,10.348,33.893c.233,1.1,1.918.639,1.686-.465a175.98,175.98,0,0,0-10.523-34.3c-.465-1.046-1.919-.174-1.512.872Z" transform="translate(-1387.278 -833.188)" fill="#e8e8e8"/>
        </g>
      </g>
      <g id="Group_176" data-name="Group 176" transform="translate(755.547 58.116)">
        <g id="Group_175" data-name="Group 175">
          <path id="Path_84" data-name="Path 84" d="M1416.471,837.615c4.36-5.523,8.72-11.046,13.081-16.511.7-.872-.523-2.093-1.221-1.221-4.36,5.523-8.72,11.046-13.081,16.511-.7.814.523,2.093,1.221,1.221Z" transform="translate(-1415.042 -819.584)" fill="#e8e8e8"/>
        </g>
      </g>
      <g id="Group_178" data-name="Group 178" transform="translate(0 37.429)">
        <g id="Group_177" data-name="Group 177">
          <path id="Path_85" data-name="Path 85" d="M149.942,883.877a103.311,103.311,0,0,1-10.7-12.906,46.345,46.345,0,0,1-3.837-7.093c-.581-1.4-3.314-8.837.465-7.325.93.349,1.337-.872.872-1.453-3.837-4.883-6.395-10.581-8.6-16.336-2.093-5.465-4.128-10.988-6.046-16.511a86.2,86.2,0,0,1-4.593-18.6c-.523-5-1.046-11.86,2.558-15.987,5.29-5.988,10.639,3.9,13.139,7.616,3.372,5,6.686,10.116,9.883,15.232a188.978,188.978,0,0,1,16.336,32.731c4.825,13.139,7.5,27.033,6.86,41.044-.058,1.1,1.686,1.1,1.744,0,1.279-28.37-10.871-54.822-25.7-78.309-3.663-5.755-7.325-11.569-11.337-17.092-2.267-3.081-5.872-6.279-9.941-4.244-3.721,1.8-5.116,6.628-5.465,10.406-.64,6.86.7,13.836,2.558,20.406,2.093,7.441,4.942,14.65,7.616,21.859,2.5,6.744,5.29,13.313,9.767,19.01.291-.465.581-.988.872-1.453a4.061,4.061,0,0,0-4.128.523.847.847,0,0,0-.407.756c1.279,11.743,9.244,20.755,16.918,29.01.7.814,1.918-.407,1.163-1.279Z" transform="translate(-115.421 -783.999)" fill="#e8e8e8"/>
        </g>
      </g>
      <g id="Group_180" data-name="Group 180" transform="translate(37.042 0)">
        <g id="Group_179" data-name="Group 179">
          <path id="Path_86" data-name="Path 86" d="M181.383,801.637a101.279,101.279,0,0,1,6.279-47.9,13.58,13.58,0,0,0-1.453.407,12.4,12.4,0,0,1,3.721,5.814.878.878,0,0,0,1.686,0A154.658,154.658,0,0,1,208.881,721a14.567,14.567,0,0,1-1.57-.233,124.829,124.829,0,0,1,8.313,36.219c.814,11.162,1.1,24.01-5.7,33.486a.854.854,0,0,0,.523,1.279c5.232,1.221,3.663,9.476,3.2,13.2a178.08,178.08,0,0,1-3.081,18.371,189.888,189.888,0,0,1-10.988,34.126c-.465,1.046,1.046,1.919,1.512.872A191.29,191.29,0,0,0,213.358,818.5c1.163-6.279,2.5-12.906,2.616-19.3.058-3.663-.872-8.255-5-9.185.174.407.349.872.523,1.279,6.8-9.476,6.686-22.15,5.988-33.312a125.172,125.172,0,0,0-8.43-37.73.877.877,0,0,0-1.57-.233,156.939,156.939,0,0,0-17.441,39.358h1.686a14.357,14.357,0,0,0-4.186-6.569.879.879,0,0,0-1.453.407,102.489,102.489,0,0,0-6.337,48.369c0,1.163,1.744,1.163,1.628.058Z" transform="translate(-179.138 -719.618)" fill="#e8e8e8"/>
        </g>
      </g>
      <g id="Group_182" data-name="Group 182" transform="translate(5.169 39.475)">
        <g id="Group_181" data-name="Group 181">
          <path id="Path_87" data-name="Path 87" d="M124.422,788.845c8.081,15.987,16.336,31.917,24.068,48.078,7.558,15.929,14.243,32.382,17.848,49.706.233,1.1,1.918.639,1.686-.465-3.6-17.15-10.116-33.37-17.615-49.183-7.79-16.511-16.278-32.731-24.533-49.067-.465-.93-1.977-.058-1.453.93Z" transform="translate(-124.313 -787.519)" fill="#e8e8e8"/>
        </g>
      </g>
      <g id="Group_184" data-name="Group 184" transform="translate(46.84 2.722)">
        <g id="Group_183" data-name="Group 183">
          <path id="Path_88" data-name="Path 88" d="M214.716,725.172c-1.221,17.266-6.569,33.777-10.523,50.52a358.766,358.766,0,0,0-8.2,50.927c-.116,1.1,1.628,1.1,1.744,0a357.2,357.2,0,0,1,8.662-52.613c3.953-16.162,8.837-32.149,10.058-48.834.058-1.163-1.686-1.163-1.744,0Z" transform="translate(-195.99 -724.3)" fill="#e8e8e8"/>
        </g>
      </g>
      <g id="Group_186" data-name="Group 186" transform="translate(3.716 72.364)">
        <g id="Group_185" data-name="Group 185">
          <path id="Path_89" data-name="Path 89" d="M122.445,845.841A74.95,74.95,0,0,1,146.4,859.27c.872.7,2.093-.523,1.221-1.221a79.169,79.169,0,0,0-24.708-13.895c-1.1-.407-1.57,1.279-.465,1.686Z" transform="translate(-121.814 -844.092)" fill="#e8e8e8"/>
        </g>
      </g>
      <g id="Group_188" data-name="Group 188" transform="translate(43.576 34.414)">
        <g id="Group_187" data-name="Group 187">
          <path id="Path_90" data-name="Path 90" d="M190.391,779.91a182.957,182.957,0,0,0,8.662,30.87c.407,1.046,2.093.581,1.686-.465a190.2,190.2,0,0,1-8.662-30.87c-.233-1.1-1.86-.64-1.686.465Z" transform="translate(-190.378 -778.814)" fill="#e8e8e8"/>
        </g>
      </g>
      <g id="Group_190" data-name="Group 190" transform="translate(48.202 85.516)">
        <g id="Group_189" data-name="Group 189">
          <path id="Path_91" data-name="Path 91" d="M200,890.076c6.279-8.255,12.732-16.569,21.917-21.743.988-.523.116-2.035-.872-1.512-9.418,5.349-16.1,13.895-22.557,22.382-.639.872.872,1.744,1.512.872Z" transform="translate(-198.334 -866.713)" fill="#e8e8e8"/>
        </g>
      </g>
      <g id="Group_192" data-name="Group 192" transform="translate(652.782 144.69)">
        <g id="Group_191" data-name="Group 191">
          <path id="Path_92" data-name="Path 92" d="M1239.975,971.988h146.735a1.745,1.745,0,0,0,0-3.488H1239.975a1.745,1.745,0,0,0,0,3.488Z" transform="translate(-1238.275 -968.5)"/>
        </g>
      </g>
      <g id="Group_194" data-name="Group 194" transform="translate(6.601 136.551)">
        <g id="Group_193" data-name="Group 193">
          <path id="Path_93" data-name="Path 93" d="M243.585,954.5H128.475a1.745,1.745,0,0,0,0,3.488H243.585c2.209,0,2.209-3.488,0-3.488Z" transform="translate(-126.775 -954.5)"/>
        </g>
      </g>
      <g id="Group_196" data-name="Group 196" transform="translate(512.522 173.061)">
        <g id="Group_195" data-name="Group 195">
          <path id="Path_94" data-name="Path 94" d="M998.691,1020.788h204.348a1.745,1.745,0,0,0,0-3.488H998.691c-2.209,0-2.267,3.488,0,3.488Z" transform="translate(-997.012 -1017.3)"/>
        </g>
      </g>
    </g>
    <g id="banner" transform="translate(193.385 231.697)">
      <path id="Path_95" data-name="Path 95" d="M818.333,664.463,310.806,654.347a45.277,45.277,0,0,1-42.265-59.008l104.47-328.7a45.306,45.306,0,0,1,42.846-31.568q234.84-1.657,469.681-3.372a45.258,45.258,0,0,1,44.765,53.95L863.621,627.837A45.1,45.1,0,0,1,818.333,664.463Z" transform="translate(-263.12 -231.697)" fill="#474747" stroke="#000" stroke-width="6"/>
      <path id="Path_96" data-name="Path 96" d="M812.733,677.021q-253.763-4.8-507.527-9.534c-30.289-.581-51.45-28.487-42.265-55.694l104.47-310.272c5.93-17.615,23.254-29.649,42.846-29.824q234.84-1.57,469.681-3.2c28.6-.174,50.288,24.417,44.765,50.927L858.021,642.488C853.893,662.836,834.766,677.428,812.733,677.021Z" transform="translate(-260.775 -247.104)" fill="#fff" stroke="#000" stroke-width="6"/>
      <g id="Group_198" data-name="Group 198" transform="translate(565.395 403.586)">
        <g id="Group_197" data-name="Group 197">
          <path id="Path_97" data-name="Path 97" d="M1263.246,926.368a45.749,45.749,0,0,1-29.3,25.115.875.875,0,0,0,.465,1.686,47.549,47.549,0,0,0,30.347-25.929c.407-.988-1.046-1.918-1.512-.872Z" transform="translate(-1233.314 -925.908)"/>
        </g>
      </g>
      <g id="Group_200" data-name="Group 200" transform="translate(153.434 9.062)">
        <g id="Group_199" data-name="Group 199">
          <path id="Path_98" data-name="Path 98" d="M528.478,254.444c-1.744-.174-2.384-2.035-1.918-3.546.639-1.918,2.5-2.325,4.244-1.453a2.829,2.829,0,0,1,1.337,3.488,2.8,2.8,0,0,1-3.663,1.4c-1.046-.407-1.512,1.279-.465,1.686a4.561,4.561,0,0,0,5.872-2.674,4.675,4.675,0,0,0-3.256-5.814,4.348,4.348,0,0,0-5.814,3.314,4.285,4.285,0,0,0,3.663,5.349c1.1.116,1.1-1.628,0-1.744Z" transform="translate(-524.698 -247.285)"/>
        </g>
      </g>
      <path id="Path_99" data-name="Path 99" d="M527.557,254.157a3.256,3.256,0,0,0,4.767,1.279,3.08,3.08,0,0,0-2.384-5.465A3.222,3.222,0,0,0,527.557,254.157Z" transform="translate(-372.378 -239.331)" fill="#fff"/>
      <g id="Group_202" data-name="Group 202" transform="translate(173.084 8.539)">
        <g id="Group_201" data-name="Group 201">
          <path id="Path_100" data-name="Path 100" d="M562.278,253.544c-1.744-.174-2.384-2.035-1.918-3.546.639-1.918,2.5-2.325,4.244-1.453a2.829,2.829,0,0,1,1.337,3.488,2.8,2.8,0,0,1-3.663,1.4c-1.046-.407-1.511,1.279-.465,1.686a4.561,4.561,0,0,0,5.872-2.674,4.675,4.675,0,0,0-3.256-5.814,4.348,4.348,0,0,0-5.814,3.314,4.285,4.285,0,0,0,3.662,5.348c1.1.116,1.1-1.628,0-1.744Z" transform="translate(-558.498 -246.385)"/>
        </g>
      </g>
      <path id="Path_101" data-name="Path 101" d="M561.357,253.257a3.256,3.256,0,0,0,4.767,1.279,3.08,3.08,0,0,0-2.384-5.465A3.222,3.222,0,0,0,561.357,253.257Z" transform="translate(-386.528 -238.954)" fill="none" stroke="#000" stroke-width="1"/>
      <g id="Group_204" data-name="Group 204" transform="translate(155.963 9.915)">
        <g id="Group_203" data-name="Group 203">
          <path id="Path_102" data-name="Path 102" d="M529.137,250.059a38.1,38.1,0,0,0,2.849,5.232c.581.93,2.093.058,1.511-.872a56.73,56.73,0,0,1-2.849-5.232c-.465-.988-1.977-.116-1.511.872Z" transform="translate(-529.049 -248.752)"/>
        </g>
      </g>
      <g id="Group_206" data-name="Group 206" transform="translate(154.736 10.823)">
        <g id="Group_205" data-name="Group 205">
          <path id="Path_103" data-name="Path 103" d="M528.428,255.945c.814-.7,1.57-1.453,2.384-2.151a11.725,11.725,0,0,1,2.267-1.86c.988-.523.116-2.035-.872-1.512a12,12,0,0,0-2.325,1.918c-.872.814-1.8,1.628-2.674,2.442-.814.7.407,1.918,1.221,1.163Z" transform="translate(-526.938 -250.313)"/>
        </g>
      </g>
      <path id="Path_104" data-name="Path 104" d="M889.151,318.96c-5.174,16.627-10.406,33.312-15.58,49.939A16.192,16.192,0,0,0,888.8,389.886q108.22,1.308,216.382,2.558a16.179,16.179,0,0,0,16.1-13.371c3.081-17.673,6.221-35.347,9.3-53.02A16.159,16.159,0,0,0,1114.66,307.1l-210.1.523A16.155,16.155,0,0,0,889.151,318.96Z" transform="translate(-517.008 -263.264)" fill="#fff" stroke="#000" stroke-width="3"/>
      <path id="Path_105" data-name="Path 105" d="M401.939,711.38l-30.173,86.681c-6.221,17.906,8.546,36.161,29.475,36.393q209.464,2.18,418.986,4.418c15.348.174,28.545-9.651,31.161-23.2q9.069-45.957,18.08-91.971c3.372-17.208-11.395-32.9-30.87-32.9l-406.894.872C418.043,691.73,406.009,699.695,401.939,711.38Z" transform="translate(-306.64 -423.896)" fill="#fff" stroke="#000" stroke-width="3"/>
      <g id="Group_208" data-name="Group 208" transform="translate(365.875 154.651)">
        <g id="Group_207" data-name="Group 207">
          <path id="Path_106" data-name="Path 106" d="M918.246,498.345l-28.08,84.065c-.349,1.047,1.337,1.512,1.686.465l28.08-84.065a.875.875,0,0,0-1.686-.465Z" transform="translate(-890.119 -497.714)" fill="#e8e8e8"/>
        </g>
      </g>
      <g id="Group_210" data-name="Group 210" transform="translate(394.256 150.458)">
        <g id="Group_209" data-name="Group 209">
          <path id="Path_107" data-name="Path 107" d="M939.788,495.5c24.3-1.279,48.718-3.256,73.077-3.256,24.243,0,48.427,2.093,72.554,4.186,1.1.116,1.1-1.628,0-1.744-24.126-2.093-48.311-4.128-72.554-4.186-24.359,0-48.776,1.977-73.077,3.256-1.1.058-1.163,1.8,0,1.744Z" transform="translate(-938.937 -490.5)" fill="#e8e8e8"/>
        </g>
      </g>
      <g id="Group_212" data-name="Group 212" transform="translate(520.833 155.739)">
        <g id="Group_211" data-name="Group 211">
          <path id="Path_108" data-name="Path 108" d="M1176.276,500.175q-9.767,41.683-19.592,83.309c-.233,1.1,1.453,1.57,1.686.465q9.767-41.683,19.592-83.309c.233-1.046-1.453-1.512-1.686-.465Z" transform="translate(-1156.662 -499.585)" fill="#e8e8e8"/>
        </g>
      </g>
      <g id="Group_214" data-name="Group 214" transform="translate(366.118 238.513)">
        <g id="Group_213" data-name="Group 213">
          <path id="Path_109" data-name="Path 109" d="M891.388,645.822q59.822-3.227,119.76-1.453c11.395.349,22.731.814,34.126,1.453,1.1.058,1.1-1.686,0-1.744q-59.822-3.314-119.76-1.453c-11.395.349-22.731.814-34.126,1.453-1.1.058-1.163,1.8,0,1.744Z" transform="translate(-890.537 -641.964)" fill="#e8e8e8"/>
        </g>
      </g>
      <g id="Group_216" data-name="Group 216" transform="translate(443.061 221.091)">
        <g id="Group_215" data-name="Group 215">
          <path id="Path_110" data-name="Path 110" d="M1024.232,630.312c24.882-12.964,53.311-14.883,80.809-16.569,1.1-.058,1.1-1.8,0-1.744-27.789,1.744-56.508,3.721-81.681,16.8-1.046.523-.174,2.035.872,1.511Z" transform="translate(-1022.887 -611.998)" fill="#e8e8e8"/>
        </g>
      </g>
      <g id="Group_218" data-name="Group 218" transform="translate(484.091 182.963)">
        <g id="Group_217" data-name="Group 217">
          <path id="Path_111" data-name="Path 111" d="M1093.484,547.51a205.57,205.57,0,0,1,4.186,40.463.873.873,0,0,0,1.744,0,214.917,214.917,0,0,0-4.244-40.928c-.233-1.1-1.918-.639-1.686.465Z" transform="translate(-1093.462 -546.414)" fill="#e8e8e8"/>
        </g>
      </g>
      <g id="Group_220" data-name="Group 220" transform="translate(472.682 183.373)">
        <g id="Group_219" data-name="Group 219">
          <path id="Path_112" data-name="Path 112" d="M1084.629,547.515c-3.546,5.174-7.034,10.406-10.581,15.58.523.174,1.1.291,1.628.465a22.684,22.684,0,0,1,4.011-14.418c.64-.93-.872-1.8-1.511-.872a24.33,24.33,0,0,0-4.3,15.29.891.891,0,0,0,1.628.465c3.546-5.174,7.034-10.406,10.581-15.58.7-.988-.814-1.86-1.453-.93Z" transform="translate(-1073.838 -547.119)" fill="#e8e8e8"/>
        </g>
      </g>
      <g id="Group_222" data-name="Group 222" transform="translate(463.444 173.068)">
        <g id="Group_221" data-name="Group 221">
          <path id="Path_113" data-name="Path 113" d="M1072.105,539.628a13.015,13.015,0,0,0-6.1-1.163c-1.279.058-6.453,1.628-5.7-.291.291-.756,1.919-1.744,2.558-2.267a28.4,28.4,0,0,1,3.837-2.674,14.824,14.824,0,0,1,9.651-1.977c1.1.174,1.57-1.512.465-1.686-6.744-1.046-13.778,2.616-18.139,7.674-1.163,1.337-.988,3.2.93,3.779a6.651,6.651,0,0,0,3.2-.349c2.849-.639,5.639-.872,8.43.349.988.581,1.86-.93.872-1.4Z" transform="translate(-1057.948 -529.392)" fill="#e8e8e8"/>
        </g>
      </g>
      <g id="Group_224" data-name="Group 224" transform="translate(481.624 160.7)">
        <g id="Group_223" data-name="Group 223">
          <path id="Path_114" data-name="Path 114" d="M1091.01,520.549a18.742,18.742,0,0,1,11.976-10.7c-.291-.465-.581-.988-.872-1.453a17.153,17.153,0,0,0-3.546,8.546c-.116,1.1,1.628,1.1,1.744,0a15.171,15.171,0,0,1,3.023-7.325c.465-.64.058-1.744-.872-1.453a20.555,20.555,0,0,0-13.2,11.918c-.349,1.047,1.337,1.512,1.744.465Z" transform="translate(-1089.219 -508.118)" fill="#e8e8e8"/>
        </g>
      </g>
      <g id="Group_226" data-name="Group 226" transform="translate(490.945 166.793)">
        <g id="Group_225" data-name="Group 225">
          <path id="Path_115" data-name="Path 115" d="M1106.559,522.378a14.614,14.614,0,0,1,14.476-.174v-1.511a72.644,72.644,0,0,0-10.465,6.162c-.93.64-.058,2.151.872,1.512a72.644,72.644,0,0,1,10.465-6.162.9.9,0,0,0,0-1.511,16.174,16.174,0,0,0-16.22.174.873.873,0,0,0,.872,1.512Z" transform="translate(-1105.252 -518.599)" fill="#e8e8e8"/>
        </g>
      </g>
      <g id="Group_228" data-name="Group 228" transform="translate(491.539 175.019)">
        <g id="Group_227" data-name="Group 227">
          <path id="Path_116" data-name="Path 116" d="M1110.359,534.406c3.779,2.093,7.441,5.523,6.4,10.29a14.611,14.611,0,0,0,1.57-.232,12.526,12.526,0,0,0-11.22-5.93c-1.1.058-1.1,1.8,0,1.744a10.664,10.664,0,0,1,9.709,5.058c.349.581,1.453.581,1.57-.233,1.163-5.523-2.674-9.767-7.209-12.267-.93-.465-1.8,1.046-.814,1.57Z" transform="translate(-1106.275 -532.749)" fill="#e8e8e8"/>
        </g>
      </g>
      <g id="Group_230" data-name="Group 230" transform="translate(490.834 181.161)">
        <g id="Group_229" data-name="Group 229">
          <path id="Path_117" data-name="Path 117" d="M1105.084,544.41a174.661,174.661,0,0,1,2.907,42.265c-.058,1.1,1.686,1.1,1.744,0a175.582,175.582,0,0,0-2.965-42.73c-.233-1.1-1.918-.64-1.686.465Z" transform="translate(-1105.062 -543.314)" fill="#e8e8e8"/>
        </g>
      </g>
      <g id="Group_232" data-name="Group 232" transform="translate(488.109 207.169)">
        <g id="Group_231" data-name="Group 231">
          <path id="Path_118" data-name="Path 118" d="M1101.2,590.52a10.362,10.362,0,0,0,5.465-.872c1.047-.465.116-1.977-.872-1.512a7.822,7.822,0,0,1-4.593.64c-1.1-.174-1.1,1.57,0,1.744Z" transform="translate(-1100.375 -588.049)" fill="#e8e8e8"/>
        </g>
      </g>
      <g id="Group_234" data-name="Group 234" transform="translate(373.705 216.843)">
        <g id="Group_233" data-name="Group 233">
          <path id="Path_119" data-name="Path 119" d="M904.409,606.44c9.534.581,19.185.756,28.661,1.86,4.651.523,9.127,1.918,13.72,2.616,4.476.64,8.837,0,13.313-.814,19.592-3.43,39.3-1.57,58.892.523,1.1.116,1.1-1.628,0-1.744-18.952-2.035-38.2-4.011-57.148-.872-5.349.872-10.406,1.918-15.813.988-4.36-.756-8.546-1.919-12.906-2.442-9.476-1.1-19.127-1.279-28.661-1.86-1.163-.116-1.163,1.628-.058,1.744Z" transform="translate(-903.587 -604.69)" fill="#e8e8e8"/>
        </g>
      </g>
      <g id="Group_236" data-name="Group 236" transform="translate(486.881 195.479)">
        <g id="Group_235" data-name="Group 235">
          <path id="Path_120" data-name="Path 120" d="M1098.284,570.069c.233.988,1.221,1.221,2.151,1.046a43.642,43.642,0,0,0,5.407-1.453.875.875,0,0,0-.465-1.686c-1.046.291-2.093.581-3.139.814a13.588,13.588,0,0,0-1.453.407l-.7.174c-.407-.058-.407,0-.116.174-.233-1.046-1.919-.581-1.686.523Z" transform="translate(-1098.262 -567.942)" fill="#e8e8e8"/>
        </g>
      </g>
      <g id="Group_238" data-name="Group 238" transform="translate(409.488 165.264)">
        <g id="Group_237" data-name="Group 237">
          <path id="Path_121" data-name="Path 121" d="M968.894,526.1c-5.755-1.86,1.744-11.744,5.755-7.325a4.723,4.723,0,0,1,.058,5.93,4.807,4.807,0,0,1-6.162.988.873.873,0,0,0-.872,1.512,6.6,6.6,0,0,0,8.837-1.918c1.686-2.732,1.221-6.976-1.744-8.662-6.453-3.6-14.185,8.662-6.279,11.22,1.046.291,1.512-1.4.407-1.744Z" transform="translate(-965.137 -515.969)" fill="#e8e8e8"/>
        </g>
      </g>
      <g id="Group_240" data-name="Group 240" transform="translate(546.827 159.585)">
        <g id="Group_239" data-name="Group 239">
          <path id="Path_122" data-name="Path 122" d="M1202.2,508a419.812,419.812,0,0,1,55.869,6.686c1.1.233,1.57-1.453.465-1.686a416.256,416.256,0,0,0-56.334-6.8c-1.1,0-1.1,1.744,0,1.8Z" transform="translate(-1201.375 -506.2)" fill="#e8e8e8"/>
        </g>
      </g>
      <g id="Group_242" data-name="Group 242" transform="translate(546.536 164.695)">
        <g id="Group_241" data-name="Group 241" transform="translate(0)">
          <path id="Path_123" data-name="Path 123" d="M1201.7,516.74c17.906,1.919,35.87,3.953,53.718,6.1,1.1.116,1.1-1.628,0-1.744q-26.859-3.227-53.718-6.1c-1.1-.116-1.1,1.628,0,1.744Z" transform="translate(-1200.875 -514.99)" fill="#e8e8e8"/>
        </g>
      </g>
      <g id="Group_244" data-name="Group 244" transform="translate(546.152 169.979)">
        <g id="Group_243" data-name="Group 243">
          <path id="Path_124" data-name="Path 124" d="M1200.845,525.777a246.011,246.011,0,0,0,32.614,3.314c1.1.058,1.1-1.686,0-1.744a248.886,248.886,0,0,1-32.149-3.256c-1.1-.174-1.57,1.511-.465,1.686Z" transform="translate(-1200.214 -524.078)" fill="#e8e8e8"/>
        </g>
      </g>
      <g id="Group_246" data-name="Group 246" transform="translate(539.64 201.314)">
        <g id="Group_245" data-name="Group 245" transform="translate(0)">
          <path id="Path_125" data-name="Path 125" d="M1189.645,579.677q22.063,3.139,44.241,5.232c1.1.116,1.1-1.628,0-1.744q-21.975-2.093-43.776-5.174c-1.1-.174-1.57,1.511-.465,1.686Z" transform="translate(-1189.014 -577.978)" fill="#e8e8e8"/>
        </g>
      </g>
      <g id="Group_248" data-name="Group 248" transform="translate(538.536 206.304)">
        <g id="Group_247" data-name="Group 247">
          <path id="Path_126" data-name="Path 126" d="M1187.745,588.27q17.528,3.052,35.114,5.116c1.1.116,1.1-1.628,0-1.744-11.627-1.337-23.138-3.023-34.649-5.058-1.1-.233-1.57,1.453-.465,1.686Z" transform="translate(-1187.114 -586.562)" fill="#e8e8e8"/>
        </g>
      </g>
      <g id="Group_250" data-name="Group 250" transform="translate(537.315 213.687)">
        <g id="Group_249" data-name="Group 249" transform="translate(0)">
          <path id="Path_127" data-name="Path 127" d="M1185.645,600.97a334.743,334.743,0,0,0,44.3,5.814c1.1.058,1.1-1.686,0-1.744a347.858,347.858,0,0,1-43.834-5.755c-1.1-.232-1.57,1.453-.465,1.686Z" transform="translate(-1185.014 -599.262)" fill="#e8e8e8"/>
        </g>
      </g>
      <g id="Group_252" data-name="Group 252" transform="translate(119.6 287.479)">
        <g id="Group_251" data-name="Group 251">
          <path id="Path_128" data-name="Path 128" d="M467.372,728.929c26.743,1.337,53.6-.058,80.344-.465s53.427-.523,80.169-.465c53.659.116,107.261,1.1,160.92,2.325,30.231.7,60.4,1.512,90.634,2.267,1.1.058,1.1-1.686,0-1.744-53.6-1.4-107.261-2.849-160.92-3.721s-107.261-1.279-160.92-.581c-30.056.349-60.229,2.151-90.227.581a.9.9,0,0,0,0,1.8Z" transform="translate(-466.5 -726.191)" fill="#e8e8e8"/>
        </g>
      </g>
      <path id="Path_129" data-name="Path 129" d="M462.308,368.012c3.488.523,5.93-1.86,12.848-6.976,10.406-7.732,12.616-7.965,14.185-7.848.756.058,2.151.291,8.72,5.232,9.592,7.209,10.174,9.418,13.313,9.592,5.7.233,6.511-6.976,13.313-7.616,6.162-.581,8.081,5.058,15.7,4.767,5.872-.174,9.3-3.779,9.825-3.023.639.988-4.883,8.6-12.848,9.825-5.872.872-7.151-2.558-12.848-1.744-7.906,1.163-9.418,8.372-15.232,7.848-3.43-.349-3.9-2.907-9.825-6.976-3.139-2.151-8.6-5.872-14.592-6.337-10.988-.814-16.685,9.825-23.313,6.744-3.2-1.453-5-5.407-4.593-5.872C457.25,365.163,459.285,367.547,462.308,368.012Z" transform="translate(-342.882 -282.55)" fill="#282828"/>
      <g id="Group_254" data-name="Group 254" transform="translate(378.723 55.006)">
        <g id="Group_253" data-name="Group 253">
          <path id="Path_130" data-name="Path 130" d="M925.288,326.945q-5.319,24.156-13.023,47.73c-.349,1.046,1.337,1.512,1.686.465q7.674-23.545,13.023-47.73c.233-1.1-1.453-1.57-1.686-.465Z" transform="translate(-912.219 -326.314)" fill="#e8e8e8"/>
        </g>
      </g>
      <g id="Group_256" data-name="Group 256" transform="translate(378.988 101.856)">
        <g id="Group_255" data-name="Group 255">
          <path id="Path_131" data-name="Path 131" d="M913.5,409.749c5.988.7,11.976.407,18.022.291,6.279-.174,12.557-.291,18.894-.465,12.557-.291,25.173-.639,37.73-.93a.873.873,0,0,0,0-1.744c-12.557.291-25.173.639-37.73.93-6.1.174-12.209.291-18.313.465-6.221.174-12.383.465-18.6-.233-1.1-.174-1.1,1.57,0,1.686Z" transform="translate(-912.675 -406.9)" fill="#e8e8e8"/>
        </g>
      </g>
      <g id="Group_258" data-name="Group 258" transform="translate(395.791 71.226)">
        <g id="Group_257" data-name="Group 257">
          <path id="Path_132" data-name="Path 132" d="M947.23,354.845q-3.314,15.522-5.639,31.219c-.174,1.1,1.511,1.57,1.686.465q2.355-15.7,5.639-31.219c.232-1.1-1.453-1.57-1.686-.465Z" transform="translate(-941.578 -354.214)" fill="#e8e8e8"/>
        </g>
      </g>
      <g id="Group_260" data-name="Group 260" transform="translate(401.915 71.096)">
        <g id="Group_259" data-name="Group 259">
          <path id="Path_133" data-name="Path 133" d="M952.977,355.682a68.539,68.539,0,0,1,9.127,1.046c-.174-.349-.407-.7-.581-1.046q-4.1,14.737-6.976,29.766c-.232,1.1,1.453,1.57,1.686.465q2.878-15,6.976-29.766a.832.832,0,0,0-.581-1.046,75.715,75.715,0,0,0-9.592-1.1.845.845,0,1,0-.058,1.686Z" transform="translate(-952.112 -353.99)" fill="#e8e8e8"/>
        </g>
      </g>
      <g id="Group_262" data-name="Group 262" transform="translate(414.269 80.912)">
        <g id="Group_261" data-name="Group 261">
          <path id="Path_134" data-name="Path 134" d="M976.872,371.7c-.872,7.093-2.035,14.069-3.488,21.045-.233,1.1,1.453,1.57,1.686.465,1.512-7.093,2.674-14.3,3.546-21.51.116-1.1-1.628-1.1-1.744,0Z" transform="translate(-973.362 -370.875)" fill="#e8e8e8"/>
        </g>
      </g>
      <g id="Group_264" data-name="Group 264" transform="translate(417.787 80.081)">
        <g id="Group_263" data-name="Group 263">
          <path id="Path_135" data-name="Path 135" d="M980.277,371.221a92.349,92.349,0,0,1,9.825.174,13.392,13.392,0,0,1-.814-1.1c-1.279,6.918-2.384,13.836-3.314,20.813-.174,1.1,1.57,1.1,1.744,0,.93-6.8,1.977-13.546,3.256-20.348a.883.883,0,0,0-.814-1.1c-3.256-.233-6.569-.233-9.825-.174a.873.873,0,1,0-.058,1.744Z" transform="translate(-979.412 -369.444)" fill="#e8e8e8"/>
        </g>
      </g>
      <g id="Group_266" data-name="Group 266" transform="translate(431.943 65.296)">
        <g id="Group_265" data-name="Group 265">
          <path id="Path_136" data-name="Path 136" d="M1010.819,344.645c-2.035,12.15-4.418,24.3-7.034,36.335-.233,1.1,1.453,1.57,1.686.465,2.616-12.034,5-24.185,7.034-36.335.233-1.1-1.453-1.57-1.686-.465Z" transform="translate(-1003.762 -344.014)" fill="#e8e8e8"/>
        </g>
      </g>
      <g id="Group_268" data-name="Group 268" transform="translate(440.394 64.184)">
        <g id="Group_267" data-name="Group 267">
          <path id="Path_137" data-name="Path 137" d="M1018.3,342.972v.291a.872.872,0,0,0,1.744,0v-.291a.894.894,0,0,0-.872-.872.937.937,0,0,0-.872.872Z" transform="translate(-1018.3 -342.1)" fill="#e8e8e8"/>
        </g>
      </g>
      <g id="Group_270" data-name="Group 270" transform="translate(440.173 64.801)">
        <g id="Group_269" data-name="Group 269">
          <path id="Path_138" data-name="Path 138" d="M1018.548,344.87a33.4,33.4,0,0,0,7.965.814,13.443,13.443,0,0,1-.814-1.1q-3.4,18.226-6.337,36.568c-.174,1.1,1.512,1.57,1.686.465q2.965-18.313,6.337-36.568a.883.883,0,0,0-.814-1.1,36.074,36.074,0,0,1-7.5-.756c-1.163-.233-1.628,1.4-.523,1.686Z" transform="translate(-1017.92 -343.161)" fill="#e8e8e8"/>
        </g>
      </g>
      <g id="Group_272" data-name="Group 272" transform="translate(466.541 60.735)">
        <g id="Group_271" data-name="Group 271">
          <path id="Path_139" data-name="Path 139" d="M1064.1,337.989c19.766-.233,39.474-.116,59.241.407a.873.873,0,0,0,0-1.744c-19.766-.465-39.474-.581-59.241-.407a.873.873,0,0,0,0,1.744Z" transform="translate(-1063.275 -336.168)" fill="#e8e8e8"/>
        </g>
      </g>
      <g id="Group_274" data-name="Group 274" transform="translate(467.878 67.376)">
        <g id="Group_273" data-name="Group 273">
          <path id="Path_140" data-name="Path 140" d="M1066.4,349.863a229.534,229.534,0,0,0,36.858-.523c1.1-.116,1.1-1.86,0-1.744a229.541,229.541,0,0,1-36.858.523c-1.1-.058-1.1,1.686,0,1.744Z" transform="translate(-1065.575 -347.59)" fill="#e8e8e8"/>
        </g>
      </g>
      <g id="Group_276" data-name="Group 276" transform="translate(465.204 76.54)">
        <g id="Group_275" data-name="Group 275">
          <path id="Path_141" data-name="Path 141" d="M1061.8,365.241q25.289-.436,50.578.872c1.1.058,1.1-1.686,0-1.744q-25.289-1.4-50.578-.872a.873.873,0,0,0,0,1.744Z" transform="translate(-1060.975 -363.355)" fill="#e8e8e8"/>
        </g>
      </g>
      <g id="Group_278" data-name="Group 278" transform="translate(542.906 59.833)">
        <g id="Group_277" data-name="Group 277">
          <path id="Path_142" data-name="Path 142" d="M1208.217,380.185c-5.93-.756-8.779-6.686-10.464-11.743-1.57-4.767-2.151-9.767-.349-14.534,3.139-8.372,11.685-15.115,20.289-17.034,8.953-2.035,18.022,2.732,22.324,10.7,4.535,8.372,2.965,19.127-2.325,26.743-6.511,9.36-20.231,10.406-29.766,5.465-.988-.523-1.86.988-.872,1.512,9.127,4.709,21.743,4.476,29.475-2.907,7.558-7.209,10-20.057,6.046-29.591-3.779-9.011-13.313-15.29-23.2-14.011-9.767,1.279-19.592,8.72-23.312,17.848-2.5,6.221-1.453,12.732.988,18.778,2.093,5.116,5.407,9.767,11.22,10.523,1.047.116,1.047-1.628-.058-1.744Z" transform="translate(-1194.631 -334.616)" fill="#e8e8e8"/>
        </g>
      </g>
      <g id="Group_280" data-name="Group 280" transform="translate(558.871 63.387)">
        <g id="Group_279" data-name="Group 279">
          <path id="Path_143" data-name="Path 143" d="M1222.155,341.759c2.732,7.034,5.232,14.185,7.616,21.394.349,1.046,2.035.581,1.686-.465-2.384-7.209-4.883-14.3-7.616-21.394-.407-.988-2.093-.581-1.686.465Z" transform="translate(-1222.092 -340.729)" fill="#e8e8e8"/>
        </g>
      </g>
      <g id="Group_282" data-name="Group 282" transform="translate(567.082 70.341)">
        <g id="Group_281" data-name="Group 281" transform="translate(0)">
          <path id="Path_144" data-name="Path 144" d="M1237.486,369.149c6.86-4.767,13.662-9.709,20.29-14.767.872-.7,0-2.209-.872-1.512q-10.029,7.587-20.29,14.767c-.93.64-.058,2.151.872,1.512Z" transform="translate(-1236.216 -352.691)" fill="#e8e8e8"/>
        </g>
      </g>
      <g id="Group_284" data-name="Group 284" transform="translate(567.232 81.3)">
        <g id="Group_283" data-name="Group 283" transform="translate(0)">
          <path id="Path_145" data-name="Path 145" d="M1237.3,377.1a96.318,96.318,0,0,0,22.964-3.837.875.875,0,0,0-.465-1.686,91.957,91.957,0,0,1-22.5,3.721c-1.1.116-1.1,1.86,0,1.8Z" transform="translate(-1236.475 -371.542)" fill="#e8e8e8"/>
        </g>
      </g>
      <g id="Group_286" data-name="Group 286" transform="translate(552.592 85.914)">
        <g id="Group_285" data-name="Group 285" transform="translate(0)">
          <path id="Path_146" data-name="Path 146" d="M1225.365,379.84c-4.651,5.988-9.244,11.976-13.895,17.964-.7.872.814,1.744,1.512.872,4.651-5.988,9.244-11.976,13.895-17.964.7-.872-.814-1.744-1.512-.872Z" transform="translate(-1211.291 -379.479)" fill="#e8e8e8"/>
        </g>
      </g>
      <g id="Group_288" data-name="Group 288" transform="translate(118.96 281.031)">
        <g id="Group_287" data-name="Group 287">
          <path id="Path_147" data-name="Path 147" d="M468.074,721.32c-1.453-.407-.581-2.325.058-2.965.7-.7,2.442-.64,3.372-.64,1.686-.058,3.372,0,5.116-.058,3.488,0,6.976-.058,10.464-.058,6.976-.058,13.953-.058,20.929-.116,13.778-.058,27.5-.174,41.277-.233q41.6-.262,83.134-.349,82.844-.262,165.629.116c15.115.116,30.289.116,45.4.756,7.5.291,15,.756,22.5,1.453,3.721.349,7.5.756,11.22,1.221,1.221.174,2.442.291,3.663.523.988.174,1.57,0,1.919.93.93,2.209-2.035,4.476-3.837,4.593-1.1.058-1.1,1.8,0,1.744a5.924,5.924,0,0,0,5.174-7.965c-.116-.291-.291-.581-.581-.581-27.731-4.128-55.811-4.128-83.774-4.3q-43.34-.262-86.623-.291-86.855,0-173.768.523c-16.278.116-32.556.174-48.834.291-3.9,0-7.732.058-11.627.058-3.256,0-7.093-.523-10.232.407-3.023.872-5,5.639-1.046,6.744,1.046.174,1.512-1.512.465-1.8Z" transform="translate(-465.398 -715.1)" fill="#e8e8e8"/>
        </g>
      </g>
      <g id="Group_290" data-name="Group 290" transform="translate(95.934 296.852)">
        <g id="Group_289" data-name="Group 289">
          <path id="Path_148" data-name="Path 148" d="M447.191,742.945a516.347,516.347,0,0,1-21.336,61.74c-.407,1.046,1.279,1.512,1.686.465a516.335,516.335,0,0,0,21.336-61.74.875.875,0,0,0-1.686-.465Z" transform="translate(-425.792 -742.314)" fill="#e8e8e8"/>
        </g>
      </g>
      <g id="Group_292" data-name="Group 292" transform="translate(117.064 297.478)">
        <g id="Group_291" data-name="Group 291">
          <path id="Path_149" data-name="Path 149" d="M462.988,745.14c14.941,1.8,30.347.581,45.346.407a.873.873,0,0,0,0-1.744c-15,.233-30.405,1.4-45.346-.407-1.163-.116-1.1,1.628,0,1.744Z" transform="translate(-462.137 -743.39)" fill="#e8e8e8"/>
        </g>
      </g>
      <g id="Group_294" data-name="Group 294" transform="translate(145.656 298.887)">
        <g id="Group_293" data-name="Group 293">
          <path id="Path_150" data-name="Path 150" d="M527.063,746.445q-7.412,27.382-15.7,54.531c-.349,1.1,1.337,1.512,1.686.465q8.284-27.12,15.7-54.532a.875.875,0,0,0-1.686-.465Z" transform="translate(-511.319 -745.814)" fill="#e8e8e8"/>
        </g>
      </g>
      <g id="Group_296" data-name="Group 296" transform="translate(95.982 357.458)">
        <g id="Group_295" data-name="Group 295">
          <path id="Path_151" data-name="Path 151" d="M426.7,849.2l24.533-.174c4.011,0,7.965-.058,11.976-.058,3.546,0,7.093.116,10.581-.7,1.1-.233.64-1.918-.465-1.686-3.663.872-7.5.639-11.278.639-4.011,0-7.965.058-11.976.058-7.79.058-15.58.116-23.371.116-1.1.058-1.1,1.8,0,1.8Z" transform="translate(-425.875 -846.562)" fill="#e8e8e8"/>
        </g>
      </g>
      <g id="Group_298" data-name="Group 298" transform="translate(169.699 297.377)">
        <g id="Group_297" data-name="Group 297">
          <path id="Path_152" data-name="Path 152" d="M553.5,745.765q58.95-1.657,117.958.233c1.1.058,1.1-1.686,0-1.744q-58.95-1.918-117.958-.232a.873.873,0,0,0,0,1.744Z" transform="translate(-552.675 -743.217)" fill="#e8e8e8"/>
        </g>
      </g>
      <g id="Group_300" data-name="Group 300" transform="translate(168.027 308.297)">
        <g id="Group_299" data-name="Group 299">
          <path id="Path_153" data-name="Path 153" d="M550.672,763.86c22.789-.058,45.579-.058,68.426-.116a.873.873,0,0,0,0-1.744c-22.789.058-45.579.058-68.426.116a.872.872,0,1,0,0,1.744Z" transform="translate(-549.8 -762)" fill="#e8e8e8"/>
        </g>
      </g>
      <g id="Group_302" data-name="Group 302" transform="translate(143.828 351.441)">
        <g id="Group_301" data-name="Group 301">
          <path id="Path_154" data-name="Path 154" d="M509.817,842.833a18.031,18.031,0,0,0,2.209-5.523c.233-1.1-1.453-1.57-1.686-.465a16.254,16.254,0,0,1-2.035,5.116c-.581.93.93,1.8,1.512.872Z" transform="translate(-508.175 -836.214)" fill="#e8e8e8"/>
        </g>
      </g>
      <g id="Group_304" data-name="Group 304" transform="translate(350.087 304.409)">
        <g id="Group_303" data-name="Group 303">
          <path id="Path_155" data-name="Path 155" d="M876.472,755.945q-6.976,33.312-13.488,66.624c-.233,1.1,1.453,1.57,1.686.465q6.54-33.312,13.488-66.624c.233-1.1-1.453-1.57-1.686-.465Z" transform="translate(-862.962 -755.314)" fill="#e8e8e8"/>
        </g>
      </g>
      <g id="Group_306" data-name="Group 306" transform="translate(349.63 371.373)">
        <g id="Group_305" data-name="Group 305">
          <path id="Path_156" data-name="Path 156" d="M863,872.243l71.623,1.919c23.6.639,47.206,1.628,70.81,1.628a.873.873,0,0,0,0-1.744c-23.6,0-47.206-1.046-70.81-1.628L863,870.5c-1.1-.058-1.1,1.686,0,1.744Z" transform="translate(-862.175 -870.498)" fill="#e8e8e8"/>
        </g>
      </g>
      <g id="Group_308" data-name="Group 308" transform="translate(350.743 348.054)">
        <g id="Group_307" data-name="Group 307">
          <path id="Path_157" data-name="Path 157" d="M865.55,855.277c7.209-7.79,14.418-15.639,21.627-23.429h-1.221a32,32,0,0,0,8.43,7.383.873.873,0,0,0,.872-1.512,29.484,29.484,0,0,1-8.081-7.093.9.9,0,0,0-1.221,0c-7.209,7.79-14.418,15.639-21.627,23.429-.756.814.465,2.035,1.221,1.221Z" transform="translate(-864.091 -830.387)" fill="#e8e8e8"/>
        </g>
      </g>
      <g id="Group_310" data-name="Group 310" transform="translate(380.044 327.472)">
        <g id="Group_309" data-name="Group 309">
          <path id="Path_158" data-name="Path 158" d="M915.95,823.829c7.732-9.127,15.522-18.2,23.254-27.324.7-.872-.523-2.093-1.221-1.221-7.732,9.127-15.522,18.2-23.254,27.324-.756.814.465,2.035,1.221,1.221Z" transform="translate(-914.491 -794.984)" fill="#e8e8e8"/>
        </g>
      </g>
      <g id="Group_312" data-name="Group 312" transform="translate(403.357 314.861)">
        <g id="Group_311" data-name="Group 311">
          <path id="Path_159" data-name="Path 159" d="M954.771,786.551c1.57,2.093,3.139,4.128,4.709,6.221a.909.909,0,0,0,1.4.174c7.093-5.814,14.011-11.918,20.7-18.2.814-.756-.407-1.977-1.221-1.221-6.686,6.279-13.6,12.383-20.7,18.2l1.4.174c-1.57-2.093-3.139-4.128-4.709-6.221-.756-.93-2.267-.058-1.57.872Z" transform="translate(-954.592 -773.291)" fill="#e8e8e8"/>
        </g>
      </g>
      <g id="Group_314" data-name="Group 314" transform="translate(428.176 315.646)">
        <g id="Group_313" data-name="Group 313">
          <path id="Path_160" data-name="Path 160" d="M997.584,776.071c9.709,7.674,19.069,15.755,28.138,24.126.814.756,2.035-.465,1.221-1.221q-13.6-12.645-28.138-24.126c-.872-.7-2.093.523-1.221,1.221Z" transform="translate(-997.284 -774.642)" fill="#e8e8e8"/>
        </g>
      </g>
      <g id="Group_316" data-name="Group 316" transform="translate(456.391 311.921)">
        <g id="Group_315" data-name="Group 315">
          <path id="Path_161" data-name="Path 161" d="M1047.086,797.282c11.976-7.616,20.58-19.359,32.266-27.382.93-.64.058-2.151-.872-1.512-11.685,8.023-20.289,19.766-32.266,27.382-.93.581-.058,2.093.872,1.512Z" transform="translate(-1045.816 -768.234)" fill="#e8e8e8"/>
        </g>
      </g>
      <g id="Group_318" data-name="Group 318" transform="translate(478.71 311.038)">
        <g id="Group_317" data-name="Group 317">
          <path id="Path_162" data-name="Path 162" d="M1085.25,771.067A85.492,85.492,0,0,0,1096,768.393l-1.046-1.046c-.639,2.907-1.221,5.814-1.86,8.72-.233,1.1,1.453,1.57,1.686.465.639-2.907,1.221-5.814,1.86-8.72.116-.639-.407-1.279-1.047-1.046a85.467,85.467,0,0,1-10.755,2.674c-1.1.174-.64,1.86.407,1.628Z" transform="translate(-1084.207 -766.716)" fill="#e8e8e8"/>
        </g>
      </g>
      <g id="Group_320" data-name="Group 320" transform="translate(378.823 308.805)">
        <g id="Group_319" data-name="Group 319">
          <path id="Path_163" data-name="Path 163" d="M918.558,763.7c-2.035,20.755-4.128,41.509-6.162,62.264-.116,1.1,1.628,1.1,1.744,0,2.035-20.754,4.128-41.509,6.162-62.264.058-1.1-1.686-1.1-1.744,0Z" transform="translate(-912.39 -762.875)" fill="#e8e8e8"/>
        </g>
      </g>
      <g id="Group_322" data-name="Group 322" transform="translate(405.628 305.121)">
        <g id="Group_321" data-name="Group 321">
          <path id="Path_164" data-name="Path 164" d="M963.673,757.388q-3.227,33.4-5.174,66.914c-.058,1.1,1.686,1.1,1.744,0q1.919-33.486,5.174-66.914c.058-1.163-1.686-1.1-1.744,0Z" transform="translate(-958.498 -756.537)" fill="#e8e8e8"/>
        </g>
      </g>
      <g id="Group_324" data-name="Group 324" transform="translate(454.636 304.503)">
        <g id="Group_323" data-name="Group 323">
          <path id="Path_165" data-name="Path 165" d="M1047.682,756.3q-3.4,34.882-4.884,69.879c-.058,1.1,1.686,1.1,1.744,0q1.482-34.969,4.883-69.879c.116-1.1-1.628-1.1-1.744,0Z" transform="translate(-1042.797 -755.475)" fill="#e8e8e8"/>
        </g>
      </g>
      <g id="Group_326" data-name="Group 326" transform="translate(425.859 295.972)">
        <g id="Group_325" data-name="Group 325">
          <path id="Path_166" data-name="Path 166" d="M997.834,741.672q-2.267,38.893-4.535,77.728c-.058,1.1,1.686,1.1,1.744,0q2.267-38.893,4.535-77.728c.058-1.163-1.686-1.163-1.744,0Z" transform="translate(-993.298 -740.8)" fill="#e8e8e8"/>
        </g>
      </g>
      <g id="Group_328" data-name="Group 328" transform="translate(248.335 307.555)">
        <g id="Group_327" data-name="Group 327">
          <path id="Path_167" data-name="Path 167" d="M688.788,763.036c11.8,1.046,23.6-1.57,35.4-.116,1.1.116,1.1-1.628,0-1.744-11.8-1.453-23.6,1.163-35.4.116-1.163-.058-1.1,1.686,0,1.744Z" transform="translate(-687.937 -760.724)" fill="#e8e8e8"/>
        </g>
      </g>
      <g id="Group_330" data-name="Group 330" transform="translate(65.035 202.69)">
        <g id="Group_329" data-name="Group 329">
          <path id="Path_168" data-name="Path 168" d="M373.722,582.645c20.58-3.023,40.4,5.232,58.659,13.836,16.918,8.023,33.661,16.22,52.439,18.6,40.114,5,78.542-11.86,116.272-22.5,22.15-6.221,45.114-10.581,68.193-7.674,1.1.116,1.1-1.628,0-1.744-40.87-5.174-79.472,12.034-117.958,22.673-19.534,5.407-39.765,9.476-60.113,8.139-20.406-1.337-38.37-9.592-56.566-18.255-19.127-9.127-39.707-17.906-61.392-14.708-1.1.116-.581,1.8.465,1.628Z" transform="translate(-372.642 -580.346)" fill="#e8e8e8"/>
        </g>
      </g>
      <g id="Group_332" data-name="Group 332" transform="translate(175.396 182.374)">
        <g id="Group_331" data-name="Group 331">
          <path id="Path_169" data-name="Path 169" d="M563.3,583.886c51.218,2.732,98.657-20.115,147.665-31.1a218.625,218.625,0,0,1,43.021-5.639.873.873,0,0,0,0-1.744c-51.16,1.163-97.959,24.708-147.724,33.719A186.79,186.79,0,0,1,563.3,582.2c-1.1-.174-1.1,1.57,0,1.686Z" transform="translate(-562.475 -545.4)" fill="#e8e8e8"/>
        </g>
      </g>
      <g id="Group_334" data-name="Group 334" transform="translate(76.834 159.696)">
        <g id="Group_333" data-name="Group 333">
          <path id="Path_170" data-name="Path 170" d="M393.788,508.082c23.2,1.628,44.358,11.976,65.752,20.057,21.743,8.2,44.416,12.79,67.67,12.208a174.331,174.331,0,0,0,39.474-5.639.875.875,0,0,0-.465-1.686,169.622,169.622,0,0,1-71.914,3.2c-22.789-3.953-43.311-13.895-64.88-21.627-11.511-4.128-23.371-7.383-35.637-8.2-1.163-.116-1.1,1.628,0,1.686Z" transform="translate(-392.937 -506.39)" fill="#e8e8e8"/>
        </g>
      </g>
      <g id="Group_336" data-name="Group 336" transform="translate(233.087 48.96)">
        <g id="Group_335" data-name="Group 335">
          <path id="Path_171" data-name="Path 171" d="M664.029,316.545a44.138,44.138,0,0,1-2.267,8.546.862.862,0,0,0,.814,1.1q55.549,2.442,111.1.988c1.1-.058,1.1-1.8,0-1.744q-55.549,1.482-111.1-.988a13.4,13.4,0,0,1,.814,1.1,43.067,43.067,0,0,0,2.267-8.546c.232-1.1-1.453-1.57-1.628-.465Z" transform="translate(-661.709 -315.914)" fill="#e8e8e8"/>
        </g>
      </g>
      <g id="Group_338" data-name="Group 338" transform="translate(235.741 48.486)">
        <g id="Group_337" data-name="Group 337">
          <path id="Path_172" data-name="Path 172" d="M667.1,316.843l111.737,1.4a.873.873,0,0,0,0-1.744L667.1,315.1c-1.1-.058-1.1,1.686,0,1.744Z" transform="translate(-666.275 -315.098)" fill="#e8e8e8"/>
        </g>
      </g>
      <g id="Group_340" data-name="Group 340" transform="translate(345.62 50.108)">
        <g id="Group_339" data-name="Group 339">
          <path id="Path_173" data-name="Path 173" d="M857.791,318.36a36.1,36.1,0,0,0-2.5,8.546c-.174,1.1,1.511,1.57,1.686.465a36.151,36.151,0,0,1,2.325-8.139c.407-1.046-1.1-1.918-1.512-.872Z" transform="translate(-855.278 -317.887)" fill="#e8e8e8"/>
        </g>
      </g>
    </g>
    <g id="girl" transform="translate(99.8 311.443)">
      <g id="leg_left" transform="translate(0 180.456)">
        <path id="Path_174" data-name="Path 174" d="M129.682,892.6c-9.941,2.384-19.941,4.767-29.882,7.151,5.174,32.672,9.244,48.951,12.092,48.718q3.663-.262,4.709-36.626c5.523-1.918,11.046-3.779,16.569-5.7C132.007,901.669,130.845,897.135,129.682,892.6Z" transform="translate(-99.8 -768.58)" fill="#161616" stroke="#161616" stroke-width="3"/>
        <path id="Path_175" data-name="Path 175" d="M210.732,681.5c-1.279,3.837-3.2,9.941-5.174,17.673-4.128,16.1-4.3,22.964-8.488,43.428-5,24.359-7.558,28.545-9.185,30.928-7.383,10.581-17.615,15.406-23.2,18.022a72.124,72.124,0,0,1-33.486,6.628,34.04,34.04,0,0,0,4.418,20.231,32.715,32.715,0,0,0,7.732,8.837,84.151,84.151,0,0,0,34.94-5.523c6.221-2.384,22.092-8.779,34.184-24.65,9.3-12.208,11.86-24.126,14.708-37.5,5.523-25.754-1.337-29.649,5.523-51.508,4.128-13.255,8.895-19.766,5.523-24.65C234.219,677.428,221.6,679,210.732,681.5Z" transform="translate(-112.889 -679.273)" fill="#4c4c4c"/>
        <path id="Path_176" data-name="Path 176" d="M211.639,683.2c-.581,6.221-1.453,14.825-2.674,25.057-1.1,9.011-2.325,18.778-4.3,30.173-3.43,19.534-5.174,29.3-8.895,37.44-3.256,7.093-9.534,20.231-23.952,30.173-15,10.29-30.521,11.278-37.44,11.337a33.132,33.132,0,0,1-2.151-6.976,35.9,35.9,0,0,1-.523-9.941,78.675,78.675,0,0,0,17.79-1.86,74.689,74.689,0,0,0,22.906-9.185c5.29-3.314,10.813-6.744,15.348-13.487,3.081-4.535,4.36-8.662,6.453-17.266,3.081-12.674,4.651-18.952,5.93-28.254C201.523,719.651,204.6,703.955,211.639,683.2Z" transform="translate(-113.098 -680.917)" fill="#3d3d3d" opacity="0.09"/>
        <path id="Path_177" data-name="Path 177" d="M131.877,860.947A34.3,34.3,0,0,0,132.342,871a36.667,36.667,0,0,0,2.267,7.325c7.965-1.686,33.021-8.081,48.544-30.986a68.771,68.771,0,0,0,9.011-19.243,48.874,48.874,0,0,1-9.127,14.185c-8.313,8.895-17.848,12.15-24.708,14.476A76.448,76.448,0,0,1,131.877,860.947Z" transform="translate(-113.157 -741.578)" fill="#3d3d3d" opacity="0.12"/>
      </g>
      <g id="leg_right" transform="translate(78.018 184.47)">
        <path id="Path_178" data-name="Path 178" d="M251,984.4q-6.8,18.749-13.6,37.556c31.859,3.721,48.078,4.244,48.66,1.453.465-2.151-8.953-6.395-28.138-12.615,2.616-7.732,5.29-15.464,7.906-23.2C260.887,986.551,255.945,985.446,251,984.4Z" transform="translate(-235.423 -811.026)" fill="#161616" stroke="#161616" stroke-width="3"/>
        <path id="Path_179" data-name="Path 179" d="M296.845,691.016c.639,8.6,1.221,20.348,1.1,34.184a421.958,421.958,0,0,1-6.976,74.647A392.3,392.3,0,0,1,268.184,876a39.886,39.886,0,0,1-22.789-5.872A38.21,38.21,0,0,1,234,859.087a258.5,258.5,0,0,0,12.15-26.51A261.837,261.837,0,0,0,259,788.045c4.709-22.615,7.093-33.893,5.174-45.986-1.86-11.453-4.883-13.429-4.418-23.2.116-2.151,1.57-27.208,17.266-31.975C285.1,684.5,293.124,688.691,296.845,691.016Z" transform="translate(-234 -686.178)" fill="#4c4c4c"/>
        <path id="Path_180" data-name="Path 180" d="M283.276,686.768c5.174,2.209,3.488,16.743,3.023,20.58-6.221,54.764,2.325,25.289-5.174,59.066-10.29,46.393-24.185,90.983-29.068,106.331a10.479,10.479,0,0,1-4.535-.93c-1.628-.756-1.977-1.744-3.953-3.314-2.151-1.686-2.907-1.57-4.535-2.732a13.129,13.129,0,0,1-4.535-6.337c3.023-5.93,6.628-13.546,10.29-22.731a301.228,301.228,0,0,0,10-30s8.72-30.056,10.29-53.02a45.927,45.927,0,0,0-.291-10c-.523-3.6-1.279-5.407-2.442-9.709a99.658,99.658,0,0,1-2.442-12.092c-1.453-13.895,5.93-25.057,9.418-29.068a17.018,17.018,0,0,1,5.174-4.244C275.37,688.163,280.427,685.547,283.276,686.768Z" transform="translate(-234.209 -686.29)" fill="#3d3d3d" opacity="0.14"/>
        <path id="Path_181" data-name="Path 181" d="M270.172,813.529c-.988,14.127-4.3,18.313-13.953,53.02-4.244,15.232-7.383,27.731-9.418,35.754a23.861,23.861,0,0,1-11.8-10.29,245.164,245.164,0,0,0,10.581-25.173c1.512-4.186,2.5-7.383,3.43-10.29,13.255-42.5,15.348-55.4,15.987-64.24a115.655,115.655,0,0,0,0-15.464,86.579,86.579,0,0,0-1.977-13.546A126.754,126.754,0,0,1,270.172,813.529Z" transform="translate(-234.419 -718.464)" fill="#3d3d3d" opacity="0.11"/>
      </g>
      <g id="hand_left" transform="translate(39.379 96.75)">
        <path id="Path_182" data-name="Path 182" d="M169.048,602.3c.116-.174.7-.116,1.86,0,1.977.174,2.616.465,3.9.581,1.221.058,2.849.174,3.314-.581.639-.988-1.4-2.907-4.244-7.034-4.883-6.976-4.651-9.418-4.244-10.523.116-.291.465-1.4,1.221-1.57.988-.233,2.093,1.1,3.139,2.442,1.744,2.151,2.442,3.837,2.616,3.721.349-.116-1.686-4.476-1.221-9.825.116-1.453.349-3.546,1.4-3.837.93-.291,2.325.872,3.43,2.732,0-.233.291-3.43,1.4-3.663.872-.174,1.86,1.512,2.849,3.139a18.849,18.849,0,0,1,1.628,3.372,3.306,3.306,0,0,1,2.035-3.372,3.013,3.013,0,0,1,2.616.7c1.337,1.221,1.221,3.372,1.221,4.128a156.789,156.789,0,0,0,.988,17.034,32.439,32.439,0,0,0,6.162-3.256c2.5-1.686,5.116-3.9,11.569-11.627,2.5-3.023,3.779-4.535,5.988-7.5,7.965-10.639,12.674-16.918,17.441-25.812a37.553,37.553,0,0,1,9.011-11.976c1.628-1.4,4.825-4.011,6.686-3.023,1.337.7,1.453,2.907,1.4,6.162-.058,7.093-.116,10.581-1.337,15.406a67.347,67.347,0,0,1-9.127,20.7c-4.593,6.744-9.185,10.639-15.115,15.7-6.162,5.232-11.278,9.534-19.359,12.79a67.781,67.781,0,0,1-13.895,3.663c-7.325,1.279-11.1,1.918-14.883.291C172.071,608.922,168.408,603.167,169.048,602.3Z" transform="translate(-168.138 -535.723)" fill="#fff"/>
        <g id="Group_342" data-name="Group 342" transform="translate(23.807)">
          <g id="Group_341" data-name="Group 341">
            <path id="Path_183" data-name="Path 183" d="M266.107,535.3c-6.279.872-10,6.744-13.371,11.569-4.3,6.162-8.372,12.5-12.557,18.72a186.32,186.32,0,0,1-13.488,18.2,95.658,95.658,0,0,1-7.5,7.848c-2.965,2.791-6.221,5.988-10.116,7.325-1.046.349-.581,2.035.465,1.686,6.1-2.035,11.278-7.848,15.522-12.441a157.5,157.5,0,0,0,13.371-16.976c4.186-6.046,8.2-12.267,12.267-18.371,3.837-5.7,8.372-14.825,15.871-15.871,1.1-.174.639-1.8-.465-1.686Z" transform="translate(-208.485 -535.29)"/>
          </g>
        </g>
        <g id="Group_344" data-name="Group 344" transform="translate(25.596 3.305)">
          <g id="Group_343" data-name="Group 343">
            <path id="Path_184" data-name="Path 184" d="M212.4,613.834c7.441-.7,13.72-4.128,19.941-8.081a104.552,104.552,0,0,0,17.266-13.488,72.378,72.378,0,0,0,16.22-22.906,52.773,52.773,0,0,0,4.244-27.557c-.116-1.1-1.86-1.1-1.744,0,1.977,15.755-4.3,31.393-14.418,43.369A94.114,94.114,0,0,1,238.5,599.416c-7.674,5.7-16.394,11.8-26.161,12.732-1.046.058-1.046,1.8.058,1.686Z" transform="translate(-211.562 -540.975)"/>
          </g>
        </g>
        <g id="Group_346" data-name="Group 346" transform="translate(0 65.104)">
          <g id="Group_345" data-name="Group 345">
            <path id="Path_185" data-name="Path 185" d="M193.967,656.533c-3.43-.058-6.744.756-10.116.988A15.733,15.733,0,0,1,173.5,654.5a11.159,11.159,0,0,1-3.488-3.314c-1.686-2.965,1.8-1.221,3.023-.872a5.267,5.267,0,0,0,5.29-.988c.872-.756-.407-1.977-1.221-1.221-2.616,2.325-7.5-2.849-9.244.116-1.337,2.267,1.744,5.523,3.256,6.744a18.365,18.365,0,0,0,9.244,4.3c4.535.523,9.069-1.046,13.6-.93,1.1-.058,1.1-1.8,0-1.8Z" transform="translate(-167.535 -647.275)"/>
          </g>
        </g>
        <g id="Group_348" data-name="Group 348" transform="translate(0.568 46.492)">
          <g id="Group_347" data-name="Group 347">
            <path id="Path_186" data-name="Path 186" d="M178.853,634.934c-1.163-3.9-3.779-6.918-5.872-10.348-.291-.465-3.779-6.8-2.616-7.325,2.035-.93,4.942,4.942,5.348,6.1.349,1.046,2.035.581,1.686-.465a13.271,13.271,0,0,0-5-6.8c-1.279-.872-3.139-1.511-3.721.465-.756,2.674,1.221,6.279,2.558,8.488,2.093,3.43,4.825,6.395,5.988,10.348a.847.847,0,1,0,1.628-.465Z" transform="translate(-168.513 -615.261)"/>
          </g>
        </g>
        <g id="Group_350" data-name="Group 350" transform="translate(6.445 38.725)">
          <g id="Group_349" data-name="Group 349">
            <path id="Path_187" data-name="Path 187" d="M182.155,617.248c-.523-2.151-1.221-4.36-1.57-6.569a15.485,15.485,0,0,1-.174-4.011c.174-1.744.523-3.488,1.918-1.453,2.151,3.2,2.849,7.558,3.9,11.162a.875.875,0,0,0,1.686-.465,74.633,74.633,0,0,0-2.849-9.3c-.639-1.453-2.093-4.709-4.128-4.709-2.093,0-2.151,3.256-2.267,4.709-.291,3.779.872,7.383,1.8,10.988a.861.861,0,1,0,1.686-.349Z" transform="translate(-178.622 -601.9)"/>
          </g>
        </g>
        <g id="Group_352" data-name="Group 352" transform="translate(11.941 38.06)">
          <g id="Group_351" data-name="Group 351">
            <path id="Path_188" data-name="Path 188" d="M190.182,608.514c-.291-1.221-.872-3.256-.407-4.477.872-2.267,2.151,1.8,2.5,2.674a29.083,29.083,0,0,1,2.151,9.651c.058,1.1,1.8,1.1,1.744,0a33.068,33.068,0,0,0-1.86-9.244c-.64-1.8-1.57-5-3.314-5.988-3.953-2.267-2.849,6.453-2.558,7.907.291,1.047,1.977.581,1.744-.523Z" transform="translate(-188.074 -600.756)"/>
          </g>
        </g>
        <g id="Group_354" data-name="Group 354" transform="translate(18.089 40.725)">
          <g id="Group_353" data-name="Group 353">
            <path id="Path_189" data-name="Path 189" d="M200.482,612.468c-.058-.581-.465-3.721.233-4.3,1.918-1.686,2.442,1.4,2.674,2.325a54.944,54.944,0,0,1,.523,6.221c.291,4.186.581,8.313.872,12.5.058,1.1,1.8,1.1,1.744,0-.291-4.186-.581-8.313-.872-12.5-.174-2.907.058-6.744-1.453-9.36-.814-1.4-2.209-2.674-3.837-1.628-2.093,1.4-1.8,5.116-1.512,7.209.116,1.1,1.8.64,1.628-.465Z" transform="translate(-198.651 -605.34)"/>
          </g>
        </g>
        <path id="Path_190" data-name="Path 190" d="M250.244,538.8c-.291,0-.058,4.593-1.86,10.988-1.4,4.883-3.663,9.534-10.988,19.185-6.744,8.895-11.627,15.348-20.115,22.906-9.3,8.313-13.953,12.441-20.348,14.011-13.836,3.43-26.568-4.535-27.789-1.86-.639,1.453,2.849,4.36,4.186,5.349,1.686,1.221,4.942,3.139,12.615,3.256a49.984,49.984,0,0,0,15.871-2.325c14.767-4.883,24.475-14.534,29.649-19.883,6.86-6.976,12.441-12.674,16.1-22.208C253.441,553.392,250.825,538.8,250.244,538.8Z" transform="translate(-168.176 -536.759)" fill="#3d3d3d" opacity="0.09"/>
        <path id="Path_191" data-name="Path 191" d="M263.915,577.393c-.407-.233-2.849,3.837-6.337,8.662a159.331,159.331,0,0,1-19.185,21.51c-5.93,5.407-16.743,13.778-33.893,20.348a38.271,38.271,0,0,0,14.708-1.86c1.86-.639,6.511-2.384,17.731-12.15,8.953-7.79,13.953-12.092,18.952-19.65C261.3,586.172,264.5,577.684,263.915,577.393Z" transform="translate(-183.01 -552.912)" fill="#3d3d3d" opacity="0.13"/>
      </g>
      <g id="torso" transform="translate(95.69 88.705)">
        <path id="Path_192" data-name="Path 192" d="M296.622,523.6c-3.663,1.279-5.93,3.546-8.313,5.93-6.628,6.686-9.011,14.243-10.871,20.348-5.581,18.371-8.43,27.5-9.709,35.521a185.221,185.221,0,0,0-2.384,35.521,71.92,71.92,0,0,0,12.79,7.093c6.279,2.674,11.918,5.058,19.185,4.477a30.072,30.072,0,0,0,13.488-4.477,103.4,103.4,0,0,1,2.616-16.569c2.907-12.267,6.046-15.813,11.162-31.045,4.011-12.034,5.988-18.2,5.7-25.58-.233-5.174-.7-15.29-8.313-23.2C316.156,525.636,305.749,520.4,296.622,523.6Z" transform="translate(-264.762 -521.945)" fill="#fff"/>
        <g id="Group_356" data-name="Group 356" transform="translate(0 1.932)">
          <g id="Group_355" data-name="Group 355">
            <path id="Path_193" data-name="Path 193" d="M293.641,524.906c-6.976,4.186-11.22,11.162-14.708,18.313a122.519,122.519,0,0,0-8.546,24.243c-4.244,17.441-5.29,35.521-5.988,53.427-.058,1.1,1.686,1.1,1.744,0,.639-17.092,1.628-34.242,5.465-50.985a120.665,120.665,0,0,1,7.965-23.952c3.43-7.5,7.674-15.232,14.941-19.534.93-.581.058-2.093-.872-1.512Z" transform="translate(-264.398 -524.775)"/>
          </g>
        </g>
        <g id="Group_358" data-name="Group 358" transform="translate(45.691 4.441)">
          <g id="Group_357" data-name="Group 357">
            <path id="Path_194" data-name="Path 194" d="M349.042,530.491A33.428,33.428,0,0,1,361.6,551.013c1.628,9.36-.64,18.894-3.779,27.673-3.023,8.488-6.976,16.569-9.709,25.173A113.563,113.563,0,0,0,343,629.9c-.116,1.1,1.628,1.1,1.744,0a113.307,113.307,0,0,1,6.279-29.126c3.2-8.953,7.441-17.5,10.174-26.626,2.442-8.2,3.721-17.092,1.686-25.58a34.268,34.268,0,0,0-12.557-19.243c-.93-.756-2.151.465-1.279,1.163Z" transform="translate(-342.99 -529.09)"/>
          </g>
        </g>
        <g id="Group_360" data-name="Group 360" transform="translate(0.082 97.75)">
          <g id="Group_359" data-name="Group 359">
            <path id="Path_195" data-name="Path 195" d="M264.807,691.05a47.939,47.939,0,0,0,25.115,11.744c7.441,1.046,17.034,1.1,21.917-5.581.639-.93-.872-1.8-1.512-.872-4.883,6.628-15.7,5.755-22.789,4.3a46.385,46.385,0,0,1-21.51-10.813c-.814-.756-2.035.465-1.221,1.221Z" transform="translate(-264.538 -689.591)"/>
          </g>
        </g>
        <path id="Path_196" data-name="Path 196" d="M304.512,523.34c1.977,3.43-5.349,9.767-10.988,19.65-3.6,6.279-5,11.744-7.732,22.673-6.395,25.58-5.174,54.648-4.651,63.078-5-2.674-9.941-5.29-14.941-7.965.233-5.7.7-13.836,1.628-23.6,1.512-15.464,2.384-23.894,5.349-34.824,2.616-9.476,5.174-18.313,12.15-27.789a65.191,65.191,0,0,1,12.848-13.081C300.384,521.363,303.465,521.538,304.512,523.34Z" transform="translate(-265.152 -521.451)" fill="#3d3d3d" opacity="0.11"/>
        <path id="Path_197" data-name="Path 197" d="M282.266,554.9c.756.233-2.325,12.383-7.267,39.242-3.256,17.615-4.011,23.952-1.4,31.8,3.372,10.057,10.174,16.162,8.895,17.5-.814.814-4.3-.349-16.336-9.36a187.425,187.425,0,0,1,5.581-50.23C275.755,567.977,281.453,554.606,282.266,554.9Z" transform="translate(-265.115 -535.451)" fill="#3d3d3d" opacity="0.15"/>
      </g>
      <g id="head" transform="translate(96.061 16.973)">
        <path id="Path_198" data-name="Path 198" d="M368.518,482.134c2.732,2.5,2.384,7.383,1.86,14.476-.349,4.942-.523,7.441-2.209,9.825-3.488,4.942-11.395,7.209-17.615,4.418a14.03,14.03,0,0,1-6.686-6.511c-3.023-6.279.116-12.557.756-13.72C349.508,481.494,363.635,477.6,368.518,482.134Z" transform="translate(-297.497 -432.465)" fill="#333"/>
        <path id="Path_199" data-name="Path 199" d="M363.9,428.16c2.209.465,3.546,3.546,6.221,9.767a67.019,67.019,0,0,1,3.779,11.627,68.607,68.607,0,0,1,1.337,8.837c-1.57.465-3.139.872-4.709,1.337a35.811,35.811,0,0,1-2.616,8.43c-2.093,4.651-3.837,8.662-7.906,10.523-4.709,2.151-9.767.233-11.453-.581a34.846,34.846,0,0,1-2.791,5.465,33.142,33.142,0,0,1-2.616,3.546c-5.29,1.337-7.732-.058-8.662-.756-4.883-3.6-4.476-15.232,3.023-28.37-.407-.64-1.046-1.57-1.86-2.616-1.686-2.093-2.267-2.151-3.023-3.372-.233-.349-2.035-3.43-.581-6.221a4.879,4.879,0,0,1,3.779-2.616c1.977-.174,2.616,1.4,4.3,1.86,2.907.872,6.1-2.267,14.069-9.767C360.874,428.974,362.211,427.811,363.9,428.16Z" transform="translate(-292.759 -410.64)" fill="#fff"/>
        <g id="Group_362" data-name="Group 362" transform="translate(76.676 26.242)">
          <g id="Group_361" data-name="Group 361">
            <path id="Path_200" data-name="Path 200" d="M396.969,444.015a75.174,75.174,0,0,1,5.116,21.394c.058.814,1.4.814,1.337,0a75.632,75.632,0,0,0-5.174-21.743c-.291-.814-1.57-.465-1.279.349Z" transform="translate(-396.927 -443.203)"/>
          </g>
        </g>
        <g id="Group_364" data-name="Group 364" transform="translate(76.864 47.86)">
          <g id="Group_363" data-name="Group 363">
            <path id="Path_201" data-name="Path 201" d="M402.569,480.395c-1.57.174-3.139.407-4.709.581-.814.116-.814,1.4,0,1.337,1.57-.174,3.139-.407,4.709-.581.814-.174.814-1.453,0-1.337Z" transform="translate(-397.25 -480.387)"/>
          </g>
        </g>
        <g id="Group_366" data-name="Group 366" transform="translate(51.299 48.566)">
          <g id="Group_365" data-name="Group 365">
            <path id="Path_202" data-name="Path 202" d="M379.1,482.066A33.152,33.152,0,0,1,371.777,498c-4.651,5.465-12.034,2.616-17.732.291-.756-.349-1.1.93-.349,1.279,5.349,2.209,13.022,5.232,17.848.581,4.767-4.535,7.616-11.337,8.779-17.732.174-.814-1.046-1.163-1.221-.349Z" transform="translate(-353.275 -481.603)"/>
          </g>
        </g>
        <g id="Group_368" data-name="Group 368" transform="translate(50.33 67.411)">
          <g id="Group_367" data-name="Group 367">
            <path id="Path_203" data-name="Path 203" d="M356.2,514.356a46.088,46.088,0,0,1-4.476,7.906c-.465.7.639,1.337,1.1.639A48.393,48.393,0,0,0,357.3,515c.349-.756-.756-1.4-1.1-.639Z" transform="translate(-351.607 -514.017)"/>
          </g>
        </g>
        <g id="Group_370" data-name="Group 370" transform="translate(51.42 65.558)">
          <g id="Group_369" data-name="Group 369">
            <path id="Path_204" data-name="Path 204" d="M353.667,511.975a11.4,11.4,0,0,0,2.965,2.326.638.638,0,1,0,.64-1.1,10.9,10.9,0,0,1-2.732-2.151c-.523-.639-1.453.291-.872.93Z" transform="translate(-353.482 -510.83)"/>
          </g>
        </g>
        <g id="Group_372" data-name="Group 372" transform="translate(70.3 33.323)">
          <g id="Group_371" data-name="Group 371">
            <path id="Path_205" data-name="Path 205" d="M387.495,458.59a2.045,2.045,0,0,1,.174-2.151c-.349-.116-.756-.174-1.1-.291a12.187,12.187,0,0,1,.116,2.907l.64-.639a1.216,1.216,0,0,0,.233.349c.174-.814-1.1-1.163-1.279-.349a1.045,1.045,0,0,0,1.046,1.337.61.61,0,0,0,.639-.639,12.232,12.232,0,0,0-.116-3.256.673.673,0,0,0-1.1-.291,3.253,3.253,0,0,0-.349,3.721c.349.7,1.512.058,1.1-.7Z" transform="translate(-385.96 -455.383)"/>
          </g>
        </g>
        <g id="Group_374" data-name="Group 374" transform="translate(67.026 25.327)">
          <g id="Group_373" data-name="Group 373">
            <path id="Path_206" data-name="Path 206" d="M381.648,444.984a3.27,3.27,0,0,1,4.942-1.453c.7.465,1.337-.7.639-1.1a4.572,4.572,0,0,0-6.86,2.209c-.291.814.988,1.163,1.279.349Z" transform="translate(-380.327 -441.628)"/>
          </g>
        </g>
        <g id="Group_376" data-name="Group 376" transform="translate(64.428 37.982)">
          <g id="Group_375" data-name="Group 375">
            <path id="Path_207" data-name="Path 207" d="M377.1,464.561h-.756c-.058-.116-.058-.233-.116-.349.116-.407.291-.523.639-.407l.233.233v-.058a.638.638,0,1,0-1.1.639,1.007,1.007,0,0,0,.93.407.872.872,0,0,0,.639-.814.883.883,0,0,0-1.628-.407.656.656,0,0,0,.233.872.6.6,0,0,0,.93-.116Z" transform="translate(-375.859 -463.396)"/>
          </g>
        </g>
        <g id="Group_378" data-name="Group 378" transform="translate(67.213 40.902)">
          <g id="Group_377" data-name="Group 377">
            <path id="Path_208" data-name="Path 208" d="M382.015,469.338h0a3.321,3.321,0,0,1-.465.407h-.291a.057.057,0,0,1-.058-.058l-.233-.233v.058c0-.174-.058-.349-.058-.523l.174-.174a.671.671,0,0,0-.233.872c.174.291.64.465.872.233.407-.291.7-.872.233-1.279a.7.7,0,0,0-.756-.174c-.291.058-.407.233-.523.523a.661.661,0,0,0,.465.814.7.7,0,0,0,.872-.465Z" transform="translate(-380.648 -468.42)"/>
          </g>
        </g>
        <g id="Group_380" data-name="Group 380" transform="translate(63.239 41.879)">
          <g id="Group_379" data-name="Group 379">
            <path id="Path_209" data-name="Path 209" d="M374.561,470.1h-.116a.67.67,0,0,0,0,1.337h.116a.669.669,0,0,0,0-1.337Z" transform="translate(-373.812 -470.1)"/>
          </g>
        </g>
        <g id="Group_382" data-name="Group 382" transform="translate(69.19 49.658)">
          <g id="Group_381" data-name="Group 381">
            <path id="Path_210" data-name="Path 210" d="M384.079,484.306c.93,2.849,2.384,5.407,5.29,6.511.756.291,1.1-.93.349-1.279-2.384-.93-3.6-3.314-4.36-5.639a.673.673,0,0,0-1.279.407Z" transform="translate(-384.05 -483.481)"/>
          </g>
        </g>
        <g id="Group_384" data-name="Group 384" transform="translate(67.803 48.958)">
          <g id="Group_383" data-name="Group 383">
            <path id="Path_211" data-name="Path 211" d="M382.906,484.5a2.321,2.321,0,0,1,1.628-.93.713.713,0,0,0,.465-.814.661.661,0,0,0-.814-.465A3.441,3.441,0,0,0,381.8,483.8c-.523.7.581,1.4,1.1.7Z" transform="translate(-381.664 -482.276)"/>
          </g>
        </g>
        <g id="Group_386" data-name="Group 386" transform="translate(38.115 32.14)">
          <g id="Group_385" data-name="Group 385">
            <path id="Path_212" data-name="Path 212" d="M336.819,464.831c-3.546,1.279-5.465-4.186-4.825-6.744a4.584,4.584,0,0,1,2.674-3.314c1.918-.581,3.663.93,4.883,2.093.581.581,1.512-.349.93-.93-1.57-1.512-3.488-2.965-5.814-2.5-2.093.407-3.372,2.384-3.9,4.3-.93,3.546,1.918,9.941,6.395,8.372.814-.291.465-1.57-.349-1.279Z" transform="translate(-330.597 -453.348)"/>
          </g>
        </g>
        <path id="Path_213" data-name="Path 213" d="M331.58,416.863c-.7.814-1.744,2.151-2.965,3.9-4.418,6.453-4.011,9.069-7.093,10.93a10.42,10.42,0,0,1-8.837.756c-2.093-.872-2.674-2.209-4.476-2.151a5.537,5.537,0,0,0-4.593,3.6c-.93,2.267,0,4.36.639,5.7.581,1.221,1.4,3.023,3.139,3.43a3.865,3.865,0,0,0,2.616-.465c-.058.639-.174,1.628-.233,2.849a57.376,57.376,0,0,0,.523,10.813c.581,5.465,1.1,9.825-.523,13.953-2.5,6.162-8.72,8.895-10.988,9.883a26.124,26.124,0,0,1-19.824.174c-1.918-.814-11.1-4.593-13.371-13.2-1.4-5.174.174-10.406.814-12.615a30.512,30.512,0,0,1,2.558-5.93,32.158,32.158,0,0,1,11.395-11.569,91.117,91.117,0,0,1,6.221-16.336c3.663-7.441,5.7-11.569,10.348-15.406a32.352,32.352,0,0,1,18.487-7.034,37.148,37.148,0,0,1,16.394,2.791c5.755,2.325,12.5,5.116,15.29,12.034,3.2,8.081-1.337,16.1-2.209,17.615a11.914,11.914,0,0,0-1.686-3.953c-1.453-2.151-3.081-3.023-5.523-4.709C336.115,420.7,334.022,419.13,331.58,416.863Z" transform="translate(-265.035 -398.064)" fill="#333"/>
        <g id="Group_388" data-name="Group 388" transform="translate(42.158 74.617)">
          <g id="Group_387" data-name="Group 387">
            <path id="Path_214" data-name="Path 214" d="M337.987,528.033a9.885,9.885,0,0,0,8.2.872c1.046-.349.581-2.035-.465-1.686a8.36,8.36,0,0,1-6.86-.7c-.988-.523-1.86.988-.872,1.512Z" transform="translate(-337.552 -526.413)"/>
          </g>
        </g>
        <path id="Path_215" data-name="Path 215" d="M305.072,468.228a3.7,3.7,0,0,0,6.686.639,18.953,18.953,0,0,0,1.221,10.116,20.6,20.6,0,0,0,9.3,9.941,23.766,23.766,0,0,0,12.383,3.023,8.774,8.774,0,0,1-3.663,3.43c-4.709,2.325-9.651-.814-9.941-.988a36.7,36.7,0,0,1-3.663,6.279c-1.453,1.977-2.035,2.442-2.442,2.616-2.791,1.628-6.453-.058-7.5-.581a29.729,29.729,0,0,1-5.058,3.837,27.154,27.154,0,0,1-13.778,4.07,28.853,28.853,0,0,1-16.8-6.279,17.549,17.549,0,0,1-4.477-5.29,17.252,17.252,0,0,1-1.8-6.686c-.639-7.267,2.5-13.429,4.244-16.22a29.926,29.926,0,0,1,9.709-9.534c-.174.639-2.325,9.651,2.442,14.011,5.988,5.407,19.534.291,22.5-7.5A10.515,10.515,0,0,0,305.072,468.228Z" transform="translate(-265.211 -426.756)" fill="#111" opacity="0.14"/>
        <path id="Path_216" data-name="Path 216" d="M345.721,497.091c-.465.233.64,3.256,1.686,5.407a29.706,29.706,0,0,0,5.29,7.732c.407-1.046.814-2.093,1.221-3.081a15.555,15.555,0,0,0,11.918.116c-8.953-.174-13.488-2.907-15.987-5.407C347.814,499.823,346.186,496.858,345.721,497.091Z" transform="translate(-298.768 -439.515)" fill="#3d3d3d" opacity="0.07"/>
      </g>
      <g id="hand_right" transform="translate(140.062)">
        <path id="Path_217" data-name="Path 217" d="M593.366,392.213c-.814-.465-.988-1.57-1.1-2.325-.407-2.732,1.628-4.942,1.977-5.407,2.151-2.384,3.372-1.163,5.407-3.372,1.511-1.628,1.4-2.965,3.721-5.116,1.511-1.453,2.035-1.279,2.151-1.221.814.349.116,2.151.93,4.942.7,2.325,1.57,2.325,1.86,4.3.058.523.465,3.139-1.1,4.651-.7.7-1.628.872-3.546,1.221-2.209.407-2.5.174-4.011.465C595.982,391.05,594.7,392.969,593.366,392.213Z" transform="translate(-446.004 -371.324)" fill="#fff"/>
        <path id="Path_218" data-name="Path 218" d="M574.306,400.6c-8.779,9.069-17.557,18.2-26.336,27.266a3.59,3.59,0,0,0-.174,4.476,3.5,3.5,0,0,0,4.651.756c9.011-10.464,17.964-20.987,26.975-31.452C577.736,401.3,576.05,400.949,574.306,400.6Z" transform="translate(-427.118 -382.153)"/>
        <path id="Path_219" data-name="Path 219" d="M533.08,485.4c.291.756-.639,2.325-5.7,5.7-1.453-.291-2.674-1.1-2.907-2.151-.349-1.744,2.151-3.2,3.256-3.721C529.767,484.3,532.673,484.355,533.08,485.4Z" transform="translate(-417.635 -417.306)"/>
        <path id="Path_220" data-name="Path 220" d="M354.362,493.266c-3.139.7-8.662,2.035-11.22,6.569a11.872,11.872,0,0,0-1.221,7.209,14.143,14.143,0,0,0,7.906,10.872c4.767,2.151,9.709.523,12.209-.349,21.743-7.5,32.614-11.22,37.033-13.429,12.79-6.453,27.033-13.72,43.253-27.208,4.186-3.488,7.5-6.569,9.825-8.779a9.33,9.33,0,0,0,5.523,1.221c2.035-.233,3.372-1.163,5.349-2.558a16.085,16.085,0,0,0,4.476-4.3,15.875,15.875,0,0,0,2.267-5.348c.407-1.686,1.221-4.709.174-5.349-.756-.465-1.57.814-3.6.872-.174,0-2.674,0-3.779-1.57-1.046-1.453.058-2.791-.872-3.953-.988-1.279-3.546-1.163-5.174-.7-3.779,1.163-5.581,5.349-6.744,7.558-3.2,6.337-7.79,9.767-16.336,16.22-6.628,5-12.557,7.325-20.522,10.523a119.307,119.307,0,0,1-17.034,5.523C382.558,489.429,372.035,489.313,354.362,493.266Z" transform="translate(-341.177 -401.219)" fill="#fff"/>
        <g id="Group_390" data-name="Group 390" transform="translate(2.186 44.093)">
          <g id="Group_389" data-name="Group 389">
            <path id="Path_221" data-name="Path 221" d="M345.946,498.656c5.988-5.988,15.406-6.221,23.313-7.325,9.244-1.279,18.487-2.674,27.556-4.825,16.1-3.721,32.091-9.941,44.707-20.871a55,55,0,0,0,8.953-9.767c2.325-3.314,6.744-13.081,12.208-8.43.872.7,2.093-.523,1.221-1.221a6.5,6.5,0,0,0-7.325-.7c-3.43,1.744-5,5.581-7.034,8.662-5.29,8.023-13.313,14.185-21.568,18.894-17.383,9.883-37.381,13.429-56.915,16.278-8.837,1.279-19.534,1.4-26.277,8.081-.872.756.349,1.977,1.163,1.221Z" transform="translate(-344.483 -444.715)"/>
          </g>
        </g>
        <g id="Group_392" data-name="Group 392" transform="translate(0 65.823)">
          <g id="Group_391" data-name="Group 391">
            <path id="Path_222" data-name="Path 222" d="M343.093,512.211c-3.9,6.627-3.139,15.406,3.372,20.115,7.79,5.639,18.72.291,26.684-2.442A240.3,240.3,0,0,0,452.8,483.55c.872-.756-.407-1.977-1.221-1.221-26.1,22.789-57.787,40.811-91.39,49.823-5.755,1.57-11.743,1.221-15.464-4.011-3.256-4.476-2.849-10.406-.116-15a.889.889,0,0,0-1.512-.93Z" transform="translate(-340.722 -482.091)"/>
          </g>
        </g>
        <g id="Group_394" data-name="Group 394" transform="translate(110.315 48.303)">
          <g id="Group_393" data-name="Group 393">
            <path id="Path_223" data-name="Path 223" d="M547.814,453.028a14.467,14.467,0,0,1,.465,4.186c-.233,1.918-1.163,2.558-1.86,4.128-.291.7-.349,1.4-.581,2.093-.465,1.57-1.1,1.918-2.209,2.849a31.223,31.223,0,0,0-2.965,3.256c-1.686,1.8-2.674,1.221-4.767.988-1.512-.174-3.081-.407-4.593-.581-1.1-.116-1.1,1.628,0,1.744,2.5.349,6.744,1.8,9.069.581a6.018,6.018,0,0,0,2.035-2.151,7.185,7.185,0,0,1,2.616-2.5c.581-.291.872-.058,1.4-.523a3.692,3.692,0,0,0,.988-2.151,18.379,18.379,0,0,1,1.8-4.709c1.221-2.384.814-5.058.291-7.558a.861.861,0,1,0-1.686.349Z" transform="translate(-530.475 -451.955)"/>
          </g>
        </g>
        <g id="Group_396" data-name="Group 396" transform="translate(119.907 45.722)">
          <g id="Group_395" data-name="Group 395">
            <path id="Path_224" data-name="Path 224" d="M547.571,447.914a4.053,4.053,0,0,0,1.8,5.755c2.442,1.1,5.174-.523,6.395-2.674a.873.873,0,0,0-1.512-.872c-.756,1.337-2.325,2.558-3.9,2.035a2.251,2.251,0,0,1-1.279-3.372c.581-.93-.93-1.8-1.512-.872Z" transform="translate(-546.974 -447.516)"/>
          </g>
        </g>
        <g id="Group_398" data-name="Group 398" transform="translate(120.119 17.69)">
          <g id="Group_397" data-name="Group 397">
            <path id="Path_225" data-name="Path 225" d="M548.828,428.541Q562,414.85,574.814,400.81c.756-.814-.465-2.093-1.221-1.221q-12.819,14.04-25.987,27.731c-.814.756.407,2.035,1.221,1.221Z" transform="translate(-547.338 -399.297)"/>
          </g>
        </g>
        <g id="Group_400" data-name="Group 400" transform="translate(127.184 18.321)">
          <g id="Group_399" data-name="Group 399">
            <path id="Path_226" data-name="Path 226" d="M560.95,430.857c8.372-9.651,16.685-19.3,25.057-28.952.756-.872-.523-2.093-1.221-1.221-8.372,9.651-16.685,19.3-25.057,28.952-.756.872.465,2.093,1.221,1.221Z" transform="translate(-559.491 -400.384)"/>
          </g>
        </g>
        <g id="Group_402" data-name="Group 402" transform="translate(105.78 67.594)">
          <g id="Group_401" data-name="Group 401">
            <path id="Path_227" data-name="Path 227" d="M531.643,485.407c-1.1,1.1-2.209,2.267-3.314,3.372a9.344,9.344,0,0,1-1.279,1.337c-1.453.756-2.209-.7-2.732-1.628a.873.873,0,0,0-1.512.872c.872,1.453,2.325,3.314,4.244,2.732a6.212,6.212,0,0,0,2.5-2.093c1.1-1.1,2.209-2.267,3.314-3.372.814-.814-.465-2.035-1.221-1.221Z" transform="translate(-522.675 -485.138)"/>
          </g>
        </g>
        <g id="Group_404" data-name="Group 404" transform="translate(152.763 1.059)">
          <g id="Group_403" data-name="Group 403">
            <path id="Path_228" data-name="Path 228" d="M603.961,389.242c3.488,1.57,7.732.639,9.534-2.965a7.311,7.311,0,0,0,.291-5.639c-1.1-2.907-5.116-5.465-1.57-8.488.872-.756-.407-1.977-1.221-1.221a5.232,5.232,0,0,0-1.279,6.744c1.279,2.267,3.314,3.546,2.674,6.511a5.241,5.241,0,0,1-7.5,3.546c-1.1-.465-1.977,1.046-.93,1.512Z" transform="translate(-603.491 -370.691)"/>
          </g>
        </g>
        <g id="Group_406" data-name="Group 406" transform="translate(145.729 2.369)">
          <g id="Group_405" data-name="Group 405">
            <path id="Path_229" data-name="Path 229" d="M593.14,388.266a6.661,6.661,0,0,1,3.546-5.523,25.008,25.008,0,0,0,3.43-1.977c2.151-1.744,2.79-4.942,5.349-6.221.988-.523.116-1.977-.872-1.512a7.259,7.259,0,0,0-3.139,3.2,10.994,10.994,0,0,1-4.593,4.476c-3.488,1.8-4.942,3.6-5.465,7.558-.116,1.1,1.628,1.1,1.744,0Z" transform="translate(-591.39 -372.944)"/>
          </g>
        </g>
        <g id="Group_408" data-name="Group 408" transform="translate(146.12 17.239)">
          <g id="Group_407" data-name="Group 407">
            <path id="Path_230" data-name="Path 230" d="M593.131,400.66a4.742,4.742,0,0,1,4.709.639c.872.7,1.744-.814.872-1.512a6.231,6.231,0,0,0-6.1-.814c-.988.407-.523,2.093.523,1.686Z" transform="translate(-592.063 -398.521)"/>
          </g>
        </g>
        <g id="Group_410" data-name="Group 410" transform="translate(151.888 9.002)">
          <g id="Group_409" data-name="Group 409">
            <path id="Path_231" data-name="Path 231" d="M603.04,386.706a12.185,12.185,0,0,1,6.918-.233.875.875,0,0,0,.465-1.686,14.4,14.4,0,0,0-7.848.233c-1.046.349-.581,2.035.465,1.686Z" transform="translate(-601.985 -384.353)" fill="#5222d0"/>
          </g>
        </g>
        <g id="Group_412" data-name="Group 412" transform="translate(150.603 0.725)">
          <g id="Group_411" data-name="Group 411">
            <path id="Path_232" data-name="Path 232" d="M601.126,380.746c4.244-1.8,5.523-6.744,9.476-8.953l-1.046-1.4c-3.023,2.732-.349,6.453.407,9.476.407-.349.872-.639,1.279-.988a14.405,14.405,0,0,0-6.8-1.163c.233.465.523.872.756,1.337a27.1,27.1,0,0,1,2.907-4.36c-.465-.291-.988-.581-1.453-.872a8.161,8.161,0,0,0-.814,4.011.872.872,0,0,0,.814.639c1.4-.058,1.744-1.977,2.209-3.023-.523-.174-1.1-.291-1.628-.465a11.561,11.561,0,0,1,.291,2.849c.116-.233.291-.523.407-.756-.407.233-1.977.058-2.674.233a10.7,10.7,0,0,0-3.2,1.221.882.882,0,0,0,.465,1.628c1.453-.116,2.907-.291,4.36-.407,1.1-.116,1.1-1.86,0-1.744-1.453.116-2.907.291-4.36.407.174.523.291,1.1.465,1.628a9.439,9.439,0,0,1,3.953-1.163c.523-.058,1.337.174,1.8-.174,1.046-.756.349-2.558.233-3.663-.116-.756-1.221-1.337-1.628-.465-.058.174-.988,2.151-.7,2.151a9.939,9.939,0,0,1,.814.639c-.174-.872.523-2.325.814-3.081.291-.814-.93-1.512-1.453-.872a29.167,29.167,0,0,0-3.2,4.709.9.9,0,0,0,.756,1.337,12.156,12.156,0,0,1,5.93.93c.7.291,1.512-.174,1.279-.988-.581-2.325-3.139-5.755-.872-7.79.756-.7-.233-1.86-1.046-1.4-3.9,2.209-5.29,7.151-9.476,8.953-.988.523-.058,1.977.93,1.57Z" transform="translate(-599.775 -370.116)" fill="#282828"/>
          </g>
        </g>
        <g id="Group_414" data-name="Group 414" transform="translate(150.269 0.533)">
          <g id="Group_413" data-name="Group 413">
            <path id="Path_233" data-name="Path 233" d="M609.374,369.852c-2.442,1.512-3.953,3.779-5.755,5.93a38.017,38.017,0,0,1-3.546,3.314c-.465.407-.872.639-.872,1.279a.362.362,0,0,0,.233.349c3.663,1.57,7.732-2.616,11.336.349a.444.444,0,0,0,.7-.116c1.046-1.512-1.279-2.965-2.151-3.9-.291-.291-.872,0-.756.407a1.652,1.652,0,0,0,.523.988c.349.465,1.1,0,.756-.465-.116-.291-.291-.523-.407-.814-.232.116-.465.291-.756.407.407.407,2.558,2.093,2.035,2.849.233-.058.465-.058.7-.116a6.143,6.143,0,0,0-4.244-1.4,23.056,23.056,0,0,0-2.791.407,14.737,14.737,0,0,1-2.209.407c-.814.116-1.8.581-1.163-.523.349-.581,1.4-1.1,1.86-1.57a17.978,17.978,0,0,0,1.919-2.267,21.241,21.241,0,0,1,4.941-5c.581-.058.116-.814-.349-.523Z" transform="translate(-599.2 -369.786)" fill="#282828"/>
          </g>
        </g>
        <g id="Group_416" data-name="Group 416" transform="translate(151.153 9.534)">
          <g id="Group_415" data-name="Group 415">
            <path id="Path_234" data-name="Path 234" d="M601.057,387.5c1.744.233,3.43-.349,5.174-.581a8.286,8.286,0,0,1,3.953.523,3.534,3.534,0,0,0,2.035.349c.291-.058.465-.233.407-.523a4.036,4.036,0,0,0-.7-1.8c-.291-.465-1.046,0-.756.465a2.678,2.678,0,0,1,.639,1.57c.116-.174.291-.349.407-.523-1.628.174-3.256-.988-4.942-.988-1.977.058-4.011.988-5.988.7-.581-.116-.814.7-.233.814Z" transform="translate(-600.721 -385.269)" fill="#282828"/>
          </g>
        </g>
        <g id="Group_418" data-name="Group 418" transform="translate(158.974)">
          <g id="Group_417" data-name="Group 417">
            <path id="Path_235" data-name="Path 235" d="M614.945,370.98a3.021,3.021,0,0,1,1.1-.988c.116-.058.523-.349.639-.233.174.116-.291.465-.407.523a5.575,5.575,0,0,0-1.511,2.151c-.233.523.639.756.814.233a6.38,6.38,0,0,1,1.57-1.977.958.958,0,0,0,.232-1.4c-.872-1.163-2.558.349-3.139,1.1-.291.407.349,1.046.7.581Z" transform="translate(-614.173 -368.869)" fill="#282828"/>
          </g>
        </g>
        <g id="Group_420" data-name="Group 420" transform="translate(159.734 0.103)">
          <g id="Group_419" data-name="Group 419">
            <path id="Path_236" data-name="Path 236" d="M617.469,369.135a4.635,4.635,0,0,0-1.977,2.791c-.116.523.7.756.814.233a3.873,3.873,0,0,1,1.57-2.267c.523-.349.058-1.1-.407-.756Z" transform="translate(-615.481 -369.046)" fill="#282828"/>
          </g>
        </g>
        <g id="Group_422" data-name="Group 422" transform="translate(1.469 90.697)">
          <g id="Group_421" data-name="Group 421">
            <path id="Path_237" data-name="Path 237" d="M344.848,532.1c1.86-3.663,8.6-5.058,12.325-5.523,1.1-.174.64-1.86-.465-1.686-4.186.581-11.22,2.209-13.371,6.337-.465.988,1.046,1.918,1.512.872Z" transform="translate(-343.249 -524.878)"/>
          </g>
        </g>
        <path id="Path_238" data-name="Path 238" d="M342.6,511.918a175.747,175.747,0,0,0,21.859-2.791c25.812-4.942,44.183-14.534,55.4-20.464A237.081,237.081,0,0,0,455.035,465.7a32,32,0,0,0,11.918-6.628c1.57-1.4,2.732-2.791,3.314-2.5.93.523-.523,5.349-2.5,8.837a21,21,0,0,1-4.418,5.523c-1.628,1.4-2.558,2.384-4.128,2.791a8.245,8.245,0,0,1-6.395-1.4c-2.151,1.686-5.29,4.186-9.185,7.151-15.7,11.918-23.6,17.906-34.01,23.6-9.592,5.232-17.615,8.372-33.254,14.418-1.453.581-3.372,1.221-7.209,2.5-10.232,3.43-12.674,3.837-15.522,3.314a13.725,13.725,0,0,1-6.628-3.023A14.4,14.4,0,0,1,342.6,511.918Z" transform="translate(-341.508 -405.569)" fill="#3d3d3d" opacity="0.13"/>
        <path id="Path_239" data-name="Path 239" d="M421.895,518.145c-.116-.174.872-.988,22.673-14.825,28.719-18.255,26.684-16.627,29.707-18.836,12.557-9.3,18.138-15.58,21.045-13.72,1.977,1.279,2.325,5.93.174,7.965-1.86,1.8-5.755,1.628-9.244-.93a234.257,234.257,0,0,1-31.277,23.487C438.7,511.343,422.3,518.843,421.895,518.145Z" transform="translate(-374.701 -411.39)" fill="#3d3d3d" opacity="0.19"/>
      </g>
    </g>
  </g>
</svg>
