<svg xmlns="http://www.w3.org/2000/svg" width="886.91" height="698.569" viewBox="0 0 886.91 698.569">
  <g id="pixeltrue-giveaway" transform="translate(-203.863 -102)">
    <g id="background" transform="translate(301.194 102)">
      <g id="Group_2272" data-name="Group 2272" transform="translate(129.641 256.835)">
        <g id="Group_2271" data-name="Group 2271">
          <path id="Path_1321" data-name="Path 1321" d="M557.131,503.081a22.025,22.025,0,0,1,.193,20.953c-.578,1.093,1.093,2.057,1.671.964a24.072,24.072,0,0,0-.193-22.881c-.643-1.157-2.25-.129-1.671.964Z" transform="translate(-557.008 -501.608)" fill="#161616"/>
        </g>
      </g>
      <g id="Group_2274" data-name="Group 2274" transform="translate(130.718 254.84)">
        <g id="Group_2273" data-name="Group 2273">
          <path id="Path_1322" data-name="Path 1322" d="M560.108,502.294c2.185-1.093,4.756-2.442,7.263-1.864,3.728.771,3.856,3.792,4.113,6.877.257,4.113.064,8.484-2.635,11.826-.771.964.578,2.314,1.35,1.35,3.728-4.563,4.178-11.7,2.764-17.289-1.8-6.749-9.127-4.885-13.754-2.571-1.157.514-.193,2.185.9,1.671Z" transform="translate(-558.684 -498.504)" fill="#161616"/>
        </g>
      </g>
      <g id="Group_2276" data-name="Group 2276" transform="translate(131.227 275.201)">
        <g id="Group_2275" data-name="Group 2275">
          <path id="Path_1323" data-name="Path 1323" d="M560.391,535.593a10.885,10.885,0,0,0,9.576-3.728c.771-.964-.578-2.314-1.35-1.35a9.084,9.084,0,0,1-8.227,3.214c-1.221-.193-1.221,1.735,0,1.864Z" transform="translate(-559.475 -530.184)" fill="#161616"/>
        </g>
      </g>
      <g id="Group_2278" data-name="Group 2278" transform="translate(129.773 168.163)">
        <g id="Group_2277" data-name="Group 2277">
          <path id="Path_1324" data-name="Path 1324" d="M559,369.143c.836-1.607,3.149-5.977,5.72-1.928.45.643.45,2.442.578,3.085a7.517,7.517,0,0,0,1.671,3.792c3.214,3.342,5.463-2.121,8.805-.321,4.242,2.25-1.285,7.006,2.185,9.641a2.673,2.673,0,0,0,2.764.257c.643-.257,1.157-.836,1.8-1.157,2.378-1.028,3.214,1.093,3.406,2.957a.988.988,0,0,0,.964.964c.707.064,1.35.129,2.057.193,1.221.129,1.221-1.8,0-1.928-.707-.064-1.35-.129-2.057-.193l.964.964c-.193-1.735-.514-3.985-2.121-5.013-1.735-1.157-2.892-.129-4.5.643-.771.386-1.414,1.671-2.507.129-.386-.578.45-2.378.578-3.021a5.149,5.149,0,0,0,.064-2.957,5.584,5.584,0,0,0-3.535-3.471c-1.992-.707-2.956.129-4.756.643-1.607.45-3.214.321-3.792-1.414a11.4,11.4,0,0,1-.321-2.057,10.473,10.473,0,0,0-.835-3.085c-2.635-4.82-7.2-.771-8.805,2.507-.578.9,1.093,1.864,1.671.771Z" transform="translate(-557.213 -363.644)" fill="#161616"/>
        </g>
      </g>
      <g id="Group_2280" data-name="Group 2280" transform="translate(142.331 164.151)">
        <g id="Group_2279" data-name="Group 2279">
          <path id="Path_1325" data-name="Path 1325" d="M578.454,360.935c1.543-1.478,2.957-2.121,4.628-.707,1.35,1.157,1.093,1.543,1.478,3.085a4.346,4.346,0,0,0,1.285,2.378,3.947,3.947,0,0,0,3.278.707c1.157-.129,2.507-.9,3.471.321a4.94,4.94,0,0,1,.386,2.571c.064,1.928.064,4.242,2.25,4.949.643.193,1.35-.129,1.928.064.771-.321,1.093-.129,1.157.707a2.9,2.9,0,0,1,.321,1.671,6.216,6.216,0,0,0,2.057,3.6c.9.836,2.25-.514,1.35-1.35-1.928-1.8-.578-4.306-2.185-5.913-1.671-1.671-4.306.771-4.885-2.314-.45-2.378.45-5.592-2.7-6.427-2.25-.578-4.628,1.671-5.849-1.414-.514-1.285-.321-2.7-1.221-3.921-2.121-2.764-6.042-1.35-8.162.643-.9.836.514,2.25,1.414,1.35Z" transform="translate(-576.752 -357.402)" fill="#161616"/>
        </g>
      </g>
      <g id="Group_2282" data-name="Group 2282" transform="translate(378.526 280.456)">
        <g id="Group_2281" data-name="Group 2281">
          <path id="Path_1326" data-name="Path 1326" d="M946.53,545.07c-1.928-.193.964-3.985,1.543-4.306a3.728,3.728,0,0,1,4.5.835c2.507,2.7.386,6.684-3.021,7.07-1.221.129-1.221,2.057,0,1.928a6.725,6.725,0,0,0,5.977-5.013,6.143,6.143,0,0,0-3.6-6.813,5.527,5.527,0,0,0-6.748,2.185c-1.285,1.928-1.607,5.784,1.414,6.042,1.157.129,1.157-1.8-.064-1.928Z" transform="translate(-944.246 -538.36)" fill="#161616"/>
        </g>
      </g>
      <g id="Group_2284" data-name="Group 2284" transform="translate(365.406 278.545)">
        <g id="Group_2283" data-name="Group 2283">
          <path id="Path_1327" data-name="Path 1327" d="M926.254,540.087c-1.35-1.221.257-3.664,1.8-2.314,1.607,1.35-.578,3.214-2.057,2.121-.964-.771-1.928.9-.964,1.671a3.633,3.633,0,0,0,4.628-.514,3.374,3.374,0,1,0-5.142-4.37,3.617,3.617,0,0,0,.386,4.692c.9.9,2.314-.45,1.35-1.285Z" transform="translate(-923.833 -535.386)" fill="#161616"/>
        </g>
      </g>
      <g id="Group_2286" data-name="Group 2286" transform="translate(574.921 199.74)">
        <g id="Group_2285" data-name="Group 2285">
          <path id="Path_1328" data-name="Path 1328" d="M1265.681,413.691a33.494,33.494,0,0,1-15.425,29.886c-1.028.643-.064,2.314.964,1.671a35.416,35.416,0,0,0,16.389-31.557c-.064-1.221-1.992-1.221-1.928,0Z" transform="translate(-1249.816 -412.775)" fill="#161616"/>
        </g>
      </g>
      <g id="Group_2288" data-name="Group 2288" transform="translate(576.012 200.228)">
        <g id="Group_2287" data-name="Group 2287">
          <path id="Path_1329" data-name="Path 1329" d="M1267.573,415.376c6.17,4.5,3.663,12.662.257,18-3.214,5.077-8.42,11.119-15.1,10.091-1.221-.193-1.735,1.671-.514,1.864,8.034,1.157,14.14-5.592,17.867-11.89,3.728-6.234,5.142-14.847-1.542-19.731-1.028-.707-1.992.964-.964,1.671Z" transform="translate(-1251.514 -413.534)" fill="#161616"/>
        </g>
      </g>
      <g id="Group_2290" data-name="Group 2290" transform="translate(50.861 143.424)">
        <g id="Group_2289" data-name="Group 2289">
          <path id="Path_1330" data-name="Path 1330" d="M434.605,326.6a49.009,49.009,0,0,1,7.07,21.852c.129,1.221,2.057,1.221,1.928,0a51.342,51.342,0,0,0-7.327-22.816c-.707-1.093-2.378-.129-1.671.964Z" transform="translate(-434.434 -325.152)" fill="#e8e8e8"/>
        </g>
      </g>
      <g id="Group_2292" data-name="Group 2292" transform="translate(58.753 141.303)">
        <g id="Group_2291" data-name="Group 2291">
          <path id="Path_1331" data-name="Path 1331" d="M446.833,323.3a46.1,46.1,0,0,1,5.656,19.474c.064,1.221,1.992,1.221,1.928,0a48.736,48.736,0,0,0-5.913-20.438c-.578-1.093-2.25-.129-1.671.964Z" transform="translate(-446.713 -321.852)" fill="#e8e8e8"/>
        </g>
      </g>
      <g id="Group_2294" data-name="Group 2294" transform="translate(49.114 149.56)">
        <g id="Group_2293" data-name="Group 2293">
          <path id="Path_1332" data-name="Path 1332" d="M433.12,342.348a34.769,34.769,0,0,1,18.639-5.72.965.965,0,0,0,0-1.928,36.838,36.838,0,0,0-19.6,6.042c-1.028.643-.064,2.314.964,1.607Z" transform="translate(-431.716 -334.7)" fill="#e8e8e8"/>
        </g>
      </g>
      <g id="Group_2296" data-name="Group 2296" transform="translate(48.921 155.009)">
        <g id="Group_2295" data-name="Group 2295">
          <path id="Path_1333" data-name="Path 1333" d="M432.82,353.219a61.233,61.233,0,0,1,22.752-8.162c1.221-.193.707-2.057-.514-1.864a62.148,62.148,0,0,0-23.2,8.355c-1.028.643-.064,2.314.964,1.671Z" transform="translate(-431.416 -343.178)" fill="#e8e8e8"/>
        </g>
      </g>
      <g id="Group_2298" data-name="Group 2298" transform="translate(424.749 196.638)">
        <g id="Group_2297" data-name="Group 2297">
          <path id="Path_1334" data-name="Path 1334" d="M1019.144,408.046c-2.956,1.478-4.113,5.335-1.607,7.841,1.35,1.35,2.507.964,4.113,1.478,1.028.321,2.185.964,1.992,1.992-.128.707-.836,1.285-1.221,1.864a8.441,8.441,0,0,0-1.671,2.828,3.312,3.312,0,0,0,1.028,3.278c1.414,1.221,3.278.45,4.82,1.221,3.214,1.543-2.635,8.291,2.314,9.576a.967.967,0,0,0,.514-1.864c-2.057-.514.514-4.435.707-5.656a3.324,3.324,0,0,0-.9-2.956c-2.185-2.121-8.613.129-5.335-5.27,1.028-1.671,2.892-3.728,1.671-5.913a2.658,2.658,0,0,0-1.8-1.285c-.771-.129-1.992,0-2.764-.064-3.406-.193-3.792-3.985-.9-5.463,1.093-.45.129-2.121-.964-1.607Z" transform="translate(-1016.164 -407.949)" fill="#e8e8e8"/>
        </g>
      </g>
      <g id="Group_2300" data-name="Group 2300" transform="translate(440.243 207.464)">
        <g id="Group_2299" data-name="Group 2299">
          <path id="Path_1335" data-name="Path 1335" d="M1042.026,424.861c-2.121.836-2.185,3.149-.9,4.885.835,1.221,2.185,1.478,3.278,2.314,2.7,1.992.321,3.663-.129,5.977-.771,3.985,3.471,2.635,4.692,5.206,1.028,2.121.643,4.5,3.278,5.463,1.157.45,1.671-1.414.514-1.864-1.864-.643-1.607-4.178-2.635-5.592a5.5,5.5,0,0,0-1.221-1.221c-.257-.193-.643-.129-.836-.257-.45-.064-.771-.386-.9-1.028-.9-.578-1.028-1.157-.257-1.8.578-1.8,1.735-2.892.514-4.756a6.29,6.29,0,0,0-1.992-1.671c-.578-.386-4.756-2.957-2.828-3.728,1.093-.514.578-2.378-.578-1.928Z" transform="translate(-1040.272 -424.792)" fill="#e8e8e8"/>
        </g>
      </g>
      <g id="Group_2302" data-name="Group 2302" transform="translate(561.197 321.734)">
        <g id="Group_2301" data-name="Group 2301">
          <path id="Path_1336" data-name="Path 1336" d="M1233.436,618.148a7.56,7.56,0,0,1,1.157-12.919,8.722,8.722,0,0,1,11.119,3.664,8.626,8.626,0,0,1-3.535,11.119c-3.985,2.057-8.934.257-11.183-3.406-.643-1.028-2.314-.064-1.671.964,2.892,4.82,9.576,6.941,14.525,3.728,4.692-3.085,6.17-10.219,2.7-14.718-3.406-4.37-10.219-5.4-14.525-1.864a9.462,9.462,0,0,0,.514,15.168c.964.643,1.928-1.028.9-1.735Z" transform="translate(-1228.464 -602.585)" fill="#e8e8e8"/>
        </g>
      </g>
      <g id="Group_2304" data-name="Group 2304" transform="translate(119.547 329.889)">
        <g id="Group_2303" data-name="Group 2303">
          <path id="Path_1337" data-name="Path 1337" d="M544.322,641.192c.707-2.314,1.735-2.957,2.956-1.864.321.129.643.321.9.45a3.91,3.91,0,0,0,1.478.193,2.981,2.981,0,0,0,2.185-1.478c1.607-2.571-.193-5.077-1.8-7.07-.836-.964-2.378-2.25-2.185-3.728.257-2.828,1.928-1.671,3.342-1.864a2.953,2.953,0,0,0,2.442-1.478,4.283,4.283,0,0,0,.257-2.828,13.923,13.923,0,0,1-.257-1.607q-.675-2.025,1.928-2.507a7.645,7.645,0,0,1,2.121,2.185c.707,1.028,2.378.064,1.671-.964-1.735-2.442-6.877-5.784-7.713-.707-.386,2.571,1.992,5.27-1.8,5.913-1.864.321-3.149.321-3.728,2.507a5.585,5.585,0,0,0,1.285,4.949c.514.643,1.093,1.221,1.607,1.8a6.1,6.1,0,0,1,1.414,2.185c-.771.771-1.478,1.542-2.25,2.314-.578.129-2.057-1.093-2.892-1.157-3.728-.257-5.72,4.756-1.992,6.363,1.221.514,2.185-1.157,1.028-1.607Z" transform="translate(-541.303 -615.273)" fill="#e8e8e8"/>
        </g>
      </g>
      <g id="Group_2306" data-name="Group 2306" transform="translate(134.348 331.293)">
        <g id="Group_2305" data-name="Group 2305">
          <path id="Path_1338" data-name="Path 1338" d="M568.232,639.208c-1.028-1.671-2.635-4.242-1.928-6.363.514-1.607,2.7-2.314,3.664-3.6a5.7,5.7,0,0,0-.064-6.62c-.257.514-.578.964-.836,1.478a7.5,7.5,0,0,0,7.841-5.463c.386-1.221-1.478-1.671-1.864-.514a5.606,5.606,0,0,1-5.977,4.049.983.983,0,0,0-.836,1.478,4.023,4.023,0,0,1,.321,4.306c-.771,1.157-1.8,1.221-2.635,2.057a4.687,4.687,0,0,0-1.478,2.7c-.514,2.635.9,5.27,2.185,7.456.578,1.093,2.249.129,1.607-.964Z" transform="translate(-564.332 -617.457)" fill="#e8e8e8"/>
        </g>
      </g>
      <g id="Group_2308" data-name="Group 2308" transform="translate(334.271 19.243)">
        <g id="Group_2307" data-name="Group 2307">
          <path id="Path_1339" data-name="Path 1339" d="M875.654,133.649a27.713,27.713,0,0,1,6.427,13.561c.193,1.221,2.057.707,1.864-.514A30.078,30.078,0,0,0,877,132.236c-.836-.9-2.185.45-1.35,1.414Z" transform="translate(-875.391 -131.94)" fill="#e8e8e8"/>
        </g>
      </g>
      <g id="Group_2310" data-name="Group 2310" transform="translate(334.559 10.992)">
        <g id="Group_2309" data-name="Group 2309">
          <path id="Path_1340" data-name="Path 1340" d="M877.485,129.256c2.185-1.992,10.926-9.834,14.14-7.584,1.607,1.157,3.021,3.792,4.049,5.527a39.071,39.071,0,0,1,3.149,6.877c.386,1.157,2.249.643,1.864-.514a43.16,43.16,0,0,0-4.178-8.677c-1.093-1.735-2.764-4.692-4.756-5.527-2.25-.964-5.013,1.028-6.877,2.121a50.174,50.174,0,0,0-8.741,6.427c-.9.836.45,2.185,1.35,1.35Z" transform="translate(-875.838 -119.102)" fill="#e8e8e8"/>
        </g>
      </g>
      <g id="Group_2312" data-name="Group 2312" transform="translate(341.337 23.619)">
        <g id="Group_2311" data-name="Group 2311">
          <path id="Path_1341" data-name="Path 1341" d="M888.065,150.865a66.746,66.746,0,0,1,16.518-10.348c1.157-.514.129-2.185-.964-1.671a68.25,68.25,0,0,0-16.9,10.669c-.964.771.386,2.121,1.35,1.35Z" transform="translate(-886.384 -138.749)" fill="#e8e8e8"/>
        </g>
      </g>
      <g id="Group_2314" data-name="Group 2314" transform="translate(352.528 10.052)">
        <g id="Group_2313" data-name="Group 2313">
          <path id="Path_1342" data-name="Path 1342" d="M905.47,125.2c2.442-2.057,7.905-7.263,10.926-3.856,2.185,2.442,3.6,6.427,4.885,9.384.514,1.157,2.185.129,1.671-.964a71.323,71.323,0,0,0-4.049-7.97c-.771-1.35-1.735-3.406-3.342-3.985-1.864-.643-3.856.707-5.335,1.607a45.81,45.81,0,0,0-6.106,4.37c-.964.9.45,2.249,1.35,1.414Z" transform="translate(-903.797 -117.639)" fill="#e8e8e8"/>
        </g>
      </g>
      <g id="Group_2316" data-name="Group 2316" transform="translate(348.925 23.619)">
        <g id="Group_2315" data-name="Group 2315">
          <path id="Path_1343" data-name="Path 1343" d="M898.711,144.5a27.078,27.078,0,0,1,7.97,5.463,1.016,1.016,0,0,0,1.543-.193,27.638,27.638,0,0,1,11.055-9.255c1.157-.514.129-2.185-.964-1.671a29.34,29.34,0,0,0-11.762,9.9l1.542-.193a27.62,27.62,0,0,0-8.355-5.72c-1.221-.45-2.185,1.157-1.028,1.671Z" transform="translate(-898.191 -138.749)" fill="#e8e8e8"/>
        </g>
      </g>
      <g id="Group_2318" data-name="Group 2318" transform="translate(360.852 83.425)">
        <g id="Group_2317" data-name="Group 2317">
          <path id="Path_1344" data-name="Path 1344" d="M919.352,249.218c-.129-.707-.321-1.414-.45-2.121a8.212,8.212,0,0,1,1.864-1.478,13.769,13.769,0,0,0,1.221-.836,5.54,5.54,0,0,0,1.671-2.185,7.04,7.04,0,0,0,.193-3.471c-.064-.386-.129-.836-.193-1.221-.064-.45.193-5.656,2.249-3.985.964.771,2.314-.578,1.35-1.35a2.9,2.9,0,0,0-4.178.257c-2.185,2.121-1.157,4.628-1.028,7.2.193,3.856-4.82,4.049-5.27,7.584-.193,1.607.45,3.085,2.121,3.406,1.157.257,1.671-1.607.45-1.8Z" transform="translate(-916.749 -231.8)" fill="#161616"/>
        </g>
      </g>
      <g id="Group_2320" data-name="Group 2320" transform="translate(370.196 81.556)">
        <g id="Group_2319" data-name="Group 2319">
          <path id="Path_1345" data-name="Path 1345" d="M931.616,242.844a2.505,2.505,0,0,0,4.049-1.671c.321-1.735-.836-3.342-.707-5.077a6.248,6.248,0,0,1,3.985-5.27c1.157-.45.643-2.314-.514-1.864a7.769,7.769,0,0,0-4.692,4.306,7.522,7.522,0,0,0-.707,3.149,10.54,10.54,0,0,0,.129,1.478s.964,4.435-.129,3.535c-1.028-.707-2.378.643-1.414,1.414Z" transform="translate(-931.285 -228.892)" fill="#161616"/>
        </g>
      </g>
      <g id="Group_2322" data-name="Group 2322" transform="translate(201.803 301.398)">
        <g id="Group_2321" data-name="Group 2321">
          <path id="Path_1346" data-name="Path 1346" d="M672.186,577.15a1.984,1.984,0,0,1-.45-3.085,4.136,4.136,0,0,1,3.6-1.157,3.457,3.457,0,0,1,2.635,1.735c.514,1.157-.257,3.149-1.8,2.956-1.221-.193-1.735,1.671-.514,1.864a3.879,3.879,0,0,0,4.435-3.406c.386-2.378-1.542-4.306-3.728-4.885a5.9,5.9,0,0,0-6.427,2.121,3.824,3.824,0,0,0,1.35,5.527.95.95,0,0,0,.9-1.671Z" transform="translate(-669.284 -570.943)" fill="#161616"/>
        </g>
      </g>
      <g id="Group_2324" data-name="Group 2324" transform="translate(99.1 65.662)">
        <g id="Group_2323" data-name="Group 2323">
          <path id="Path_1347" data-name="Path 1347" d="M513.545,218.648c.386-1.285.771-2.635,1.093-3.921l1.157.386a14.471,14.471,0,0,1,1.542.514,4.452,4.452,0,0,0,2.25.064c1.671-.578,2.185-2.185,2.185-3.792s-.578-3.342.707-4.628a4.613,4.613,0,0,1,4.113-1.093c4.435,1.028,3.985,6.62,2.057,9.641-.643,1.028,1.028,1.992,1.671.964,2.121-3.406,2.635-8.548-.836-11.312a6.525,6.525,0,0,0-8.934,1.028c-1.35,1.8-.45,3.406-.836,5.463-.643,3.406-5.463.257-7.648,1.028-4.113,1.478-2.892,6.684.771,7.648,1.35.193,1.864-1.671.707-1.992Z" transform="translate(-509.489 -204.164)" fill="#161616"/>
        </g>
      </g>
      <g id="Group_2326" data-name="Group 2326" transform="translate(519.775 349.538)">
        <g id="Group_2325" data-name="Group 2325" transform="translate(0)">
          <path id="Path_1348" data-name="Path 1348" d="M1165.42,658.349a3.857,3.857,0,0,1,4.435-.257.976.976,0,0,0,1.414-1.093,2.378,2.378,0,0,1,.514-3.085c.45-1.992,1.478-2.121,3.021-.45.45.9,1.735.386,1.8-.514a17.309,17.309,0,0,1,.193-2.571c.193-2.057,1.543-2.571,3.921-1.607.514,1.157,2.121.129,1.671-.964a3.488,3.488,0,0,0-4.628-1.671c-2.7,1.093-3.021,4.306-3.085,6.813.578-.193,1.221-.321,1.8-.514a3.75,3.75,0,0,0-5.142-1.671c-2.442,1.285-2.571,4.306-1.928,6.684.45-.386.964-.707,1.414-1.093a6.129,6.129,0,0,0-6.363.257c-1.028.707-.064,2.378.964,1.735Z" transform="translate(-1164.016 -645.844)" fill="#ec615b"/>
        </g>
      </g>
      <g id="Group_2328" data-name="Group 2328" transform="translate(464.816 95.728)">
        <g id="Group_2327" data-name="Group 2327" transform="translate(0 0)">
          <path id="Path_1349" data-name="Path 1349" d="M1084.929,250.979a8.985,8.985,0,0,0-6.363,7.648c-.45,3.471,1.607,7.777,5.463,8.163,2.828.257,5.656-2.957,3.921-5.592-1.864-2.892-5.463-.771-6.941,1.285-4.178,5.977-.45,17.675,8.162,14.911,2.378-.771,5.335-3.663,3.985-6.427-1.671-3.406-5.4.257-6.363,2.185-1.992,3.985-2.507,9.705,1.607,12.533a5.615,5.615,0,0,0,8.677-3.021c.257-.836-.964-1.735-1.607-.964-4.435,5.592-1.028,13.3,6.17,13.561,1.221.064,1.221-1.864,0-1.928a6.208,6.208,0,0,1-4.82-10.219c-.514-.321-1.093-.643-1.607-.964-.964,3.664-5.463,3.085-7.2.386-1.542-2.507-1.028-5.913.385-8.42.321-.643,2.057-3.663,3.085-1.735.514,1.028-1.414,2.507-2.057,2.892a5.154,5.154,0,0,1-6.17-.9,8.443,8.443,0,0,1-1.928-6.491,9.97,9.97,0,0,1,.964-3.663c.257-.386.578-.771.836-1.157,1.607-1.543,1.542-1.093-.257,1.414-1.285.129-2.378-3.406-2.442-4.242a7.706,7.706,0,0,1,.257-2.442,6.883,6.883,0,0,1,4.756-4.885,1,1,0,0,0-.514-1.928Z" transform="translate(-1078.505 -250.942)" fill="#161616"/>
        </g>
      </g>
      <g id="Group_2330" data-name="Group 2330" transform="translate(123.285 115.634)">
        <g id="Group_2329" data-name="Group 2329" transform="translate(0 0)">
          <path id="Path_1350" data-name="Path 1350" d="M549.292,301.315a4,4,0,0,1,.9-4.242c1.285-1.35,2.828-1.157,4.435-.9a4.145,4.145,0,0,0,3.149-.321,5.288,5.288,0,0,0,1.8-2.314,10.988,10.988,0,0,0,.578-1.928c.064-.45.193-.9.257-1.285.129-1.543,1.221-2.185,3.214-1.928-.064,1.157,1.543,1.221,1.864.257A7.3,7.3,0,0,1,568,284.733c1.992-1.35,4.82-1.093,5.206,1.671.193,1.221,1.992.707,1.864-.514a4.771,4.771,0,0,0-5.527-3.921c-3.214.45-4.949,3.471-5.849,6.234.643.064,1.285.193,1.864.257a2.907,2.907,0,0,0-3.535-2.892c-3.021.386-3.149,3.792-3.792,6.042-.45,1.607-.836,2.828-3.085,2.764-.643,0-1.414-.45-2.121-.45a5.877,5.877,0,0,0-3.406,1.157,6.1,6.1,0,0,0-2.185,6.813c.385,1.093,2.249.643,1.864-.578Z" transform="translate(-547.119 -281.914)" fill="#383838"/>
        </g>
      </g>
      <ellipse id="Ellipse_1362" data-name="Ellipse 1362" cx="8.355" cy="8.934" rx="8.355" ry="8.934" transform="translate(476.896 179.511)" fill="#a9a9aa"/>
      <ellipse id="Ellipse_1363" data-name="Ellipse 1363" cx="5.527" cy="5.463" rx="5.527" ry="5.463" transform="translate(27.765 188.445)" fill="#a9a9aa"/>
      <ellipse id="Ellipse_1364" data-name="Ellipse 1364" cx="4.628" cy="5.013" rx="4.628" ry="5.013" transform="translate(110.483 422.008)" fill="#a9a9aa"/>
      <ellipse id="Ellipse_1365" data-name="Ellipse 1365" cx="9.705" cy="9.191" rx="9.705" ry="9.191" transform="translate(465.841 190.116)" fill="#444343"/>
      <ellipse id="Ellipse_1366" data-name="Ellipse 1366" cx="4.949" cy="5.527" rx="4.949" ry="5.527" transform="translate(278.489)" fill="#444343"/>
      <ellipse id="Ellipse_1367" data-name="Ellipse 1367" cx="6.941" cy="7.713" rx="6.941" ry="7.713" transform="translate(548.109 290.251)" fill="#444343"/>
      <ellipse id="Ellipse_1368" data-name="Ellipse 1368" cx="13.883" cy="14.204" rx="13.883" ry="14.204" transform="translate(0 237.42)" fill="#444343"/>
    </g>
    <g id="background_grey" transform="translate(203.863 405.98)">
      <g id="Group_2332" data-name="Group 2332" transform="translate(176.468 157.139)">
        <g id="Group_2331" data-name="Group 2331">
          <path id="Path_1351" data-name="Path 1351" d="M509.9,988.261c-12.469-18.767-29.179-39.206-26.994-63.115l-.964.964a12.077,12.077,0,0,1,5.4,1.028c.707.321,1.735-.193,1.414-1.093-.643-1.8-1.8-2.828-3.085-4.178-2.378-2.507-2.571-5.077-2.442-8.355a31.443,31.443,0,0,0-2.892-14.718c-.193.45-.386.964-.578,1.414l5.013-1.735a.948.948,0,0,0,.643-1.157c-4.113-11.955-2.057-25.387-1.157-37.663q1.446-19.667,3.792-39.206c-.514.257-.964.578-1.478.836,8.612,5.527,13.24,14.975,16.839,24.166a310.994,310.994,0,0,1,10.6,32.007,325.961,325.961,0,0,1,10.99,107.462c-.064,1.221,1.864,1.221,1.928,0,3.021-47.561-4.242-96.086-21.852-140.434-3.792-9.576-8.677-19.153-17.546-24.873-.707-.45-1.35.129-1.478.836q-2.41,20.246-3.856,40.491c-.9,12.147-2.7,25.13,1.285,36.892.193-.386.45-.771.643-1.157l-5.013,1.735a.978.978,0,0,0-.578,1.414,28.562,28.562,0,0,1,2.571,8.934c.257,2.635-.129,5.206.064,7.841a9.385,9.385,0,0,0,1.543,5.013c1.285,1.8,3.342,2.956,4.113,5.077.45-.386.964-.707,1.414-1.093a14.471,14.471,0,0,0-6.363-1.285.988.988,0,0,0-.964.964c-2.185,24.295,14.654,45.054,27.315,64.079.707.9,2.378-.064,1.671-1.093Z" transform="translate(-478.429 -819.453)" fill="#e8e8e8"/>
        </g>
      </g>
      <g id="Group_2334" data-name="Group 2334" transform="translate(186.103 161.466)">
        <g id="Group_2333" data-name="Group 2333">
          <path id="Path_1352" data-name="Path 1352" d="M493.471,827.352a424.568,424.568,0,0,1,25.966,122.695c.707,11.826.9,23.716.643,35.607a.965.965,0,0,0,1.928,0,427.94,427.94,0,0,0-15.489-124.366c-3.214-11.633-7.006-23.138-11.183-34.45-.386-1.157-2.25-.643-1.864.514Z" transform="translate(-493.419 -826.185)" fill="#e8e8e8"/>
        </g>
      </g>
      <g id="Group_2336" data-name="Group 2336" transform="translate(180.509 201.436)">
        <g id="Group_2335" data-name="Group 2335">
          <path id="Path_1353" data-name="Path 1353" d="M485.156,890.191A65.483,65.483,0,0,1,507.908,914.1c.578,1.093,2.25.129,1.671-.964A67.317,67.317,0,0,0,486.12,888.52c-1.028-.643-1.992,1.028-.964,1.671Z" transform="translate(-484.716 -888.375)" fill="#e8e8e8"/>
        </g>
      </g>
      <g id="Group_2338" data-name="Group 2338" transform="translate(182.478 177.694)">
        <g id="Group_2337" data-name="Group 2337">
          <path id="Path_1354" data-name="Path 1354" d="M488.178,853.276a50.207,50.207,0,0,1,13.176,14.847.965.965,0,0,0,1.671-.964A52.722,52.722,0,0,0,489.142,851.6c-.964-.707-1.928.964-.964,1.671Z" transform="translate(-487.779 -851.434)" fill="#e8e8e8"/>
        </g>
      </g>
      <g id="Group_2340" data-name="Group 2340" transform="translate(209.279 231.537)">
        <g id="Group_2339" data-name="Group 2339">
          <path id="Path_1355" data-name="Path 1355" d="M531.356,959.755a85,85,0,0,1,6.749-23.074c.514-1.093-1.157-2.121-1.671-.964a88.2,88.2,0,0,0-6.941,23.588c-.193,1.157,1.671,1.671,1.864.45Z" transform="translate(-529.478 -935.208)" fill="#e8e8e8"/>
        </g>
      </g>
      <g id="Group_2342" data-name="Group 2342" transform="translate(213.832 163.357)">
        <g id="Group_2341" data-name="Group 2341">
          <path id="Path_1356" data-name="Path 1356" d="M538.515,885.347c5.913-19.6,16.132-37.342,26.351-54.952a16.131,16.131,0,0,1-1.735-.257q7.905,38.563,12.983,77.576l.964-.964-6.749-.386c-.771-.064-1.35,1.157-.707,1.671,3.856,2.956,3.471,8.1,3.021,12.469-.578,5.785-1.221,11.5-1.864,17.289a14.816,14.816,0,0,1,1.221-.9,23.459,23.459,0,0,0-5.206-.514,1,1,0,0,0-.836,1.478c4.949,8.484-2.764,17.353-6.363,24.68a79.008,79.008,0,0,0-7.07,23.523c-.193,1.221,1.671,1.735,1.864.514a77.2,77.2,0,0,1,9.512-27.958c3.728-6.556,8.034-14.333,3.728-21.724-.257.514-.578.964-.836,1.478a16.4,16.4,0,0,1,4.692.45.976.976,0,0,0,1.221-.9c.707-6.62,1.735-13.24,2.057-19.86.193-4.113-.386-8.548-3.792-11.247-.257.578-.45,1.093-.707,1.671l6.749.386c.45,0,1.028-.45.964-.964-3.406-26.159-7.777-52.253-13.111-78.09a.968.968,0,0,0-1.735-.257c-10.283,17.739-20.567,35.671-26.544,55.4-.257,1.028,1.607,1.543,1.928.386Z" transform="translate(-536.562 -829.127)" fill="#e8e8e8"/>
        </g>
      </g>
      <g id="Group_2344" data-name="Group 2344" transform="translate(227.03 166.047)">
        <g id="Group_2343" data-name="Group 2343">
          <path id="Path_1357" data-name="Path 1357" d="M570.4,834.012a1093.664,1093.664,0,0,0-13.3,115.818c-.064,1.221,1.864,1.221,1.928,0a1085.765,1085.765,0,0,1,13.176-115.3c.257-1.221-1.607-1.735-1.8-.514Z" transform="translate(-557.098 -833.314)" fill="#e8e8e8"/>
        </g>
      </g>
      <g id="Group_2346" data-name="Group 2346" transform="translate(220.809 204.418)">
        <g id="Group_2345" data-name="Group 2345">
          <path id="Path_1358" data-name="Path 1358" d="M547.471,894.226c2.635,8.934,5.72,17.675,9.191,26.287.45,1.157,2.314.643,1.864-.514-3.471-8.612-6.491-17.418-9.191-26.287a.967.967,0,0,0-1.864.514Z" transform="translate(-547.419 -893.014)" fill="#e8e8e8"/>
        </g>
      </g>
      <g id="Group_2348" data-name="Group 2348" transform="translate(0 230.641)">
        <g id="Group_2347" data-name="Group 2347">
          <path id="Path_1359" data-name="Path 1359" d="M205.044,946.724c22.045-7.263,46.211-12.019,69.478-10.8,12.083.643,23.588,4.37,35.028,7.841,11.119,3.342,22.238,6.813,33.421,10.026,12.6,3.6,25.323,6.491,38.37,7.391,1.221.064,1.221-1.864,0-1.928-24.038-1.543-47.24-10.026-70.12-16.968-10.862-3.278-21.66-6.941-33.036-8.034-11.7-1.093-23.588,0-35.157,1.607a225.529,225.529,0,0,0-38.563,9c-1.093.386-.578,2.25.578,1.864Z" transform="translate(-203.863 -933.815)" fill="#e8e8e8"/>
        </g>
      </g>
      <g id="Group_2350" data-name="Group 2350" transform="translate(68.56 200.611)">
        <g id="Group_2349" data-name="Group 2349">
          <path id="Path_1360" data-name="Path 1360" d="M311.734,918.461c18.767-4.113,37.6-8.227,56.109-13.561,18.189-5.27,35.928-13.561,54.888-15.875,1.221-.129,1.221-2.057,0-1.928-18.7,2.314-36.185,10.348-54.181,15.618-18.832,5.527-38.049,9.705-57.266,13.947-1.285.193-.771,2.057.45,1.8Z" transform="translate(-310.535 -887.091)" fill="#e8e8e8"/>
        </g>
      </g>
      <g id="Group_2352" data-name="Group 2352" transform="translate(207.67 195.945)">
        <g id="Group_2351" data-name="Group 2351">
          <path id="Path_1361" data-name="Path 1361" d="M527.891,882.061c5.142-.321,10.348-.386,15.489-.193,1.221.064,1.221-1.864,0-1.928-5.206-.193-10.348-.129-15.489.193-1.221.128-1.221,2.057,0,1.928Z" transform="translate(-526.975 -879.831)" fill="#e8e8e8"/>
        </g>
      </g>
      <g id="Group_2354" data-name="Group 2354" transform="translate(24.649 316.846)">
        <g id="Group_2353" data-name="Group 2353">
          <path id="Path_1362" data-name="Path 1362" d="M243.426,1070.678c21.6-3.085,43,2.378,64.207,5.72a166.9,166.9,0,0,0,30.465,2.314c11.44-.321,22.881-1.478,34.193.514,1.221.193,1.735-1.671.514-1.864-11.119-1.928-22.238-.964-33.486-.578a172.454,172.454,0,0,1-33.55-2.571c-20.824-3.406-41.712-8.355-62.858-5.335-1.221.129-.707,1.993.514,1.8Z" transform="translate(-242.214 -1067.941)" fill="#e8e8e8"/>
        </g>
      </g>
      <g id="Group_2356" data-name="Group 2356" transform="translate(152.278 341.54)">
        <g id="Group_2355" data-name="Group 2355">
          <path id="Path_1363" data-name="Path 1363" d="M442.789,1109.6c.257-1.992,7.905-1.093,9.255-1.093,1.671,0,7.841-.964,8.677.835a10.259,10.259,0,0,0,.321-1.35,16.164,16.164,0,0,1-10.412,2.764c-1.221-.064-1.221,1.864,0,1.928a18.332,18.332,0,0,0,11.376-3.021,1.013,1.013,0,0,0,.321-1.35,3.177,3.177,0,0,0-2.828-1.735c-3.021-.45-6.363-.064-9.384-.064-2.892,0-8.87-1.093-9.319,3.021-.129,1.285,1.864,1.285,1.992.064Z" transform="translate(-440.791 -1106.361)" fill="#e8e8e8"/>
        </g>
      </g>
      <g id="Group_2358" data-name="Group 2358" transform="translate(150.2 310.171)">
        <g id="Group_2357" data-name="Group 2357">
          <path id="Path_1364" data-name="Path 1364" d="M443.048,1060.348a3.286,3.286,0,0,1-3.792-.578l-.193,1.542a8.643,8.643,0,0,1,5.527-1.928c1.671.064,3.149.964,4.82,1.028,1.543.064,2.956-.578,4.5-.771a10.373,10.373,0,0,1,6.877,1.35.965.965,0,0,0,.964-1.671,11.868,11.868,0,0,0-5.077-1.671c-2.635-.257-5.077,1.157-7.584.836-2.057-.257-3.728-1.093-5.913-.9a10.127,10.127,0,0,0-5.142,2.121,1.011,1.011,0,0,0-.193,1.542,5.4,5.4,0,0,0,5.656,1.093c1.221-.514.707-2.378-.45-1.992Z" transform="translate(-437.558 -1057.556)" fill="#e8e8e8"/>
        </g>
      </g>
      <g id="Group_2360" data-name="Group 2360" transform="translate(57.997 337.572)">
        <g id="Group_2359" data-name="Group 2359">
          <path id="Path_1365" data-name="Path 1365" d="M294.357,1102.831c3.278,4.049,7.648.257,11.312-.514,3.021-.643,5.4,1.157,8.355,1.157,3.149,0,6.556-1.478,9.319.514,1.028.707,1.992-.964.964-1.671a7.919,7.919,0,0,0-5.527-1.285c-3.085.257-5.527.643-8.612-.321a8.508,8.508,0,0,0-6.042.064c-2.571.964-6.234,3.535-8.548.707-.643-.964-2.057.45-1.221,1.35Z" transform="translate(-294.1 -1100.187)" fill="#e8e8e8"/>
        </g>
      </g>
      <g id="Group_2362" data-name="Group 2362" transform="translate(264.685 322.155)">
        <g id="Group_2361" data-name="Group 2361">
          <path id="Path_1366" data-name="Path 1366" d="M616.852,1081.406c4.242-1.671,7.648-1.157,12.083-.643,2.764.321,4.692-.643,7.134-1.735,2.571-1.157,4.306-.578,6.62.707a9.771,9.771,0,0,0,2.957,1.157c3.278.643,7.713-1.542,10.476.836.964.836,2.314-.578,1.35-1.35-2.442-2.057-5.077-1.607-8.1-1.35a10.556,10.556,0,0,1-6.556-1.478,8.2,8.2,0,0,0-3.985-1.35,9.9,9.9,0,0,0-3.792,1.093,11.8,11.8,0,0,1-7.841,1.157,20.2,20.2,0,0,0-10.862,1.028c-1.157.514-.643,2.378.514,1.928Z" transform="translate(-615.685 -1076.2)" fill="#e8e8e8"/>
        </g>
      </g>
      <g id="Group_2364" data-name="Group 2364" transform="translate(687.358 183.483)">
        <g id="Group_2363" data-name="Group 2363">
          <path id="Path_1367" data-name="Path 1367" d="M1274.785,901.1c22.817-10.476,45.761-21.017,69.8-28.344a237.3,237.3,0,0,1,117.682-5.463c1.221.257,1.735-1.607.514-1.864a239.633,239.633,0,0,0-76.612-3.342c-25.323,2.956-49.553,10.412-73.141,19.988-13.24,5.4-26.287,11.376-39.27,17.353-1.028.514-.064,2.185,1.028,1.671Z" transform="translate(-1273.319 -860.442)" fill="#e8e8e8"/>
        </g>
      </g>
      <g id="Group_2366" data-name="Group 2366" transform="translate(792.099 207.827)">
        <g id="Group_2365" data-name="Group 2365">
          <path id="Path_1368" data-name="Path 1368" d="M1437.452,916.753a280.61,280.61,0,0,1,46.211-12.533c8.1-1.478,16.2-2.507,24.423-3.278,5.913-.514,16.9-3.021,21.146,2.635.707.964,2.442,0,1.671-.964-3.664-4.885-10.026-4.435-15.554-4.113-8.741.514-17.546,1.478-26.223,2.828a275.749,275.749,0,0,0-52.189,13.561c-1.157.45-.643,2.314.514,1.864Z" transform="translate(-1436.285 -898.319)" fill="#e8e8e8"/>
        </g>
      </g>
      <g id="Group_2368" data-name="Group 2368" transform="translate(687.676 181.192)">
        <g id="Group_2367" data-name="Group 2367">
          <path id="Path_1369" data-name="Path 1369" d="M1275.026,860.684a81.118,81.118,0,0,1,52.317,5.977c1.093.514,2.121-1.157.964-1.671a83.494,83.494,0,0,0-53.8-6.17c-1.221.257-.707,2.121.514,1.864Z" transform="translate(-1273.814 -856.876)" fill="#e8e8e8"/>
        </g>
      </g>
      <g id="Group_2370" data-name="Group 2370" transform="translate(726.482 270.2)">
        <g id="Group_2369" data-name="Group 2369">
          <path id="Path_1370" data-name="Path 1370" d="M1335.868,998.6c2.764-3.278,7.134.45,10.026,1.607a7.578,7.578,0,0,0,6.556-.321c3.728-1.671,6.749-.193,10.476-.321,3.856-.129,7.006-3.792,10.541-.578.9.836,2.314-.514,1.35-1.35a7.118,7.118,0,0,0-7.713-1.414,13.754,13.754,0,0,1-4.242,1.414,26.14,26.14,0,0,1-3.856-.386,15.645,15.645,0,0,0-4.563-.193c-2.442.45-4.37,2.378-7.07,1.671-1.928-.514-3.535-1.864-5.4-2.635-2.635-1.028-5.656-1.221-7.584,1.093-.707,1.028.643,2.378,1.478,1.414Z" transform="translate(-1334.192 -995.364)" fill="#e8e8e8"/>
        </g>
      </g>
      <g id="Group_2372" data-name="Group 2372" transform="translate(794.789 228.557)">
        <g id="Group_2371" data-name="Group 2371">
          <path id="Path_1371" data-name="Path 1371" d="M1447.945,1024.812a119.976,119.976,0,0,1-5.463-40.491c-.514.257-.964.578-1.478.836,1.414.707,2.892,1.414,4.306,2.121a1,1,0,0,0,1.478-.836,130.684,130.684,0,0,1,8.677-38.563c-.45.193-.964.386-1.414.578.771.386,1.543.771,2.378,1.221a.969.969,0,0,0,1.157-.129,121.411,121.411,0,0,1,16.711-17.289l-1.543-.193c4.563,6.363,4.242,14.718,3.921,22.174a136.025,136.025,0,0,1-22.174,68.642c-.707,1.028.964,1.992,1.671.964a138.327,138.327,0,0,0,22.559-71.277c.193-7.327.257-15.3-4.242-21.531a1.011,1.011,0,0,0-1.543-.193,118.119,118.119,0,0,0-16.711,17.289,7.089,7.089,0,0,1,1.157-.129c-.771-.386-1.543-.771-2.378-1.221a.994.994,0,0,0-1.414.578,133.629,133.629,0,0,0-8.741,39.077c.514-.257.964-.578,1.478-.836-1.414-.707-2.892-1.414-4.306-2.121a1.009,1.009,0,0,0-1.478.836,121.017,121.017,0,0,0,5.527,40.941c.385,1.221,2.249.707,1.864-.45Z" transform="translate(-1440.47 -930.572)" fill="#e8e8e8"/>
        </g>
      </g>
      <g id="Group_2374" data-name="Group 2374" transform="translate(817.529 229.412)">
        <g id="Group_2373" data-name="Group 2373">
          <path id="Path_1372" data-name="Path 1372" d="M1489.187,976.57a195.031,195.031,0,0,1,15.3-26.93c-.386.129-.707.321-1.093.45,3.728.964,5.784-2.442,7.713-5.013a41.018,41.018,0,0,1,13.176-11.44c-.45-.193-.964-.386-1.414-.578,5.849,18.253,2.121,37.149-8.805,52.7a213.268,213.268,0,0,1-17.1,20.953c-6.042,6.491-12.661,12.34-20.631,16.389-1.093.578-.129,2.25.964,1.671,8.1-4.113,14.911-10.091,21.017-16.711a199.238,199.238,0,0,0,18.06-22.238c10.733-15.747,14.2-34.964,8.355-53.217a.978.978,0,0,0-1.414-.578,44.443,44.443,0,0,0-9.577,7.07,46.017,46.017,0,0,0-3.663,4.178c-1.414,1.8-3.278,5.72-6.17,5.013a.95.95,0,0,0-1.093.45,195.031,195.031,0,0,0-15.3,26.93c-.514,1.028,1.157,2.057,1.671.9Z" transform="translate(-1475.852 -931.902)" fill="#e8e8e8"/>
        </g>
      </g>
      <g id="Group_2376" data-name="Group 2376" transform="translate(802.121 240.842)">
        <g id="Group_2375" data-name="Group 2375">
          <path id="Path_1373" data-name="Path 1373" d="M1471.559,950.338c-4.435,12.083-9.833,24.23-12.726,36.828-2.956,12.854-4.756,26.03-6.941,39.013-.193,1.221,1.671,1.735,1.864.514,2.25-12.983,3.985-26.223,6.941-39.013,2.892-12.6,8.291-24.68,12.726-36.828.45-1.157-1.414-1.671-1.864-.514Z" transform="translate(-1451.878 -949.685)" fill="#e8e8e8"/>
        </g>
      </g>
      <g id="Group_2378" data-name="Group 2378" transform="translate(816.205 250.587)">
        <g id="Group_2377" data-name="Group 2377">
          <path id="Path_1374" data-name="Path 1374" d="M1513.26,965.332q-10.7,17.161-21.4,34.257c-6.491,10.412-13.5,20.631-18,32.071-.45,1.157,1.414,1.671,1.864.514,4.628-11.633,11.89-22.109,18.51-32.714,6.877-11.055,13.818-22.109,20.7-33.228.643-1.028-1.028-1.992-1.671-.9Z" transform="translate(-1473.792 -964.849)" fill="#e8e8e8"/>
        </g>
      </g>
      <g id="Group_2380" data-name="Group 2380" transform="translate(804.828 252.508)">
        <g id="Group_2379" data-name="Group 2379">
          <path id="Path_1375" data-name="Path 1375" d="M1456.1,968.777a69.714,69.714,0,0,0,4.563,18.767c.45,1.157,2.314.643,1.864-.514a68.4,68.4,0,0,1-4.5-18.253c-.129-1.221-2.057-1.285-1.928,0Z" transform="translate(-1456.09 -967.837)" fill="#e8e8e8"/>
        </g>
      </g>
      <g id="Group_2382" data-name="Group 2382" transform="translate(808.432 261.922)">
        <g id="Group_2381" data-name="Group 2381">
          <path id="Path_1376" data-name="Path 1376" d="M1463.37,1004.925a183.959,183.959,0,0,0,20.5-20.76c.771-.964-.579-2.314-1.35-1.35a183.945,183.945,0,0,1-20.5,20.76c-.964.835.45,2.185,1.35,1.35Z" transform="translate(-1461.697 -982.484)" fill="#e8e8e8"/>
        </g>
      </g>
      <g id="Group_2384" data-name="Group 2384" transform="translate(839.122 252.87)">
        <g id="Group_2383" data-name="Group 2383">
          <path id="Path_1377" data-name="Path 1377" d="M1509.8,969.364a88.461,88.461,0,0,0,.386,19.346c.128,1.221,2.056,1.221,1.928,0a88.541,88.541,0,0,1-.385-19.346c.128-1.285-1.8-1.285-1.928,0Z" transform="translate(-1509.448 -968.4)" fill="#e8e8e8"/>
        </g>
      </g>
      <g id="Group_2386" data-name="Group 2386" transform="translate(64.594 0)">
        <g id="Group_2385" data-name="Group 2385">
          <path id="Path_1378" data-name="Path 1378" d="M322.191,620.3a22.193,22.193,0,0,1-15.939-21.338c.129-10.862,9.9-22.431,21.274-22.174,11.955.321,18.382,14.847,17.225,25.323-1.35,12.469-13.754,20.31-25.644,17.032a.967.967,0,0,0-.514,1.864,22.186,22.186,0,0,0,25.066-9.705c5.142-8.677,3.406-20.181-2.057-28.344-5.527-8.227-15.939-10.283-24.488-5.335-8.163,4.82-13.754,14.783-12.6,24.295A24.2,24.2,0,0,0,321.676,622.1a.936.936,0,1,0,.514-1.8Z" transform="translate(-304.364 -574.961)" fill="#e8e8e8"/>
        </g>
      </g>
      <g id="Group_2388" data-name="Group 2388" transform="translate(62.755 92.437)">
        <g id="Group_2387" data-name="Group 2387">
          <path id="Path_1379" data-name="Path 1379" d="M301.758,720.465a11.713,11.713,0,0,0,7.713,4.178,10.039,10.039,0,0,0,4.756-.578c2.442-.836,4.435-2.635,7.263-2.121,3.535.578,6.17,3.021,9.9,2.571,4.049-.45,7.584-3.342,11.826-3.021,3.856.321,7.134,2.957,10.926,3.728,3.342.707,5.463-.514,8.291-1.992,7.263-3.856,15.554,1.028,23.138-1.542,1.157-.386.643-2.25-.514-1.864-6.813,2.25-13.947-1.478-20.824.514-3.792,1.093-6.17,3.921-10.476,2.828-3.278-.835-6.106-2.828-9.448-3.406-3.149-.578-5.913.514-8.805,1.607a15.182,15.182,0,0,1-5.335,1.35c-2.314,0-4.242-1.286-6.3-2.057-2.956-1.093-5.142-.707-7.97.578-4.628,2.121-9.319,2.057-12.79-2.121-.771-.964-2.185.386-1.35,1.35Z" transform="translate(-301.502 -718.784)" fill="#e8e8e8"/>
        </g>
      </g>
      <g id="Group_2390" data-name="Group 2390" transform="translate(112.21 73.941)">
        <g id="Group_2389" data-name="Group 2389">
          <path id="Path_1380" data-name="Path 1380" d="M378.932,693.408c5.077,2.828,10.926-1.35,15.939,1.285,1.992,1.028,3.278,2.7,5.72,2.378,1.992-.257,3.535-1.8,5.077-2.956,3.471-2.7,6.3-2.057,10.091-.514a20.833,20.833,0,0,0,8.548,1.8c6.813-.129,13.561-3.085,20.31-.836,1.157.386,1.671-1.478.514-1.864-5.784-1.928-11.569-.257-17.418.45a19.678,19.678,0,0,1-10.026-.9c-2.7-1.028-5.4-2.571-8.42-2.185-1.992.257-3.471,1.414-5.013,2.635-1.285,1.028-2.507,2.314-4.242,2.314-1.735.064-2.764-1.285-4.242-2.057-5.013-2.764-10.99,1.478-15.939-1.285-1.028-.578-1.992,1.093-.9,1.735Z" transform="translate(-378.449 -690.006)" fill="#e8e8e8"/>
        </g>
      </g>
      <g id="Group_2392" data-name="Group 2392" transform="translate(681.79 29.386)">
        <g id="Group_2391" data-name="Group 2391">
          <path id="Path_1381" data-name="Path 1381" d="M1265.842,628.535c3.856-1.028,6.62-1.028,10.026,1.221a14.957,14.957,0,0,0,5.4,2.314c3.535.643,7.2-.193,10.6-1.093,4.177-1.157,8.419-2.7,12.79-2.7,4.627,0,8.419,3.214,13.111,2.828,8.741-.771,14.2-9.448,23.588-8.42,8.162.9,16.261,6.042,24.295,2.121,1.093-.514.128-2.185-.964-1.671-8.355,4.049-17.418-2.764-26.03-2.442-3.921.129-7.263,1.8-10.6,3.728-4.049,2.442-8.484,5.784-13.561,4.563-2.314-.514-4.306-1.8-6.62-2.314a16.94,16.94,0,0,0-5.4-.193c-3.985.386-7.777,1.735-11.569,2.764-4.435,1.157-9.062,1.992-13.24-.514-1.735-1.093-3.278-2.378-5.335-2.764-2.378-.45-4.756.193-7.006.771-1.157.257-.707,2.121.514,1.8Z" transform="translate(-1264.657 -620.683)" fill="#e8e8e8"/>
        </g>
      </g>
      <g id="Group_2394" data-name="Group 2394" transform="translate(751.478 48.052)">
        <g id="Group_2393" data-name="Group 2393">
          <path id="Path_1382" data-name="Path 1382" d="M1374.572,655.879a12.526,12.526,0,0,1,11.762-.707c2.314,1.028,4.113,2.378,6.749,2.185,5.977-.45,10.091-5.72,16.325-2.892,1.864.836,3.663,1.735,5.785,1.414,2.635-.45,4.5-2.571,6.877-3.471,5.849-2.249,12.469,1.028,18.574-.321,1.221-.257.707-2.121-.514-1.864-6.042,1.285-12.276-1.8-18.253.193-2.764.9-4.885,3.535-7.906,3.535s-5.4-2.442-8.548-2.378c-5.784.129-10.412,5.913-16.325,3.085-5.27-2.571-10.283-3.342-15.618-.257-.964.386,0,2.057,1.093,1.478Z" transform="translate(-1373.083 -649.726)" fill="#e8e8e8"/>
        </g>
      </g>
      <g id="Group_2396" data-name="Group 2396" transform="translate(701.687 147.132)">
        <g id="Group_2395" data-name="Group 2395">
          <path id="Path_1383" data-name="Path 1383" d="M1296.826,806.979c4.114-1.285,7.006-.257,10.733,1.35a10.677,10.677,0,0,0,6.17.643c2.7-.578,5.142-1.864,7.777-2.571,3.985-1.028,6.234,1.157,9.7,2.507,5.142,1.992,9.319-1.671,14.076-2.828,6.042-1.478,11.569,2.828,17.675,1.928,1.221-.193.707-2.057-.514-1.864-5.913.9-11.248-3.342-17.225-1.992-2.828.643-5.27,2.185-8.034,3.021-4.049,1.221-6.363-.964-9.9-2.378-4.82-1.864-9.062,1.221-13.69,2.25-3.342.771-5.592-.9-8.612-1.928a13.811,13.811,0,0,0-8.677.064.936.936,0,1,0,.514,1.8Z" transform="translate(-1295.614 -803.884)" fill="#e8e8e8"/>
        </g>
      </g>
      <path id="Path_1384" data-name="Path 1384" d="M1174.262,1086.011q-129.09,24.68-258.244,49.3Q761.477,1087.1,607,1038.9q206.023.771,411.982,1.478Q1096.686,1063.227,1174.262,1086.011Z" transform="translate(-347.897 -740.719)" fill="#666" opacity="0.22"/>
      <path id="Path_1385" data-name="Path 1385" d="M1076.363,1046.175q-108.844,26.126-217.752,52.253-122.823-37.5-245.711-75.069,166.592-13.979,333.249-27.958Q1011.224,1020.852,1076.363,1046.175Z" transform="translate(-350.005 -725.177)" fill="#666" opacity="0.19"/>
    </g>
    <g id="gift" transform="translate(462.644 380.337)">
      <path id="Path_1386" data-name="Path 1386" d="M606.5,736.5q1.446,96.118,2.957,192.3,122.052,27.573,244.04,55.081-.193-111.254-.45-222.509Q729.741,748.84,606.5,736.5Z" transform="translate(-606.5 -607.033)" fill="#fff" stroke="#161616" stroke-width="2"/>
      <path id="Path_1387" data-name="Path 1387" d="M1169.89,710.2q-.482,106.048-.964,212.1-88.791,26.126-177.647,52.188-.289-112.508-.578-224.951Q1080.263,729.964,1169.89,710.2Z" transform="translate(-743.768 -597.637)" fill="#fff" stroke="#161616" stroke-width="2"/>
      <path id="Path_1388" data-name="Path 1388" d="M851.983,737.436Q730.027,724.806,608.2,712.177L768.815,671.3q131.307,12.629,262.679,25.323Q941.738,716.965,851.983,737.436Z" transform="translate(-607.107 -583.738)" fill="#fff" stroke="#161616" stroke-width="2"/>
      <path id="Path_1389" data-name="Path 1389" d="M976.059,690.442c-20.888-1.414-41.712-2.828-62.6-4.242q-61.7,22.56-123.337,45.119Q789.543,833.607,788.9,935.9c18.446,4.435,36.892,8.805,55.338,13.24Q843.081,843.184,841.86,737.3,908.96,713.965,976.059,690.442Z" transform="translate(-671.668 -589.062)" fill="#161616" stroke="#161616" stroke-width="2"/>
      <path id="Path_1390" data-name="Path 1390" d="M972.3,943.158c17.032-5.206,34.128-10.412,51.16-15.618q-.868-105.952-1.8-211.839Q896.52,700.95,771.319,686.2c-14.461,3.6-28.858,7.2-43.319,10.862q122.438,18.992,244.939,37.92Q972.65,839.1,972.3,943.158Z" transform="translate(-649.91 -589.062)" fill="#161616" stroke="#161616" stroke-width="2"/>
      <path id="Path_1391" data-name="Path 1391" d="M1063.388,543.628c5.913,2.442,6.877,17.739,3.663,29.694-12.34,45.826-92.23,64.4-96.022,57.395-1.607-3.021,12.147-8.741,41.07-37.406C1043.978,561.688,1055.611,540.479,1063.388,543.628Z" transform="translate(-736.695 -538.013)" fill="#fff" stroke="#161616" stroke-width="2"/>
      <path id="Path_1392" data-name="Path 1392" d="M858.4,577.461c1.543,7.263,5.335,15.682,29.694,39.077,16.325,15.682,24.552,23.523,26.866,21.981,4.692-3.214-10.862-34.128-25.644-56.173-7.584-11.312-20.888-31.043-27.637-28.472C856.855,555.673,856.469,568.4,858.4,577.461Z" transform="translate(-696.111 -541.702)" fill="#fff" stroke="#161616" stroke-width="2"/>
      <ellipse id="Ellipse_1369" data-name="Ellipse 1369" cx="17.096" cy="18.06" rx="17.096" ry="18.06" transform="translate(206.505 87.562)" fill="#161616" stroke="#161616" stroke-width="2"/>
      <path id="Path_1393" data-name="Path 1393" d="M954.9,633.358c9.705-9.448,19.539-19.474,29.372-29.951,21.724-23.138,41.07-45.954,58.23-68.064,3.728-.45,11.055-.9,14.14,3.278,4.5,5.977-2.635,17.8-5.977,23.395C1033.633,590.361,979.452,620.5,954.9,633.358Z" transform="translate(-730.977 -535.063)" fill="#161616" stroke="#161616" stroke-width="2"/>
      <path id="Path_1394" data-name="Path 1394" d="M864.7,552.174c2.378-2.185,9.769,2.25,14.14,4.885,36.249,21.788,40.684,73.334,41.391,82.718C890.661,601.6,858.718,557.766,864.7,552.174Z" transform="translate(-698.489 -540.967)" fill="#161616" stroke="#161616" stroke-width="2"/>
      <g id="Group_2398" data-name="Group 2398" transform="translate(12.517 162.245)">
        <g id="Group_2397" data-name="Group 2397">
          <path id="Path_1395" data-name="Path 1395" d="M626.891,789.428c29.308.514,58.744.386,87.988,1.735,29.565,1.35,58.873,5.463,88.052,10.541,16.453,2.892,32.907,6.042,49.361,9.255,1.221.257,1.735-1.607.514-1.864-28.794-5.592-57.652-11.119-86.767-15.04-29.437-3.921-58.873-5.206-88.566-5.72-16.839-.257-33.743-.578-50.582-.836a.965.965,0,0,0,0,1.928Z" transform="translate(-625.975 -787.5)" fill="#161616"/>
        </g>
      </g>
      <g id="Group_2400" data-name="Group 2400" transform="translate(261.962 148.477)">
        <g id="Group_2399" data-name="Group 2399">
          <path id="Path_1396" data-name="Path 1396" d="M1015.252,802.341a1153.534,1153.534,0,0,1,150.267-34.385c1.221-.193.707-2.057-.514-1.864a1158.355,1158.355,0,0,0-150.267,34.385.969.969,0,0,0,.514,1.864Z" transform="translate(-1014.085 -766.078)" fill="#161616"/>
        </g>
      </g>
      <g id="Group_2402" data-name="Group 2402" transform="translate(174.69 272.327)">
        <g id="Group_2401" data-name="Group 2401">
          <path id="Path_1397" data-name="Path 1397" d="M878.3,959.691v58.359a.965.965,0,0,0,1.928,0V959.691a.965.965,0,0,0-1.928,0Z" transform="translate(-878.3 -958.775)" fill="#161616"/>
        </g>
      </g>
      <g id="Group_2404" data-name="Group 2404" transform="translate(181.053 319.004)">
        <g id="Group_2403" data-name="Group 2403">
          <path id="Path_1398" data-name="Path 1398" d="M888.2,1032.364v29.179a.965.965,0,0,0,1.928,0v-29.179a.964.964,0,1,0-1.928,0Z" transform="translate(-888.2 -1031.4)" fill="#161616"/>
        </g>
      </g>
      <g id="Group_2406" data-name="Group 2406" transform="translate(314.096 222.773)">
        <g id="Group_2405" data-name="Group 2405">
          <path id="Path_1399" data-name="Path 1399" d="M1095.2,882.591v46.661a.965.965,0,0,0,1.928,0V882.591a.965.965,0,0,0-1.928,0Z" transform="translate(-1095.2 -881.675)" fill="#161616"/>
        </g>
      </g>
      <g id="Group_2408" data-name="Group 2408" transform="translate(317.566 287.495)">
        <g id="Group_2407" data-name="Group 2407">
          <path id="Path_1400" data-name="Path 1400" d="M1100.6,983.291v31.493a.965.965,0,0,0,1.928,0V983.291a.965.965,0,0,0-1.928,0Z" transform="translate(-1100.6 -982.375)" fill="#161616"/>
        </g>
      </g>
      <g id="Group_2410" data-name="Group 2410" transform="translate(82.653 220.267)">
        <g id="Group_2409" data-name="Group 2409">
          <path id="Path_1401" data-name="Path 1401" d="M735.1,878.691V903.95a.965.965,0,0,0,1.928,0V878.691a.965.965,0,0,0-1.928,0Z" transform="translate(-735.1 -877.775)" fill="#161616"/>
        </g>
      </g>
      <g id="Group_2412" data-name="Group 2412" transform="translate(77.19 252.338)">
        <g id="Group_2411" data-name="Group 2411">
          <path id="Path_1402" data-name="Path 1402" d="M726.6,928.591v20.438a.965.965,0,0,0,1.928,0V928.591a.965.965,0,0,0-1.928,0Z" transform="translate(-726.6 -927.675)" fill="#161616"/>
        </g>
      </g>
      <path id="Path_1403" data-name="Path 1403" d="M1166.2,924q-87.152,26.512-174.3,53.088V755.741q87.634-20.053,175.269-40.041Q1166.783,819.82,1166.2,924Z" transform="translate(-744.197 -599.602)" fill="#666" opacity="0.21"/>
      <path id="Path_1404" data-name="Path 1404" d="M1169.74,960.425q-88.792,24.295-177.518,48.589Q991.643,912.125,991,815.3q39.238,35.96,78.54,71.984,49.746-16.486,99.557-32.971Q1169.483,907.337,1169.74,960.425Z" transform="translate(-743.875 -635.187)" fill="#666" opacity="0.21"/>
      <path id="Path_1405" data-name="Path 1405" d="M1068.673,548.992c-3.149-.643-6.491,21.017-17.482,38.82-9.962,16.132-29.822,35.028-73.591,45.954a127.921,127.921,0,0,0,24.359-4.628c10.476-3.021,54.7-15.875,66.328-50.389C1073.043,564.482,1071.244,549.506,1068.673,548.992Z" transform="translate(-739.088 -540.035)" fill="#666" opacity="0.14"/>
      <path id="Path_1406" data-name="Path 1406" d="M872.4,763.2q27.862,18.9,55.788,37.792c-17.1-2.956-34.128-5.849-51.225-8.805a851.584,851.584,0,0,0,10.091,114.6c4.306,27.444,9.641,52.96,15.554,76.355-9.062-2.507-18.189-5.013-27.251-7.584Q873.91,869.409,872.4,763.2Z" transform="translate(-701.502 -616.573)" fill="#666" opacity="0.2"/>
      <path id="Path_1407" data-name="Path 1407" d="M879.4,754.918q40.973-5.881,82.011-11.762-18.028-2.41-36.056-4.756c-8.291,3.085-15.1,5.206-19.86,6.62a143.982,143.982,0,0,0-14.011,4.435A113.674,113.674,0,0,0,879.4,754.918Z" transform="translate(-704.003 -607.712)" fill="#666" opacity="0.13"/>
    </g>
    <g id="robot_toy" transform="translate(855.216 653.451)">
      <path id="Path_1408" data-name="Path 1408" d="M1222.635,1017.7c-1.8,1.671-3.535,3.406-5.335,5.077l9.255,35.671c2.442-1.221,4.949-2.378,7.391-3.6Q1228.355,1036.242,1222.635,1017.7Z" transform="translate(-1217.3 -980.615)" fill="#161616" stroke="#161616" stroke-width="3"/>
      <path id="Path_1409" data-name="Path 1409" d="M1227.563,991.493c-1.8-.514-3.535-1.028-5.335-1.543-.321-6.17-.707-12.34-1.028-18.51,10.476-3.792,21.017-7.584,31.493-11.44.9.257,1.864.514,2.764.771C1246.2,970.99,1236.882,981.274,1227.563,991.493Z" transform="translate(-1218.693 -960)" fill="#161616" stroke="#161616" stroke-width="3"/>
      <path id="Path_1410" data-name="Path 1410" d="M1230.6,972.155c.257,6.813.578,13.561.835,20.374,8.934-2.571,17.8-5.077,26.737-7.648.128-7.648.257-15.232.45-22.881C1249.239,965.406,1239.919,968.749,1230.6,972.155Z" transform="translate(-1222.052 -960.715)" fill="#fff" stroke="#161616" stroke-width="3"/>
      <path id="Path_1411" data-name="Path 1411" d="M1226,1012.684c11.055-2.828,22.045-5.656,33.1-8.484a74.748,74.748,0,0,0-.45,11.055,71.324,71.324,0,0,0,5.913,25.452c-9.191,3.085-18.382,6.234-27.573,9.319C1233.327,1037.557,1229.663,1025.153,1226,1012.684Z" transform="translate(-1220.408 -975.792)" fill="#fff" stroke="#161616" stroke-width="3"/>
      <g id="Group_2414" data-name="Group 2414" transform="translate(16.956 28.585)">
        <g id="Group_2413" data-name="Group 2413">
          <path id="Path_1412" data-name="Path 1412" d="M1243.693,1005.391a7.782,7.782,0,0,0,.578,3.406c.45,1.157,2.314.643,1.864-.514a7.643,7.643,0,0,1-.514-2.892c.064-1.221-1.864-1.221-1.928,0Z" transform="translate(-1243.681 -1004.475)" fill="#161616"/>
        </g>
      </g>
      <g id="Group_2416" data-name="Group 2416" transform="translate(22.841 27.508)">
        <g id="Group_2415" data-name="Group 2415">
          <path id="Path_1413" data-name="Path 1413" d="M1252.878,1003.764a5.748,5.748,0,0,0,.45,2.956.948.948,0,0,0,1.157.643c.45-.129.9-.707.643-1.157a5.42,5.42,0,0,1-.386-2.442.947.947,0,0,0-.964-.964.934.934,0,0,0-.9.964Z" transform="translate(-1252.838 -1002.8)" fill="#161616"/>
        </g>
      </g>
      <g id="Group_2418" data-name="Group 2418" transform="translate(14.694 74.564)">
        <g id="Group_2417" data-name="Group 2417">
          <path id="Path_1414" data-name="Path 1414" d="M1240.186,1077.226c1.35,6.3,7.391,12.019,12.34,15.875a37.073,37.073,0,0,0,18.7,7.52c1.221.129,1.221-1.8,0-1.928a34.8,34.8,0,0,1-18.189-7.648c-4.371-3.6-9.769-8.741-10.991-14.333-.257-1.221-2.121-.707-1.864.514Z" transform="translate(-1240.162 -1076.014)" fill="#161616"/>
        </g>
      </g>
      <g id="Group_2420" data-name="Group 2420" transform="translate(19.046 72.661)">
        <g id="Group_2419" data-name="Group 2419">
          <path id="Path_1415" data-name="Path 1415" d="M1247.1,1074.5c6.3,9.577,14.654,18.446,26.48,20.374,1.221.193,1.735-1.671.514-1.864-11.376-1.864-19.281-10.284-25.387-19.474a.937.937,0,1,0-1.607.964Z" transform="translate(-1246.934 -1073.052)" fill="#161616"/>
        </g>
      </g>
      <g id="Group_2422" data-name="Group 2422" transform="translate(44.825 83.046)">
        <g id="Group_2421" data-name="Group 2421">
          <path id="Path_1416" data-name="Path 1416" d="M1288.943,1099.487A23.91,23.91,0,0,1,1291,1093.7a17.927,17.927,0,0,0,1.221-2.121c-.578-1.157-.771-1.093-.45.129a18.681,18.681,0,0,1,.257,1.992,29.643,29.643,0,0,1-.193,5.335c-.064.771,0,3.406-.514,3.985s-1.671.514-2.314.578c-1.221.064-1.221,1.992,0,1.928,1.285-.064,2.635.514,3.663-.579,1.028-1.157.836-3.406,1.028-4.82a32.083,32.083,0,0,0,.193-7.455c-.128-1.157-.064-2.764-1.157-3.342a1.024,1.024,0,0,0-.964,0c-2.635,2.057-3.985,6.684-4.692,9.705a.959.959,0,0,0,1.864.45Z" transform="translate(-1287.042 -1089.211)" fill="#161616"/>
        </g>
      </g>
      <g id="Group_2424" data-name="Group 2424" transform="translate(33.834 67.282)">
        <g id="Group_2423" data-name="Group 2423">
          <path id="Path_1417" data-name="Path 1417" d="M1270.172,1066.365a27,27,0,0,0,24.488,9.512c1.221-.193.707-1.992-.514-1.864a24.969,24.969,0,0,1-22.624-9c-.771-.964-2.121.385-1.35,1.35Z" transform="translate(-1269.942 -1064.684)" fill="#161616"/>
        </g>
      </g>
      <g id="Group_2426" data-name="Group 2426" transform="translate(28.667 69.733)">
        <g id="Group_2425" data-name="Group 2425">
          <path id="Path_1418" data-name="Path 1418" d="M1262.158,1070.17a36.69,36.69,0,0,0,28.022,11.762c1.221-.064,1.221-1.992,0-1.928a34.622,34.622,0,0,1-26.673-11.183c-.771-.964-2.185.45-1.35,1.35Z" transform="translate(-1261.902 -1068.497)" fill="#161616"/>
        </g>
      </g>
      <g id="Group_2428" data-name="Group 2428" transform="translate(58.114 67.678)">
        <g id="Group_2427" data-name="Group 2427">
          <path id="Path_1419" data-name="Path 1419" d="M1309.571,1074.876a33.562,33.562,0,0,1,1.157-3.6c.128-.386,1.286-4.049,1.735-4.049a11.019,11.019,0,0,1-.9-.707c.643,1.928.193,4.628,0,6.556a43.653,43.653,0,0,1-1.414,7.006.967.967,0,0,0,1.864.514,42.093,42.093,0,0,0,1.478-7.52c.193-2.121.643-5.013-.064-7.07a1.031,1.031,0,0,0-.9-.707c-2.892.193-4.178,6.877-4.756,9.062a.936.936,0,1,0,1.8.514Z" transform="translate(-1307.719 -1065.3)" fill="#161616"/>
        </g>
      </g>
      <g id="Group_2430" data-name="Group 2430" transform="translate(55.729 81.271)">
        <g id="Group_2429" data-name="Group 2429">
          <path id="Path_1420" data-name="Path 1420" d="M1304.517,1088.217a8.261,8.261,0,0,0,4.82.578c1.221-.193.707-2.057-.514-1.864a6.027,6.027,0,0,1-3.342-.385c-1.093-.514-2.121,1.157-.964,1.671Z" transform="translate(-1304.008 -1086.449)" fill="#161616"/>
        </g>
      </g>
      <g id="Group_2432" data-name="Group 2432" transform="translate(19.193 79.414)">
        <g id="Group_2431" data-name="Group 2431">
          <path id="Path_1421" data-name="Path 1421" d="M1249.05,1087.827a2.762,2.762,0,0,1,3.149-2.314c1.221.129,1.221-1.8,0-1.928a4.651,4.651,0,0,0-5.013,3.728c-.257,1.221,1.607,1.735,1.864.514Z" transform="translate(-1247.162 -1083.559)" fill="#161616"/>
        </g>
      </g>
      <g id="Group_2434" data-name="Group 2434" transform="translate(24.848 85.071)">
        <g id="Group_2433" data-name="Group 2433">
          <path id="Path_1422" data-name="Path 1422" d="M1257.85,1096.693a3.087,3.087,0,0,1,2.442-2.443c1.221-.257.707-2.121-.514-1.864a4.9,4.9,0,0,0-3.792,3.728c-.257,1.285,1.542,1.8,1.864.578Z" transform="translate(-1255.961 -1092.362)" fill="#161616"/>
        </g>
      </g>
      <g id="Group_2436" data-name="Group 2436" transform="translate(30.798 89.506)">
        <g id="Group_2435" data-name="Group 2435">
          <path id="Path_1423" data-name="Path 1423" d="M1267.135,1103.721a3.785,3.785,0,0,1,2.956-2.571c1.221-.257.707-2.121-.514-1.864a5.683,5.683,0,0,0-4.306,3.921c-.386,1.157,1.478,1.671,1.864.514Z" transform="translate(-1265.219 -1099.262)" fill="#161616"/>
        </g>
      </g>
      <g id="Group_2438" data-name="Group 2438" transform="translate(37.073 91.545)">
        <g id="Group_2437" data-name="Group 2437">
          <path id="Path_1424" data-name="Path 1424" d="M1276.921,1102.6a4.4,4.4,0,0,0-1.864,4.5c.193,1.221,2.057.707,1.864-.514a2.449,2.449,0,0,1,.964-2.314c1.028-.707.064-2.378-.964-1.671Z" transform="translate(-1274.981 -1102.434)" fill="#161616"/>
        </g>
      </g>
      <g id="Group_2440" data-name="Group 2440" transform="translate(48.228 85.536)">
        <g id="Group_2439" data-name="Group 2439">
          <path id="Path_1425" data-name="Path 1425" d="M1293.084,1093.738c-1.221,3.278-.578,7.52-.578,10.99a.965.965,0,0,0,1.928,0c0-3.278-.643-7.391.514-10.476.386-1.157-1.478-1.671-1.864-.514Z" transform="translate(-1292.337 -1093.085)" fill="#161616"/>
        </g>
      </g>
      <g id="Group_2442" data-name="Group 2442" transform="translate(36.699 72.461)">
        <g id="Group_2441" data-name="Group 2441">
          <path id="Path_1426" data-name="Path 1426" d="M1276.328,1076.828a2.2,2.2,0,0,1,1.671-2.185.967.967,0,0,0-.514-1.864,4.2,4.2,0,0,0-3.085,4.049.965.965,0,0,0,1.928,0Z" transform="translate(-1274.4 -1072.742)" fill="#161616"/>
        </g>
      </g>
      <g id="Group_2444" data-name="Group 2444" transform="translate(31.653 69.44)">
        <g id="Group_2443" data-name="Group 2443">
          <path id="Path_1427" data-name="Path 1427" d="M1268.317,1071.742a3.494,3.494,0,0,1,2.635-1.864.92.92,0,0,0,.643-1.157.876.876,0,0,0-1.157-.643,5.239,5.239,0,0,0-3.792,2.764c-.514,1.028,1.157,1.992,1.671.9Z" transform="translate(-1266.549 -1068.041)" fill="#161616"/>
        </g>
      </g>
      <g id="Group_2446" data-name="Group 2446" transform="translate(47.107 77.327)">
        <g id="Group_2445" data-name="Group 2445">
          <path id="Path_1428" data-name="Path 1428" d="M1292.461,1083.325a1.322,1.322,0,0,1,.771-1.221c1.093-.578.129-2.249-.964-1.671a3.122,3.122,0,0,0-1.671,2.892c-.064,1.221,1.864,1.221,1.864,0Z" transform="translate(-1290.593 -1080.313)" fill="#161616"/>
        </g>
      </g>
      <g id="Group_2448" data-name="Group 2448" transform="translate(12.324 18.06)">
        <g id="Group_2447" data-name="Group 2447">
          <path id="Path_1429" data-name="Path 1429" d="M1237.391,990.028h3.856a.965.965,0,0,0,0-1.928h-3.856a.965.965,0,0,0,0,1.928Z" transform="translate(-1236.475 -988.1)" fill="#161616"/>
        </g>
      </g>
      <g id="Group_2450" data-name="Group 2450" transform="translate(26.988 11.336)">
        <g id="Group_2449" data-name="Group 2449">
          <path id="Path_1430" data-name="Path 1430" d="M1260.9,982.177l2.892-2.892c.9-.9-.514-2.25-1.35-1.35l-2.892,2.892c-.836.836.514,2.185,1.35,1.35Z" transform="translate(-1259.291 -977.638)" fill="#161616"/>
        </g>
      </g>
      <g id="Group_2452" data-name="Group 2452" transform="translate(20.668 19.572)">
        <g id="Group_2451" data-name="Group 2451">
          <path id="Path_1431" data-name="Path 1431" d="M1250.127,993.7a4.12,4.12,0,0,0,4.692-1.8.965.965,0,0,0-1.671-.964,2.169,2.169,0,0,1-2.507.964.936.936,0,0,0-.514,1.8Z" transform="translate(-1249.457 -990.452)" fill="#161616"/>
        </g>
      </g>
      <path id="Path_1432" data-name="Path 1432" d="M1264.5,1022.52l-10.026,2.892a12.789,12.789,0,0,1-1.285-3.856,12.593,12.593,0,0,1,0-4.435l10.8-2.121a9.956,9.956,0,0,0-.321,4.628A11.242,11.242,0,0,0,1264.5,1022.52Z" transform="translate(-1230.053 -979.651)" fill="#4f4d4d"/>
      <path id="Path_1433" data-name="Path 1433" d="M1241,970.641c.193,6.427.45,12.919.643,19.346,6.62-1.735,13.24-3.406,19.86-5.142.064-7.07.129-14.075.129-21.145C1254.818,966.078,1247.877,968.328,1241,970.641Z" transform="translate(-1225.768 -961.322)" fill="#666" opacity="0.24"/>
      <path id="Path_1434" data-name="Path 1434" d="M1241.5,1013.306c.9,4.37,2.057,9,3.342,13.754a204.393,204.393,0,0,0,7.07,20.953c5.784-1.992,11.5-3.921,17.289-5.913a64.435,64.435,0,0,1-3.856-10.733,63.739,63.739,0,0,1-1.414-24.166C1256.411,1009.192,1248.955,1011.249,1241.5,1013.306Z" transform="translate(-1225.946 -976.864)" fill="#666" opacity="0.24"/>
    </g>
    <g id="hand_r" transform="translate(492.733 123.939)">
      <path id="Path_1435" data-name="Path 1435" d="M693.861,189.908c.257,5.206.707,12.79,1.543,21.852,2.057,22.559,3.278,42.034,8.484,57.459,3.921,11.633,13.176,33.421,36.313,55.338a69.769,69.769,0,0,1-20.7,32.136,156.42,156.42,0,0,1-34.257-49.039c-12.919-29.436-13.24-56.238-13.5-76.1a253.685,253.685,0,0,1,2.571-39.4c-2.314-2.185-5.849-5.592-10.284-9.641-8.1-7.327-11.183-9.705-10.669-10.733.45-.9,3.792-.836,17.675,4.113-11.955-15.361-17.289-23.588-16-24.809,1.157-1.093,7.584,3.535,19.346,13.883-8.741-21.724-10.155-28.215-9-28.794s5.656,4.628,18.253,25.516c-1.992-16.839-1.35-20.631-.321-20.888,1.8-.386,5.784,10.091,6.941,13.24a105.041,105.041,0,0,1,4.949,17.546c10.862-8.548,13.047-7.777,13.561-7.263,1.864,1.671-3.085,10.155-4.306,12.276A55.424,55.424,0,0,1,693.861,189.908Z" transform="translate(-653.315 -136.134)" fill="#fff" stroke="#161616" stroke-width="2"/>
      <path id="Path_1436" data-name="Path 1436" d="M672.9,137.8c-1.093.578,2.956,11.376,8.227,20.567,1.478,2.507,2.378,3.728,10.155,15.425,3.149,4.756,5.72,8.612,7.456,11.183a191.15,191.15,0,0,0-5.335,37.278c-.45,10.669-1.157,31.814,6.3,57.138a162.024,162.024,0,0,0,32.457,59.387l14.847-13.3c-21.274-20.438-30.658-40.941-34.964-52.574-6.106-16.582-7.777-32.521-9.255-46.4a283.57,283.57,0,0,1-1.671-35.607,42.754,42.754,0,0,0,11.762-14.076c.771-1.543,5.013-9.705,2.892-11.5-2.249-1.928-10.412,4.242-13.818,6.877-7.52-24.873-10.541-30.465-11.762-30.208-.707.129-.9,2.185-1.157,5.463a41.124,41.124,0,0,0,1.735,15.554C690.7,163.123,690.7,163.123,672.9,137.8Z" transform="translate(-660.249 -136.729)" fill="#666" opacity="0.15"/>
      <path id="Path_1437" data-name="Path 1437" d="M726.513,189.7a31.8,31.8,0,0,0-18.125,25.066,150.092,150.092,0,0,0,.064,30.4c4.049,39.591,22.624,68.642,34.642,84.132A205.923,205.923,0,0,1,713.53,208.467a71.776,71.776,0,0,0,8.034-10.091A74.242,74.242,0,0,0,726.513,189.7Z" transform="translate(-672.728 -155.272)" fill="#666" opacity="0.2"/>
      <path id="Path_1438" data-name="Path 1438" d="M703.7,197.1" transform="translate(-671.317 -157.916)" fill="#fff" stroke="#161616" stroke-width="2"/>
    </g>
    <g id="hand_l" transform="translate(630.937 143.962)">
      <path id="Path_1439" data-name="Path 1439" d="M880.271,332.41c-4.435,2.057-8.162,3.471-10.348,7.52-4.306,7.905,1.414,18.446,2.828,21.081a35.487,35.487,0,0,0,12.661,13.24,133.574,133.574,0,0,0,47.625-34.642c21.338-24.488,27.508-50.453,30.722-64.4a169.534,169.534,0,0,0,3.921-46.34c3.149-5.463,7.713-13.176,13.561-22.431,5.142-8.227,7.97-12.533,6.877-13.69-.836-.836-4.049-.129-15.425,8.034,4.113-16,5.463-24.295,3.985-24.873-1.414-.514-5.4,5.977-11.955,19.539q1.446-27.765-1.35-28.151c-1.928-.321-5.463,9.769-10.6,30.143-3.021-14.076-5.206-21.017-6.62-20.888-1.671.193-2.185,10.155-1.671,29.822-9.705-5.335-15.232-7.263-16.582-5.656-1.864,2.249,4.37,11.119,18.7,26.737a108.275,108.275,0,0,1-2.057,27.058c-1.157,5.72-9.384,45.954-37.406,61.894C898.074,321.612,889.654,328.039,880.271,332.41Z" transform="translate(-868.345 -167.288)" fill="#fff" stroke="#161616" stroke-width="2"/>
      <path id="Path_1440" data-name="Path 1440" d="M978.913,180.493c-1.028-.321-2.764,5.592-9.833,15.747-1.671,2.442-2.442,3.342-3.085,5.27-1.735,5.592,1.35,9.127,1.221,13.818-.128,3.342-1.864,8.034-9.833,13.69a93.236,93.236,0,0,1,3.278,19.988c1.735,33.1-15.618,57.33-21.66,67.421-5.72,9.576-22.816,34.385-64.4,49.618a17.636,17.636,0,0,0,5.463,9.577,15.773,15.773,0,0,0,6.556,3.535,129.052,129.052,0,0,0,32.907-19.731A131.276,131.276,0,0,0,952.947,317.2c18.189-34.578,18.189-68.321,16.968-85.16,3.663-5.784,6.877-10.862,9.384-14.847,9-14.268,11.826-18.832,10.733-19.924-.578-.578-2.507-.321-8.741,3.921-2.121,1.285-4.242,2.635-6.363,3.921C979.492,185.892,979.813,180.75,978.913,180.493Z" transform="translate(-870.58 -172.002)" fill="#666" opacity="0.16"/>
      <path id="Path_1441" data-name="Path 1441" d="M1010.667,231.9c-14.783,9.062-18.253,16.775-18.575,22.3-.129,2.185.257,2.764.707,7.97,0,0-.386,9.512-.257,21.4.193,16.968-6.813,32.329-15.361,50.967a232.832,232.832,0,0,1-21.081,36.7,145.314,145.314,0,0,0,21.66-27.38c21.981-36.314,21.981-73.334,20.7-91.137C1002.5,245.718,1006.553,238.777,1010.667,231.9Z" transform="translate(-899.698 -190.373)" fill="#666" opacity="0.28"/>
      <path id="Path_1442" data-name="Path 1442" d="M960.7,220.533c14.333,7.327,18.382,8.548,18.832,7.905.386-.643-1.992-3.149-4.178-4.563a31,31,0,0,0-4.563-2.185c-4.37-1.864-5.527-1.992-6.363-1.992A7.6,7.6,0,0,0,960.7,220.533Z" transform="translate(-901.342 -186.011)" fill="#666" opacity="0.11"/>
    </g>
    <g id="leg_r" transform="translate(459.338 428.887)">
      <path id="Path_1443" data-name="Path 1443" d="M663.268,845.255c-.514,3.214,2.442,7.006,8.227,14.654a116,116,0,0,0,7.777,9.127c-2.892,5.206-7.97,16.389-5.463,29.758.771,4.306,2.121,11.44,5.977,12.34,6.684,1.607,16.646-16.582,20.567-25.195a93.732,93.732,0,0,0,7.327-24.745c-6.684-9-13.433-18-20.117-26.994C674.259,835.357,664.1,839.6,663.268,845.255Z" transform="translate(-623.455 -690.49)" fill="#161616" stroke="#161616" stroke-width="2"/>
      <path id="Path_1444" data-name="Path 1444" d="M719.837,628.018c4.242,31.943-2.314,44.54-9.7,49.939-6.684,4.885-13.3,3.278-29.115,7.841a121.436,121.436,0,0,0-31.429,14.333,95.71,95.71,0,0,0,26.48,53.667,33.5,33.5,0,0,1-37.6,18.446c-10.283-9.512-26.094-27.187-33.228-53.217-2.892-10.6-6.427-24.295-1.221-39.591,3.278-9.577,8.355-14.975,18.575-25.773,3.342-3.535,17.932-18.639,43.769-32.393,15.1-8.034,22.752-12.083,31.814-10.219C709.682,613.557,716.816,623.2,719.837,628.018Z" transform="translate(-601.355 -610.602)" fill="#383838"/>
      <path id="Path_1445" data-name="Path 1445" d="M712.22,634.7c-10.412,6.3-24.873,15.489-41.584,27.508-28.922,20.824-42.162,31.943-46.918,43.512-4.628,11.248-1.35,31.815,40.427,72.627a25.527,25.527,0,0,0,9.319-3.985,26.245,26.245,0,0,0,9.319-11.569,97.6,97.6,0,0,1-26.48-53.667c13.111-9.191,24.616-12.983,32.971-14.718,12.469-2.635,22.559-1.607,30.272-9.576,3.921-4.049,5.463-8.677,6.877-12.919a52.276,52.276,0,0,0,1.285-27.894C722.568,641,717.362,637.849,712.22,634.7Z" transform="translate(-608.778 -619.212)" fill="#666" opacity="0.21"/>
      <path id="Path_1446" data-name="Path 1446" d="M729.861,648.586a95.794,95.794,0,0,1-6.813,19.474c-11.44,23.909-30.272,37.149-40.748,43.319a83.764,83.764,0,0,1,21.145-10.219c1.8-.578,3.664-1.093,23.395-6.234,9-2.378,11.569-3.021,14.268-5.592,1.607-1.543,4.242-4.692,6.3-16.132a103.4,103.4,0,0,0,1.35-25Q739.213,648.393,729.861,648.586Z" transform="translate(-630.275 -624.035)" fill="#666" opacity="0.16"/>
      <path id="Path_1447" data-name="Path 1447" d="M674.358,747.7a85.362,85.362,0,0,0,14.461,68.192,28.9,28.9,0,0,0,7.263-5.913,29.625,29.625,0,0,0,4.563-7.006A94.784,94.784,0,0,1,674.358,747.7Z" transform="translate(-626.768 -659.585)" fill="#666" opacity="0.17"/>
    </g>
    <g id="leg_l" transform="translate(504.906 426.766)">
      <path id="Path_1448" data-name="Path 1448" d="M733,837.857c4.242,5.977,8.548,11.89,12.79,17.868-2.314,6.106-8.163,24.166.45,38.434,1.478,2.442,4.113,6.813,7.777,6.877,7.777.129,13.5-19.153,14.654-22.881a75.2,75.2,0,0,0,2.764-28.858c-2.892-18.574-16.389-28.6-25.644-26.544C737.306,824.617,733.45,836.571,733,837.857Z" transform="translate(-693.958 -684.185)" fill="#161616" stroke="#161616" stroke-width="2"/>
      <path id="Path_1449" data-name="Path 1449" d="M790.8,624.718c5.463,34.45-5.656,46.4-9.705,49.939-3.792,3.278-7.456,4.563-27.958,11.376-7.648,2.571-18.9,6.3-32.65,10.8a95.709,95.709,0,0,0,26.48,53.667,33.5,33.5,0,0,1-37.6,18.446c-10.284-9.512-26.094-27.187-33.228-53.217-2.892-10.6-6.427-24.295-1.221-39.591,3.278-9.576,8.355-14.975,18.575-25.773,3.342-3.535,17.932-18.639,43.769-32.393,15.1-8.034,22.752-12.083,31.814-10.219C780.71,610.193,787.78,619.9,790.8,624.718Z" transform="translate(-672.255 -607.302)" fill="#383838"/>
      <path id="Path_1450" data-name="Path 1450" d="M756.255,632.2a102.037,102.037,0,0,1-13.818,27.508c-19.153,26.866-40.748,28.472-46.918,43.512-4.628,11.248-1.35,31.815,40.427,72.627a40.534,40.534,0,0,0,9.062-5.078,39.308,39.308,0,0,0,9.641-10.476,102.745,102.745,0,0,1-15.3-20.631,104.306,104.306,0,0,1-11.89-33.935c14.59-4.949,26.351-8.612,34.193-11.055,15.682-4.756,23.716-6.813,29.951-14.718a39.665,39.665,0,0,0,6.491-13.561,53.587,53.587,0,0,0,1.414-24.873C785.113,638.5,770.716,635.349,756.255,632.2Z" transform="translate(-680 -616.198)" fill="#666" opacity="0.21"/>
      <path id="Path_1451" data-name="Path 1451" d="M797.7,646.021a89.629,89.629,0,0,1-6.813,19.474c-13.24,27.058-36.828,40.3-47.882,45.5,11.183-3.535,21.274-6.749,30.079-9.576,0,0,4.563-1.478,15.747-5.463,14.268-5.142,16.711-6.427,19.153-8.87,4.306-4.37,5.463-9.255,7.2-16.389a70.19,70.19,0,0,0,1.35-25C810.292,645.829,803.994,645.957,797.7,646.021Z" transform="translate(-697.531 -621.021)" fill="#666" opacity="0.16"/>
      <path id="Path_1452" data-name="Path 1452" d="M746.158,745.2a85.362,85.362,0,0,0,14.461,68.192,28.9,28.9,0,0,0,7.263-5.913,29.628,29.628,0,0,0,4.563-7.006A94.784,94.784,0,0,1,746.158,745.2Z" transform="translate(-697.989 -656.571)" fill="#666" opacity="0.17"/>
    </g>
    <g id="torso" transform="translate(536.557 297.731)">
      <path id="Path_1453" data-name="Path 1453" d="M762.891,417.207c-12.469,9.255-18.382,23.459-19.731,26.8a67.777,67.777,0,0,0-4.306,16.968,75,75,0,0,0,.771,23.652A85.781,85.781,0,0,1,721.5,542.6a115.287,115.287,0,0,0,45.761,21.274,113.145,113.145,0,0,0,42.162,1.157,462.346,462.346,0,0,0,15.361-53.217,476.2,476.2,0,0,0,8.677-51.674c-2.764-1.35-10.862-5.592-14.975-14.975-.257-.578-6.17-14.525.386-22.881,3.921-4.949,9.448-4.37,9.448-5.913C828.32,412.258,789.114,397.8,762.891,417.207Z" transform="translate(-721.5 -406.819)" fill="#fff" stroke="#161616" stroke-width="2"/>
      <path id="Path_1454" data-name="Path 1454" d="M796.629,410.177c-1.285,2.314-1.735,8.484-1.735,11.955a45.283,45.283,0,0,0,.835,8.934h0c0,5.72,6.17,34,1.864,60.865-4.949,30.85-21.6,54.631-29.693,64.979a97.665,97.665,0,0,0,28.472,8.227,99.461,99.461,0,0,0,29.5-.707c4.628-13.24,9-27.83,12.854-43.7a476.411,476.411,0,0,0,10.541-60.03c-3.342-2.185-13.883-9.641-16.453-22.559-.707-3.728-1.992-10.026,1.8-15.682a17.946,17.946,0,0,1,10.8-7.2C820.346,405.871,800.1,403.878,796.629,410.177Z" transform="translate(-738.078 -406.537)" fill="#666" opacity="0.13"/>
      <path id="Path_1455" data-name="Path 1455" d="M843.7,462.4a150.531,150.531,0,0,1-2.442,40.62C833.221,543.7,810.34,570.891,798,583.488a81.86,81.86,0,0,0,38.563.643,391.334,391.334,0,0,0,21.274-82.718c1.028-7.2,1.864-14.2,2.442-21.081A42.985,42.985,0,0,1,843.7,462.4Z" transform="translate(-748.832 -426.496)" fill="#666" opacity="0.17"/>
      <path id="Path_1456" data-name="Path 1456" d="M800.9,424.512a18.646,18.646,0,0,0,16,9.962c10.412.257,18.832-8.677,17.61-11.826C833.679,420.463,827.316,419.177,800.9,424.512Z" transform="translate(-749.868 -411.617)" fill="#666" opacity="0.14"/>
    </g>
    <g id="head" transform="translate(552.894 204.685)">
      <path id="Path_1457" data-name="Path 1457" d="M763.874,296.5c-2.057-.193-3.985,10.862-8.42,27.958-6.941,26.93-11.119,33.871-6.749,43.126.771,1.607,3.856,8.034,10.6,10.6,7.07,2.7,17.289.9,22.238-5.142,11.248-13.754-10.99-42.419-15.747-71.6C765.545,300.162,765.031,296.627,763.874,296.5Z" transform="translate(-746.918 -274.175)" fill="#0a0a0a"/>
      <path id="Path_1458" data-name="Path 1458" d="M801.328,398.671a28.106,28.106,0,0,1,.643,10.412,30.381,30.381,0,0,1-1.671,6.749,38.079,38.079,0,0,0,12.083,1.35,36.744,36.744,0,0,0,13.433-3.342,62.853,62.853,0,0,1-2.7-7.07,66.467,66.467,0,0,1-2.7-12.469,16.4,16.4,0,0,1-9.062,5.4A16.716,16.716,0,0,1,801.328,398.671Z" transform="translate(-765.991 -309.118)" fill="#fff" stroke="#161616" stroke-width="2"/>
      <path id="Path_1459" data-name="Path 1459" d="M771.968,298.15c-6.363,16.711-5.913,39.4,6.813,55.6a42.735,42.735,0,0,0,5.206,5.592,52.058,52.058,0,0,0,19.8-1.8,29.681,29.681,0,0,0,9-3.856c7.006-4.692,9.9-11.762,10.99-15.232a6.8,6.8,0,0,0,4.756,1.864c5.784-.386,11.762-11.119,8.227-18.317-1.928-3.921-6.042-5.527-7.713-6.042-1.285-5.077-5.977-20.76-20.76-29.565-3.792-2.249-15.168-9-24.873-4.37C776.981,285.039,774.474,291.595,771.968,298.15Z" transform="translate(-754.433 -268.435)" fill="#fff" stroke="#161616" stroke-width="2"/>
      <g id="Group_2454" data-name="Group 2454" transform="translate(35.755 87.774)">
        <g id="Group_2453" data-name="Group 2453">
          <path id="Path_1460" data-name="Path 1460" d="M803.867,403.968a2.686,2.686,0,0,0-.643.257.952.952,0,0,0,.257,1.864c5.335.514,11.955-3.021,16.261-5.913,1.028-.707.064-2.378-.964-1.671-4.049,2.7-10.283,6.106-15.3,5.656.064.643.193,1.285.257,1.864a2.686,2.686,0,0,0,.643-.257c1.157-.386.643-2.249-.514-1.8Z" transform="translate(-802.549 -398.334)" fill="#161616"/>
        </g>
      </g>
      <g id="Group_2456" data-name="Group 2456" transform="translate(36.053 89.161)">
        <g id="Group_2455" data-name="Group 2455">
          <path id="Path_1461" data-name="Path 1461" d="M804.226,405.639a51.9,51.9,0,0,0,12.019-3.214c1.157-.45.643-2.314-.514-1.864a52.764,52.764,0,0,1-12.019,3.214c-1.221.193-.707,2.057.514,1.864Z" transform="translate(-803.014 -400.492)" fill="#161616"/>
        </g>
      </g>
      <g id="Group_2458" data-name="Group 2458" transform="translate(36.607 91.057)">
        <g id="Group_2457" data-name="Group 2457">
          <path id="Path_1462" data-name="Path 1462" d="M804.791,405.665a12.218,12.218,0,0,0,4.306-.321.967.967,0,0,0-.514-1.864,10.708,10.708,0,0,1-3.792.257c-1.221-.129-1.221,1.8,0,1.928Z" transform="translate(-803.875 -403.442)" fill="#161616"/>
        </g>
      </g>
      <g id="Group_2460" data-name="Group 2460" transform="translate(48.497 58.444)">
        <g id="Group_2459" data-name="Group 2459">
          <path id="Path_1463" data-name="Path 1463" d="M823.291,354.628a.965.965,0,0,0,0-1.928.965.965,0,0,0,0,1.928Z" transform="translate(-822.375 -352.7)" fill="#161616"/>
        </g>
      </g>
      <g id="Group_2462" data-name="Group 2462" transform="translate(53.462 58.316)">
        <g id="Group_2461" data-name="Group 2461">
          <path id="Path_1464" data-name="Path 1464" d="M832.028,353.593v-.129a.964.964,0,1,0-1.928,0v.129a.989.989,0,0,0,.964.964,1.036,1.036,0,0,0,.964-.964Z" transform="translate(-830.1 -352.5)" fill="#161616"/>
        </g>
      </g>
      <g id="Group_2464" data-name="Group 2464" transform="translate(51.454 62.172)">
        <g id="Group_2463" data-name="Group 2463">
          <path id="Path_1465" data-name="Path 1465" d="M827.891,360.428a.965.965,0,0,0,0-1.928.965.965,0,0,0,0,1.928Z" transform="translate(-826.975 -358.5)" fill="#161616"/>
        </g>
      </g>
      <g id="Group_2466" data-name="Group 2466" transform="translate(18.482 54.074)">
        <g id="Group_2465" data-name="Group 2465">
          <path id="Path_1466" data-name="Path 1466" d="M776.591,347.828a.965.965,0,0,0,0-1.928.965.965,0,0,0,0,1.928Z" transform="translate(-775.675 -345.9)" fill="#161616"/>
        </g>
      </g>
      <g id="Group_2468" data-name="Group 2468" transform="translate(23.021 52.66)">
        <g id="Group_2467" data-name="Group 2467">
          <path id="Path_1467" data-name="Path 1467" d="M783.677,345.628a.965.965,0,0,0,0-1.928.965.965,0,0,0,0,1.928Z" transform="translate(-782.737 -343.7)" fill="#161616"/>
        </g>
      </g>
      <g id="Group_2470" data-name="Group 2470" transform="translate(21.905 57.159)">
        <g id="Group_2469" data-name="Group 2469">
          <path id="Path_1468" data-name="Path 1468" d="M781.964,352.628a.965.965,0,0,0,0-1.928.965.965,0,0,0,0,1.928Z" transform="translate(-781 -350.7)" fill="#161616"/>
        </g>
      </g>
      <path id="Path_1469" data-name="Path 1469" d="M766.7,303.629a21.458,21.458,0,0,1-4.306-12.983,21.9,21.9,0,0,1,2.442-9.512c2.892-5.913,7.263-9.127,10.862-11.633,3.342-2.378,9.576-6.749,18.446-7.584,11.762-1.157,20.7,4.628,26.866,8.677a55.182,55.182,0,0,1,18.446,20.053c1.992,3.856,3.021,7.2,4.628,12.212,1.735,5.527,1.735,7.07,4.628,19.8,2.828,12.533,3.214,12.983,2.956,15.747-.771,9.448-6.877,15.811-7.841,16.839-8.612,8.741-19.8,8.291-23.588,8.163-5.142-.193-7.327-1.607-8.162-2.185-5.077-3.664-5.4-10.541-5.4-11.955a28.361,28.361,0,0,0,7.07-5.72,28.786,28.786,0,0,0,6.748-14.075c4.949,1.478,9.9-.45,11.955-4.049,2.892-5.27-1.157-12.919-5.72-13.561-.707-.129-2.635-.193-5.142,1.928a62.889,62.889,0,0,0-12.212-18.446,64.141,64.141,0,0,0-21.66-14.911,37.522,37.522,0,0,0-11.376,7.584A35.553,35.553,0,0,0,766.7,303.629Z" transform="translate(-752.448 -261.767)" fill="#0a0a0a"/>
      <path id="Path_1470" data-name="Path 1470" d="M782.6,363.6" transform="translate(-759.667 -298.15)" fill="#5222d0"/>
      <path id="Path_1471" data-name="Path 1471" d="M817.453,306.2a42.111,42.111,0,0,1,6.556,22.881c-.386,24.809-24.23,38.692-25.709,39.463,1.542.257,16.582,2.635,27.058-8.034a29.055,29.055,0,0,0,7.713-15.232,10.568,10.568,0,0,0,6.363.129c.707-.193,4.82-1.414,6.17-5.27a8.473,8.473,0,0,0,.321-4.242,9.868,9.868,0,0,0-2.25-5.913,6.847,6.847,0,0,0-3.6-2.442c-2.892-.578-5.142,1.543-5.463,1.8a63.129,63.129,0,0,0-7.07-12.533A74.463,74.463,0,0,0,817.453,306.2Z" transform="translate(-765.276 -277.642)" fill="#666" opacity="0.14"/>
      <path id="Path_1472" data-name="Path 1472" d="M821.82,417.7c-1.928-5.463-3.856-10.99-5.72-16.454,3.149-1.028,6.363-2.121,9.512-3.149,1.735,5.656,3.406,11.376,5.142,17.032C827.8,416.032,824.841,416.867,821.82,417.7Z" transform="translate(-771.636 -310.476)" fill="#666" opacity="0.18"/>
      <path id="Path_1473" data-name="Path 1473" d="M835.886,362.6A44.644,44.644,0,0,1,804.2,388.437c1.864.129,13.111.9,21.467-6.042a29.654,29.654,0,0,0,6.941-8.612,38.5,38.5,0,0,0,2.25-6.17A49.952,49.952,0,0,0,835.886,362.6Z" transform="translate(-767.384 -297.793)" fill="#666" opacity="0.21"/>
      <path id="Path_1474" data-name="Path 1474" d="M828.527,417.039c-1.864-5.656-3.663-11.376-5.527-17.032,1.607-.514,3.214-1.093,4.82-1.607,1.735,5.656,3.535,11.312,5.27,16.968C831.612,415.882,830.07,416.46,828.527,417.039Z" transform="translate(-774.101 -310.583)" fill="#666" opacity="0.18"/>
      <g id="Group_2472" data-name="Group 2472" transform="translate(30.818 41.407)">
        <g id="Group_2471" data-name="Group 2471">
          <path id="Path_1475" data-name="Path 1475" d="M799.388,326.84c-1.735,6.877-3.149,13.818-4.306,20.824-.193,1.157-.578,2.507.643,3.149,1.414.771,4.82-.321,6.3-.643,1.221-.257.707-2.121-.514-1.864a13.994,13.994,0,0,1-3.856.707c-1.285-.193-.964.064-.578-1.414.514-2.185.771-4.563,1.221-6.749.9-4.5,1.864-9,2.957-13.433.321-1.221-1.543-1.735-1.864-.578Z" transform="translate(-794.868 -326.191)" fill="#161616"/>
        </g>
      </g>
      <g id="Group_2474" data-name="Group 2474" transform="translate(18.006 44.93)">
        <g id="Group_2473" data-name="Group 2473">
          <path id="Path_1476" data-name="Path 1476" d="M776.133,335.354a6.323,6.323,0,0,1,9.448-.193c.643.707,1.671-.321,1.028-1.028a7.755,7.755,0,0,0-11.5.193c-.578.707.45,1.735,1.028,1.028Z" transform="translate(-774.934 -331.674)" fill="#161616"/>
        </g>
      </g>
      <g id="Group_2476" data-name="Group 2476" transform="translate(44.53 46.724)">
        <g id="Group_2475" data-name="Group 2475">
          <path id="Path_1477" data-name="Path 1477" d="M817.294,337.058a7.317,7.317,0,0,1,10.155,2.25c.514.771,1.735.064,1.221-.707a8.771,8.771,0,0,0-12.147-2.764c-.771.45,0,1.735.771,1.221Z" transform="translate(-816.203 -334.464)" fill="#161616"/>
        </g>
      </g>
      <g id="Group_2478" data-name="Group 2478" transform="translate(22.088 35.201)">
        <g id="Group_2477" data-name="Group 2477">
          <path id="Path_1478" data-name="Path 1478" d="M782.387,318.827a7.239,7.239,0,0,1,7.134.129.706.706,0,1,0,.707-1.221,8.752,8.752,0,0,0-8.612-.129c-.771.386-.064,1.671.771,1.221Z" transform="translate(-781.284 -316.536)" fill="#161616"/>
        </g>
      </g>
      <g id="Group_2480" data-name="Group 2480" transform="translate(45.495 36.31)">
        <g id="Group_2479" data-name="Group 2479">
          <path id="Path_1479" data-name="Path 1479" d="M818.6,319.829a11.3,11.3,0,0,1,8.677,2.185c.771.578,1.478-.707.707-1.221a13,13,0,0,0-9.769-2.378c-.9.193-.514,1.543.386,1.414Z" transform="translate(-817.703 -318.261)" fill="#161616"/>
        </g>
      </g>
      <g id="Group_2482" data-name="Group 2482" transform="translate(25.378 68.107)">
        <g id="Group_2481" data-name="Group 2481">
          <path id="Path_1480" data-name="Path 1480" d="M786.915,373.175a21.021,21.021,0,0,0,20.117-4.242c.707-.578-.321-1.607-1.028-1.028a19.416,19.416,0,0,1-18.7,3.856c-.9-.321-1.286,1.093-.386,1.414Z" transform="translate(-786.403 -367.734)" fill="#161616"/>
        </g>
      </g>
    </g>
  </g>
</svg>
