<svg xmlns="http://www.w3.org/2000/svg" width="24" height="24" viewBox="0 0 24 24">
  <g id="vuesax_bold_layer" data-name="vuesax/bold/layer" transform="translate(-620 -380)">
    <g id="layer">
      <path id="Vector" d="M16.44,2.895,10.58.285a4.143,4.143,0,0,0-3.02,0L1.7,2.895C.22,3.555,0,4.455,0,4.935s.22,1.38,1.7,2.04l5.86,2.61a3.835,3.835,0,0,0,1.51.29,3.835,3.835,0,0,0,1.51-.29l5.86-2.61c1.48-.66,1.7-1.56,1.7-2.04S17.93,3.555,16.44,2.895Z" transform="translate(622.93 381.995)" fill="#242424"/>
      <path id="Vector-2" data-name="Vector" d="M9.68,6.79a2.829,2.829,0,0,1-1.11-.23l-6.74-3A3.3,3.3,0,0,1,0,.74a.74.74,0,0,1,1.48,0A1.815,1.815,0,0,0,2.43,2.2l6.74,3a1.267,1.267,0,0,0,1.01,0l6.74-3A1.8,1.8,0,0,0,17.87.74a.74.74,0,0,1,1.48,0,3.309,3.309,0,0,1-1.83,2.82l-6.74,3A2.745,2.745,0,0,1,9.68,6.79Z" transform="translate(622.32 390.25)" fill="#242424"/>
      <path id="Vector-3" data-name="Vector" d="M9.68,6.79a2.829,2.829,0,0,1-1.11-.23l-6.74-3A3.085,3.085,0,0,1,0,.74a.74.74,0,0,1,1.48,0A1.6,1.6,0,0,0,2.43,2.2l6.74,3a1.267,1.267,0,0,0,1.01,0l6.74-3A1.6,1.6,0,0,0,17.87.74a.74.74,0,0,1,1.48,0,3.1,3.1,0,0,1-1.83,2.82l-6.74,3A2.745,2.745,0,0,1,9.68,6.79Z" transform="translate(622.32 395.21)" fill="#242424"/>
      <path id="Vector-4" data-name="Vector" d="M0,0H24V24H0Z" transform="translate(620 380)" fill="none" opacity="0"/>
    </g>
  </g>
</svg>
