<svg xmlns="http://www.w3.org/2000/svg" width="35.619" height="40" viewBox="0 0 35.619 40">
  <g id="playstore" transform="translate(-0.5)">
    <path id="Path_5787" data-name="Path 5787" d="M1.237,18.855A3.658,3.658,0,0,0,.5,21.075V53.689a3.666,3.666,0,0,0,.641,2.085l17.745-18.51Zm0,0" transform="translate(0 -17.383)" fill="#131a51"/>
    <path id="Path_5788" data-name="Path 5788" d="M52.434,18.187l5.757-6L37.955.5A3.646,3.646,0,0,0,35.129.136Zm0,0" transform="translate(-31.924 0)" fill="#131a51"/>
    <path id="Path_5789" data-name="Path 5789" d="M50.371,276.18l-17.48,18.233a3.63,3.63,0,0,0,1.157.19,3.68,3.68,0,0,0,1.844-.5l20.381-11.767Zm0,0" transform="translate(-29.86 -254.603)" fill="#131a51"/>
    <path id="Path_5790" data-name="Path 5790" d="M289.577,174.81l-5.916-3.416-6.224,6.491,6.369,6.644,5.771-3.332a3.687,3.687,0,0,0,0-6.387Zm0,0" transform="translate(-255.302 -158.005)" fill="#131a51"/>
  </g>
</svg>
