<svg xmlns="http://www.w3.org/2000/svg" width="79.848" height="20.746" viewBox="0 0 79.848 20.746">
  <g id="Group_11216" data-name="Group 11216" transform="translate(19898.719 13652.333)">
    <path id="Path_5791" data-name="Path 5791" d="M-19875.023-13641.587l-.742-.306-14.7-6.048-6.492,3.187-1.762-3.592,8.109-3.979.834.343,14.791,6.085,16.322-6.387.734.295,15.207,6.095,16.326-6.438.816.437,6.707,3.583-1.887,3.527-5.891-3.146-16.084,6.343-15.949-6.392Z" transform="translate(0 10)" fill="#363c6c"/>
    <path id="Path_5792" data-name="Path 5792" d="M-19875.023-13641.587l-.742-.306-14.7-6.048-6.492,3.187-1.762-3.592,8.109-3.979.834.343,14.791,6.085,16.322-6.387.734.295,15.207,6.095,16.326-6.438.816.437,6.707,3.583-1.887,3.527-5.891-3.146-16.084,6.343-15.949-6.392Z" fill="#363c6c"/>
  </g>
</svg>
