<svg xmlns="http://www.w3.org/2000/svg" width="132.296" height="131.992" viewBox="0 0 132.296 131.992">
  <g id="Group_9975" data-name="Group 9975" transform="translate(5361 -15500)">
    <path id="Union_1" data-name="Union 1" d="M51.25,120.683l-18.325,2.53-6.853-17.262L8.79,99.106l2.533-18.3L0,66.071,11.471,51.19l-2.533-18.3,17.282-6.845L33.074,8.78,51.4,11.309,66.148,0l14.9,11.458,18.325-2.53,6.853,17.262,17.282,6.845-2.533,18.3L132.3,66.071,120.675,80.654l2.533,18.3-17.282,6.994-6.853,17.262-18.325-2.53L66,131.992Z" transform="translate(-5361 15500)" fill="#5a9e45"/>
    <g id="Group_9974" data-name="Group 9974" transform="matrix(0.966, -0.259, 0.259, 0.966, -5336.974, 15557.333)">
      <path id="Path_5207" data-name="Path 5207" d="M6.7,27.629V18.406h4.732c6.536,0,9.464-4.531,9.464-9.183C20.892,4.612,17.965,0,11.429,0H0V27.629ZM11.108,5.855c2.206,0,3.008,1.764,3.008,3.368,0,1.644-.8,3.409-3.008,3.409H6.7V5.855ZM38.616,27.629h7.1L35.569,0h-7.3L18.085,27.629h7.178l2.326-6.336h8.7ZM31.88,6.416l2.687,9.1H29.393ZM46.356,27.629h6.7V0h-6.7ZM63.96,5.975H68.17c3.89,0,5.855,3.85,5.855,7.9s-1.965,7.779-5.855,7.779H63.96ZM57.223,27.629H68.17c7.98,0,12.551-5.895,12.551-13.754S76.15,0,68.17,0H57.223Z" transform="translate(0.2 6.767)" fill="#fff"/>
      <path id="Path_5205" data-name="Path 5205" d="M0,0H79.163" transform="translate(0 40.1)" fill="none" stroke="#fff" stroke-width="4"/>
      <path id="Path_5206" data-name="Path 5206" d="M0,0H79.163" transform="translate(0 0)" fill="none" stroke="#fff" stroke-width="4"/>
    </g>
  </g>
</svg>
