<svg xmlns="http://www.w3.org/2000/svg" width="40" height="40" viewBox="0 0 40 40">
  <g id="receipt-item" transform="translate(-300 -188)">
    <path id="Vector" d="M4.033-1h.015A8.322,8.322,0,0,1,9.9,1.438l.008.008a8.342,8.342,0,0,1,2.43,5.887v4.033a5.649,5.649,0,0,1-5.967,5.967H.667A1.667,1.667,0,0,1-1,15.667V4.017A5.031,5.031,0,0,1,4.033-1Zm3.5,4.792A5.007,5.007,0,0,0,4.026,2.333,1.694,1.694,0,0,0,2.333,4.017V14H6.367A2.354,2.354,0,0,0,9,11.367V7.333A5.028,5.028,0,0,0,7.535,3.792Z" transform="translate(326 190.667)" fill="#242424"/>
    <path id="Vector-2" data-name="Vector" d="M7.333-1h20a1.667,1.667,0,0,1,0,3.333A1.669,1.669,0,0,0,25.667,4V32.333a3.342,3.342,0,0,1-3.344,3.332A3.306,3.306,0,0,1,20.34,35l-2.853-2.136L14.7,35.662a3.347,3.347,0,0,1-4.724,0L7.2,32.875a.028.028,0,0,0-.017-.009L4.336,35a3.3,3.3,0,0,1-2,.677A3.342,3.342,0,0,1-1,32.333v-25C-1,2.037,2.037-1,7.333-1ZM22.619,2.333H7.333A4.993,4.993,0,0,0,3.386,3.708,5.439,5.439,0,0,0,2.333,7.333v25h0L5.185,30.2a3.308,3.308,0,0,1,2-.666,3.343,3.343,0,0,1,2.378.989l2.77,2.787.009-.005,2.8-2.8a3.318,3.318,0,0,1,4.351-.3l2.84,2.126,0,0V4A4.978,4.978,0,0,1,22.619,2.333Z" transform="translate(302.667 190.667)" fill="#242424"/>
    <path id="Vector-3" data-name="Vector" d="M5.667,2.333h-5A1.667,1.667,0,0,1,.667-1h5a1.667,1.667,0,0,1,0,3.333Z" transform="translate(314.333 209.017)" fill="#242424"/>
    <path id="Vector-4" data-name="Vector" d="M5.667,2.333h-5A1.667,1.667,0,0,1,.667-1h5a1.667,1.667,0,0,1,0,3.333Z" transform="translate(314.333 202.35)" fill="#242424"/>
    <path id="Vector-5" data-name="Vector" d="M0,0H40V40H0Z" transform="translate(300 188)" fill="none" opacity="0"/>
    <path id="Vector-6" data-name="Vector" d="M.682,2.333H.667A1.667,1.667,0,1,1,.667-1H.682a1.667,1.667,0,0,1,0,3.333Z" transform="translate(309.326 209)" fill="#242424"/>
    <path id="Vector-7" data-name="Vector" d="M.682,2.333H.667A1.667,1.667,0,1,1,.667-1H.682a1.667,1.667,0,0,1,0,3.333Z" transform="translate(309.326 202.333)" fill="#242424"/>
  </g>
</svg>
