<svg id="arrow-right" xmlns="http://www.w3.org/2000/svg" width="18" height="18" viewBox="0 0 18 18">
  <path id="Vector" d="M-.187,12.255a.561.561,0,0,1-.4-.165.563.563,0,0,1,0-.8L4.3,6.4a.923.923,0,0,0,0-1.3L-.585.21a.563.563,0,0,1,0-.8.563.563,0,0,1,.8,0L5.1,4.3a2.05,2.05,0,0,1,0,2.9L.21,12.09A.561.561,0,0,1-.187,12.255Z" transform="translate(6.87 3.247)" fill="#242424"/>
  <path id="Vector-2" data-name="Vector" d="M0,0H18V18H0Z" transform="translate(18 18) rotate(180)" fill="none" opacity="0"/>
</svg>
