<svg id="Send" xmlns="http://www.w3.org/2000/svg" width="30" height="30" viewBox="0 0 30 30">
  <path id="Path_4279" data-name="Path 4279" d="M29.153.873a2.9,2.9,0,0,0-2.9-.755L2.112,7.139A2.879,2.879,0,0,0,.037,9.421a3.38,3.38,0,0,0,1.5,3.154l7.55,4.64a1.957,1.957,0,0,0,2.414-.29l8.645-8.7a1.1,1.1,0,0,1,1.591,0,1.144,1.144,0,0,1,0,1.6l-8.66,8.7a1.985,1.985,0,0,0-.29,2.428L17.4,28.581A2.865,2.865,0,0,0,19.894,30a3.117,3.117,0,0,0,.375-.015A2.924,2.924,0,0,0,22.715,27.9L29.873,3.787a2.946,2.946,0,0,0-.72-2.914" transform="translate(0 0)" fill="#fff"/>
</svg>
