<svg xmlns="http://www.w3.org/2000/svg" width="24" height="24" viewBox="0 0 24 24">
  <g id="vuesax_bold_setting-3" data-name="vuesax/bold/setting-3" transform="translate(-364 -190)" opacity="0.5">
    <g id="setting-3">
      <path id="Vector" d="M14.19,0H5.81C2.17,0,0,2.17,0,5.81v8.37C0,17.83,2.17,20,5.81,20h8.37c3.64,0,5.81-2.17,5.81-5.81V5.81C20,2.17,17.83,0,14.19,0ZM5.67,3.5a.75.75,0,0,1,1.5,0V7.4a.75.75,0,0,1-1.5,0Zm1.5,11.06V16.5a.75.75,0,0,1-1.5,0V14.56a2.73,2.73,0,1,1,1.5,0Zm7.16,1.94a.75.75,0,0,1-1.5,0V12.6a.75.75,0,0,1,1.5,0Zm-.75-5.73a2.721,2.721,0,0,1-.75-5.34V3.5a.75.75,0,1,1,1.5,0V5.44a2.717,2.717,0,0,1-.75,5.33Z" transform="translate(366 192)" fill="#51459e"/>
      <path id="Vector-2" data-name="Vector" d="M0,0H24V24H0Z" transform="translate(388 214) rotate(180)" fill="none" opacity="0"/>
    </g>
  </g>
</svg>
