<svg xmlns="http://www.w3.org/2000/svg" width="40" height="40" viewBox="0 0 40 40">
  <g id="vuesax_linear_shield-tick" data-name="vuesax/linear/shield-tick" transform="translate(-300 -188)">
    <g id="shield-tick" transform="translate(300 188)">
      <path id="Vector" d="M14.988-1A9.387,9.387,0,0,1,18.1-.512l.014.005L26.435,2.61A7.458,7.458,0,0,1,31,9.2V21.588a9.8,9.8,0,0,1-3.552,7.068L20.28,34.006A8.815,8.815,0,0,1,15,35.663,8.818,8.818,0,0,1,9.715,34L2.553,28.656A9.8,9.8,0,0,1-1,21.588V9.2A7.446,7.446,0,0,1,3.566,2.626L11.879-.505A9.163,9.163,0,0,1,14.988-1Zm1.968,3.618a6.129,6.129,0,0,0-1.968-.284,5.893,5.893,0,0,0-1.938.282L4.738,5.747A4.15,4.15,0,0,0,2.333,9.2V21.588a6.5,6.5,0,0,0,2.214,4.4l7.166,5.349A5.557,5.557,0,0,0,15,32.329a5.554,5.554,0,0,0,3.282-.991l7.171-5.353a6.5,6.5,0,0,0,2.214-4.4V9.2a4.163,4.163,0,0,0-2.4-3.472Z" transform="translate(5.017 2.662)" fill="#5a9e45"/>
      <path id="Vector-2" data-name="Vector" d="M3.35,9.5a1.661,1.661,0,0,1-1.179-.488L-.512,6.329A1.667,1.667,0,1,1,1.845,3.971l1.5,1.5L9.338-.512A1.667,1.667,0,0,1,11.7,1.845L4.529,9.012A1.661,1.661,0,0,1,3.35,9.5Z" transform="translate(14.417 14.633)" fill="#5a9e45"/>
      <path id="Vector-3" data-name="Vector" d="M0,0H40V40H0Z" transform="translate(40 40) rotate(180)" fill="none" opacity="0"/>
    </g>
  </g>
</svg>
